<?xml version="1.0" encoding="utf-8"?>
<!-- Generator: Adobe Illustrator 24.3.0, SVG Export Plug-In . SVG Version: 6.00 Build 0)  -->
<svg version="1.1" id="Layer_1" xmlns="http://www.w3.org/2000/svg" xmlns:xlink="http://www.w3.org/1999/xlink" x="0px" y="0px"
	 width="313.3px" height="56.6px" viewBox="0 0 313.3 56.6" style="enable-background:new 0 0 313.3 56.6;" xml:space="preserve">
<style type="text/css">
	.st0{fill:#112E55;}
</style>
<g id="Group_5620" transform="translate(3533 631)">
	<g id="Group_4378" transform="translate(-3281.736 -630.503)">
		<path id="Path_929" class="st0" d="M10,10L10,10v0.9h0.1c5.3,1.4,7,7.2,7,13.3H18c0-2.4,0.1-5.7,1.3-5.7c0.4,0,0.9,0.3,1.6,1
			c0.1,0.1,14.4,16,23,25.4L44,45h1V30.8h-1V33c0,1.3-0.3,1.8-0.7,1.8c-0.6,0-1.5-0.9-2.3-1.8c-5.5-5.7-19.7-22.2-20.5-23H10z"/>
	</g>
	<g id="Group_4379" transform="translate(-3254.806 -630.503)">
		<path id="Path_930" class="st0" d="M25.1,10H10v0.9c5.4,1.4,7.1,7.2,7.1,13.3H18c0-6.2,1.7-11.9,7.1-13.3V10z"/>
	</g>
	<g id="Group_4380" transform="translate(-3281.736 -609.717)">
		<path id="Path_931" class="st0" d="M10,24.3h15.1v-0.9C19.8,21.9,18,16.2,18,10h-0.9c0,6.2-1.7,11.9-7.1,13.3V24.3z"/>
	</g>
	<g id="Group_4381" transform="translate(-3325.313 -630.494)">
		<path id="Path_932" class="st0" d="M25.5,42.6c-1.4-1-2.3-2.2-2.6-5c-0.2-2-0.2-4.6-0.2-7.8V10H10v0.9h0.2
			c6.4,1.1,6.5,3.7,6.5,17.1c0,4.3,0,11.5-1.8,13.8c-1.1,1.2-2.4,1.9-4,2.3h-0.2V45h19.4v-1h-0.2C28.4,43.9,26.9,43.5,25.5,42.6"/>
	</g>
	<g id="Group_4382" transform="translate(-3310.073 -630.495)">
		<path id="Path_933" class="st0" d="M19.5,20.6c0,1.8-0.4,3.5-1,5.1l-0.1,0.1l0.6,0.5h0.1c4.4-1.6,6.7-4.4,6.7-8.1
			c0-7.3-7.5-8.3-14-8.3H10v1C15.2,11.2,19.4,15.4,19.5,20.6"/>
	</g>
	<g id="Group_4383" transform="translate(-3365.624 -631)">
		<path id="Path_934" class="st0" d="M17,27.4c-0.1-6.8,3.4-13.1,9.3-16.5v-1h-0.1C18.1,10.9,10,17,10,28.3C10,39,18.3,45.2,26.4,46
			v-1.3C20.4,41,16.8,34.4,17,27.4"/>
	</g>
	<g id="Group_4384" transform="translate(-3346.169 -631)">
		<path id="Path_935" class="st0" d="M19.4,27.4c0.1-6.8-3.4-13.1-9.3-16.5v-1h0.1c8.1,1,16.2,7.1,16.2,18.4
			C26.4,39,18.1,45.2,10,46v-1.3C16,41,19.5,34.4,19.4,27.4"/>
	</g>
	<g id="Group_4385" transform="translate(-3385.792 -630.864)">
		<path id="Path_936" class="st0" d="M21,23.1l0.1,0.1l1-0.1v-0.2c-0.3-2.1-0.4-4-0.5-5.6c-0.1-1.9-0.2-3.5-0.5-5v-0.1H21
			c-3.5-1.5-7.2-2.2-11-2.2v0.9C14.8,13.8,18.6,18,21,23.1"/>
	</g>
	<g id="Group_4386" transform="translate(-3384.736 -605.279)">
		<path id="Path_937" class="st0" d="M20.7,10.1c-2.5,4.2-6.2,7.4-10.7,9.3v0.9c3.5-0.2,7-1,10.3-2.4h0.1v-0.1c0.2-1,0.5-2.5,0.7-4
			c0.2-1.3,0.4-2.6,0.6-3.4v-0.2L20.7,10.1L20.7,10.1z"/>
	</g>
	<g id="Group_4387" transform="translate(-3405.273 -630.778)">
		<path id="Path_938" class="st0" d="M17,27.3c-0.1-6.8,3.6-13.1,9.5-16.4V10C16.8,11.5,10,18.9,10,28.3c0,9.9,7.5,17.4,17.5,17.6
			V45C21,41.4,17,34.7,17,27.3"/>
	</g>
	<g id="Group_4388" transform="translate(-3308.203 -612.255)">
		<path id="Path_939" class="st0" d="M33.6,25.9C27,25.9,19.1,13.5,16.9,10H10c8,14.8,12.8,17.8,17.9,17.8c1.9,0,3.9-0.3,5.7-1h0.1
			L33.6,25.9L33.6,25.9z"/>
	</g>
	<g id="Group_4389" transform="translate(-3493.788 -630.503)">
		<path id="Path_940" class="st0" d="M25.1,10H10v0.9c5.4,1.4,7.1,7.2,7.1,13.3H18c0-6.2,1.7-11.9,7.1-13.3V10z"/>
	</g>
	<g id="Group_4390" transform="translate(-3518.914 -630.503)">
		<path id="Path_941" class="st0" d="M31.7,41.8c-2.4,0.1-4.8-0.7-6.7-2.2c-3.4-3-2.9-8-3-14.1c0-0.7,0-1.4,0-2.1
			c0-7.7,0.4-10.7,5.5-12.4h0.1v-1H10v0.9c5.7,1.9,6,5.2,6,12.5c0,0.8,0,1.6,0,2.4c0,2.1-0.1,6.4-0.1,7.2c0,7.9,5.4,12.7,14.1,12.7
			c9.4,0,13.2-5.8,13.2-15h-0.9C42.2,37.1,38.2,41.8,31.7,41.8"/>
	</g>
	<g id="Group_4391" transform="translate(-3428.068 -630.503)">
		<path id="Path_942" class="st0" d="M10,10.9h0.2c6.2,1.2,5.9,5.1,5.9,15.7c0,11.7,0.3,15.9-5.8,17.4h-0.1v0.9h17.9V44H28
			c-6-1.5-5.8-5.7-5.8-17.4c0-10.6-0.2-14.4,6-15.6h0.2v-1H10V10.9z"/>
	</g>
	<g id="Group_4392" transform="translate(-3474.275 -630.503)">
		<path id="Path_943" class="st0" d="M10,10L10,10v0.9h0.1c5.3,1.4,7,7.2,7,13.3H18c0-2.4,0.1-5.7,1.3-5.7c0.4,0,0.9,0.3,1.6,1
			c0.1,0.1,14.4,16,23,25.4L44,45h1V30.8h-1V33c0,1.3-0.3,1.8-0.7,1.8c-0.6,0-1.5-0.9-2.3-1.8c-5.5-5.7-19.7-22.2-20.5-23H10z"/>
	</g>
	<g id="Group_4393" transform="translate(-3447.345 -630.503)">
		<path id="Path_944" class="st0" d="M25.1,10H10v0.9c5.4,1.4,7.1,7.2,7.1,13.3H18c0-6.2,1.7-11.9,7.1-13.3V10z"/>
	</g>
	<g id="Group_4394" transform="translate(-3474.275 -609.717)">
		<path id="Path_945" class="st0" d="M10,24.3h15.1v-0.9C19.8,21.9,18,16.2,18,10h-0.9c0,6.2-1.7,11.9-7.1,13.3V24.3z"/>
	</g>
	<path id="Path_947" class="st0" d="M-3522.9-612.6h7v-1.3h-7V-612.6z"/>
	<path id="Path_948" class="st0" d="M-3522.9-591.2v5.7h1.2v-2.2h5.8v-1.3h-5.8v-2.2H-3522.9z"/>
	<path id="Path_949" class="st0" d="M-3522.9-598.4v1.3h2.9v3.3h-2.9v1.3h7v-1.3h-2.9v-3.3h2.9v-1.3H-3522.9z"/>
	<path id="Path_950" class="st0" d="M-3522.9-600.4h7v-1.3h-7V-600.4z"/>
	<g id="Group_4398" transform="translate(-3533 -618.594)">
		<path id="Path_951" class="st0" d="M15.1,10L15.1,10c-1.1,0-1.7,0.7-2.1,2.3c-0.3,1.3-0.5,1.6-1.1,1.6l0,0c-0.5,0-0.8-0.4-0.8-1.1
			c0-0.7,0.3-1.3,0.7-1.9l0,0l-1-0.7l0,0c-0.6,0.7-0.9,1.6-0.9,2.6c-0.1,1.2,0.7,2.3,1.9,2.4c0.1,0,0.1,0,0.2,0l0,0
			c1.3,0,1.7-0.8,2.1-2.3c0.3-1.3,0.6-1.6,1-1.6l0,0c0.5,0,0.8,0.5,0.8,1.2c0,0.8-0.3,1.6-0.9,2.2l0,0l0.9,0.8l0,0
			c0.7-0.8,1.1-1.8,1.1-2.9C17.3,11,16.4,10,15.1,10"/>
	</g>
	<g id="Group_4399" transform="translate(-3533 -630.837)">
		<path id="Path_952" class="st0" d="M12.1,15.2L12.1,15.2c1.3,0,1.8-0.8,2.1-2.3c0.3-1.3,0.6-1.6,1-1.6l0,0c0.5,0,0.8,0.5,0.8,1.2
			c0,0.8-0.3,1.6-0.9,2.2l0,0l0.9,0.8l0,0c0.7-0.8,1.1-1.8,1.1-2.9c0-1.5-0.8-2.5-2.1-2.5l0,0c-1.1,0-1.7,0.7-2.1,2.3
			c-0.3,1.3-0.5,1.6-1.1,1.6l0,0c-0.5,0-0.8-0.4-0.8-1.1c0-0.7,0.3-1.3,0.7-1.9l0,0l-1-0.7l0,0c-0.6,0.7-0.9,1.6-0.9,2.6
			c-0.1,1.2,0.7,2.3,1.9,2.4C12,15.2,12,15.2,12.1,15.2"/>
	</g>
</g>
</svg>
