<?xml version="1.0" encoding="utf-8"?>
<!-- Generator: Adobe Illustrator 24.3.0, SVG Export Plug-In . SVG Version: 6.00 Build 0)  -->
<svg version="1.1" id="Layer_1" xmlns="http://www.w3.org/2000/svg" xmlns:xlink="http://www.w3.org/1999/xlink" x="0px" y="0px"
	 width="516.3px" height="137px" viewBox="0 0 516.3 137" style="enable-background:new 0 0 516.3 137;" xml:space="preserve">
<style type="text/css">
	.st0{fill:#FF9E18;}
	.st1{fill:#323E48;}
</style>
<g>
	<path class="st0" d="M142,87.5c-11.6,4.9-24.2,7.3-35.7,7.3c-17,0-33.5-4.7-46.8-12.4c-1.2-0.7-2,0.5-1.1,1.4
		c12.4,11.2,28.7,17.8,46.8,17.8c12.9,0,28-4.1,38.3-11.7C145.2,88.7,143.8,86.8,142,87.5"/>
	<path class="st0" d="M135.5,83.2c-0.9,0.6-0.8,1.5,0.3,1.4c3.3-0.4,10.8-1.3,12.1,0.4c1.3,1.7-1.5,8.7-2.7,11.8
		c-0.4,0.9,0.4,1.3,1.3,0.6c5.6-4.6,7-14.4,5.9-15.8C151.1,80.3,141.4,79.1,135.5,83.2"/>
	<path class="st1" d="M155.8,71.4c-3.2-1.8-6.9-2.3-10.3-2.2l9.4-13.4c0.9-1.2,1.4-2,1.4-2.6l0-3.5c0-0.6-0.5-1-1-1l-18.1,0
		c-0.6,0-1,0.4-1,1v4.1c0,0.6,0.5,1,1,1h9.5l-10.9,15.6c-0.7,1-0.7,2.1-0.7,2.8l0,4.1c0,0.6,0.7,1.3,1.3,0.9c6.2-3.3,13.6-3,19.2,0
		c0.7,0.4,1.3-0.3,1.3-0.9V73C156.7,72.4,156.5,71.8,155.8,71.4"/>
	<path class="st1" d="M64.3,79.1h5.5c0.6,0,1.1-0.4,1.1-1l0-15c0-3.3-0.2-7.8,3.8-7.8c3.9,0,3.4,4.7,3.4,7.8l0,15c0,0.5,0.4,1,1,1
		h5.5c0.6,0,1.1-0.4,1.1-1l0-15c0-1.6-0.1-4,0.5-5.4c0.6-1.4,2-2.3,3.3-2.3c1.6,0,2.8,0.5,3.2,2.4c0.3,1.1,0.2,4.1,0.2,5.3l0,15
		c0,0.5,0.4,1,1,1h5.5c0.6,0,1.1-0.5,1.1-1l0-17.9c0-3,0.4-6.5-1.4-8.9c-1.5-2.1-4.1-3.1-6.4-3.1c-3.3,0-6.3,1.7-7.6,5.3
		c-1.5-3.6-3.7-5.3-7.2-5.3c-3.4,0-5.9,1.7-7.3,5.3l-0.1,0l0-3.7c0-0.5-0.5-0.9-1-1h-5.1c-0.6,0-1.1,0.5-1.1,1l0,28.3
		C63.3,78.7,63.8,79.1,64.3,79.1"/>
	<path class="st1" d="M171.8,48.2c-8,0-12.4,6.9-12.4,15.7c0,8.8,4.4,15.8,12.4,15.8c7.7,0,12.6-6.9,12.6-15.5
		C184.4,55.2,180,48.2,171.8,48.2 M171.8,73.8c-4.3,0-4.3-7.4-4.3-10.8c0-3.5,0.3-9,4.3-9c1.8,0,3,0.8,3.6,2.7
		c0.7,2.3,0.8,5.1,0.8,7.5C176.3,67.9,176.1,73.8,171.8,73.8"/>
	<path class="st1" d="M209.8,51.6c-1.5-2.4-4-3.3-6.4-3.3c-3.8,0-6,1.8-7.5,5.7h-0.1v-4.3c-0.1-0.4-0.5-0.8-1-0.8h-5.1
		c-0.6,0-1,0.4-1.1,0.9l0,28.3c0,0.5,0.4,1,1,1h5.5c0.6,0,1.1-0.4,1.1-1V62.8c0-1.9,0.1-3.6,0.9-5.4c0.6-1.4,1.9-2.3,3.2-2.3
		c3.8,0,3.5,4.5,3.5,7.6l0,15.4c0.1,0.5,0.5,0.9,1,0.9h5.5c0.5,0,1-0.4,1.1-0.9V60.4C211.2,57.6,211.2,53.8,209.8,51.6"/>
	<path class="st1" d="M121.5,59.9c-3.2,0.4-7.4,0.6-10.4,1.9c-3.5,1.5-5.9,4.5-5.9,9c0,5.7,3.6,8.6,8.3,8.6c3.9,0,6.1-0.9,9.1-4
		c1,1.5,1.3,2.2,3.2,3.7c0.4,0.2,0.9,0.2,1.3-0.1l0,0c1.1-1,3.1-2.7,4.2-3.7c0.4-0.4,0.4-1,0-1.5c-1-1.4-2.1-2.5-2.1-5.1v-8.6
		c0-3.6,0.3-7-2.4-9.5c-2.1-2-5.6-2.7-8.3-2.7c-5.2,0-11.1,2-12.3,8.4c-0.1,0.7,0.4,1,0.8,1.1l5.3,0.6c0.5,0,0.9-0.5,1-1
		c0.5-2.2,2.3-3.3,4.4-3.3c1.1,0,2.4,0.4,3.1,1.4c0.8,1.1,0.7,2.7,0.7,4V59.9z M120.5,71.4c-0.9,1.6-2.3,2.5-3.8,2.5
		c-2.1,0-3.4-1.6-3.4-4c0-4.7,4.2-5.6,8.2-5.6v1.2C121.5,67.7,121.6,69.5,120.5,71.4"/>
	<path class="st1" d="M59,73.9c-1-1.4-2.1-2.5-2.1-5.1v-8.6c0-3.6,0.3-7-2.4-9.5c-2.1-2-5.6-2.7-8.3-2.7c-5.2,0-11.1,2-12.3,8.4
		c-0.1,0.7,0.4,1,0.8,1.1l5.3,0.6c0.5,0,0.9-0.5,1-1c0.5-2.2,2.3-3.3,4.4-3.3c1.1,0,2.4,0.4,3.1,1.4c0.8,1.1,0.7,2.7,0.7,4v0.7
		c-3.2,0.4-7.4,0.6-10.4,1.9c-3.5,1.5-5.9,4.5-5.9,9c0,5.7,3.6,8.6,8.3,8.6c3.9,0,6.1-0.9,9.1-4c1,1.4,1.3,2.2,3.2,3.7
		c0.4,0.2,0.9,0.2,1.3-0.1l0,0c1.1-1,3.1-2.7,4.2-3.7C59.4,75,59.3,74.4,59,73.9 M49.2,65.6c0,2.1,0.1,3.9-1,5.8
		c-0.9,1.6-2.3,2.5-3.8,2.5c-2.1,0-3.4-1.6-3.4-4c0-4.7,4.2-5.6,8.2-5.6V65.6z"/>
	<path class="st0" d="M226.5,79.9c-2.8,0-5.1-0.8-6.8-2.4c-1.7-1.6-2.5-3.8-2.5-6.5c0-2.9,1-5.2,3.1-7c2.1-1.7,4.9-2.6,8.4-2.6
		c2.2,0,4.7,0.3,7.5,1v-3.9c0-2.1-0.5-3.2-1.5-4.1c-1-0.9-2.6-1.3-5-1.3c-2.7,0-5.4,0.4-8.1,1.2c-0.9,0.3-1.5,0.4-1.7,0.4
		c-0.5,0-0.7-0.4-0.7-1.1V52c0-0.5,0.1-0.9,0.2-1.1c0.2-0.2,0.5-0.5,1-0.7c1.2-0.6,2.8-1,4.7-1.3c1.9-0.3,3.8-0.5,5.6-0.5
		c3.8,0,6.6,0.8,8.4,2.4c1.8,1.6,2.7,4,2.7,7.2v20c0,0.8-0.4,1.2-1.2,1.2H238c-0.8,0-1.2-0.4-1.3-1.1l-0.3-2c-1.4,1.2-3,2.2-4.7,2.9
		C229.9,79.5,228.2,79.9,226.5,79.9 M227.9,75.4c1.3,0,2.7-0.3,4.1-0.8c1.4-0.5,2.8-1.3,4.1-2.3v-6.1c-2.1-0.5-4.3-0.8-6.3-0.8
		c-4.5,0-6.7,1.7-6.7,5.2c0,1.5,0.4,2.7,1.3,3.5C225.2,75,226.4,75.4,227.9,75.4"/>
	<path class="st0" d="M257.9,79.7c-2.6,0-4.9-0.7-6.8-2c-1.9-1.3-3.4-3.1-4.4-5.5c-1-2.3-1.5-5.1-1.5-8.2c0-3.3,0.5-5.7,1.6-8.2
		c1.1-2.4,2.6-4.3,4.5-5.6c1.9-1.3,4.2-1.9,6.7-1.9c3.4,0,6.4,1.1,9.1,3.3V36.6c0-0.8,0.4-1.2,1.2-1.2h3.5c0.8,0,1.2,0.4,1.2,1.2
		v41.3c0,0.8-0.4,1.2-1.2,1.2h-2.6c-0.4,0-0.6-0.1-0.9-0.2c-0.2-0.2-0.4-0.5-0.5-1l-0.5-1.9c-1.3,1.2-2.8,2.1-4.5,2.8
		C261.3,79.4,259.6,79.7,257.9,79.7 M259.7,75c2.5,0,5-0.9,7.5-2.7V55.8c-1.2-0.9-2.5-1.6-3.7-2c-1.3-0.4-2.6-0.6-4.1-0.6
		c-5.4,0-8.1,3.3-8.1,10.8C251.2,71.3,254,75,259.7,75"/>
	<path class="st0" d="M288.2,79.1c-0.6,0-1-0.1-1.2-0.2c-0.3-0.2-0.5-0.6-0.8-1.4L275.7,51c-0.1-0.2-0.2-0.5-0.3-0.7
		c-0.1-0.2-0.1-0.5-0.1-0.7c0-0.5,0.3-0.8,0.9-0.8h3.5c0.6,0,1,0.1,1.3,0.2c0.2,0.2,0.5,0.6,0.8,1.4l8.2,23.3l8.2-23.3
		c0.3-0.8,0.5-1.2,0.8-1.4c0.2-0.2,0.7-0.2,1.3-0.2h3.3c0.6,0,0.9,0.3,0.9,0.8c0,0.2-0.1,0.4-0.1,0.7c-0.1,0.2-0.2,0.5-0.3,0.7
		l-10.5,26.5c-0.3,0.8-0.5,1.2-0.8,1.4c-0.3,0.2-0.7,0.2-1.2,0.2H288.2z"/>
	<path class="st0" d="M318.7,80c-4.9,0-8.6-1.4-11.1-4.1c-2.5-2.7-3.8-6.7-3.8-12c0-5.1,1.3-9,3.8-11.8c2.5-2.8,6-4.2,10.5-4.2
		c3.8,0,6.7,1.1,8.7,3.2c2,2.1,3,5.1,3,9c0,1.3-0.1,2.6-0.3,3.9c-0.1,0.5-0.2,0.8-0.4,1c-0.2,0.2-0.5,0.2-0.9,0.2h-18.7
		c0.1,3.4,0.9,5.9,2.5,7.6c1.6,1.6,4.1,2.4,7.5,2.4c1.2,0,2.3-0.1,3.4-0.2c1.1-0.2,2.5-0.5,4.1-1c0.3-0.1,0.5-0.2,0.7-0.2
		c0.2-0.1,0.4-0.1,0.5-0.1c0.5,0,0.8,0.4,0.8,1.1v1.7c0,0.5-0.1,0.9-0.2,1.1c-0.2,0.2-0.5,0.4-1,0.7c-1.2,0.5-2.6,0.9-4.3,1.3
		C322,79.8,320.4,80,318.7,80 M324.4,61.3c0-0.3,0.1-0.8,0.1-1.6c0-2.4-0.6-4.3-1.7-5.5c-1.1-1.2-2.8-1.8-5-1.8
		c-2.5,0-4.5,0.7-5.8,2.2c-1.4,1.5-2.2,3.7-2.4,6.7H324.4z"/>
	<path class="st0" d="M335,79.1c-0.8,0-1.2-0.4-1.2-1.2V50c0-0.8,0.4-1.2,1.2-1.2h2.6c0.4,0,0.7,0.1,0.9,0.2
		c0.2,0.2,0.4,0.5,0.4,0.9l0.4,3.3c1.1-1.2,2.1-2.1,3-2.7c1-0.7,1.9-1.2,3-1.5c1-0.3,2.1-0.5,3.3-0.5c0.5,0,1,0,1.4,0.1
		c0.7,0.1,1,0.4,1,1.1V53c0,0.7-0.4,1.1-1.1,1.1c-0.4,0-0.7,0-1-0.1c-0.3,0-0.7-0.1-1.1-0.1c-3.2,0-5.9,1-8.2,2.9v21.1
		c0,0.8-0.4,1.2-1.2,1.2H335z"/>
	<path class="st0" d="M368,79.5c-5.7,0-8.5-2.8-8.5-8.5V53.5h-4.3c-0.8,0-1.2-0.4-1.2-1.2v-1.5c0-0.4,0.1-0.7,0.3-0.9
		c0.2-0.2,0.5-0.3,1-0.4l4.4-0.5l0.8-7.4c0.1-0.8,0.5-1.2,1.3-1.2h2.5c0.8,0,1.2,0.4,1.2,1.2v7.3h7.8c0.8,0,1.2,0.4,1.2,1.2v2.3
		c0,0.8-0.4,1.2-1.2,1.2h-7.8v17.2c0,1.5,0.3,2.5,1,3.1c0.7,0.6,1.8,0.9,3.4,0.9c0.8,0,1.7-0.1,2.8-0.3c0.6-0.1,1-0.2,1.2-0.2
		c0.3,0,0.5,0.1,0.7,0.3c0.1,0.2,0.2,0.5,0.2,0.9V77c0,0.5-0.1,0.9-0.2,1.2c-0.2,0.3-0.5,0.5-1,0.6C371.9,79.2,370,79.5,368,79.5"/>
	<path class="st0" d="M382,43.4c-1.2,0-2.1-0.3-2.7-1c-0.7-0.7-1-1.5-1-2.6c0-1.1,0.3-1.9,1-2.6c0.7-0.7,1.6-1,2.7-1
		c1.2,0,2.1,0.3,2.7,1c0.7,0.7,1,1.5,1,2.6c0,1.1-0.3,1.9-1,2.6C384,43.1,383.1,43.4,382,43.4 M380.2,79.1c-0.8,0-1.2-0.4-1.2-1.2
		V50c0-0.8,0.4-1.2,1.2-1.2h3.5c0.8,0,1.2,0.4,1.2,1.2v27.9c0,0.8-0.4,1.2-1.2,1.2H380.2z"/>
	<path class="st0" d="M399.6,80c-3.3,0-6.3-0.6-9-1.7c-0.5-0.2-0.8-0.4-1-0.7c-0.2-0.2-0.3-0.6-0.3-1.1v-1.7c0-0.7,0.2-1.1,0.7-1.1
		c0.3,0,0.8,0.1,1.5,0.4c2.6,0.8,5.3,1.3,8.2,1.3c1.9,0,3.4-0.4,4.4-1.1c1-0.8,1.5-1.9,1.5-3.3c0-1-0.3-1.7-0.9-2.3
		c-0.6-0.6-1.7-1.2-3.4-1.8l-5.1-1.9c-4.4-1.6-6.6-4.4-6.6-8.4c0-2.6,1-4.7,3-6.3c2-1.6,4.6-2.4,7.9-2.4c2.6,0,5.1,0.5,7.6,1.4
		c0.5,0.2,0.8,0.4,1,0.6c0.2,0.3,0.3,0.6,0.3,1.2v1.6c0,0.7-0.3,1.1-0.8,1.1c-0.3,0-0.7-0.1-1.4-0.3c-2.1-0.6-4.3-1-6.4-1
		c-3.8,0-5.7,1.3-5.7,3.9c0,1,0.3,1.8,1,2.4c0.6,0.6,1.9,1.3,3.8,2l4.7,1.8c2.3,0.9,4,2,5.1,3.3c1,1.3,1.6,2.9,1.6,4.9
		c0,2.8-1.1,5.1-3.2,6.7C405.9,79.1,403.1,80,399.6,80"/>
	<path class="st0" d="M418,43.4c-1.2,0-2.1-0.3-2.7-1c-0.7-0.7-1-1.5-1-2.6c0-1.1,0.3-1.9,1-2.6c0.7-0.7,1.6-1,2.7-1
		c1.2,0,2.1,0.3,2.7,1c0.7,0.7,1,1.5,1,2.6c0,1.1-0.3,1.9-1,2.6C420,43.1,419.1,43.4,418,43.4 M416.2,79.1c-0.8,0-1.2-0.4-1.2-1.2
		V50c0-0.8,0.4-1.2,1.2-1.2h3.5c0.8,0,1.2,0.4,1.2,1.2v27.9c0,0.8-0.4,1.2-1.2,1.2H416.2z"/>
	<path class="st0" d="M427,79.1c-0.8,0-1.2-0.4-1.2-1.2V50c0-0.8,0.4-1.2,1.2-1.2h2.6c0.4,0,0.7,0.1,0.9,0.2
		c0.2,0.2,0.4,0.5,0.4,0.9l0.4,2.2c3.8-2.8,7.8-4.2,11.9-4.2c2.9,0,5.1,0.8,6.6,2.3c1.5,1.5,2.3,3.8,2.3,6.7v21
		c0,0.8-0.4,1.2-1.2,1.2h-3.5c-0.8,0-1.2-0.4-1.2-1.2v-19c0-2.1-0.4-3.7-1.3-4.7c-0.9-1-2.2-1.5-4-1.5c-3.1,0-6.2,1-9.2,3v22.1
		c0,0.8-0.4,1.2-1.2,1.2H427z"/>
	<path class="st0" d="M468.9,92.1c-3.3,0-6.3-0.6-9.1-1.8c-0.5-0.2-0.8-0.4-1-0.7c-0.2-0.2-0.2-0.6-0.2-1.1v-1.7
		c0-0.7,0.2-1.1,0.7-1.1c0.2,0,0.5,0.1,0.9,0.2c0.3,0.1,0.8,0.3,1.4,0.4c2.5,0.7,4.8,1,6.9,1c3.2,0,5.5-0.8,7-2.3
		c1.5-1.5,2.2-4,2.2-7.4v-2.7c-1.4,1.2-2.8,2-4.4,2.7c-1.6,0.6-3.1,0.9-4.7,0.9c-2.5,0-4.8-0.6-6.6-1.9c-1.9-1.3-3.3-3-4.3-5.3
		c-1-2.3-1.5-4.4-1.5-7.4c0-4.8,1.1-8.6,3.4-11.4c2.3-2.8,5.3-4.2,9.1-4.2c3.6,0,6.7,1.2,9.4,3.7l0.3-1.7c0.1-0.4,0.2-0.7,0.4-0.9
		c0.2-0.2,0.5-0.2,0.9-0.2h2.6c0.8,0,1.2,0.4,1.2,1.2v26.8c0,4.7-1.3,8.4-3.8,11C477.1,90.8,473.5,92.1,468.9,92.1 M470.2,73.7
		c2.5,0,4.9-0.9,7.3-2.7V55.7c-1.2-0.9-2.4-1.6-3.6-2c-1.2-0.4-2.6-0.6-4.1-0.6c-5.2,0-7.8,3.5-7.8,10.6c0,3.5,0.7,5.6,2.1,7.4
		C465.5,72.9,467.6,73.7,470.2,73.7"/>
</g>
</svg>
