<?xml version="1.0" encoding="utf-8"?>
<!-- Generator: Adobe Illustrator 24.3.0, SVG Export Plug-In . SVG Version: 6.00 Build 0)  -->
<svg version="1.1" id="Layer_1" xmlns="http://www.w3.org/2000/svg" xmlns:xlink="http://www.w3.org/1999/xlink" x="0px" y="0px"
	 width="1151.5px" height="539.5px" viewBox="0 0 1151.5 539.5" style="enable-background:new 0 0 1151.5 539.5;"
	 xml:space="preserve">
<style type="text/css">
	.st0{fill:#7061F0;}
	.st1{fill:#E8F0FF;}
	.st2{fill:#4FE099;}
	.st3{fill:#212BC1;}
	.st4{fill:none;stroke:#7ADC9F;stroke-width:2;}
	.st5{fill:#FFFFFF;}
</style>
<g id="Group_5954" transform="translate(-144 -3246.152)">
	<rect id="Rectangle_387" x="144" y="3246.2" class="st0" width="1151.5" height="539.5"/>
	<g id="Group_4557" transform="translate(21.119 431.142)">
		<g id="Group_4514" transform="translate(207.882 3044.344)">
			<g>
				<g id="Group_4513" transform="translate(0 0)">
					<g id="Group_4509" transform="translate(2.018 2.019)">
						<path id="Path_1063" class="st1" d="M76.3,46.2c2.1-10,0-20.4-5.7-28.9C65,8.7,56.2,2.8,46.2,0.8c-10-2.1-20.4,0-28.9,5.7
							C8.7,12.1,2.8,20.9,0.8,30.9C0.3,33.4,0,36,0,38.6c0,7.6,2.2,14.9,6.4,21.2c5.6,8.5,14.4,14.5,24.5,16.5
							C51.8,80.5,72.1,67,76.3,46.2 M31.2,75.1c-9.7-1.9-18.2-7.7-23.7-15.9C2,50.9,0,40.8,2,31.2c1.9-9.7,7.7-18.2,15.9-23.7
							C26.2,2,36.2,0,45.9,2C55.6,4,64.1,9.7,69.6,17.9c4.1,6.1,6.2,13.2,6.2,20.5c0,2.5-0.3,5-0.8,7.5C71,66.1,51.3,79.1,31.2,75.1
							"/>
					</g>
					<g id="Group_4510" transform="translate(0.001 0)">
						<path id="Path_1064" class="st1" d="M40.6,81.1c-2.7,0-5.4-0.3-8.1-0.8C22,78.2,12.7,72,6.8,63C2.4,56.4,0,48.6,0,40.6
							c0-2.7,0.3-5.4,0.8-8.1C2.9,22,9.2,12.7,18.1,6.8c8.9-6,19.9-8.1,30.5-6c10.6,2.1,19.8,8.3,25.7,17.3c6,8.9,8.1,19.9,6,30.5
							C78.2,59.1,71.9,68.4,63,74.3C56.3,78.7,48.6,81.1,40.6,81.1 M40.5,5.3c-6.9,0-13.7,2-19.4,5.9C13.3,16.3,7.8,24.4,6,33.6
							C4.1,42.7,6,52.3,11.2,60c5.1,7.8,13.2,13.2,22.4,15.1c19.1,3.8,37.6-8.5,41.5-27.6c0.5-2.3,0.7-4.7,0.7-7.1
							c0-6.9-2.1-13.7-5.9-19.4C64.8,13.3,56.7,7.8,47.5,6C45.2,5.5,42.9,5.3,40.5,5.3"/>
					</g>
					<g id="Group_4511" transform="translate(19.115 19.104)">
						<path id="Path_1065" class="st1" d="M40.6,31.1c5.3-10.6,1.1-23.5-9.5-28.8c-5.1-2.6-11-3-16.4-1.2C9.3,2.8,4.9,6.7,2.3,11.8
							c-1.5,3-2.3,6.3-2.3,9.6c0,8.1,4.5,15.5,11.8,19.2C22.3,45.9,35.2,41.7,40.6,31.1 M12.3,39.5c-9.9-5-13.9-17.2-8.9-27.1
							c2.4-4.8,6.6-8.4,11.7-10.1C20.2,0.6,25.8,1,30.5,3.4c6.8,3.4,11.1,10.4,11.1,18c0,3.2-0.7,6.3-2.2,9.1
							C34.4,40.5,22.3,44.5,12.3,39.5"/>
					</g>
					<g id="Group_4512" transform="translate(16.761 16.748)">
						<path id="Path_1066" class="st2" d="M23.8,47.6c-3.7,0-7.4-0.9-10.7-2.6C5,41,0,32.8,0,23.8c0-3.7,0.9-7.4,2.6-10.7
							c2.8-5.6,7.8-9.9,13.8-11.9c6-2,12.5-1.5,18.2,1.4c11.7,5.9,16.4,20.2,10.5,32L43.9,34l1.1,0.6c-2.8,5.6-7.8,9.9-13.8,11.9
							C28.8,47.2,26.3,47.6,23.8,47.6 M15.8,39.7c8.8,4.4,19.5,0.9,23.9-7.9c1.3-2.5,1.9-5.2,1.9-8c0-6.7-3.8-12.9-9.8-15.9
							c-4.2-2.1-9.1-2.5-13.6-1c-4.5,1.5-8.2,4.7-10.3,8.9C3.5,24.6,7,35.3,15.8,39.7"/>
					</g>
				</g>
			</g>
		</g>
		<g id="Group_4522" transform="translate(381.952 3026.259)">
			<g>
				<g id="Group_4521" transform="translate(0 0)">
					<g id="Group_4515" transform="translate(1.682 1.68)">
						<path id="Path_1068" class="st3" d="M113,62.3c1.6-14.9-2.9-29.9-12.5-41.5C91,9.2,77.3,1.8,62.3,0.3
							C47.4-1.3,32.4,3.2,20.8,12.8C9.2,22.2,1.8,36,0.3,50.9C0.1,52.8,0,54.8,0,56.7c0.1,29,22,53.3,50.9,56.3
							C82,116.1,109.8,93.4,113,62.3 M51.1,111.7c-28.2-2.9-49.7-26.6-49.8-55c0-1.9,0.1-3.7,0.3-5.6C3,36.4,10.2,23,21.6,13.7
							C33,4.4,47.6,0,62.2,1.6c28.2,2.9,49.7,26.6,49.8,55c0,1.9-0.1,3.7-0.3,5.6c-1.4,14.6-8.7,28.1-20.1,37.3
							C80.3,108.8,65.7,113.2,51.1,111.7"/>
					</g>
					<g id="Group_4516" transform="translate(0.001 0)">
						<path id="Path_1069" class="st1" d="M58.4,116.6c-2,0-3.9-0.1-5.9-0.3c-29.8-2.9-52.5-28-52.4-58c0-2,0.1-3.9,0.3-5.9
							C1.8,37,9.4,22.9,21.4,13.1c12-9.8,27.3-14.4,42.7-12.8c15.4,1.5,29.5,9.1,39.3,21.1c9.8,12,14.4,27.4,12.8,42.7
							C113.3,93.9,88.3,116.6,58.4,116.6 M52.9,111.7c14.2,1.5,28.3-2.8,39.3-11.8c11.1-9,18.1-22,19.5-36.2
							c0.2-1.8,0.3-3.6,0.3-5.4c0.1-27.6-20.8-50.7-48.3-53.4C49.5,3.4,35.4,7.7,24.4,16.7c-11.1,9-18.1,22-19.5,36.2
							c-0.2,1.8-0.3,3.6-0.3,5.4C4.6,85.9,25.5,109,52.9,111.7L52.9,111.7z"/>
					</g>
					<g id="Group_4517" transform="translate(19.774 19.776)">
						<path id="Path_1070" class="st3" d="M76.3,46.2c2.1-10,0-20.4-5.7-28.9C65,8.7,56.2,2.8,46.2,0.8c-10-2.1-20.4,0-28.9,5.7
							C8.7,12.1,2.8,20.9,0.8,30.9C0.3,33.4,0,36,0,38.6c0,7.6,2.2,14.9,6.4,21.2c5.6,8.5,14.4,14.5,24.5,16.5
							C51.8,80.5,72.1,67,76.3,46.2 M31.2,75.1c-9.7-1.9-18.2-7.7-23.7-15.9C2,50.9,0,40.8,2,31.2c1.9-9.7,7.7-18.2,15.9-23.7
							C26.2,2,36.2,0,45.9,2C55.6,4,64.1,9.7,69.6,17.9c4.1,6.1,6.2,13.2,6.2,20.5c0,2.5-0.3,5-0.8,7.5C71,66.1,51.3,79.1,31.2,75.1
							"/>
					</g>
					<g id="Group_4518" transform="translate(17.757 17.756)">
						<path id="Path_1071" class="st1" d="M40.6,81.1c-2.7,0-5.4-0.3-8.1-0.8C22,78.2,12.7,72,6.8,63C2.4,56.4,0,48.6,0,40.6
							c0-2.7,0.3-5.4,0.8-8.1C2.9,22,9.2,12.7,18.1,6.8c8.9-6,19.9-8.1,30.5-6c10.6,2.1,19.8,8.3,25.7,17.3c6,8.9,8.1,19.9,6,30.5
							C78.2,59.1,71.9,68.4,63,74.3C56.3,78.7,48.6,81.1,40.6,81.1 M40.5,5.3c-6.9,0-13.7,2-19.4,5.9C13.3,16.3,7.8,24.4,6,33.6
							C4.1,42.7,6,52.3,11.2,60c5.1,7.8,13.2,13.2,22.4,15.1c19.1,3.8,37.6-8.5,41.5-27.6c0.5-2.3,0.7-4.7,0.7-7.1
							c0-6.9-2.1-13.7-5.9-19.4C64.8,13.3,56.7,7.8,47.5,6C45.2,5.5,42.9,5.3,40.5,5.3"/>
					</g>
					<g id="Group_4519" transform="translate(36.872 36.86)">
						<path id="Path_1072" class="st3" d="M40.6,31.1c5.3-10.6,1.1-23.5-9.5-28.8c-5.1-2.6-11-3-16.4-1.2C9.3,2.8,4.9,6.7,2.3,11.8
							c-1.5,3-2.3,6.3-2.3,9.6c0,8.1,4.5,15.5,11.8,19.2C22.3,45.9,35.2,41.7,40.6,31.1 M12.3,39.5c-9.9-5-13.9-17.2-8.9-27.1
							c2.4-4.8,6.6-8.4,11.7-10.1C20.2,0.6,25.8,1,30.5,3.4c6.8,3.4,11.1,10.4,11.1,18c0,3.2-0.7,6.3-2.2,9.1
							C34.4,40.5,22.3,44.5,12.3,39.5"/>
					</g>
					<g id="Group_4520" transform="translate(34.517 34.504)">
						<path id="Path_1073" class="st2" d="M23.8,47.6c-3.7,0-7.4-0.9-10.7-2.6C5,41,0,32.8,0,23.8c0-3.7,0.9-7.4,2.6-10.7
							c2.8-5.6,7.8-9.9,13.8-11.9c6-2,12.5-1.5,18.2,1.4c11.7,5.9,16.4,20.2,10.5,32L43.9,34l1.1,0.6c-2.8,5.6-7.8,9.9-13.8,11.9
							C28.8,47.2,26.3,47.6,23.8,47.6 M15.8,39.7c8.8,4.4,19.5,0.9,23.9-7.9c1.3-2.5,1.9-5.2,1.9-8c0-6.7-3.8-12.9-9.8-15.9
							c-4.2-2.1-9.1-2.5-13.6-1c-4.5,1.5-8.2,4.7-10.3,8.9C3.5,24.6,7,35.3,15.8,39.7"/>
					</g>
				</g>
			</g>
		</g>
		<line id="Line_71" class="st4" x1="306.8" y1="3084.5" x2="364.4" y2="3084.5"/>
		<line id="Line_72" class="st4" x1="515.9" y1="3084.5" x2="573.5" y2="3084.5"/>
		<g id="Group_4514-2" transform="translate(1190.117 3125.454) rotate(180)">
			<g>
				<g id="Group_4513-2" transform="translate(0 0)">
					<g id="Group_4509-2" transform="translate(2.018 2.019)">
						<path id="Path_1063-2" class="st1" d="M76.3,46.2C80.5,25.3,67,5,46.2,0.8c-10-2-20.4,0-28.9,5.7C8.7,12.1,2.8,20.9,0.8,30.9
							C0.3,33.4,0,36,0,38.6c0,21.3,17.3,38.5,38.6,38.5C56.9,77,72.7,64.1,76.3,46.2 M31.2,75.1C11,71-2.1,51.3,2,31.2
							C4,21.5,9.7,13,17.9,7.5C35.1-3.9,58.2,0.8,69.6,18c4,6.1,6.2,13.2,6.2,20.5c0,20.6-16.7,37.3-37.3,37.3
							C36,75.8,33.6,75.5,31.2,75.1"/>
					</g>
					<g id="Group_4510-2" transform="translate(0.001 0)">
						<path id="Path_1064-2" class="st1" d="M40.6,81.1c-2.7,0-5.4-0.3-8.1-0.8C13.6,76.5,0.1,59.9,0,40.6c0-2.7,0.3-5.4,0.8-8.1
							C5.3,10.6,26.6-3.6,48.6,0.8c10.5,2.1,19.8,8.4,25.7,17.3C86.7,36.8,81.6,62,62.9,74.4C56.3,78.7,48.5,81.1,40.6,81.1
							 M40.5,5.3C21,5.4,5.3,21.2,5.3,40.6c0,6.9,2.1,13.6,5.9,19.4C22,76.3,43.8,80.7,60,69.9c7.8-5.2,13.2-13.2,15.1-22.4
							c0.5-2.3,0.7-4.7,0.7-7.1C75.8,23.7,63.9,9.3,47.5,6C45.2,5.5,42.9,5.3,40.5,5.3"/>
					</g>
					<g id="Group_4511-2" transform="translate(19.115 19.104)">
						<path id="Path_1065-2" class="st1" d="M40.6,31.1c5.3-10.6,1.1-23.5-9.5-28.8S7.6,1.2,2.3,11.8C-3,22.3,1.2,35.2,11.8,40.6
							C22.3,45.9,35.2,41.7,40.6,31.1 M12.3,39.5c-9.9-5-13.9-17.2-8.9-27.1S20.6-1.6,30.5,3.5c9.9,5,13.9,17.2,8.9,27.1
							C34.4,40.5,22.3,44.5,12.3,39.5"/>
					</g>
					<g id="Group_4512-2" transform="translate(16.761 16.748)">
						<path id="Path_1066-2" class="st2" d="M23.8,47.6C10.6,47.6,0,36.9,0,23.8C0,13.5,6.6,4.4,16.4,1.2c12.5-4.1,25.9,2.7,30,15.2
							c2,6,1.5,12.5-1.4,18.1L43.9,34l1.1,0.6C41,42.6,32.7,47.6,23.8,47.6 M15.8,39.7c8.8,4.4,19.5,0.9,23.9-7.9
							c4.4-8.8,0.9-19.5-7.9-23.9c-4.2-2.1-9.1-2.5-13.6-1C8.9,9.9,3.8,20,6.9,29.4C8.3,33.9,11.5,37.6,15.8,39.7"/>
					</g>
				</g>
			</g>
		</g>
		<g id="Group_4522-2" transform="translate(1016.047 3142.883) rotate(180)">
			<g>
				<g id="Group_4521-2" transform="translate(0 0)">
					<g id="Group_4515-2" transform="translate(1.682 1.68)">
						<path id="Path_1068-2" class="st3" d="M113,62.3c3.1-31.1-19.5-58.9-50.6-62c-14.9-1.5-29.9,3-41.5,12.5
							C-3.4,32.5-7,68.2,12.8,92.4s55.4,27.8,79.7,8.1C104.1,91,111.5,77.3,113,62.3 M51.1,111.7c-28.2-2.9-49.7-26.6-49.8-55
							c0-1.9,0.1-3.7,0.3-5.6C4.6,20.6,31.8-1.5,62.2,1.5c28.3,2.9,49.8,26.6,49.8,55c0,1.9-0.1,3.7-0.3,5.6
							C108.6,92.6,81.5,114.8,51.1,111.7C51.1,111.7,51.1,111.7,51.1,111.7"/>
					</g>
					<g id="Group_4516-2" transform="translate(0.001 0)">
						<path id="Path_1069-2" class="st1" d="M58.4,116.6c-2,0-3.9-0.1-5.9-0.3c-29.8-2.9-52.5-28-52.4-58c0-2,0.1-3.9,0.3-5.9
							c3.2-32,31.8-55.4,63.9-52.1c15.4,1.6,29.5,9.2,39.3,21.1c20.4,24.9,16.7,61.7-8.3,82C84.8,112,71.8,116.6,58.4,116.6
							 M52.9,111.7c29.5,3,55.8-18.5,58.8-48c0.2-1.8,0.3-3.6,0.3-5.4c0-29.6-24.1-53.7-53.7-53.6C30.7,4.7,7.7,25.5,4.9,52.9
							c-0.2,1.8-0.3,3.6-0.3,5.4C4.6,85.9,25.5,109,52.9,111.7L52.9,111.7z"/>
					</g>
					<g id="Group_4517-2" transform="translate(19.774 19.776)">
						<path id="Path_1070-2" class="st3" d="M76.3,46.2C80.5,25.3,67,5,46.2,0.8c-10-2-20.4,0-28.9,5.7C8.7,12.1,2.8,20.9,0.8,30.9
							C0.3,33.4,0,36,0,38.6c0,21.3,17.3,38.5,38.6,38.5C56.9,77,72.7,64.1,76.3,46.2 M31.2,75.1C11,71-2.1,51.3,2,31.2
							C4,21.5,9.7,13,17.9,7.5C35.1-3.9,58.2,0.8,69.6,18c4,6.1,6.2,13.2,6.2,20.5c0,20.6-16.7,37.3-37.3,37.3
							C36,75.8,33.6,75.5,31.2,75.1"/>
					</g>
					<g id="Group_4518-2" transform="translate(17.757 17.756)">
						<path id="Path_1071-2" class="st1" d="M40.6,81.1c-2.7,0-5.4-0.3-8.1-0.8C13.6,76.5,0.1,59.9,0,40.6c0-2.7,0.3-5.4,0.8-8.1
							C5.3,10.6,26.6-3.6,48.6,0.8c10.5,2.1,19.8,8.4,25.7,17.3C86.7,36.8,81.6,62,62.9,74.4C56.3,78.7,48.5,81.1,40.6,81.1
							 M40.5,5.3C21,5.4,5.3,21.2,5.3,40.6c0,6.9,2.1,13.6,5.9,19.4C22,76.3,43.8,80.7,60,69.9c7.8-5.2,13.2-13.2,15.1-22.4
							c0.5-2.3,0.7-4.7,0.7-7.1C75.8,23.7,63.9,9.3,47.5,6C45.2,5.5,42.9,5.3,40.5,5.3"/>
					</g>
					<g id="Group_4519-2" transform="translate(36.872 36.86)">
						<path id="Path_1072-2" class="st3" d="M40.6,31.1c5.3-10.6,1.1-23.5-9.5-28.8S7.6,1.2,2.3,11.8C-3,22.3,1.2,35.2,11.8,40.6
							C22.3,45.9,35.2,41.7,40.6,31.1 M12.3,39.5c-9.9-5-13.9-17.2-8.9-27.1S20.6-1.6,30.5,3.5c9.9,5,13.9,17.2,8.9,27.1
							C34.4,40.5,22.3,44.5,12.3,39.5"/>
					</g>
					<g id="Group_4520-2" transform="translate(34.517 34.504)">
						<path id="Path_1073-2" class="st2" d="M23.8,47.6C10.6,47.6,0,36.9,0,23.8C0,13.5,6.6,4.4,16.4,1.2c12.5-4.1,25.9,2.7,30,15.2
							c2,6,1.5,12.5-1.4,18.1L43.9,34l1.1,0.6C41,42.6,32.7,47.6,23.8,47.6 M15.8,39.7c8.8,4.4,19.5,0.9,23.9-7.9
							c4.4-8.8,0.9-19.5-7.9-23.9c-4.2-2.1-9.1-2.5-13.6-1C8.9,9.9,3.8,20,6.9,29.4C8.3,33.9,11.5,37.6,15.8,39.7"/>
					</g>
				</g>
			</g>
		</g>
		<line id="Line_71-2" class="st4" x1="1091.2" y1="3084.5" x2="1033.6" y2="3084.5"/>
		<line id="Line_72-2" class="st4" x1="882.1" y1="3084.5" x2="824.5" y2="3084.5"/>
		<g id="Group_4078" transform="translate(619.825 3000.803)">
			<path id="Path_643" d="M70.9,172.7c-7.8,0-15.5-2.1-22.1-6.1c-7.1-4.3-14-11.1-21-20.7c-2.9-4-5.6-8.2-8-12.6l0,0
				c-2.8-5-5.3-10.2-7.7-15.3c-1.6-3.3-3.2-6.7-4.9-10c-3.7-7.1-6.7-13.7-7.1-21.4c-0.6-10.3,3.7-19.8,7.8-28.9
				c0.4-1,0.9-1.9,1.3-2.9l0.6-1.3C12.9,46.3,16.5,38,22.1,32c7.5-8,18.1-12.6,25.5-15.3c8.9-3.4,17.6-7.4,25.9-12.1
				c7-4.1,15.2-5.5,23.1-4c6.8,1.3,12.9,4.5,18.5,7.8c1.8,1,3.6,2.1,5.3,3.1c5.8,3.4,11.9,6.9,18.1,10c6.6,3.3,11.4,9,16.2,14.5
				c1.6,1.9,3.3,3.9,5,5.7c6.3,6.6,13,14.6,12.9,25.8c0,4.5-0.4,9-0.8,13.4c-0.6,6-0.8,12-0.6,18.1c0.5,8.8-1.5,17.6-5.9,25.3
				c-1.3,2.3-2.7,4.5-4.2,6.7c-1.4,2.1-2.8,4.2-4,6.5c-1,1.7-1.9,3.5-2.8,5.2c-1.5,2.8-3,5.7-4.7,8.5c-5.2,8.5-12.5,13.7-22.8,16.5
				c-7.1,1.9-14.3,2.2-21.2,2.5c-9.3,0.3-18.7,1.1-27.9,2.4C75.5,172.6,73.2,172.7,70.9,172.7 M20.9,132.7c2.4,4.3,5.1,8.5,8,12.5
				c6.9,9.5,13.6,16.2,20.6,20.4c8.4,5.1,18.4,7,28.1,5.4c9.3-1.3,18.7-2.1,28.1-2.4c6.9-0.3,14-0.5,21-2.4c10-2.7,17-7.8,22.1-16
				c1.7-2.7,3.2-5.6,4.6-8.4c0.9-1.7,1.8-3.5,2.8-5.2c1.3-2.3,2.7-4.4,4.1-6.5c1.4-2.1,2.9-4.4,4.1-6.6c4.3-7.5,6.3-16,5.8-24.6
				c-0.2-6.1,0-12.2,0.6-18.2c0.4-4.3,0.7-8.8,0.8-13.3c0.1-10.7-6.2-18.2-12.6-24.9c-1.7-1.8-3.4-3.8-5-5.7
				c-4.6-5.4-9.4-11-15.8-14.2c-6.2-3.1-12.3-6.6-18.1-10c-1.8-1-3.5-2.1-5.3-3.1C109,6.2,103,3,96.4,1.8
				c-7.7-1.4-15.6-0.1-22.3,3.8c-8.3,4.7-17.1,8.8-26,12.2c-7.2,2.7-17.7,7.2-25,15c-5.5,5.8-8.9,13.6-12.2,21.2l-0.6,1.3
				c-0.4,1-0.9,1.9-1.3,2.9c-4,9.1-8.2,18.4-7.7,28.4c0.4,7.5,3.4,13.9,7,20.9c1.7,3.3,3.3,6.7,4.9,10
				C15.6,122.6,18.1,127.8,20.9,132.7"/>
		</g>
		<g id="Group_4080" transform="translate(688.137 3044.647)">
			<path id="Path_645" d="M47,85.9c-8.6,0-17.1-1.8-24.9-5.3l0,0C5.2,72.9-4.1,50.7,1.7,32.1C5.1,21.4,15.9,7.8,36.4,1.7
				c7.3-2.1,13.8-2.3,19.8-0.5c7.6,2.3,14.3,7.5,19.9,15.5c5.4,7.8,8.7,16.9,9.4,26.4C86.3,53.6,83.9,64,79.3,71
				c-7,10.5-18.3,13.7-26.6,14.6C50.8,85.8,48.9,85.9,47,85.9 M22.6,79.4c9.4,4.2,19.7,5.9,30,4.9c8-0.8,18.9-4,25.7-14.1
				c4.5-6.8,6.8-16.9,6.1-27c-0.7-9.3-3.9-18.2-9.2-25.8C69.8,9.7,63.3,4.6,55.9,2.4c-5.8-1.7-12.1-1.6-19.1,0.5
				C16.7,8.8,6.1,22,2.9,32.5C-2.6,50.2,6.6,72.1,22.6,79.4z"/>
		</g>
		<g id="Group_4082" transform="translate(643.153 3015.917)">
			<path id="Path_647" d="M55.2,143.4c-4.9,0.1-9.9-0.6-14.6-2.1C27,136.7,16.8,124,9.4,102.5l0,0c-0.7-2-1.5-4.1-2.2-6.2
				C2.6,83.9-2,71.1,0.9,58.3c1.4-6,4.3-11.2,7.2-16c3.8-6.6,8.3-12.8,13.4-18.5C31.5,13.1,46.4,5.1,63.4,1.2c7.8-1.9,16-1.6,23.6,1
				c7,2.5,13,7,18.8,11.4l1.8,1.4c1.8,1.4,3.8,2.7,5.7,3.9c3.4,2.1,6.6,4.5,9.5,7.1c2.1,2.1,4.1,4.4,6,6.7c0.6,0.7,1.2,1.5,1.8,2.2
				c0.8,0.9,1.6,1.9,2.5,2.8c1.9,2,3.6,4.1,5.1,6.3c4.1,6.4,4.2,13.6,3.8,20.4c-0.4,7.1-0.5,14.3-0.6,21.2l0,0.5
				c-0.1,7.3-1.3,12.9-3.9,18.2c-3.6,7.1-8.6,13.5-14.5,18.8c-6.2,5.8-12.1,9.9-17.9,12.6c-8.1,3.8-17,5.2-23.1,5.9
				c-7.9,1-15.9,1.2-24,1.5C57.1,143.3,56.2,143.4,55.2,143.4 M10.5,102.1c7.3,21.1,17.3,33.5,30.5,38c5.7,2,11.6,2.1,17.1,2
				c8.1-0.2,16-0.5,23.9-1.4c5.9-0.7,14.8-2.1,22.7-5.8c5.7-2.7,11.4-6.7,17.6-12.4c5.9-5.2,10.7-11.5,14.3-18.5
				c2.5-5.2,3.7-10.6,3.8-17.7l0-0.5c0.1-7,0.2-14.2,0.6-21.3c0.4-6.6,0.2-13.6-3.6-19.7c-1.5-2.2-3.2-4.3-5-6.2
				c-0.8-0.9-1.7-1.9-2.5-2.8c-0.6-0.7-1.2-1.5-1.8-2.2c-1.8-2.3-3.8-4.5-5.9-6.6c-2.9-2.6-6-5-9.4-7c-1.9-1.3-3.9-2.6-5.7-4
				l-1.8-1.4c-5.7-4.3-11.6-8.8-18.4-11.2c-7.4-2.5-15.4-2.8-22.9-0.9C46.9,6.2,32.2,14.1,22.5,24.7C17.4,30.3,13,36.4,9.2,43
				c-2.8,4.7-5.7,9.8-7.1,15.6c-2.9,12.4,1.7,25,6.2,37.3C9.1,98,9.8,100.1,10.5,102.1L10.5,102.1z"/>
		</g>
		<g id="Group_4084" transform="translate(597.716 2982.621)">
			<path id="Path_649" d="M90.6,203.3c-8.4-0.2-16.5-2.5-23.7-6.9c-3.4-2.1-6.7-4.4-9.9-6.8c-1.6-1.2-3.2-2.4-4.8-3.6
				c-1.9-1.3-3.8-2.7-5.7-4c-3.2-2.2-6.6-4.5-9.8-6.9l-0.5-0.3c-3.2-2.2-6.3-4.8-9.1-7.5c-4.4-4.5-7.5-10-9.9-14.7
				c-1.6-3-3-6.2-4.5-9.2c-1.2-2.5-2.4-5-3.6-7.5l0,0c-0.7-1.4-1.4-2.8-2.1-4.1c-3.9-7.5-7.6-14.6-7-23.9C0.6,101,2.8,94.5,5,88.2
				l0.3-0.8c2-5.5,3.5-11.1,4.4-16.9l0.2-1.4c0.4-4.2,1.2-8.4,2.6-12.5c3.8-10,13.3-16.3,22.2-21.3c4-2.2,8.1-4.1,12.2-6
				c4-1.8,8.1-3.7,11.9-5.9C65.1,20,70.4,15.6,76,10.9c1.9-1.6,3.8-3.2,5.8-4.8c9.1-7.2,20.3-8.1,34.2-2.6c2.5,1,4.9,2,7.4,3
				c6,2.4,12.2,5,18.5,7c3.9,1.3,7.9,2.3,11.8,3.4l1.1,0.3c5.7,1.7,10.9,4.7,15.1,8.8c5.8,5.4,9.9,12,13.9,18.5l1.4,2.2
				c0.8,1.3,1.6,2.5,2.4,3.8c4.7,7.4,9.6,15,11.4,23.9c1.2,5.8,1,11.7,0.9,17.5c-0.1,5.3-0.2,10.8,0.7,16.2c0.2,1,0.3,1.9,0.5,2.9
				c0.8,3.7,1.2,7.4,1.1,11.2c-0.4,6.7-3.6,12.5-6.2,16.7c-0.9,1.5-1.9,2.9-2.9,4.3c-1.6,2.3-3.2,4.7-4.6,7.2
				c-2.4,4.4-3.8,9.4-5.1,14.2l-0.3,1.1c-2.4,8.9-5.9,18-14.8,23.8c-10.8,7.1-23.6,8.2-34.9,8.7c-10.1,0.4-22.1,1.3-34.1,4.2
				C96.4,203,93.5,203.4,90.6,203.3 M10.3,135.5c1.3,2.5,2.5,5.1,3.6,7.5c1.4,3,2.9,6.1,4.4,9.1c2.4,4.6,5.4,10,9.7,14.4
				c2.8,2.7,5.8,5.2,8.9,7.4l0.5,0.3c3.2,2.4,6.5,4.6,9.7,6.9c1.9,1.3,3.8,2.7,5.8,4c1.6,1.2,3.3,2.4,4.8,3.6
				c3.1,2.4,6.4,4.7,9.8,6.8c10.5,6.1,21.7,8.1,31.5,5.7c12.1-3,24.1-3.9,34.3-4.3c11.1-0.5,23.7-1.5,34.2-8.5
				c8.1-5.3,11.6-13.1,14.3-23.2l0.3-1.1c1.3-4.9,2.7-9.9,5.2-14.5c1.4-2.5,3-5,4.6-7.3c0.9-1.4,1.9-2.8,2.8-4.3
				c2.8-4.4,5.7-9.7,6.1-16.2c0.1-3.7-0.3-7.3-1.1-10.9c-0.2-1-0.4-1.9-0.5-2.9c-0.9-5.5-0.8-11-0.7-16.4c0.1-5.7,0.3-11.5-0.9-17.2
				c-1.7-8.7-6.5-16.2-11.2-23.5c-0.8-1.3-1.6-2.5-2.4-3.8l-1.4-2.2c-4.1-6.7-8-12.9-13.7-18.2c-4.1-4-9.1-6.9-14.6-8.5l-1.1-0.3
				c-3.9-1-7.9-2.1-11.8-3.4c-6.3-2-12.6-4.6-18.6-7c-2.5-1-4.9-2-7.4-3c-13.5-5.3-24.3-4.5-33,2.4c-2,1.6-3.9,3.2-5.8,4.7
				c-5.4,4.5-11,9.1-17.4,12.7c-3.9,2.2-8,4.1-12,5.9c-4,1.8-8.2,3.8-12.1,5.9c-8.6,4.8-18,11-21.6,20.6c-1.3,4-2.2,8-2.5,12.2
				l-0.2,1.4C10,76.5,8.5,82.2,6.4,87.7l-0.3,0.8C4,94.8,1.7,101.3,1.3,108c-0.6,9,2.8,15.6,6.9,23.3C8.8,132.6,9.6,134,10.3,135.5"
				/>
		</g>
		<g id="Group_4555">
			<g id="Group_4081" transform="translate(686.326 3042.827)">
				<path id="Path_646" class="st5" d="M48.8,89.5c-8.8,0-17.6-1.9-25.7-5.5C5.5,76-4.3,52.8,1.8,33.4C5.3,22.2,16.6,8,37.7,1.8
					c7.6-2.2,14.4-2.4,20.9-0.5c8.1,2.4,15.1,7.9,20.9,16.2c5.6,8.1,9,17.5,9.7,27.3c0.8,10.8-1.7,21.6-6.6,28.9
					c-7.4,11.1-19.3,14.5-27.9,15.4C52.7,89.4,50.8,89.5,48.8,89.5 M25.1,79.6c9.1,4.1,19.1,5.7,29.1,4.8c7.6-0.8,18-3.7,24.4-13.3
					c4.3-6.4,6.5-16.1,5.8-25.9c-0.7-8.9-3.7-17.5-8.9-24.9C70.3,12.9,64.2,8.1,57.2,6c-5.5-1.6-11.4-1.5-18.1,0.5
					C19.8,12.2,9.5,24.8,6.4,34.8C1.2,51.7,9.9,72.7,25.1,79.6"/>
			</g>
			<g id="Group_4083" transform="translate(641.938 3014.704)">
				<path id="Path_648" class="st5" d="M56.4,145.8c-5.1,0.1-10.1-0.6-15-2.1c-14-4.8-24.4-17.7-32-39.5c-0.7-2-1.5-4.1-2.2-6.2
					C2.6,85.4-2.1,72.4,1,59.3C2.4,53.1,5.4,47.8,8.3,43c3.9-6.7,8.4-13,13.6-18.7C32,13.3,47.1,5.1,64.4,1.3c8-2,16.4-1.6,24.3,1
					c7.2,2.5,13.2,7.1,19.1,11.6l1.8,1.4c1.8,1.3,3.7,2.6,5.6,3.9c3.4,2.1,6.7,4.6,9.7,7.3c2.2,2.2,4.2,4.4,6.1,6.8
					c0.6,0.7,1.2,1.5,1.8,2.2c0.8,0.9,1.6,1.8,2.4,2.7c1.9,2,3.7,4.2,5.3,6.5c4.2,6.7,4.4,14.1,4,21.2c-0.4,7.1-0.5,14.2-0.6,21.2
					l0,0.5c-0.1,7.5-1.4,13.2-4,18.7c-3.7,7.3-8.7,13.8-14.8,19.2c-6.3,5.9-12.3,10.1-18.2,12.8c-8.2,3.9-17.3,5.3-23.4,6
					c-8,1-15.9,1.2-24.1,1.5C58.4,145.8,57.4,145.8,56.4,145.8 M12.9,102.9c7.2,20.7,16.9,32.9,29.7,37.3c5.5,1.9,11.3,2,16.7,1.9
					c8.1-0.2,15.9-0.5,23.7-1.4c5.9-0.7,14.6-2.1,22.3-5.7c5.6-2.6,11.2-6.6,17.3-12.2c5.7-5.1,10.5-11.3,14-18.1
					c2.4-5,3.6-10.3,3.7-17.2l0-0.5c0.1-7,0.2-14.2,0.6-21.4c0.4-6.4,0.2-13.2-3.4-19c-1.4-2.1-3.1-4.1-4.9-6
					c-0.9-1-1.7-1.9-2.5-2.8c-0.6-0.7-1.2-1.5-1.8-2.2c-1.8-2.3-3.8-4.5-5.8-6.5c-2.9-2.6-5.9-4.9-9.2-6.9c-1.9-1.3-3.9-2.6-5.8-4
					l-1.8-1.4C99.9,12.5,94.1,8,87.4,5.7C80.3,3.3,72.5,3,65.2,4.8c-16.6,3.7-31,11.5-40.6,21.9c-5,5.6-9.4,11.6-13.1,18.1
					c-2.8,4.6-5.6,9.6-6.9,15.3c-2.8,12.1,1.7,24.5,6.1,36.6C11.4,98.8,12.2,100.9,12.9,102.9"/>
			</g>
			<g id="Group_4085" transform="translate(597.108 2982.01)">
				<path id="Path_650" class="st5" d="M91.2,204.6c-8.5-0.2-16.7-2.6-24-6.9c-3.4-2.1-6.8-4.4-9.9-6.9c-1.6-1.2-3.2-2.4-4.8-3.5
					c-1.8-1.3-3.7-2.6-5.5-3.8l-0.2-0.2c-3.2-2.2-6.6-4.5-9.8-6.9l-0.5-0.3c-3.3-2.3-6.3-4.8-9.2-7.6c-4.4-4.6-7.5-10.1-10-14.8
					c-1.6-3-3-6.2-4.5-9.2c-1.2-2.5-2.4-5-3.6-7.5c-0.7-1.4-1.4-2.8-2.1-4.1c-4-7.6-7.7-14.7-7.1-24.3c0.5-7,2.8-13.6,5-19.9
					l0.3-0.8c2-5.4,3.5-11,4.4-16.7l0.2-1.4c0.4-4.3,1.2-8.5,2.6-12.6C16.4,46.8,26,40.4,35,35.4c4-2.2,8.2-4.1,12.2-6
					c4-1.8,8.1-3.7,11.9-5.8c6.3-3.5,11.6-7.9,17.1-12.5l0.1-0.1c1.9-1.5,3.8-3.1,5.7-4.7c9.3-7.4,20.7-8.3,34.8-2.7
					c2.5,1,4.9,2,7.4,3c6,2.4,12.2,4.9,18.4,7c3.9,1.3,7.9,2.3,11.8,3.4l1.1,0.3c5.8,1.7,11.1,4.8,15.4,9c5.8,5.5,10,12.1,14,18.6
					l1.4,2.2c0.8,1.3,1.6,2.5,2.4,3.8c4.7,7.4,9.6,15.1,11.5,24.1c1.2,5.9,1,11.8,0.9,17.6c-0.1,5.3-0.2,10.8,0.7,16
					c0.2,1,0.3,1.9,0.5,2.8c0.8,3.7,1.2,7.5,1.1,11.3c-0.4,6.9-3.6,12.7-6.3,17c-0.9,1.5-1.9,2.9-2.9,4.3c-1.6,2.3-3.2,4.7-4.5,7.1
					c-2.4,4.4-3.7,9.3-5,14.1l-0.3,1.1c-2.5,9-6,18.2-15.1,24.2c-10.9,7.2-23.9,8.3-35.2,8.8c-10.1,0.4-22,1.3-34,4.2
					C97.2,204.2,94.2,204.6,91.2,204.6 M169.2,189.1c-0.2,0.1-0.4,0.3-0.6,0.4c-10.6,7-23.4,8.1-34.6,8.6
					c-10.2,0.4-22.2,1.3-34.2,4.3c-0.7,0.2-1.4,0.3-2.1,0.5c0.7-0.1,1.4-0.3,2.1-0.5c12-3,24-3.8,34.2-4.3
					c11.1-0.5,23.9-1.5,34.6-8.6C168.7,189.3,169,189.2,169.2,189.1 M11.4,135.8c1.3,2.5,2.5,5.1,3.6,7.6c1.4,3,2.9,6.1,4.4,9.1
					c2.4,4.6,5.4,9.9,9.6,14.2c2.7,2.7,5.7,5.1,8.9,7.3l0.5,0.3c3.2,2.3,6.4,4.6,9.6,6.8l0.1,0.1c1.9,1.3,3.8,2.7,5.8,4
					c1.7,1.2,3.4,2.5,4.9,3.6c3.1,2.4,6.3,4.7,9.7,6.7c10.4,6,21.4,8,31,5.6c12.1-3,24.2-3.9,34.5-4.3c11-0.5,23.5-1.5,33.9-8.4
					c7.9-5.2,11.4-12.9,14.1-22.8l0.3-1.1c1.3-4.9,2.7-10,5.3-14.6c1.4-2.6,3.1-5,4.7-7.3c1-1.4,1.9-2.8,2.8-4.3
					c2.7-4.3,5.6-9.6,6-15.9c0.1-3.6-0.3-7.2-1.1-10.7c-0.2-1-0.4-1.9-0.5-2.9c-0.8-5.5-1-11-0.7-16.5c0.1-5.6,0.3-11.5-0.9-17.1
					c-1.7-8.6-6.5-16.1-11.1-23.3c-0.8-1.3-1.6-2.5-2.4-3.8l-1.4-2.2c-4.1-6.6-8-12.9-13.6-18.1c-4-3.9-9-6.8-14.4-8.4l-1.1-0.3
					c-3.9-1.1-8-2.1-11.9-3.4c-6.4-2.1-12.6-4.6-18.6-7l-0.2-0.1c-2.4-1-4.8-1.9-7.2-2.9c-13.3-5.2-23.9-4.4-32.4,2.3
					c-2,1.6-3.9,3.2-5.8,4.7c-5.4,4.5-11,9.1-17.5,12.8c-3.9,2.2-8.1,4.1-12,5.9c-4,1.8-8.1,3.7-12.1,5.9
					c-8.5,4.8-17.8,10.9-21.4,20.3c-1.3,3.9-2.1,8-2.5,12.1l-0.2,1.4C11.2,77.2,9.7,83,7.6,88.5l-0.3,0.8C5.2,95.6,3,102,2.5,108.7
					c-0.6,8.8,2.8,15.4,6.8,23C10,133,10.7,134.4,11.4,135.8 M48.7,183.1c1.2,0.8,2.4,1.6,3.6,2.5C51.1,184.7,49.9,183.9,48.7,183.1
					 M14,143.9c1.4,3,2.9,6.1,4.4,9.1c2.4,4.7,5.5,10.1,9.8,14.5c2.6,2.5,5.4,4.9,8.4,7c-3-2.1-5.8-4.4-8.4-7
					c-4.3-4.5-7.4-9.9-9.8-14.5C16.8,150,15.4,146.9,14,143.9L14,143.9 M183.3,165.5l-0.1,0.5c-0.3,1.3-0.7,2.5-1.1,3.7
					c0.4-1.2,0.7-2.5,1.1-3.7L183.3,165.5z M187.5,152.8c-1.4,3.1-2.5,6.4-3.4,9.7C184.9,159.2,186.1,155.9,187.5,152.8 M11.8,139.4
					c0.7,1.5,1.4,2.9,2.1,4.4C13.2,142.3,12.6,140.9,11.8,139.4 M195.7,139.5c-0.7,1.1-1.4,2.1-2.1,3.1
					C194.3,141.6,195,140.6,195.7,139.5 M7.2,130.3c0.3,0.6,0.6,1.2,1,1.9c0.4,0.8,0.8,1.6,1.2,2.3c-0.4-0.8-0.8-1.6-1.2-2.3
					C7.9,131.6,7.5,130.9,7.2,130.3 M200,105c0.1,1.2,0.3,2.5,0.5,3.7c0.2,1,0.3,1.9,0.5,2.9c0.1,0.4,0.2,0.8,0.2,1.2
					c-0.1-0.4-0.2-0.8-0.2-1.2c-0.2-1-0.4-1.9-0.5-2.9C200.3,107.5,200.2,106.3,200,105 M2.4,101.3c-0.6,2.4-0.9,4.8-1.1,7.3
					c0,0.3,0,0.5,0,0.8c0-0.3,0-0.5,0-0.8C1.5,106.1,1.8,103.7,2.4,101.3 M2.4,101.3C2.4,101.3,2.4,101.3,2.4,101.3
					C2.4,101.3,2.4,101.3,2.4,101.3 M4.6,93.6L4.6,93.6L4.6,93.6 M4.6,93.6C4.6,93.6,4.6,93.6,4.6,93.6C4.6,93.6,4.6,93.6,4.6,93.6
					 M6.1,89.1c-0.5,1.5-1,3-1.5,4.5C5.1,92.1,5.6,90.6,6.1,89.1 M11,70.1l-0.1,1.1C10,77,8.5,82.7,6.5,88.1l-0.3,0.7l0.3-0.7
					c2.1-5.5,3.6-11.2,4.4-17L11,70.1z M11.9,63.9C11.9,63.9,11.9,63.9,11.9,63.9C11.9,63.9,11.9,63.9,11.9,63.9 M12.7,60.3
					c-0.3,1.2-0.6,2.4-0.8,3.7C12.1,62.7,12.4,61.5,12.7,60.3 M31.8,38.6c-6.1,3.7-12.1,8.2-15.8,14.1
					C19.8,46.8,25.7,42.3,31.8,38.6 M186.4,49.4c0.4,0.7,0.8,1.3,1.3,2C187.2,50.7,186.8,50,186.4,49.4 M41.9,33.2
					c-1.3,0.6-2.5,1.2-3.8,1.9C39.3,34.5,40.6,33.8,41.9,33.2 M41.9,33.2L41.9,33.2 M60.9,23.9c-0.4,0.2-0.8,0.5-1.2,0.7
					c-1.7,1-3.5,1.9-5.3,2.7c1.8-0.9,3.5-1.8,5.3-2.7C60.1,24.4,60.5,24.2,60.9,23.9 M153.2,17.8l0.8,0.2l0.2,0.1l-0.2,0L153.2,17.8
					 M100.1,1.2c5.6,0.1,11.1,1.3,16.3,3.5c2.4,0.9,4.8,1.9,7.2,2.9l0.2,0.1c4.4,1.8,9,3.6,13.6,5.3c-4.6-1.7-9.1-3.5-13.6-5.3
					c-2.5-1-4.9-2-7.4-3C104.3,0,94.3,0.1,85.9,5.1C90.2,2.5,95.1,1.2,100.1,1.2 M77.1,11.9L77.1,11.9L77,12l-0.8,0.6L77,12
					L77.1,11.9"/>
			</g>
		</g>
		<g id="Group_4086" transform="translate(709.029 3059.772)">
			<path id="Path_651" d="M30.9,57.8c-7.1,0-14.1-2.3-19.8-6.5l0,0C0.7,43.5-3,28.1,2.6,16.3C8,4.9,21.9-1.9,34.9,0.5
				c9.8,1.8,17.6,8.9,20.8,19.2c3.5,11.1,1,23.2-6.5,30.8C44.4,55.3,37.8,58,30.9,57.8 M11.8,50.3c10.3,7.6,26.8,9.4,36.6-0.7
				c7.2-7.3,9.6-19,6.2-29.6C51.5,10.2,44,3.3,34.7,1.7C22.2-0.6,8.9,5.9,3.7,16.8C-1.7,28.1,1.9,42.8,11.8,50.3"/>
		</g>
		<g id="Group_4088" transform="translate(665.634 3029.145)">
			<path id="Path_653" d="M54.4,114.5c-6.4,0-12.7-0.6-19-1.9l0,0c-22.2-4.5-33.9-30-35.3-51.8c-0.8-11.2,2.7-22.3,9.7-31
				c8.5-10.8,17.5-18.6,27.4-24s20.3-7.1,30.1-5C79.2,3.3,88.5,11.9,96,20c10,10.8,15.6,21,17.1,31.4c0.8,6.3,0.9,12.6,0.3,18.9
				c-0.5,5.4-1,11.6-3.5,16.9c-5.1,11-16.6,19.9-30.9,23.9C71,113.4,62.7,114.5,54.4,114.5 M35.7,111.4c14.2,2.9,29,2.4,43-1.4
				c13.9-3.9,25.1-12.6,30.1-23.3c2.4-5.1,2.9-11.2,3.4-16.5c0.6-6.2,0.6-12.5-0.3-18.6c-1.5-10.1-7-20.2-16.8-30.8
				C87.7,12.9,78.7,4.4,67.1,2c-9.4-2-19.5-0.3-29.2,4.9c-9.8,5.2-18.6,13-27,23.6C3.9,39,0.5,49.8,1.3,60.7
				C2.7,82.1,14.1,107,35.7,111.4z"/>
		</g>
		<g id="Group_4556">
			<g id="Group_4079" transform="translate(618.915 2999.895)">
				<path id="Path_644" class="st2" d="M71.8,174.6c-8,0-15.8-2.1-22.6-6.2c-7.2-4.4-14.1-11.3-21.2-21c-2.9-4.1-5.6-8.3-8.1-12.7
					c-2.8-5-5.3-10.3-7.7-15.3c-1.6-3.3-3.2-6.7-4.9-10c-3.7-7.2-6.8-13.9-7.2-21.7c-0.6-10.5,3.7-20.1,7.9-29.4
					c0.4-1,0.9-1.9,1.3-2.9l0.6-1.3c3.2-7.3,6.9-15.7,12.6-21.8c7.6-8.1,18.4-12.8,25.8-15.5C57.1,13.4,65.7,9.4,74,4.7
					c7.2-4.2,15.6-5.6,23.7-4.1c6.9,1.3,13.1,4.6,18.8,7.9c1.8,1,3.6,2.1,5.3,3.1c5.8,3.4,11.9,6.9,18,10
					c6.7,3.4,11.7,9.1,16.4,14.7c1.6,1.9,3.3,3.8,5,5.6c6.4,6.8,13.2,14.9,13.1,26.4c0,4.5-0.4,9-0.8,13.4c-0.6,6-0.8,12-0.6,18
					c0.5,9-1.6,17.9-6.1,25.8c-1.3,2.3-2.8,4.6-4.2,6.8c-1.4,2.1-2.8,4.2-4,6.4c-0.9,1.7-1.8,3.4-2.7,5.1c-1.5,2.9-3,5.9-4.8,8.6
					c-5.4,8.7-12.8,14-23.3,16.9c-7.2,2-14.4,2.2-21.4,2.5c-9.3,0.3-18.6,1.1-27.8,2.4C76.5,174.4,74.1,174.6,71.8,174.6
					 M22.6,133.2c2.4,4.3,5,8.4,7.9,12.4c6.8,9.4,13.5,16,20.3,20.2c8.3,4.9,18,6.8,27.5,5.3c9.3-1.3,18.7-2.1,28.2-2.4
					c6.9-0.3,13.9-0.5,20.8-2.4c9.7-2.7,16.6-7.6,21.5-15.6c1.7-2.7,3.1-5.5,4.6-8.3c0.9-1.7,1.8-3.5,2.8-5.3
					c1.3-2.3,2.7-4.5,4.1-6.6c1.4-2.1,2.8-4.3,4.1-6.6c4.2-7.3,6.2-15.7,5.7-24.1c-0.2-6.1,0-12.3,0.6-18.4
					c0.4-4.3,0.7-8.8,0.7-13.2c0.1-10.4-6.1-17.7-12.3-24.3c-1.7-1.8-3.4-3.8-5.1-5.7c-4.6-5.4-9.3-10.9-15.5-14
					c-6.2-3.1-12.3-6.6-18.2-10c-1.8-1.1-3.6-2.1-5.3-3.1c-5.5-3.1-11.4-6.3-17.8-7.5C89.7,2.2,82,3.5,75.4,7.3
					c-8.4,4.8-17.1,8.9-26.2,12.3c-7.1,2.7-17.5,7.1-24.7,14.8c-5.4,5.7-8.8,13.4-12.1,20.9L12,56.6c-0.4,0.9-0.8,1.7-1.2,2.6
					l-0.1,0.3c-4,9-8.1,18.2-7.6,28C3.5,94.7,6.5,101,10,108c1.7,3.3,3.3,6.8,4.9,10.1C17.3,123.1,19.8,128.3,22.6,133.2"/>
			</g>
			<g id="Group_4087" transform="translate(706.919 3057.651)">
				<path id="Path_652" class="st2" d="M33,62.1c-7.6,0-15-2.5-21.1-7C0.8,46.7-3.2,30.2,2.8,17.5C8.6,5.3,23.5-2,37.4,0.5
					c10.6,1.9,19,9.6,22.5,20.6c3.8,11.8,1,24.7-7,33C47.8,59.3,41,62.1,33,62.1 M15.2,50.7c9.5,7.1,24.8,8.8,33.8-0.5
					c6.6-6.8,8.8-17.6,5.7-27.5c-2.9-9-9.7-15.4-18.2-16.9c-11.6-2.1-24,3.9-28.7,13.9C2.8,30.3,6.1,43.8,15.2,50.7"/>
			</g>
			<g id="Group_4089" transform="translate(664.117 3027.627)">
				<path id="Path_654" class="st2" d="M55.9,117.5c-6.5,0-12.9-0.6-19.3-1.9C13.6,111,1.6,84.8,0.1,62.4c-0.8-11.6,2.8-23,10.1-32
					c8.6-11,17.8-18.9,27.9-24.3c10.3-5.5,21-7.3,31.1-5.2C81.5,3.4,91,12.2,98.6,20.5c10.2,11,15.9,21.6,17.5,32.2
					c0.8,6.4,0.9,12.9,0.3,19.3c-0.5,5.5-1.1,11.8-3.6,17.4c-5.3,11.4-17.2,20.6-31.8,24.7C72.8,116.4,64.4,117.5,55.9,117.5
					 M37.5,111.4c14,2.8,28.5,2.4,42.3-1.4c13.5-3.8,24.4-12.2,29.1-22.4c2.3-4.9,2.8-10.8,3.3-16c0.6-6.1,0.6-12.2-0.2-18.3
					c-1.4-9.8-6.8-19.6-16.4-30C88.3,15.6,79.4,7.3,68.3,5c-9.1-1.9-18.8-0.2-28.2,4.8C30.5,14.9,21.8,22.5,13.5,33
					c-6.6,8.2-9.9,18.6-9.2,29.1C5.7,82.9,16.7,107.2,37.5,111.4"/>
			</g>
		</g>
	</g>
</g>
</svg>
