<?xml version="1.0" encoding="utf-8"?>
<!-- Generator: Adobe Illustrator 24.3.0, SVG Export Plug-In . SVG Version: 6.00 Build 0)  -->
<svg version="1.1" id="Layer_1" xmlns="http://www.w3.org/2000/svg" xmlns:xlink="http://www.w3.org/1999/xlink" x="0px" y="0px"
	 width="172px" height="172px" viewBox="0 0 172 172" style="enable-background:new 0 0 172 172;" xml:space="preserve">
<style type="text/css">
	.st0{fill:#FFFFFF;}
	.st1{fill:none;}
	.st2{fill:#7061F0;}
</style>
<g id="Group_5950" transform="translate(-567 -903)">
	<g id="Path_1347" transform="translate(567 903)">
		<path class="st0" d="M86,0c47.5,0,86,38.5,86,86s-38.5,86-86,86S0,133.5,0,86S38.5,0,86,0z"/>
		<path class="st0" d="M86,1c-5.8,0-11.5,0.6-17.1,1.7c-5.5,1.1-10.8,2.8-16,5c-5,2.1-9.9,4.8-14.4,7.8c-4.5,3-8.7,6.5-12.6,10.4
			C22,29.7,18.6,34,15.5,38.5c-3.1,4.5-5.7,9.4-7.8,14.4c-2.2,5.1-3.8,10.5-5,16C1.6,74.5,1,80.2,1,86s0.6,11.5,1.7,17.1
			c1.1,5.5,2.8,10.8,5,16c2.1,5,4.8,9.9,7.8,14.4c3,4.5,6.5,8.7,10.4,12.6c3.8,3.8,8.1,7.3,12.6,10.4c4.5,3.1,9.4,5.7,14.4,7.8
			c5.1,2.2,10.5,3.8,16,5c5.6,1.1,11.4,1.7,17.1,1.7s11.5-0.6,17.1-1.7c5.5-1.1,10.8-2.8,16-5c5-2.1,9.9-4.8,14.4-7.8
			c4.5-3,8.7-6.5,12.6-10.4s7.3-8.1,10.4-12.6c3.1-4.5,5.7-9.4,7.8-14.4c2.2-5.1,3.8-10.5,5-16c1.1-5.6,1.7-11.4,1.7-17.1
			s-0.6-11.5-1.7-17.1c-1.1-5.5-2.8-10.8-5-16c-2.1-5-4.8-9.9-7.8-14.4c-3-4.5-6.5-8.7-10.4-12.6c-3.8-3.8-8.1-7.3-12.6-10.4
			c-4.5-3.1-9.4-5.7-14.4-7.8c-5.1-2.2-10.5-3.8-16-5C97.5,1.6,91.8,1,86,1 M86,0c47.5,0,86,38.5,86,86s-38.5,86-86,86S0,133.5,0,86
			S38.5,0,86,0z"/>
	</g>
	<g id="Group_4558" transform="translate(610.303 946.303)">
		<g id="Group_4038" transform="translate(0 0)">
			<g>
				<rect x="21.2" y="20.7" class="st1" width="42.8" height="43.4"/>
				<path class="st2" d="M0,0v84.7h84.7V0H0z M64,64H21.2V20.7H64V64z"/>
			</g>
			<path id="Path_576" class="st2" d="M55.7,29H29v26.8h26.8V29z"/>
		</g>
	</g>
</g>
</svg>
