<?xml version="1.0" encoding="utf-8"?>
<!-- Generator: Adobe Illustrator 24.3.0, SVG Export Plug-In . SVG Version: 6.00 Build 0)  -->
<svg version="1.1" id="Layer_1" xmlns="http://www.w3.org/2000/svg" xmlns:xlink="http://www.w3.org/1999/xlink" x="0px" y="0px"
	 width="495.6px" height="451.6px" viewBox="0 0 495.6 451.6" style="enable-background:new 0 0 495.6 451.6;" xml:space="preserve"
	>
<style type="text/css">
	.st0{fill:#FCE396;}
	.st1{fill:#50BCBA;}
	.st2{fill:#7061F0;}
	.st3{fill:#1B2F53;}
	.st4{fill:#ED6B4D;}
</style>
<path id="Path_1089" class="st0" d="M0,190.8h304.8v260.8H0V190.8z"/>
<path id="Path_685" class="st1" d="M169.9,55.9c-17.4,17.4-31.3,38-40.9,60.7c-9.9,23.5-15,48.8-15,74.3l0,0h4.4l0,0
	C118.4,88,202,4.4,304.8,4.4S491.2,88,491.2,190.8l0,0h4.4l0,0c0-25.5-5.1-50.8-15-74.3c-9.6-22.7-23.5-43.3-40.9-60.6
	c-17.4-17.4-38-31.3-60.7-40.9c-23.5-9.9-48.8-15-74.3-15c-25.5,0-50.8,5.1-74.3,15C207.9,24.6,187.3,38.5,169.9,55.9"/>
<path id="Path_686" class="st1" d="M175.7,184.3c-0.1,2.2-0.2,4.4-0.2,6.5h6.7c0-2.1,0.1-4.1,0.2-6.2c3.2-65.2,57-116.4,122.3-116.4
	c2.1,0,4.2,0.1,6.3,0.2c32.5,1.6,63,16,84.7,40.2c20.4,22.5,31.7,51.8,31.6,82.2h6.7v-0.2c0.1-32-11.8-62.8-33.4-86.5
	c-22.9-25.5-55.1-40.8-89.4-42.4c-34.2-1.8-67.8,10.1-93.2,33.2C192.6,117.9,177.4,150,175.7,184.3"/>
<path id="Path_687" class="st1" d="M237.5,177.2c-0.9,4.5-1.4,9-1.4,13.6h9c0-4,0.4-7.9,1.2-11.8c3.1-15.5,12.3-29.2,25.5-37.9
	c9.7-6.5,21.2-10,32.9-10c4,0,8,0.4,12,1.2c15.5,3.1,29.1,12.3,37.9,25.5c6.5,9.8,10,21.2,10,33h9v0c-0.1-32.6-23-60.7-55-67.2l0,0
	c-17.8-3.7-36.4,0-51.5,10.1C251.7,143.7,241.1,159.3,237.5,177.2"/>
<path id="Path_688" class="st1" d="M144.9,187.6c0,1.1,0,2.2,0,3.2h5.6c0-1,0-2.1,0-3.1c0.7-41,17.8-80,47.4-108.3
	c28.7-27.7,67-43.1,106.9-43c1.1,0,2.1,0,3.2,0C392,38.1,459.3,107,459.2,190.8h5.6v-0.1c0.1-41.3-15.9-81-44.6-110.7
	C390.9,49.3,350.5,31.6,308,30.9c-42.4-1-83.5,15.1-114,44.6C163.3,104.7,145.6,145.1,144.9,187.6"/>
<path id="Path_689" class="st1" d="M206.6,180.9c-0.3,3.3-0.5,6.6-0.5,9.9h7.8c0-3,0.2-6.1,0.5-9.1c4.6-46.4,43.7-81.8,90.3-81.7
	c3.1,0,6.2,0.2,9.2,0.5c24,2.4,46,14.2,61.2,32.9c13.3,16.2,20.5,36.5,20.5,57.5h7.8v-0.1c-0.1-50.6-38.4-93-88.8-98.1
	c-26.1-2.7-52.1,5.1-72.3,21.7C222.1,130.9,209.2,154.8,206.6,180.9"/>
<path id="Path_690" class="st1" d="M268.9,172.6c-2.9,5.6-4.3,11.9-4.3,18.2h10.1c0-4.7,1.1-9.4,3.3-13.6
	c5.1-10.2,15.6-16.6,27-16.5c4.7,0,9.4,1.1,13.6,3.2c10.1,5.1,16.5,15.5,16.5,26.9h10.1c0-4.3-0.7-8.5-2-12.6
	c-3.3-10.2-10.5-18.6-20.1-23.4C303.1,144.9,278.9,152.8,268.9,172.6"/>
<path id="Path_692" class="st2" d="M304.8,190.8H114c0,105.4,85.4,190.8,190.8,190.8V190.8z"/>
<path id="Path_693" class="st3" d="M295.8,381.4V190.8h9v190.8C301.8,381.6,298.8,381.6,295.8,381.4"/>
<path id="Path_694" class="st3" d="M277.5,190.8h9.8v190c-3.3-0.3-6.6-0.7-9.8-1.1V190.8z"/>
<path id="Path_695" class="st3" d="M259.2,190.8h10.5v187.6c-3.5-0.7-7-1.4-10.5-2.3V190.8z"/>
<path id="Path_696" class="st3" d="M240.9,190.8H252v183.4c-3.8-1.1-7.5-2.3-11.1-3.6V190.8z"/>
<path id="Path_697" class="st3" d="M222.6,190.8h11.8v177.4c-4-1.6-7.9-3.3-11.8-5.1V190.8z"/>
<path id="Path_698" class="st3" d="M204.3,190.8h12.4v169.3c-4.2-2.2-8.4-4.6-12.4-7.1V190.8z"/>
<path id="Path_699" class="st3" d="M186,190.8h13v158.8c-4.5-3-8.8-6.2-13-9.5V190.8z"/>
<path id="Path_700" class="st3" d="M181.3,190.8v145.5c-4.8-4.1-9.3-8.3-13.7-12.8V190.8H181.3z"/>
<path id="Path_701" class="st3" d="M149.3,190.8h14.3v128.4c-5.1-5.6-9.9-11.6-14.3-17.8V190.8z"/>
<path id="Path_702" class="st3" d="M131,190.8h15v105.8c-5.7-8.5-10.7-17.5-15-26.9V190.8z"/>
<path id="Path_703" class="st3" d="M128.3,190.8v72.6c-9.5-23-14.4-47.7-14.3-72.6H128.3z"/>
<path id="Path_691" class="st4" d="M304.8,190.8v190.8c105.4,0,190.8-85.4,190.8-190.8H304.8z"/>
</svg>
