<?xml version="1.0" encoding="utf-8"?>
<!-- Generator: Adobe Illustrator 24.3.0, SVG Export Plug-In . SVG Version: 6.00 Build 0)  -->
<svg version="1.1" id="Layer_1" xmlns="http://www.w3.org/2000/svg" xmlns:xlink="http://www.w3.org/1999/xlink" x="0px" y="0px"
	 width="466px" height="437px" viewBox="0 0 466 437" style="enable-background:new 0 0 466 437;" xml:space="preserve">
<style type="text/css">
	.st0{fill:#EAEAEA;}
	.st1{fill:#ED6B4D;}
	.st2{fill:#F7C7FF;}
	.st3{fill:#FFFFFF;}
	.st4{fill:#7061F0;stroke:#7061F0;stroke-width:2;}
</style>
<g id="Group_4820" transform="translate(-732 -4990.634)">
	<rect id="Rectangle_581" x="732" y="4990.6" class="st0" width="466" height="437"/>
	<rect id="austin-distel-nGc5RT2HmF0-unsplash" x="732" y="4990.6" class="st1" width="465.5" height="436.5"/>
	<g id="Group_4641" transform="translate(-7107.696 8)">
		<path id="Path_1149" class="st2" d="M8151.6,5339.7c-76,43.9-173.4,17.5-217.5-58.8c-44.1-76.4-18.2-173.9,57.8-217.7"/>
		<path id="Path_1150" class="st3" d="M7931.1,5264.4c35.1,78.1,126.9,112.9,205,77.8c37.5-16.9,66.8-48,81.4-86.4
			c16.5-43.6,12.6-92.3-10.7-132.6c-39.3-68-124.7-96.7-197.9-63.8C7930.9,5094.4,7896,5186.4,7931.1,5264.4 M8010.3,5062.5
			c71.5-32.2,155-4.2,193.4,62.3c2.6,4.4,4.9,9,7,13.7c34.4,76.4,0.3,166.1-76,200.5c-71.5,32.2-155,4.2-193.4-62.3
			c-2.6-4.4-4.9-9-7-13.7C7899.9,5186.6,7933.9,5096.9,8010.3,5062.5C8010.3,5062.5,8010.3,5062.5,8010.3,5062.5"/>
		<path id="Path_1151" class="st4" d="M7992.5,5062.5c4.7-2.7,9.5-5.2,14.4-7.4c74.7-33.9,162.9-5.4,203.7,65.7
			c2.7,4.7,5.2,9.5,7.4,14.4c36.2,80.4,0.3,174.9-80.1,211.1c-38.6,17.4-82.6,18.7-122.2,3.7c-39.7-14.9-71.7-45.1-89-83.8
			C7893,5191,7922.5,5103,7992.5,5062.5 M8012.2,5066.7c-74,33.3-107,120.3-73.7,194.4c2,4.5,4.3,9,6.8,13.3
			c40.6,70.3,130.6,94.3,200.8,53.6c65.3-37.8,91.4-118.8,60.5-187.6c-2-4.5-4.3-9-6.8-13.3
			C8162.1,5061.7,8080.9,5035.5,8012.2,5066.7L8012.2,5066.7z"/>
		<path id="Path_1152" class="st3" d="M7972.5,5234.4c18.6,55.2,78.4,85,133.6,66.4c26.5-8.9,48.4-28,60.9-53
			c12.5-25,14.5-54,5.5-80.6c-2.3-6.7-5.2-13.2-8.7-19.4c-29.2-50.4-93.8-67.5-144.2-38.3
			C7976.2,5134.7,7956.5,5186.8,7972.5,5234.4 M8040,5104c53.4-17.9,111.3,10.8,129.2,64.2c8.6,25.7,6.7,53.7-5.4,77.9
			c-25.1,50.5-86.4,71-136.8,45.9c-17.9-8.9-32.8-22.8-42.8-40.1c-28.2-48.9-11.5-111.3,37.3-139.6
			C8027.4,5109,8033.6,5106.2,8040,5104"/>
		<path id="Path_1153" class="st1" d="M8016.8,5104.7c6.4-3.7,13.3-6.8,20.3-9.2c50-16.8,104.9,3.9,131.4,49.5
			c3.7,6.5,6.8,13.3,9.2,20.4c19.5,58.1-11.8,121.1-69.9,140.6c-27.9,9.4-58.4,7.3-84.8-5.8c-54.9-27.4-77.2-94.1-49.8-149
			C7982.9,5131.7,7998.1,5115.6,8016.8,5104.7 M8120.9,5284.3c46.1-26.8,61.8-85.8,35-131.9c-9.5-16.3-23.6-29.6-40.5-38
			c-47.7-23.7-105.6-4.3-129.4,43.5c-11.4,22.9-13.2,49.4-5.1,73.7c2.1,6.2,4.7,12.1,8,17.7c23,39.6,70.8,57.6,114.2,43
			C8109.4,5290.2,8115.3,5287.5,8120.9,5284.3"/>
		<path id="Path_1154" class="st3" d="M8013.9,5204c1.8,32.4,29.5,57.2,61.9,55.4c32.4-1.8,57.2-29.5,55.4-61.9
			c-1.8-32.4-29.5-57.2-61.9-55.4C8036.9,5144,8012.1,5171.6,8013.9,5204 M8069.4,5145.6c30.5-1.7,56.5,21.6,58.2,52.1
			s-21.6,56.5-52.1,58.2c-30.5,1.7-56.5-21.6-58.2-52.1C8015.7,5173.4,8039,5147.3,8069.4,5145.6"/>
		<path id="Path_1155" class="st3" d="M8040,5144.3c31.2-17.9,71-7.2,89,24c14,24.4,10.8,55-7.9,75.9c-24,26.8-65.2,29.1-92,5.1
			c-12.9-11.5-20.7-27.7-21.6-45l3.5-0.2l-3.5,0.2C8006.1,5179.8,8018.7,5156.6,8040,5144.3 M8069.8,5152
			c-26.9,1.5-47.5,24.5-46,51.4c1.5,26.9,24.5,47.5,51.4,46c12.9-0.7,25-6.5,33.7-16.2c18-20.1,16.3-50.9-3.8-68.9
			C8095.4,5155.8,8082.7,5151.3,8069.8,5152"/>
	</g>
</g>
</svg>
