<?xml version="1.0" encoding="utf-8"?>
<!-- Generator: Adobe Illustrator 24.3.0, SVG Export Plug-In . SVG Version: 6.00 Build 0)  -->
<svg version="1.1" id="Layer_1" xmlns="http://www.w3.org/2000/svg" xmlns:xlink="http://www.w3.org/1999/xlink" x="0px" y="0px"
	 width="956px" height="466px" viewBox="0 0 956 466" style="enable-background:new 0 0 956 466;" xml:space="preserve">
<style type="text/css">
	.st0{fill:#7061F0;}
	.st1{fill:#2ABBDD;}
</style>
<g>
	<g transform="matrix(1, 0, 0, 1, 233, 4929)">
		<rect id="Rectangle_388-2" x="-233" y="-4929" class="st0" width="956" height="466"/>
	</g>
	<path id="Path_1245" class="st1" d="M490,0h465.5v465.5H490V0z"/>
	<g id="Group_4756" transform="translate(-1353 6360) rotate(-90)">
		<path id="Path_572" class="st0" d="M6127,2074.1c0-78,181.4-231.1,233-231.1h-466C5944.4,1843,6127,1997.1,6127,2074.1"/>
		<path id="Path_573" class="st0" d="M6127,2309c0-78,181.4-231.1,233-231.1h-466C5944.4,2077.9,6127,2232,6127,2309"/>
	</g>
	<g>
		<path class="st1" d="M89.9,89.7c11.6-11.6,20.8-25.3,27.2-40.4c6.6-15.6,10-32.3,10-49.2l-2.9,0C124,68.5,68.5,123.9,0.1,124l0,0
			l0,2.9l0,0c17,0,33.8-3.4,49.4-10C64.6,110.5,78.4,101.3,89.9,89.7z"/>
		<path class="st1" d="M106.6,2c0-0.6,0-1.3,0-1.9l-3.7,0c0,0.6,0,1.2,0,1.8c-0.5,27.3-11.9,53.2-31.6,72
			c-19.1,18.5-44.7,28.7-71.2,28.7l0,3.7c0,0,0,0,0.1,0c27.5,0.1,53.9-10.6,73.7-29.7C94.3,57.2,106.1,30.3,106.6,2z"/>
		<path class="st1" d="M86,4.2c0.1-1.4,0.1-2.7,0.1-4.1l-4.5,0c0,1.3,0,2.6-0.1,3.9c-1,21.6-10.7,41.9-26.8,56.4
			C39.7,74,20.2,81.5,0,81.5L0,86h0.1c21.3,0,41.8-7.9,57.6-22.2C74.8,48.4,85,27,86,4.2z"/>
		<path class="st1" d="M65.5,6.5c0.2-2.1,0.3-4.3,0.3-6.4l-5.2,0C60.6,2,60.5,4,60.3,6c-1.6,16-9.5,30.7-21.9,40.8
			C27.6,55.7,14,60.5,0.1,60.4l0,5.2c0,0,0,0,0.1,0l0,0C33.9,65.5,62.1,40,65.5,6.5z"/>
		<path class="st1" d="M44.9,8.9C45.5,6,45.8,3,45.8,0.1l-6,0c0,2.6-0.3,5.1-0.8,7.6C35.2,26.5,18.6,39.5,0.1,39.5l0,6
			c0,0,0,0,0.1,0l0,0c9,0,17.7-2.7,25.2-7.6C35.5,31.3,42.5,20.8,44.9,8.9z"/>
		<path class="st1" d="M0.1,26.7c2.8,0,5.7-0.5,8.4-1.4c6.8-2.2,12.4-7,15.6-13.4C26,8.1,26.9,4,27,0l-6.7,0c0,3.1-0.8,6.1-2.2,8.8
			c-3.5,7-10.6,11-17.9,11L0.1,26.7L0.1,26.7z"/>
	</g>
</g>
</svg>
