<svg id="Layer_1" data-name="Layer 1" xmlns="http://www.w3.org/2000/svg" viewBox="0 0 172 172"><defs><style>.cls-1{fill:#7061f0;}.cls-2{fill:#fff;}</style></defs><g id="Group_4944" data-name="Group 4944"><circle id="Ellipse_5" data-name="Ellipse 5" class="cls-1" cx="86" cy="86" r="86"/><g id="Group_4035" data-name="Group 4035"><path id="Path_577" data-name="Path 577" class="cls-2" d="M86.41,44A42.41,42.41,0,0,0,44,86.41h0a42.41,42.41,0,0,0,42.41,42.41h0a42.4,42.4,0,0,0,42.41-42.41h0A42.41,42.41,0,0,0,86.41,44h0m0,64.31a21.9,21.9,0,1,1,21.9-21.9,21.92,21.92,0,0,1-21.9,21.9"/><path id="Path_578" data-name="Path 578" class="cls-2" d="M86.41,73A13.42,13.42,0,1,0,99.82,86.41h0A13.41,13.41,0,0,0,86.41,73h0"/></g></g></svg>