<?xml version="1.0" encoding="utf-8"?>
<!-- Generator: Adobe Illustrator 24.3.0, SVG Export Plug-In . SVG Version: 6.00 Build 0)  -->
<svg version="1.1" id="Layer_1" xmlns="http://www.w3.org/2000/svg" xmlns:xlink="http://www.w3.org/1999/xlink" x="0px" y="0px"
	 width="564px" height="420px" viewBox="0 0 564 420" style="enable-background:new 0 0 564 420;" xml:space="preserve">
<style type="text/css">
	.st0{fill:#2ABBDD;}
	.st1{fill:none;}
	.st2{fill:#FFFFFF;}
	.st3{fill:#7061F0;}
	.st4{fill:#F7C7FF;}
</style>
<g>
	<rect id="leon-vbxyFxlgpjM-unsplash-2" y="0" class="st0" width="564" height="420"/>
	<rect y="0" class="st1" width="564" height="420"/>
	<path id="Path_578" class="st2" d="M282.1,124.3c-47.3,0-85.7,38.4-85.7,85.7s38.4,85.7,85.7,85.7s85.7-38.4,85.7-85.7
		C367.8,162.7,329.4,124.3,282.1,124.3"/>
	<g id="Group_5789" transform="translate(964 4624.998)">
		<path id="Path_1522" class="st3" d="M-688.5-4421.5h12.9v-43.5h-12.9V-4421.5z"/>
		<path id="Path_1523" class="st3" d="M-688.5-4365h12.9v-43.5h-12.9V-4365z"/>
		<path id="Path_1524" class="st3" d="M-732-4408.5h43.5v-12.9H-732V-4408.5z"/>
		<path id="Path_1525" class="st3" d="M-675.5-4408.5h43.5v-12.9h-43.5V-4408.5z"/>
	</g>
	<path class="st4" d="M11,210.1c0,84.7,38.8,160.2,99.6,209.9h342.9c60.8-49.7,99.6-125.3,99.6-209.9c0-84.7-38.9-160.4-99.8-210.1
		H110.8C49.9,49.7,11,125.3,11,210.1z M282.1,70.1c77.2,0,139.9,62.8,139.9,139.9S359.2,350,282.1,350s-139.9-62.8-139.9-139.9
		S204.9,70.1,282.1,70.1z"/>
</g>
</svg>
