<?xml version="1.0" encoding="utf-8"?>
<!-- Generator: Adobe Illustrator 24.3.0, SVG Export Plug-In . SVG Version: 6.00 Build 0)  -->
<svg version="1.1" id="Layer_1" xmlns="http://www.w3.org/2000/svg" xmlns:xlink="http://www.w3.org/1999/xlink" x="0px" y="0px"
	 width="172px" height="172px" viewBox="0 0 172 172" style="enable-background:new 0 0 172 172;" xml:space="preserve">
<style type="text/css">
	.st0{fill:#7061F0;}
	.st1{fill:#FFFFFF;}
</style>
<g id="Group_4946" transform="translate(-8889 2007)">
	<path id="Path_1343" class="st0" d="M8975-2007c47.5,0,86,38.5,86,86s-38.5,86-86,86s-86-38.5-86-86S8927.5-2007,8975-2007z"/>
	<g id="Group_4933" transform="translate(12075.938 -1432.511)">
		<path id="Path_563" class="st1" d="M-3058.1-489.1l-42.4-42.4l0,0l-42.4,42.4l42.4,42.4l0,0L-3058.1-489.1z M-3100.5-467.2
			c-12.1,0-21.9-9.8-21.9-21.9c0-12.1,9.8-21.9,21.9-21.9c12.1,0,21.9,9.8,21.9,21.9C-3078.6-477-3088.4-467.2-3100.5-467.2"/>
		<path id="Path_564" class="st1" d="M-3087.1-489.1c0-7.4-6-13.4-13.4-13.4c0,0,0,0,0,0c-7.4,0-13.4,6-13.4,13.4c0,0,0,0,0,0
			c0,7.4,6,13.4,13.4,13.4c0,0,0,0,0,0C-3093.1-475.7-3087.1-481.7-3087.1-489.1C-3087.1-489.1-3087.1-489.1-3087.1-489.1"/>
	</g>
</g>
</svg>
