<svg id="Layer_1" data-name="Layer 1" xmlns="http://www.w3.org/2000/svg" xmlns:xlink="http://www.w3.org/1999/xlink" viewBox="0 0 1296 379"><defs><style>.cls-1{fill:none;}.cls-2{fill:#7061f0;}.cls-3{fill:#1b2f53;}.cls-4{clip-path:url(#clip-path);}</style><clipPath id="clip-path"><rect class="cls-1" x="917" width="379" height="379"/></clipPath></defs><g id="Group_5912" data-name="Group 5912"><g id="Group_5182" data-name="Group 5182"><path id="Path_868" data-name="Path 868" class="cls-2" d="M0,0H1296V379H0Z"/><g id="Group_5091" data-name="Group 5091"><path id="Path_717" data-name="Path 717" class="cls-3" d="M917,379h379V0H917Z"/><path id="Path_718" data-name="Path 718" class="cls-3" d="M1106.5,379h94.75V0H1106.5Z"/><path id="Path_734" data-name="Path 734" class="cls-3" d="M918.25,379H1013V0H918.25Z"/><g class="cls-4"><g id="Group_4165" data-name="Group 4165"><g id="Group_4159" data-name="Group 4159"><path id="Path_720" data-name="Path 720" class="cls-2" d="M1106.5,0V189.5c31.56,0,94.75-74.25,94.75-94.75,0-21-62.78-94.75-94.75-94.75"/></g><g id="Group_4160" data-name="Group 4160"><path id="Path_721" data-name="Path 721" class="cls-2" d="M1201.25,189.5V0C1232.8,0,1296,74.26,1296,94.75c0,21-62.79,94.75-94.75,94.75"/></g><g id="Group_4161" data-name="Group 4161"><path id="Path_722" data-name="Path 722" class="cls-2" d="M1106.5,189.5V379c31.56,0,94.75-74.25,94.75-94.75,0-21-62.78-94.75-94.75-94.75"/></g><g id="Group_4162" data-name="Group 4162"><path id="Path_723" data-name="Path 723" class="cls-2" d="M1201.25,379V189.5c31.55,0,94.75,74.26,94.75,94.75,0,21-62.79,94.75-94.75,94.75"/></g><g id="Group_4163" data-name="Group 4163"><path id="Path_724" data-name="Path 724" class="cls-2" d="M1011.75,189.5V0c31.55,0,94.75,74.26,94.75,94.75,0,21-62.79,94.75-94.75,94.75"/></g><g id="Group_4164" data-name="Group 4164"><path id="Path_725" data-name="Path 725" class="cls-2" d="M1011.75,379V189.5c31.55,0,94.75,74.26,94.75,94.75,0,21-62.79,94.75-94.75,94.75"/></g></g></g><g id="Group_4170" data-name="Group 4170"><g id="Group_4167" data-name="Group 4167"><path id="Path_728" data-name="Path 728" class="cls-2" d="M917,189.5V0c31.55,0,94.75,74.26,94.75,94.75,0,21-62.79,94.75-94.75,94.75"/></g><g id="Group_4169" data-name="Group 4169"><path id="Path_730" data-name="Path 730" class="cls-2" d="M917,379V189.5c31.55,0,94.75,74.26,94.75,94.75,0,21-62.79,94.75-94.75,94.75"/></g></g><path id="Path_733" data-name="Path 733" class="cls-1" d="M917,379h96V0H917Z"/></g></g><path id="Path_869" data-name="Path 869" class="cls-2" d="M860,0h59V379H860Z"/></g></svg>