<?xml version="1.0" encoding="utf-8"?>
<!-- Generator: Adobe Illustrator 24.3.0, SVG Export Plug-In . SVG Version: 6.00 Build 0)  -->
<svg version="1.1" id="Layer_1" xmlns="http://www.w3.org/2000/svg" xmlns:xlink="http://www.w3.org/1999/xlink" x="0px" y="0px"
	 width="1296px" height="499px" viewBox="0 0 1296 499" style="enable-background:new 0 0 1296 499;" xml:space="preserve">
<style type="text/css">
	.st0{fill:#7061F0;}
	.st1{fill:#1B2F53;}
	.st2{clip-path:url(#SVGID_2_);}
	.st3{fill:none;}
</style>
<g id="Group_5933" transform="translate(-72 -3359)">
	<path id="Path_868" class="st0" d="M72,3359h1295.5v499H72V3359z"/>
	<path id="Path_717" class="st1" d="M992,3858h376v-499H992V3858z"/>
	<path id="Path_718" class="st1" d="M1116.9,3858h124.9v-499h-124.9V3858z"/>
	<path id="Path_734" class="st1" d="M992,3858h1.7v-499H992V3858z"/>
	<g>
		<defs>
			<rect id="SVGID_1_" x="867.2" y="3359" width="499.5" height="499"/>
		</defs>
		<clipPath id="SVGID_2_">
			<use xlink:href="#SVGID_1_"  style="overflow:visible;"/>
		</clipPath>
		<g id="Group_4165" transform="translate(867.182 3359)" class="st2">
			<g id="Group_4159" transform="translate(249.755 0.001)">
				<path id="Path_720" class="st0" d="M0,0v249.5c41.6,0,124.9-97.8,124.9-124.8C124.9,97.1,42.1,0,0,0"/>
			</g>
			<g id="Group_4160" transform="translate(374.626 0)">
				<path id="Path_721" class="st0" d="M0,249.5V0c41.6,0,124.9,97.8,124.9,124.7C124.9,152.4,42.1,249.5,0,249.5"/>
			</g>
			<g id="Group_4161" transform="translate(249.755 249.751)">
				<path id="Path_722" class="st0" d="M0-0.3v249.5c41.6,0,124.9-97.8,124.9-124.7C124.9,96.9,42.1-0.3,0-0.3"/>
			</g>
			<g id="Group_4162" transform="translate(374.626 249.75)">
				<path id="Path_723" class="st0" d="M0,249.2V-0.3c41.6,0,124.9,97.8,124.9,124.7C124.9,152.1,42.1,249.2,0,249.2"/>
			</g>
			<g id="Group_4163" transform="translate(124.871 0)">
				<path id="Path_724" class="st0" d="M0,249.5V0c41.6,0,124.9,97.8,124.9,124.7C124.9,152.4,42.1,249.5,0,249.5"/>
			</g>
			<g id="Group_4164" transform="translate(124.871 249.75)">
				<path id="Path_725" class="st0" d="M0,249.2V-0.3c41.6,0,124.9,97.8,124.9,124.7C124.9,152.1,42.1,249.2,0,249.2"/>
			</g>
		</g>
	</g>
	<path id="Path_733" class="st3" d="M494.2,3858h499.5v-499H494.2V3858z"/>
	<path id="Path_869" class="st0" d="M934,3359h59v499h-59V3359z"/>
</g>
</svg>
