<?xml version="1.0" encoding="utf-8"?>
<!-- Generator: Adobe Illustrator 24.3.0, SVG Export Plug-In . SVG Version: 6.00 Build 0)  -->
<svg version="1.1" id="Layer_1" xmlns="http://www.w3.org/2000/svg" xmlns:xlink="http://www.w3.org/1999/xlink" x="0px" y="0px"
	 width="1296px" height="494px" viewBox="0 0 1296 494" style="enable-background:new 0 0 1296 494;" xml:space="preserve">
<style type="text/css">
	.st0{fill:#B7AFF7;}
	.st1{fill:#1B2F53;}
</style>
<path id="Path_1314" class="st0" d="M0,0h1296v494H0V0z"/>
<path class="st1" d="M670.5,447.3c-11.8-6-25.6-7.1-38.1-2.9c-12.6,4.1-23.1,13.1-29,24.9c-3.5,7-5.4,14.7-5.4,22.5
	c0,0.7,0,1.5,0,2.2h12.6c-0.4-6.4,0.9-12.9,3.9-19c4.5-8.9,12.3-15.6,21.7-18.7c9.4-3.1,19.7-2.3,28.6,2.2
	c12.6,6.4,20.6,19.3,20.5,33.5c0,0.7,0,1.4-0.1,2.1h12.5C698.7,475,688.6,456.4,670.5,447.3z"/>
</svg>
