<svg xmlns="http://www.w3.org/2000/svg" width="59" height="59" viewBox="0 0 59 59">
  <g id="Path_28" data-name="Path 28" fill="none">
    <path d="M29.5,0A29.5,29.5,0,1,1,0,29.5,29.5,29.5,0,0,1,29.5,0Z" stroke="none"/>
    <path d="M 29.5 1.5 C 25.7193603515625 1.5 22.05260848999023 2.240108489990234 18.60160064697266 3.699760437011719 C 15.26755905151367 5.109939575195312 12.27296829223633 7.129051208496094 9.701011657714844 9.701011657714844 C 7.129051208496094 12.27296829223633 5.109939575195312 15.26755905151367 3.699760437011719 18.60160064697266 C 2.240108489990234 22.05260848999023 1.5 25.7193603515625 1.5 29.5 C 1.5 33.2806396484375 2.240108489990234 36.9473876953125 3.699760437011719 40.39839935302734 C 5.109939575195312 43.73244094848633 7.129051208496094 46.72702789306641 9.701011657714844 49.29898834228516 C 12.27296829223633 51.87094879150391 15.26755905151367 53.89006042480469 18.60160064697266 55.30023956298828 C 22.05260848999023 56.75989151000977 25.7193603515625 57.5 29.5 57.5 C 33.2806396484375 57.5 36.9473876953125 56.75989151000977 40.39839935302734 55.30023956298828 C 43.73244094848633 53.89006042480469 46.72702789306641 51.87094879150391 49.29898834228516 49.29898834228516 C 51.87094879150391 46.72702789306641 53.89006042480469 43.73244094848633 55.30023956298828 40.39839935302734 C 56.75989151000977 36.9473876953125 57.5 33.2806396484375 57.5 29.5 C 57.5 25.7193603515625 56.75989151000977 22.05260848999023 55.30023956298828 18.60160064697266 C 53.89006042480469 15.26755905151367 51.87094879150391 12.27296829223633 49.29898834228516 9.701011657714844 C 46.72702789306641 7.129051208496094 43.73244094848633 5.109939575195312 40.39839935302734 3.699760437011719 C 36.9473876953125 2.240108489990234 33.2806396484375 1.5 29.5 1.5 M 29.5 0 C 45.79240036010742 0 59 13.20759963989258 59 29.5 C 59 45.79240036010742 45.79240036010742 59 29.5 59 C 13.20759963989258 59 0 45.79240036010742 0 29.5 C 0 13.20759963989258 13.20759963989258 0 29.5 0 Z" stroke="none" fill="#1b2f53"/>
  </g>
</svg>
