<svg xmlns="http://www.w3.org/2000/svg" width="95.211" height="95.212" viewBox="0 0 95.211 95.212"><g transform="translate(0 0)"><path d="M-3047.188-589.194l-47.606-47.606h0l-47.605,47.606,47.605,47.606h0Zm-47.606,24.6a24.583,24.583,0,0,1-24.555-24.555,24.552,24.552,0,0,1,24.555-24.555,24.553,24.553,0,0,1,24.555,24.555,24.583,24.583,0,0,1-24.555,24.555" transform="translate(3142.399 636.8)" fill="#fff"/><path d="M-3045.212-554.656a15.057,15.057,0,0,0-15.044-15.044,15.057,15.057,0,0,0-15.044,15.044,15.057,15.057,0,0,0,15.044,15.044h0a14.964,14.964,0,0,0,15.044-15.044h0" transform="translate(3107.863 602.262)" fill="#1b2f53"/></g></svg>