<svg id="Layer_1" data-name="Layer 1" xmlns="http://www.w3.org/2000/svg" viewBox="0 0 564 368"><defs><style>.cls-1{fill:#1b2f53;}.cls-2{fill:#7061f0;}.cls-3{fill:#f7c7ff;}</style></defs><g id="Group_4647" data-name="Group 4647"><g id="Group_4303" data-name="Group 4303"><path id="Path_555" data-name="Path 555" class="cls-1" d="M0,0H564V368H0Z"/><path id="Path_705" data-name="Path 705" class="cls-2" d="M134,167.71V296.35h6.09V167.71Z"/><path id="Path_706" data-name="Path 706" class="cls-2" d="M198,185.45v110.9h9.9V185.45Z"/><path id="Path_707" data-name="Path 707" class="cls-2" d="M270,163.27V296.35h11.4V163.27Z"/><path id="Path_708" data-name="Path 708" class="cls-2" d="M344,127.78V296.35h15.2V127.78Z"/><path id="Path_709" data-name="Path 709" class="cls-2" d="M426,106.49V296.36h19V106.49Z"/><path id="Path_710" data-name="Path 710" class="cls-2" d="M73,296.36h4.61V176.58H73Z"/><g id="Group_4269" data-name="Group 4269"><path id="Path_711" data-name="Path 711" class="cls-3" d="M104,172.14V296.35h4.59V172.14Z"/><path id="Path_712" data-name="Path 712" class="cls-3" d="M166,181V296.36h6.09V181Z"/><path id="Path_713" data-name="Path 713" class="cls-3" d="M234,181V296.36h9.89V181Z"/><path id="Path_714" data-name="Path 714" class="cls-3" d="M307,145.53V296.35h11.4V145.53Z"/><path id="Path_715" data-name="Path 715" class="cls-3" d="M385,115.36v181h15.2v-181Z"/><path id="Path_716" data-name="Path 716" class="cls-3" d="M471,71V296.35h19V71Z"/></g></g></g></svg>