<?xml version="1.0" encoding="utf-8"?>
<!-- Generator: Adobe Illustrator 24.3.0, SVG Export Plug-In . SVG Version: 6.00 Build 0)  -->
<svg version="1.1" id="Layer_1" xmlns="http://www.w3.org/2000/svg" xmlns:xlink="http://www.w3.org/1999/xlink" x="0px" y="0px"
	 width="172px" height="172px" viewBox="0 0 172 172" style="enable-background:new 0 0 172 172;" xml:space="preserve">
<style type="text/css">
	.st0{fill:#FFFFFF;}
	.st1{fill:#662466;}
	.st2{fill:#7061F0;}
	.st3{fill:#1B2F53;}
</style>
<g id="Group_5205" transform="translate(-194 -1450)">
	<g id="Group_5204" transform="translate(26)">
		<circle class="st0" cx="254" cy="1536" r="86"/>
		<g>
			<g id="Group_3908" transform="translate(178 1460)">
				<g id="Group_3896" transform="translate(0.455 0.455)">
					<path id="Path_441" class="st1" d="M105.2,145.6c9-3.8,17.2-9.3,24.1-16.2c6.9-6.9,12.4-15.1,16.2-24.1c4-9.3,6-19.4,6-29.5
						c0-10.1-2-20.2-6-29.5c-3.8-9-9.3-17.2-16.2-24.1c-6.9-6.9-15.1-12.4-24.1-16.2c-9.3-4-19.4-6-29.5-6C65.6,0,55.6,2,46.2,6
						c-9,3.8-17.2,9.3-24.1,16.2C15.2,29.1,9.7,37.3,5.9,46.3c-4,9.3-6,19.4-6,29.5c0,10.1,2,20.2,6,29.5c3.8,9,9.3,17.2,16.2,24.1
						c6.9,6.9,15.1,12.4,24.1,16.2c9.3,3.9,19.4,6,29.5,6C85.9,151.6,95.9,149.6,105.2,145.6 M0.8,75.8c0-41.4,33.6-74.9,74.9-74.9
						c41.4,0,74.9,33.6,74.9,74.9c0,41.4-33.6,74.9-74.9,74.9C34.4,150.7,0.9,117.2,0.8,75.8"/>
				</g>
				<g id="Group_3897">
					<path id="Path_442" class="st2" d="M76.2,152.5c-10.2,0-20.3-2-29.7-6c-9.1-3.8-17.3-9.4-24.2-16.3c-7-6.9-12.5-15.2-16.3-24.2
						c-4-9.4-6-19.5-6-29.7c0-10.2,2-20.3,6-29.7c3.8-9.1,9.4-17.3,16.3-24.2c6.9-7,15.2-12.5,24.2-16.3c9.4-4,19.5-6,29.7-6
						c10.2,0,20.3,2,29.7,6c9.1,3.8,17.3,9.4,24.2,16.3c7,6.9,12.5,15.2,16.3,24.2c4,9.4,6,19.5,6,29.7c0,10.2-2,20.3-6,29.7
						c-3.8,9.1-9.4,17.3-16.3,24.2c-6.9,7-15.2,12.5-24.2,16.3l-0.2-0.4l0.2,0.4C96.5,150.5,86.4,152.5,76.2,152.5 M76.2,1.8
						C35.1,1.8,1.8,35.2,1.7,76.3c0,41.1,33.4,74.4,74.5,74.5c41.1,0,74.4-33.4,74.5-74.5C150.6,35.2,117.3,1.8,76.2,1.8"/>
				</g>
				<g id="Group_3898" transform="translate(13.001 13)">
					<path id="Path_443" class="st1" d="M107,108.9c12.1-11.6,19.1-27.6,19.4-44.3c0.4-16.8-6-33-17.6-45.1
						C97.2,7.3,81.3,0.3,64.5,0c-16.8-0.4-33,6-45.1,17.6C7.3,29.3,0.3,45.2,0,62c0,0.4,0,0.9,0,1.3c0,16.3,6.3,32,17.6,43.8
						c11.6,12.1,27.6,19.1,44.3,19.4C78.7,126.9,94.9,120.5,107,108.9 M61.9,125.6c-16.6-0.3-32.3-7.2-43.7-19.2
						C6.7,94.6,0.5,78.6,0.8,62C1.6,27.6,30,0.3,64.5,0.9C81,1.2,96.8,8.1,108.2,20.1c11.2,11.6,17.4,27.1,17.4,43.2
						c0,0.4,0,0.9,0,1.3C124.8,99,96.4,126.3,61.9,125.6"/>
				</g>
				<g id="Group_3899" transform="translate(12.318 12.318)">
					<path id="Path_444" class="st3" d="M63.9,127.9c-0.4,0-0.9,0-1.3,0c-17-0.3-33.1-7.4-44.8-19.6C6.3,96.4-0.1,80.5,0,64
						c0-0.4,0-0.9,0-1.3c0.3-17,7.4-33.1,19.6-44.8C31.8,6.1,48.2-0.3,65.2,0.1c17,0.3,33.1,7.4,44.8,19.6
						c11.8,12.2,18.2,28.6,17.8,45.6c-0.3,17-7.4,33.1-19.6,44.8C96.3,121.5,80.4,127.9,63.9,127.9 M63.9,2.3
						C30.3,2.3,2.9,29.2,2.2,62.7c-0.4,16.4,5.8,32.2,17.2,44c11.3,11.8,26.9,18.7,43.3,18.9c16.4,0.4,32.2-5.8,44-17.2
						c11.8-11.3,18.7-26.9,19-43.2c0-0.4,0-0.9,0-1.3c0-15.9-6.1-31.2-17.2-42.7C97.1,9.4,81.5,2.6,65.1,2.3
						C64.7,2.3,64.3,2.3,63.9,2.3"/>
				</g>
				<g id="Group_3900" transform="translate(25.507 25.507)">
					<path id="Path_445" class="st1" d="M101.4,53.3c0.7-13.4-4-26.6-13-36.6c-9-10-21.6-16-35.1-16.6c-13.4-0.7-26.6,4-36.6,13
						c-10,9-16,21.6-16.7,35.1C0,49.1,0,50,0,50.8c0,12.6,4.7,24.7,13.1,33.9c9,10,21.6,16,35.1,16.7c13.4,0.7,26.6-4,36.6-13
						C94.7,79.4,100.7,66.8,101.4,53.3 M48.2,100.6C35,99.9,22.5,94,13.7,84.2c-8.9-9.8-13.5-22.7-12.8-36C2.3,20.8,25.7-0.4,53.2,1
						c26.5,1.4,47.3,23.2,47.4,49.8c0,0.8,0,1.7-0.1,2.5C99.9,66.5,94,78.9,84.1,87.8C74.3,96.7,61.4,101.3,48.2,100.6"/>
				</g>
				<g id="Group_3901" transform="translate(24.597 24.597)">
					<path id="Path_446" class="st2" d="M51.7,103.3c-0.9,0-1.8,0-2.7-0.1c-13.7-0.7-26.5-6.8-35.7-17C4.7,76.8,0,64.5,0,51.7
						C0,50.9,0,50,0,49.1C0.7,35.4,6.8,22.5,17,13.4c10.1-9.2,23.5-14,37.2-13.3c13.7,0.7,26.5,6.8,35.7,16.9
						c9.2,10.1,14,23.5,13.3,37.2C102.5,68,96.4,80.8,86.2,90C76.8,98.6,64.4,103.3,51.7,103.3 M51.6,2.7
						C25.5,2.8,4.1,23.2,2.7,49.2C2,62.2,6.5,74.9,15.3,84.5c8.7,9.7,20.9,15.5,33.9,16.1c13,0.7,25.7-3.8,35.3-12.6
						c9.7-8.7,15.4-20.9,16.1-33.8c0-0.8,0.1-1.7,0.1-2.5c0-26.1-20.4-47.6-46.5-48.9C53.2,2.7,52.4,2.7,51.6,2.7"/>
				</g>
				<g id="Group_3902" transform="translate(37.937 37.935)">
					<path id="Path_447" class="st1" d="M76.4,42.2c1-10.1-2-20.2-8.4-28.1C61.5,6.2,52.2,1.2,42.1,0.2C32-0.8,21.9,2.2,14,8.7
						C6.2,15.1,1.2,24.4,0.2,34.5C0,35.8,0,37.1,0,38.4C0,58,14.9,74.4,34.4,76.4C55.4,78.5,74.2,63.2,76.4,42.2 M34.5,75.6
						c-19.1-2-33.6-18-33.7-37.2c0-1.3,0.1-2.5,0.2-3.8c1-9.9,5.9-19,13.6-25.2C22.3,3,32.1,0.1,42,1.1c19.1,2,33.6,18,33.7,37.2
						c0,1.3-0.1,2.5-0.2,3.8c-1,9.9-5.9,19-13.6,25.2C54.3,73.6,44.4,76.6,34.5,75.6"/>
				</g>
				<g id="Group_3903" transform="translate(36.8 36.798)">
					<path id="Path_448" class="st3" d="M39.4,78.9c-1.3,0-2.7-0.1-4-0.2c-20.2-2-35.5-19-35.5-39.2c0-1.3,0.1-2.7,0.2-4
						c1-10.4,6.2-20,14.3-26.6C22.6,2.3,33-0.8,43.4,0.2c10.4,1,20,6.2,26.6,14.3c6.6,8.1,9.8,18.5,8.7,28.9
						C76.6,63.6,59.6,78.9,39.4,78.9 M35.7,75.6c9.6,1,19.2-1.9,26.6-8c7.5-6.1,12.2-14.9,13.2-24.5c0.1-1.2,0.2-2.5,0.2-3.7
						c0-18.6-14.1-34.3-32.7-36.1c-9.6-1-19.2,1.9-26.6,8C9,17.4,4.2,26.2,3.3,35.8c-0.1,1.2-0.2,2.5-0.2,3.7
						C3.1,58.2,17.2,73.8,35.7,75.6z"/>
				</g>
				<g id="Group_3904" transform="translate(50.173 50.173)">
					<path id="Path_449" class="st1" d="M51.6,31.3c1.4-6.8,0-13.8-3.8-19.6C43.9,5.9,38,1.9,31.2,0.6c-6.8-1.4-13.8,0-19.6,3.8
						C5.8,8.2,1.8,14.2,0.5,20.9C0.1,22.7,0,24.4,0,26.2c0,5.1,1.5,10.1,4.4,14.4c3.8,5.8,9.8,9.8,16.5,11.1
						C35,54.5,48.7,45.4,51.6,31.3 M21,50.8C14.5,49.5,8.7,45.6,5,40c-3.7-5.6-5-12.4-3.7-18.9c1.3-6.6,5.2-12.3,10.8-16
						c5.6-3.7,12.4-5,18.9-3.7c6.6,1.3,12.3,5.2,16,10.8c2.7,4.1,4.2,8.9,4.2,13.9c0,1.7-0.2,3.4-0.5,5C47.9,44.7,34.7,53.5,21,50.8
						"/>
				</g>
				<g id="Group_3905" transform="translate(48.809 48.807)">
					<path id="Path_450" class="st2" d="M27.4,54.9c-1.8,0-3.7-0.2-5.5-0.5c-7.1-1.4-13.4-5.6-17.4-11.7C1.6,38.2,0,32.9,0,27.5
						c0-1.8,0.2-3.7,0.6-5.5C1.9,14.9,6.2,8.6,12.2,4.6c6.1-4,13.5-5.5,20.6-4C40,2,46.2,6.2,50.2,12.3c4,6.1,5.5,13.5,4,20.6
						c-1.4,7.1-5.6,13.4-11.7,17.4C38.1,53.3,32.8,54.9,27.4,54.9 M27.3,3.6c-4.7,0-9.2,1.4-13.1,4C8.9,11.1,5.3,16.5,4,22.7
						c-1.3,6.2,0,12.6,3.5,17.9c3.5,5.3,8.9,9,15.1,10.2c12.9,2.6,25.5-5.7,28.1-18.6c0.3-1.6,0.5-3.2,0.5-4.8c0-4.7-1.4-9.2-4-13.1
						C43.8,9,38.3,5.3,32.1,4.1C30.5,3.8,28.9,3.6,27.3,3.6"/>
				</g>
				<g id="Group_3906" transform="translate(61.736 61.727)">
					<path id="Path_451" class="st1" d="M27.4,21.1C31,13.9,28.1,5.2,21,1.6c-3.4-1.7-7.4-2-11.1-0.8C6.3,2,3.2,4.6,1.5,8
						c-1,2-1.6,4.3-1.6,6.5C0,20,3,25,7.9,27.5C15.1,31.1,23.8,28.2,27.4,21.1 M8.3,26.7c-6.7-3.4-9.4-11.6-6-18.3
						c1.6-3.2,4.5-5.7,7.9-6.8c3.4-1.1,7.2-0.9,10.4,0.8c4.6,2.3,7.5,7,7.5,12.2c0,2.1-0.5,4.2-1.5,6.1C23.2,27.4,15,30.1,8.3,26.7"
						/>
				</g>
				<g id="Group_3907" transform="translate(60.144 60.134)">
					<path id="Path_452" class="st3" d="M16,32.2c-2.5,0-5-0.6-7.2-1.7C3.4,27.8-0.1,22.2,0,16.1c0-2.5,0.6-5,1.7-7.2
						C3.6,5.1,7,2.2,11,0.8c4.1-1.3,8.5-1,12.3,0.9c7.9,4,11.1,13.7,7.1,21.6L29.7,23l0.8,0.4c-1.9,3.8-5.3,6.7-9.3,8
						C19.4,32,17.7,32.2,16,32.2 M10.6,26.9c5.9,3,13.2,0.6,16.2-5.3c0.9-1.7,1.3-3.5,1.3-5.4c0-4.6-2.5-8.7-6.6-10.8
						c-2.9-1.5-6.2-1.7-9.2-0.7c-3,1-5.6,3.2-7,6C2.3,16.6,4.7,23.9,10.6,26.9"/>
				</g>
			</g>
		</g>
	</g>
</g>
</svg>
