<svg id="Layer_1" data-name="Layer 1" xmlns="http://www.w3.org/2000/svg" xmlns:xlink="http://www.w3.org/1999/xlink" viewBox="0 0 466 489"><defs><style>.cls-1,.cls-10,.cls-11,.cls-12,.cls-13,.cls-14,.cls-15,.cls-16,.cls-17,.cls-18,.cls-19,.cls-20,.cls-21,.cls-22,.cls-23,.cls-24,.cls-25,.cls-8,.cls-9{fill:none;}.cls-2{fill:#eef3ff;}.cls-3{fill:#7061f0;}.cls-4{clip-path:url(#clip-path);}.cls-5{fill:#1b2f53;}.cls-28,.cls-29,.cls-6{fill:#fff9ef;}.cls-7{clip-path:url(#clip-path-2);}.cls-10,.cls-11,.cls-12,.cls-13,.cls-14,.cls-15,.cls-16,.cls-17,.cls-18,.cls-19,.cls-20,.cls-21,.cls-22,.cls-23,.cls-24,.cls-25,.cls-8,.cls-9{stroke:#7061f0;}.cls-8{stroke-width:1.73px;}.cls-9{stroke-width:2.46px;}.cls-10{stroke-width:3.19px;}.cls-11{stroke-width:3.92px;}.cls-12{stroke-width:4.65px;}.cls-13{stroke-width:5.39px;}.cls-14{stroke-width:6.11px;}.cls-15{stroke-width:6.85px;}.cls-16{stroke-width:7.58px;}.cls-17{stroke-width:8.31px;}.cls-18{stroke-width:9.04px;}.cls-19{stroke-width:9.77px;}.cls-20{stroke-width:10.5px;}.cls-21{stroke-width:11.23px;}.cls-22{stroke-width:11.96px;}.cls-23{stroke-width:12.69px;}.cls-24{stroke-width:13.42px;}.cls-26{fill:#50bcba;}.cls-27,.cls-28,.cls-29{isolation:isolate;}.cls-28{font-size:65px;letter-spacing:-0.03em;}.cls-28,.cls-29{font-family:DMSans-Bold, DM Sans;font-weight:700;}.cls-29{font-size:30px;letter-spacing:-0.03em;}</style><clipPath id="clip-path"><rect class="cls-1" x="54.35" y="34.29" width="356.79" height="356.79"/></clipPath><clipPath id="clip-path-2"><path class="cls-1" d="M232.75,376.76A163.87,163.87,0,0,0,396.62,212.9h0A163.87,163.87,0,0,0,232.75,49h0Z"/></clipPath></defs><g id="Group_4648" data-name="Group 4648"><path id="Path_803" data-name="Path 803" class="cls-2" d="M0,444H388.2V0H0Z"/><path id="Path_804" data-name="Path 804" class="cls-3" d="M232.75,444H466V0H232.75Z"/><g class="cls-4"><g id="Group_4221" data-name="Group 4221"><g id="Group_4219" data-name="Group 4219"><path id="Path_805" data-name="Path 805" class="cls-5" d="M232.75,376.76a163.87,163.87,0,0,0,0-327.73h0a163.87,163.87,0,1,0,0,327.73"/></g><g id="Group_4220" data-name="Group 4220"><path id="Path_806" data-name="Path 806" class="cls-6" d="M232.75,49A163.87,163.87,0,0,1,396.62,212.89h0A163.88,163.88,0,0,1,232.75,376.76"/></g></g></g><g class="cls-7"><g id="Group_4239" data-name="Group 4239"><g id="Group_4222" data-name="Group 4222"><path id="Path_808" data-name="Path 808" class="cls-8" d="M40.25,47H422.87"/></g><g id="Group_4223" data-name="Group 4223"><path id="Path_809" data-name="Path 809" class="cls-9" d="M40.25,67.64H422.87"/></g><g id="Group_4224" data-name="Group 4224"><path id="Path_810" data-name="Path 810" class="cls-10" d="M40.25,88.33H422.87"/></g><g id="Group_4225" data-name="Group 4225"><path id="Path_811" data-name="Path 811" class="cls-11" d="M40.25,109H422.87"/></g><g id="Group_4226" data-name="Group 4226"><path id="Path_812" data-name="Path 812" class="cls-12" d="M40.25,129.7H422.87"/></g><g id="Group_4227" data-name="Group 4227"><path id="Path_813" data-name="Path 813" class="cls-13" d="M40.25,150.38H422.87"/></g><g id="Group_4228" data-name="Group 4228"><path id="Path_814" data-name="Path 814" class="cls-14" d="M40.25,171.07H422.87"/></g><g id="Group_4229" data-name="Group 4229"><path id="Path_815" data-name="Path 815" class="cls-15" d="M40.25,191.75H422.87"/></g><g id="Group_4230" data-name="Group 4230"><path id="Path_816" data-name="Path 816" class="cls-16" d="M40.25,212.44H422.87"/></g><g id="Group_4231" data-name="Group 4231"><path id="Path_817" data-name="Path 817" class="cls-17" d="M40.25,233.12H422.87"/></g><g id="Group_4232" data-name="Group 4232"><path id="Path_818" data-name="Path 818" class="cls-18" d="M40.25,253.81H422.87"/></g><g id="Group_4233" data-name="Group 4233"><path id="Path_819" data-name="Path 819" class="cls-19" d="M40.25,274.49H422.87"/></g><g id="Group_4234" data-name="Group 4234"><path id="Path_820" data-name="Path 820" class="cls-20" d="M40.25,295.18H422.87"/></g><g id="Group_4235" data-name="Group 4235"><path id="Path_821" data-name="Path 821" class="cls-21" d="M40.25,315.86H422.87"/></g><g id="Group_4236" data-name="Group 4236"><path id="Path_822" data-name="Path 822" class="cls-22" d="M40.25,336.55H422.87"/></g><g id="Group_4237" data-name="Group 4237"><path id="Path_823" data-name="Path 823" class="cls-23" d="M40.25,357.23H422.87"/></g><g id="Group_4238" data-name="Group 4238"><path id="Path_824" data-name="Path 824" class="cls-24" d="M40.25,377.92H422.87"/></g></g></g><g class="cls-4"><g id="Group_4242" data-name="Group 4242"><g id="Group_4240" data-name="Group 4240"><path id="Path_826" data-name="Path 826" class="cls-25" d="M232.75,49A163.87,163.87,0,0,1,396.62,212.89h0A163.88,163.88,0,0,1,232.75,376.76"/></g><g id="Group_4241" data-name="Group 4241"><path id="Path_827" data-name="Path 827" class="cls-5" d="M232.75,376.76a163.87,163.87,0,1,1,0-327.73"/></g></g></g><g id="Group_4103" data-name="Group 4103"><path id="Path_581" data-name="Path 581" class="cls-26" d="M98,399,53,489h90Z"/></g><g class="cls-27"><text class="cls-28" transform="translate(98 233.7)">50</text><text class="cls-29" transform="translate(179.9 233.7)">%</text></g></g></svg>