<?xml version="1.0" encoding="utf-8"?>
<!-- Generator: Adobe Illustrator 24.3.0, SVG Export Plug-In . SVG Version: 6.00 Build 0)  -->
<svg version="1.1" id="Layer_1" xmlns="http://www.w3.org/2000/svg" xmlns:xlink="http://www.w3.org/1999/xlink" x="0px" y="0px"
	 width="172px" height="172px" viewBox="0 0 172 172" style="enable-background:new 0 0 172 172;" xml:space="preserve">
<style type="text/css">
	.st0{fill:#FFFFFF;}
	.st1{fill:#7061F0;}
	.st2{fill:#1B2F53;}
</style>
<g id="Group_5405" transform="translate(-959 -2423)">
	<circle class="st0" cx="1045" cy="2509" r="86"/>
	<g id="Group_4486" transform="translate(982.614 2443)">
		<g id="Group_3883" transform="translate(39.923 68.023)">
			<path id="Path_429" d="M0,38.6h0.8L22.3,1.4l21.5,37.3h0.8L22.3,0L0,38.6z"/>
		</g>
		<g id="Group_3884" transform="translate(32.323 54.857)">
			<path id="Path_430" d="M0,51.8h0.8L29.9,1.4L59,51.8h0.8L29.9,0L0,51.8z"/>
		</g>
		<g id="Group_3885" transform="translate(1.902 2.194)">
			<path id="Path_431" d="M60.4,1.4l59.4,103.1h0.8L60.4,0L0,104.5h0.8L60.4,1.4z"/>
		</g>
		<g id="Group_3886" transform="translate(24.724 41.691)">
			<path id="Path_432" d="M0,65h0.8L37.5,1.4L74.2,65h0.8L37.5,0L0,65z"/>
		</g>
		<g id="Group_3887" transform="translate(9.513 15.36)">
			<path id="Path_433" d="M0,91.3h0.8l52-89.9l51.8,89.9h0.8L52.8,0L0,91.3z"/>
		</g>
		<g id="Group_3888" transform="translate(39.379 67.396)">
			<path id="Path_434" class="st1" d="M45.6,39.6h-1.5l-21.3-37l-21.4,37H0L22.8,0L45.6,39.6z M44.5,38.9L44.5,38.9L22.8,1.3
				L1.1,38.9h0L22.8,1.4L44.5,38.9z"/>
		</g>
		<g id="Group_3889" transform="translate(23.637 40.438)">
			<path id="Path_435" class="st1" d="M0,66.8h2.2l36.4-63l36.1,62.7l0.2,0.3h2.2L38.6,0L0,66.8z"/>
		</g>
		<g id="Group_3890" transform="translate(7.883 13.48)">
			<path id="Path_436" class="st1" d="M0,94.1h2.9l51.5-89l51,88.5l0.3,0.5h2.9L54.4,0L0,94.1z"/>
		</g>
		<g id="Group_3891" transform="translate(17.118 28.525)">
			<path id="Path_437" d="M0,78.1h0.8L45.1,1.4l44.2,76.8h0.8L45.1,0L0,78.1z"/>
		</g>
		<g id="Group_3892" transform="translate(31.508 53.917)">
			<path id="Path_438" class="st2" d="M61.4,53.2h-1.8L59.4,53L30.7,3.2l-28.9,50H0L30.7,0L61.4,53.2z"/>
		</g>
		<g id="Group_3893" transform="translate(0 0)">
			<path id="Path_439" class="st2" d="M62.3,0L0,107.7h3.3l59-102l58.8,102h3.3L62.3,0z"/>
		</g>
		<g id="Group_3894" transform="translate(15.76 26.959)">
			<path id="Path_440" class="st2" d="M0,80.5h2.6l44-76l43.8,76h2.6L46.5,0L0,80.5z"/>
		</g>
	</g>
</g>
</svg>
