<?xml version="1.0" encoding="utf-8"?>
<!-- Generator: Adobe Illustrator 24.3.0, SVG Export Plug-In . SVG Version: 6.00 Build 0)  -->
<svg version="1.1" id="Layer_1" xmlns="http://www.w3.org/2000/svg" xmlns:xlink="http://www.w3.org/1999/xlink" x="0px" y="0px"
	 width="172px" height="172px" viewBox="0 0 172 172" style="enable-background:new 0 0 172 172;" xml:space="preserve">
<style type="text/css">
	.st0{fill:#FFFFFF;}
	.st1{fill:#4FE099;}
	.st2{fill:#1B2F53;}
	.st3{fill:#7061F0;}
</style>
<g id="Group_5904" transform="translate(-175 -2131)">
	<circle class="st0" cx="261" cy="2217" r="86"/>
	<g id="Group_4487" transform="translate(188.843 2143.854)">
		<path id="Path_454" class="st1" d="M72.3,52.8h0.9V1.5h-0.9V52.8z"/>
		<path id="Path_455" class="st1" d="M72.3,59.4h0.9V1.5h-0.9V59.4z"/>
		<path id="Path_456" class="st2" d="M70.8,60.9h3.9V0h-3.9V60.9z"/>
		<g id="Group_3910" transform="translate(36.671 10.868)">
			<path id="Path_457" class="st1" d="M25.6,44.9L0,0.5L0.7,0l25.7,44.4L25.6,44.9z"/>
		</g>
		<g id="Group_3911" transform="translate(36.671 10.868)">
			<path id="Path_458" class="st1" d="M28.9,50.5L0,0.5L0.7,0l28.9,50.1L28.9,50.5z"/>
		</g>
		<g id="Group_3912" transform="translate(34.619 8.816)">
			<path id="Path_459" class="st3" d="M30.4,54.6L0,2L3.3,0l30.4,52.7L30.4,54.6z"/>
		</g>
		<path id="Path_460" class="st1" d="M72.3,144.6h0.9V93.3h-0.9V144.6z"/>
		<path id="Path_461" class="st1" d="M71.5,145.4H74v-53h-2.6V145.4z"/>
		<path id="Path_462" class="st1" d="M72.3,144.6h0.9V86.7h-0.9V144.6z"/>
		<path id="Path_463" class="st2" d="M71.5,145.4H74V85.9h-2.6V145.4z"/>
		<g id="Group_3913" transform="translate(82.528 90.295)">
			<path id="Path_464" class="st1" d="M25.6,44.9L0,0.5L0.7,0l25.7,44.4L25.6,44.9z"/>
		</g>
		<g id="Group_3914" transform="translate(81.356 89.123)">
			<path id="Path_465" class="st1" d="M26.5,47.2L0,1.3L2.2,0L28.7,46L26.5,47.2z"/>
		</g>
		<g id="Group_3915" transform="translate(79.264 84.643)">
			<path id="Path_466" class="st1" d="M28.9,50.5L0,0.5L0.7,0l28.9,50.1L28.9,50.5z"/>
		</g>
		<g id="Group_3916" transform="translate(78.092 83.471)">
			<path id="Path_467" class="st3" d="M29.7,52.9L0,1.3L2.2,0L32,51.6L29.7,52.9z"/>
		</g>
		<g id="Group_3917" transform="translate(10.654 36.886)">
			<path id="Path_468" class="st1" d="M44.4,26.4L0,0.8L0.4,0l44.4,25.7L44.4,26.4z"/>
		</g>
		<g id="Group_3918" transform="translate(8.895 35.127)">
			<path id="Path_469" class="st1" d="M46.6,29.9L0,3l1.7-3L48.3,27L46.6,29.9z"/>
		</g>
		<g id="Group_3919" transform="translate(10.654 36.886)">
			<path id="Path_470" class="st1" d="M50,29.7L0,0.8L0.4,0l50.1,28.9L50,29.7z"/>
		</g>
		<g id="Group_3920" transform="translate(8.894 35.127)">
			<path id="Path_471" class="st2" d="M52.3,33.2L0,3l1.7-3L54,30.2L52.3,33.2z"/>
		</g>
		<path id="Path_472" class="st1" d="M1.3,73.5h51.3v-0.9H1.3V73.5z"/>
		<path id="Path_473" class="st1" d="M0,74.8h53.9v-3.4H0V74.8z"/>
		<path id="Path_474" class="st1" d="M1.3,73.5h57.8v-0.9H1.3V73.5z"/>
		<path id="Path_475" class="st3" d="M0,74.8h60.4v-3.4H0V74.8z"/>
		<g id="Group_3921" transform="translate(90.08 82.743)">
			<path id="Path_476" class="st1" d="M44.4,26.4L0,0.8L0.4,0l44.4,25.7L44.4,26.4z"/>
		</g>
		<g id="Group_3922" transform="translate(89.201 81.864)">
			<path id="Path_477" class="st1" d="M45.5,28.2L0,1.9L1,0l45.5,26.3L45.5,28.2z"/>
		</g>
		<g id="Group_3923" transform="translate(84.424 79.477)">
			<path id="Path_478" class="st1" d="M50.1,29.7L0,0.8L0.4,0L50.5,29L50.1,29.7z"/>
		</g>
		<g id="Group_3924" transform="translate(83.545 78.598)">
			<path id="Path_479" class="st2" d="M51.2,31.5L0,1.9L1,0l51.2,29.6L51.2,31.5z"/>
		</g>
		<path id="Path_480" class="st1" d="M93,73.5h51.3v-0.9H93V73.5z"/>
		<path id="Path_481" class="st1" d="M92.3,74.1h52.6V72H92.3V74.1z"/>
		<path id="Path_482" class="st1" d="M86.4,73.5h57.8v-0.9H86.4V73.5z"/>
		<path id="Path_483" class="st3" d="M85.8,74.1h59.1V72H85.8V74.1z"/>
		<g id="Group_3925" transform="translate(10.654 82.743)">
			<path id="Path_484" class="st1" d="M0.4,26.4L0,25.7L44.4,0l0.4,0.7L0.4,26.4z"/>
		</g>
		<g id="Group_3926" transform="translate(9.187 81.278)">
			<path id="Path_485" class="st1" d="M1.5,29.4L0,26.8L46.3,0l1.5,2.6L1.5,29.4z"/>
		</g>
		<g id="Group_3927" transform="translate(10.654 79.489)">
			<path id="Path_486" class="st1" d="M0.4,29.7L0,28.9L50,0l0.4,0.7L0.4,29.7z"/>
		</g>
		<g id="Group_3928" transform="translate(9.187 78.024)">
			<path id="Path_487" class="st2" d="M1.5,32.6L0,30L51.9,0l1.5,2.6L1.5,32.6z"/>
		</g>
		<g id="Group_3929" transform="translate(36.671 90.295)">
			<path id="Path_488" class="st1" d="M0.7,44.9L0,44.5L25.6,0l0.7,0.4L0.7,44.9z"/>
		</g>
		<g id="Group_3930" transform="translate(35.205 88.83)">
			<path id="Path_489" class="st1" d="M2.6,47.8L0,46.3L26.7,0l2.6,1.5L2.6,47.8z"/>
		</g>
		<g id="Group_3931" transform="translate(36.671 84.652)">
			<path id="Path_490" class="st1" d="M0.7,50.5L0,50.1L28.9,0l0.7,0.4L0.7,50.5z"/>
		</g>
		<g id="Group_3932" transform="translate(35.205 83.187)">
			<path id="Path_491" class="st3" d="M2.6,53.5L0,52L29.9,0l2.6,1.5L2.6,53.5z"/>
		</g>
		<g id="Group_3933" transform="translate(90.081 36.886)">
			<path id="Path_492" class="st1" d="M0.4,26.4L0,25.7L44.4,0l0.4,0.7L0.4,26.4z"/>
		</g>
		<g id="Group_3934" transform="translate(89.495 36.301)">
			<path id="Path_493" class="st1" d="M0.8,27.6L0,26.1L45.1,0L46,1.5L0.8,27.6z"/>
		</g>
		<g id="Group_3935" transform="translate(84.428 36.886)">
			<path id="Path_494" class="st1" d="M0.4,29.7L0,29L50,0l0.4,0.7L0.4,29.7z"/>
		</g>
		<g id="Group_3936" transform="translate(83.842 36.301)">
			<path id="Path_495" class="st2" d="M0.8,30.9L0,29.4L50.8,0l0.9,1.5L0.8,30.9z"/>
		</g>
		<g id="Group_3937" transform="translate(82.528 10.868)">
			<path id="Path_496" class="st1" d="M0.7,44.9L0,44.5L25.6,0l0.7,0.4L0.7,44.9z"/>
		</g>
		<g id="Group_3938" transform="translate(81.942 10.283)">
			<path id="Path_497" class="st1" d="M1.4,46.1L0,45.2L26,0l1.5,0.9L1.4,46.1z M1.1,44.9L26.4,1.2L1.1,44.9z"/>
		</g>
		<g id="Group_3939" transform="translate(79.268 10.868)">
			<path id="Path_498" class="st1" d="M0.7,50.5L0,50.1L28.9,0l0.7,0.4L0.7,50.5z"/>
		</g>
		<g id="Group_3940" transform="translate(78.682 10.283)">
			<path id="Path_499" class="st3" d="M1.4,51.7L0,50.9L29.3,0l1.5,0.9L1.4,51.7z M1.1,50.5L29.6,1.2L1.1,50.5z"/>
		</g>
	</g>
</g>
</svg>
