<svg id="Layer_1" data-name="Layer 1" xmlns="http://www.w3.org/2000/svg" xmlns:xlink="http://www.w3.org/1999/xlink" viewBox="0 0 530 407"><defs><style>.cls-1{fill:none;}.cls-2{fill:#d3f7e5;opacity:0.5;isolation:isolate;}.cls-3{clip-path:url(#clip-path);}.cls-4{fill:#50bcba;}.cls-5{fill:#ed6b4d;}.cls-6{fill:#7061f0;}.cls-7{fill:#1b2f53;}.cls-8{fill:#f7c7ff;}</style><clipPath id="clip-path"><rect class="cls-1" x="109.02" y="87.32" width="272.65" height="272.65"/></clipPath></defs><path id="Path_501" data-name="Path 501" class="cls-2" d="M0,39H490V407H0Z"/><g id="Group_4155" data-name="Group 4155"><g class="cls-3"><g id="Group_4154" data-name="Group 4154"><g id="Group_4128" data-name="Group 4128"><g id="Group_4127" data-name="Group 4127"><path id="Path_685" data-name="Path 685" class="cls-4" d="M341.74,127.25a135.85,135.85,0,0,0-96.39-39.93h0v3.16h0c73.42,0,133.16,59.74,133.16,133.16S318.77,356.8,245.35,356.8h0V360h0a136.28,136.28,0,0,0,96.39-232.71"/></g></g><g id="Group_4130" data-name="Group 4130"><g id="Group_4129" data-name="Group 4129"><path id="Path_686" data-name="Path 686" class="cls-4" d="M250,131.42c-1.56-.07-3.12-.11-4.67-.11v4.78c1.47,0,2.94,0,4.42.12a87.45,87.45,0,0,1,83.13,87.38c0,1.48,0,3-.11,4.47a87.56,87.56,0,0,1-87.44,83.14V316h.11A92.34,92.34,0,0,0,250,131.42"/></g></g><g id="Group_4132" data-name="Group 4132"><g id="Group_4131" data-name="Group 4131"><path id="Path_687" data-name="Path 687" class="cls-4" d="M255.06,175.58a50.31,50.31,0,0,0-9.72-1V181a43.57,43.57,0,0,1,8.45.86A42.66,42.66,0,0,1,288,223.55a43,43,0,0,1-.86,8.54,42.71,42.71,0,0,1-41.77,34.18v6.41h0a49.13,49.13,0,0,0,48-39.32h0a49,49,0,0,0-38.34-57.78"/></g></g><g id="Group_4134" data-name="Group 4134"><g id="Group_4133" data-name="Group 4133"><path id="Path_688" data-name="Path 688" class="cls-4" d="M247.66,109.37l-2.32,0v4l2.24,0A110.33,110.33,0,0,1,355.67,223.58c0,.76,0,1.52,0,2.29A110.38,110.38,0,0,1,245.34,334v4h.06a114.29,114.29,0,0,0,2.26-228.56"/></g></g><g id="Group_4136" data-name="Group 4136"><g id="Group_4135" data-name="Group 4135"><path id="Path_689" data-name="Path 689" class="cls-4" d="M252.44,153.48a70.63,70.63,0,0,0-7.1-.36v5.6a64.91,64.91,0,0,1,64.59,71.45,64.93,64.93,0,0,1-64.59,58.39v5.6h0a70.52,70.52,0,0,0,7.05-140.68"/></g></g><g id="Group_4138" data-name="Group 4138"><g id="Group_4137" data-name="Group 4137"><path id="Path_690" data-name="Path 690" class="cls-4" d="M258.33,198a28.56,28.56,0,0,0-13-3.1v7.23a21.55,21.55,0,0,1,21.54,21.59,21.24,21.24,0,0,1-2.31,9.68,21.6,21.6,0,0,1-19.24,11.83v7.24a29.15,29.15,0,0,0,9-1.45,28.77,28.77,0,0,0,4-53"/></g></g><g id="Group_4140" data-name="Group 4140"><g id="Group_4139" data-name="Group 4139"><path id="Path_691" data-name="Path 691" class="cls-5" d="M245.34,223.64H109A136.32,136.32,0,0,0,245.34,360h0Z"/></g></g><g id="Group_4142" data-name="Group 4142"><g id="Group_4141" data-name="Group 4141"><path id="Path_692" data-name="Path 692" class="cls-6" d="M245.34,223.64V87.32A136.32,136.32,0,0,0,109,223.64H245.34Z"/></g></g><g id="Group_4143" data-name="Group 4143"><path id="Path_693" data-name="Path 693" class="cls-7" d="M109.17,217.22H245.34v6.42H109c0-2.15.06-4.3.15-6.42"/></g><g id="Group_4144" data-name="Group 4144"><path id="Path_694" data-name="Path 694" class="cls-7" d="M245.34,204.13v7H109.59c.22-2.36.49-4.71.83-7Z"/></g><g id="Group_4145" data-name="Group 4145"><path id="Path_695" data-name="Path 695" class="cls-7" d="M245.34,191.05v7.49h-134q.7-3.78,1.62-7.49Z"/></g><g id="Group_4146" data-name="Group 4146"><path id="Path_696" data-name="Path 696" class="cls-7" d="M245.35,178v7.95h-131c.77-2.69,1.63-5.34,2.56-7.95Z"/></g><g id="Group_4147" data-name="Group 4147"><path id="Path_697" data-name="Path 697" class="cls-7" d="M245.34,164.89v8.41H118.62q1.69-4.28,3.68-8.41Z"/></g><g id="Group_4148" data-name="Group 4148"><path id="Path_698" data-name="Path 698" class="cls-7" d="M245.34,151.81v8.86H124.41q2.37-4.53,5.06-8.86Z"/></g><g id="Group_4149" data-name="Group 4149"><path id="Path_699" data-name="Path 699" class="cls-7" d="M245.34,138.72v9.33H131.89q3.21-4.81,6.81-9.33Z"/></g><g id="Group_4150" data-name="Group 4150"><path id="Path_700" data-name="Path 700" class="cls-7" d="M245.34,135.42H141.42q4.35-5.1,9.17-9.78h94.75Z"/></g><g id="Group_4151" data-name="Group 4151"><path id="Path_701" data-name="Path 701" class="cls-7" d="M245.34,112.56V122.8H153.61a137.2,137.2,0,0,1,12.69-10.24Z"/></g><g id="Group_4152" data-name="Group 4152"><path id="Path_702" data-name="Path 702" class="cls-7" d="M245.34,99.48v10.7H169.77A135.57,135.57,0,0,1,189,99.48Z"/></g><g id="Group_4153" data-name="Group 4153"><path id="Path_703" data-name="Path 703" class="cls-7" d="M245.34,97.55H193.45a135.83,135.83,0,0,1,51.89-10.23Z"/></g></g></g></g><g id="Group_4126" data-name="Group 4126"><path id="Path_568" data-name="Path 568" class="cls-8" d="M485.22,34.54h10.24V0H485.22Z"/><path id="Path_569" data-name="Path 569" class="cls-8" d="M485.22,79.32h10.24V44.78H485.22Z"/><path id="Path_570" data-name="Path 570" class="cls-8" d="M450.68,34.54h34.54V44.78H450.68Z"/><path id="Path_571" data-name="Path 571" class="cls-8" d="M495.46,34.54H530V44.78H495.46Z"/></g></svg>