<?xml version="1.0" encoding="utf-8"?>
<!-- Generator: Adobe Illustrator 24.3.0, SVG Export Plug-In . SVG Version: 6.00 Build 0)  -->
<svg version="1.1" id="Layer_1" xmlns="http://www.w3.org/2000/svg" xmlns:xlink="http://www.w3.org/1999/xlink" x="0px" y="0px"
	 width="466px" height="337px" viewBox="0 0 466 337" style="enable-background:new 0 0 466 337;" xml:space="preserve">
<style type="text/css">
	.st0{fill:#E8F0FF;}
	.st1{fill:#FFFFFF;}
	.st2{fill:#7061F0;}
	.st3{enable-background:new    ;}
	.st4{fill:#1B2F53;}
</style>
<g id="Group_5923" transform="translate(-732 -4614.609)">
	<path id="lukas-blazek-mcSDtbWXUZU-unsplash" class="st0" d="M732,4614.6h465.5v336.6H732V4614.6z"/>
	<g id="Group_4749" transform="translate(569 1322.449)">
		<path id="Path_709" class="st1" d="M629,3568.2H163v19h466V3568.2z"/>
		<path id="Path_715" class="st1" d="M629,3530.2H163v15.2h466V3530.2z"/>
		<path id="Path_716" class="st1" d="M629,3610.1H163v19h466V3610.1z"/>
	</g>
	<g id="Group_4748" transform="translate(667 1320.609)">
		<g id="Group_4604" transform="translate(414.02 3611.496)">
			<g>
				<g id="Group_4374" transform="translate(0 -138.152)">
					<g id="Group_4371" transform="translate(0 0)">
						<path id="Path_923" class="st2" d="M15,30.9c-2.4,0-4.8-0.6-6.9-1.7c-5.2-2.6-8.5-8-8.4-13.8c0-2.4,0.6-4.8,1.7-6.9
							c1.8-3.7,5.1-6.4,8.9-7.7c3.9-1.3,8.1-1,11.7,0.9c7.6,3.8,10.6,13.1,6.8,20.7c-1.8,3.7-5.1,6.4-8.9,7.7
							C18.3,30.6,16.6,30.9,15,30.9 M9.8,25.8c5.7,2.9,12.6,0.6,15.5-5.1c0.8-1.6,1.2-3.4,1.2-5.2c0-4.4-2.4-8.4-6.3-10.3
							c-2.7-1.4-5.9-1.6-8.8-0.7c-2.9,0.9-5.3,3-6.7,5.8C1.9,15.9,4.1,22.9,9.8,25.8"/>
					</g>
					<g id="Group_4372" transform="translate(40.244 27.82)">
						<path id="Path_924" class="st2" d="M15,0C6.5,0-0.4,6.9-0.4,15.5S6.5,30.9,15,30.9c8.5,0,15.4-6.9,15.4-15.4c0,0,0,0,0,0
							C30.4,6.9,23.5,0,15,0C15,0,15,0,15,0 M15,23.4c-4.4,0-7.9-3.6-8-8c0-4.4,3.6-8,8-8c4.4,0,7.9,3.6,8,8
							C22.9,19.8,19.4,23.4,15,23.4"/>
					</g>
					<g id="Group_4373" transform="translate(50.786 38.362)">
						<path id="Path_925" class="st2" d="M4.4,0C1.8,0-0.4,2.2-0.4,4.9s2.2,4.9,4.9,4.9s4.9-2.2,4.9-4.9S7.1,0,4.4,0"/>
					</g>
				</g>
			</g>
			<g id="Group_4375" transform="translate(15.388 -138.152)">
				<path id="Path_927" class="st2" d="M37.7,0L-0.4,58.7h3.2L40.9,0H37.7z"/>
			</g>
		</g>
		<g class="st3">
			<path class="st4" d="M118.7,3529c15.4-2.6,25-10.6,25-25.8v-76.8c0-14.8-7.6-19.4-25-19.4v-3c15.4-2.6,37-8.2,48.3-12v111.2
				c0,15.2,3,23.2,24.4,25.8v3c-12.6-0.4-24.6-0.6-36.4-0.6s-23.6,0.2-36.4,0.6V3529z"/>
			<path class="st4" d="M296.5,3394.2v3c-39.4,78-47.1,109.4-53.1,134.8h-33.2l-0.4-3l71.3-113.8h-42.6c-18.4,0-25,4.8-33.8,20h-2.8
				l5.6-41C237.2,3394.8,266.8,3394.8,296.5,3394.2z"/>
			<path class="st4" d="M394.2,3488.4c0,27.8-20.2,46-53.1,46c-16,0-26.8-4.2-34.6-9.4c-0.4-9.8-0.8-21.6-0.6-32.8h3
				c9,22,15.8,38,32.2,38c14.4,0,23.6-13.8,23.6-40.2c0-28-10.6-40.4-25.8-40.4c-8.8,0-18.2,4-24.2,13.2h-3.4l2-68h45.4
				c13.6,0,22.6-1.8,27.6-9h2.6c-1.2,10.2-2.6,20-4.6,30.2h-66.3l-1,38c6.4-6,15.6-9.6,28.4-9.6
				C369.7,3444.4,394.2,3457.4,394.2,3488.4z"/>
		</g>
	</g>
	<path id="Path_708" class="st2" d="M1198,4614.6H732v57.2h466V4614.6z"/>
</g>
</svg>
