<?xml version="1.0" encoding="utf-8"?>
<!-- Generator: Adobe Illustrator 24.3.0, SVG Export Plug-In . SVG Version: 6.00 Build 0)  -->
<svg version="1.1" id="Layer_1" xmlns="http://www.w3.org/2000/svg" xmlns:xlink="http://www.w3.org/1999/xlink" x="0px" y="0px"
	 width="1152px" height="540px" viewBox="0 0 1152 540" style="enable-background:new 0 0 1152 540;" xml:space="preserve">
<style type="text/css">
	.st0{fill:#7061F0;}
	.st1{fill:#4FE099;}
	.st2{fill:#E8F0FF;}
	.st3{fill:#212BC1;}
	.st4{fill:none;stroke:#7ADC9F;stroke-width:2;}
</style>
<g id="Group_5921" transform="translate(-144 -2525)">
	<rect id="Rectangle_709" x="144" y="2525" class="st0" width="1152" height="540"/>
	<g id="Group_5662" transform="translate(-6097.559 -278.558)">
		<g id="Group_4508" transform="translate(6340 3040.906)">
			<g>
				<g id="Group_4507" transform="translate(0 0)">
					<g id="Group_4505" transform="translate(3.167 3.168)">
						<path id="Path_1060" class="st1" d="M54.6,41.9c7.2-14.2,1.5-31.6-12.7-38.8C35-0.4,27.1-1,19.8,1.5C12.6,3.8,6.5,9,3.1,15.8
							c-2,4-3.1,8.5-3.1,13c0,10.9,6.1,20.9,15.8,25.8C30,61.8,47.4,56.1,54.6,41.9 M16.6,53.1C3.2,46.3-2.1,30,4.6,16.6
							c3.2-6.4,8.9-11.3,15.8-13.5c6.8-2.3,14.3-1.7,20.7,1.6C50.2,9.3,56,18.7,56,28.9c0,4.2-1,8.4-2.9,12.2
							C46.3,54.5,30,59.8,16.6,53.1"/>
					</g>
					<g id="Group_4506" transform="translate(0 -0.001)">
						<path id="Path_1061" class="st1" d="M32,64c-5,0-9.9-1.2-14.4-3.5C6.8,55.2,0,44.1,0,32c0-5,1.2-9.9,3.4-14.4
							C7.3,10,13.9,4.2,22,1.6c8.1-2.7,16.9-2,24.4,1.8c15.8,8,22.1,27.2,14.1,43l-1.5-0.8l1.5,0.8c-3.8,7.6-10.5,13.3-18.6,16
							C38.8,63.5,35.4,64,32,64 M21.2,53.4c11.8,6,26.2,1.2,32.2-10.6c1.7-3.3,2.6-7,2.6-10.8c0-9.1-5.1-17.4-13.2-21.4
							c-5.7-2.9-12.3-3.4-18.3-1.4c-6,2-11.1,6.3-13.9,12C4.7,33,9.4,47.4,21.2,53.4"/>
					</g>
				</g>
			</g>
		</g>
		<g id="Group_4514" transform="translate(6528.545 3019.045)">
			<g>
				<g id="Group_4513" transform="translate(0 0)">
					<g id="Group_4509" transform="translate(2.714 2.716)">
						<path id="Path_1063" class="st2" d="M102.6,62.1c2.8-13.5,0-27.5-7.6-38.9C87.5,11.7,75.6,3.7,62.1,1
							C48.6-1.7,34.6,1,23.2,8.7C11.7,16.2,3.7,28.1,1,41.6C0.4,45,0,48.5,0,51.9C0,62.1,3,72,8.7,80.5
							c7.6,11.5,19.4,19.5,32.9,22.1C69.6,108.3,96.9,90.1,102.6,62.1 M41.9,101c-13-2.6-24.5-10.3-31.8-21.4
							C2.7,68.5,0,54.9,2.7,41.9c2.6-13,10.3-24.5,21.4-31.8C35.2,2.7,48.7,0,61.8,2.7c13,2.6,24.5,10.3,31.8,21.4
							c5.5,8.2,8.4,17.8,8.4,27.6c0,3.4-0.3,6.7-1,10C95.4,88.9,69,106.4,41.9,101"/>
					</g>
					<g id="Group_4510" transform="translate(0.001 0)">
						<path id="Path_1064" class="st2" d="M54.6,109.1c-3.7,0-7.3-0.4-10.9-1.1c-14.2-2.8-26.7-11.2-34.6-23.3
							C3.2,75.8,0,65.4,0,54.7c0-3.7,0.4-7.3,1.1-10.9C3.9,29.6,12.3,17.1,24.4,9.1c12-8,26.8-10.9,41-8C79.6,3.9,92,12.3,100,24.4
							c8,12,10.9,26.8,8,41C105.2,79.6,96.8,92,84.7,100C75.8,105.9,65.3,109.1,54.6,109.1 M54.5,7.1c-9.3,0-18.4,2.8-26.1,7.9
							C17.8,22,10.5,32.8,8.1,45.2c-2.5,12.3,0,25.1,7,35.6C22,91.3,32.8,98.6,45.2,101C70.8,106.2,95.8,89.6,101,64
							c0.6-3.1,1-6.3,1-9.5c0-9.3-2.8-18.4-7.9-26.1C87.1,17.8,76.3,10.6,64,8.1C60.8,7.5,57.6,7.1,54.5,7.1"/>
					</g>
					<g id="Group_4511" transform="translate(25.714 25.698)">
						<path id="Path_1065" class="st2" d="M54.6,41.9c7.2-14.2,1.5-31.6-12.7-38.8C35-0.4,27.1-1,19.8,1.5C12.6,3.8,6.5,9,3.1,15.8
							c-2,4-3.1,8.5-3.1,13c0,10.9,6.1,20.9,15.8,25.8C30,61.8,47.4,56.1,54.6,41.9 M16.6,53.1C3.2,46.3-2.1,30,4.6,16.6
							c3.2-6.4,8.9-11.3,15.8-13.5c6.8-2.3,14.3-1.7,20.7,1.6C50.2,9.3,56,18.7,56,28.9c0,4.2-1,8.4-2.9,12.2
							C46.3,54.5,30,59.8,16.6,53.1"/>
					</g>
					<g id="Group_4512" transform="translate(22.546 22.53)">
						<path id="Path_1066" class="st1" d="M32,64c-5,0-9.9-1.2-14.4-3.5C6.8,55.2,0,44.1,0,32c0-5,1.2-9.9,3.4-14.4
							C7.3,10,13.9,4.2,22,1.6c8.1-2.7,16.9-2,24.4,1.8c15.8,8,22.1,27.2,14.1,43l-1.5-0.8l1.5,0.8c-3.8,7.6-10.5,13.3-18.6,16
							C38.8,63.5,35.4,64,32,64 M21.2,53.4c11.8,6,26.2,1.2,32.2-10.6c1.7-3.3,2.6-7,2.6-10.8c0-9.1-5.1-17.4-13.2-21.4
							c-5.7-2.9-12.3-3.4-18.3-1.4c-6,2-11.1,6.3-13.9,12C4.7,33,9.4,47.4,21.2,53.4"/>
					</g>
				</g>
			</g>
		</g>
		<g id="Group_4522" transform="translate(6762.706 2995.197)">
			<g>
				<g id="Group_4521" transform="translate(0 0)">
					<g id="Group_4515" transform="translate(2.263 2.26)">
						<path id="Path_1068" class="st3" d="M152,83.8c2.1-20.1-4-40.2-16.8-55.8C122.4,12.3,104,2.4,83.8,0.4
							C63.7-1.7,43.6,4.3,28,17.2C12.3,29.9,2.4,48.4,0.4,68.5C0.1,71.1,0,73.7,0,76.2C0.1,115.3,29.7,148,68.5,152
							C110.4,156.2,147.7,125.7,152,83.8 M68.7,150.3c-38-3.9-66.9-35.8-67-74c0-2.5,0.1-5,0.4-7.5C4,49,13.7,30.9,29.1,18.5
							C44.4,6,64,0,83.7,2.1c38,3.9,66.9,35.8,67,74c0,2.5-0.1,5-0.4,7.5c-1.9,19.7-11.7,37.7-27,50.2
							C108,146.4,88.3,152.3,68.7,150.3"/>
					</g>
					<g id="Group_4516" transform="translate(0.001 -0.001)">
						<path id="Path_1069" class="st2" d="M78.5,156.9c-2.7,0-5.3-0.1-8-0.4c-40.1-3.9-70.6-37.7-70.5-78c0-2.7,0.1-5.3,0.4-7.9
							c2-20.7,12.3-39.8,28.4-52.9C44.9,4.5,65.6-1.7,86.3,0.4c20.7,2,39.8,12.3,52.9,28.4c13.2,16.1,19.4,36.8,17.3,57.5
							C152.4,126.3,118.7,156.8,78.5,156.9 M71.2,150.3c19.1,2,38.1-3.7,52.9-15.9c14.9-12.1,24.3-29.6,26.2-48.7
							c0.2-2.4,0.4-4.9,0.4-7.3c0.1-37.1-28-68.2-64.9-71.8c-19.1-2-38.1,3.7-52.9,15.9C17.9,34.6,8.5,52.1,6.6,71.2
							c-0.2,2.4-0.4,4.9-0.4,7.3C6.1,115.6,34.3,146.7,71.2,150.3L71.2,150.3z"/>
					</g>
					<g id="Group_4517" transform="translate(26.601 26.602)">
						<path id="Path_1070" class="st3" d="M102.6,62.1c2.8-13.5,0-27.5-7.6-38.9C87.5,11.7,75.6,3.7,62.1,1
							C48.6-1.7,34.6,1,23.2,8.7C11.7,16.2,3.7,28.1,1,41.6C0.4,45,0,48.5,0,51.9C0,62.1,3,72,8.7,80.5
							c7.6,11.5,19.4,19.5,32.9,22.1C69.6,108.3,96.9,90.1,102.6,62.1 M41.9,101c-13-2.6-24.5-10.3-31.8-21.4
							C2.7,68.5,0,54.9,2.7,41.9c2.6-13,10.3-24.5,21.4-31.8C35.2,2.7,48.7,0,61.8,2.7c13,2.6,24.5,10.3,31.8,21.4
							c5.5,8.2,8.4,17.8,8.4,27.6c0,3.4-0.3,6.7-1,10C95.4,88.9,69,106.4,41.9,101"/>
					</g>
					<g id="Group_4518" transform="translate(23.887 23.885)">
						<path id="Path_1071" class="st2" d="M54.6,109.1c-3.7,0-7.3-0.4-10.9-1.1c-14.2-2.8-26.7-11.2-34.6-23.3
							C3.2,75.8,0,65.4,0,54.7c0-3.7,0.4-7.3,1.1-10.9C3.9,29.6,12.3,17.1,24.4,9.1c12-8,26.8-10.9,41-8C79.6,3.9,92,12.3,100,24.4
							c8,12,10.9,26.8,8,41C105.2,79.6,96.8,92,84.7,100C75.8,105.9,65.3,109.1,54.6,109.1 M54.5,7.1c-9.3,0-18.4,2.8-26.1,7.9
							C17.8,22,10.5,32.8,8.1,45.2c-2.5,12.3,0,25.1,7,35.6C22,91.3,32.8,98.6,45.2,101C70.8,106.2,95.8,89.6,101,64
							c0.6-3.1,1-6.3,1-9.5c0-9.3-2.8-18.4-7.9-26.1C87.1,17.8,76.3,10.6,64,8.1C60.8,7.5,57.6,7.1,54.5,7.1"/>
					</g>
					<g id="Group_4519" transform="translate(49.6 49.584)">
						<path id="Path_1072" class="st3" d="M54.6,41.9c7.2-14.2,1.5-31.6-12.7-38.8C35-0.4,27.1-1,19.8,1.5C12.6,3.8,6.5,9,3.1,15.8
							c-2,4-3.1,8.5-3.1,13c0,10.9,6.1,20.9,15.8,25.8C30,61.8,47.4,56.1,54.6,41.9 M16.6,53.1C3.2,46.3-2.1,30,4.6,16.6
							c3.2-6.4,8.9-11.3,15.8-13.5c6.8-2.3,14.3-1.7,20.7,1.6C50.2,9.3,56,18.7,56,28.9c0,4.2-1,8.4-2.9,12.2
							C46.3,54.5,30,59.8,16.6,53.1"/>
					</g>
					<g id="Group_4520" transform="translate(46.433 46.415)">
						<path id="Path_1073" class="st1" d="M32,64c-5,0-9.9-1.2-14.4-3.5C6.8,55.2,0,44.1,0,32c0-5,1.2-9.9,3.4-14.4
							C7.3,10,13.9,4.2,22,1.6c8.1-2.7,16.9-2,24.4,1.8c15.8,8,22.1,27.2,14.1,43l-1.5-0.8l1.5,0.8c-3.8,7.6-10.5,13.3-18.6,16
							C38.8,63.5,35.4,64,32,64 M21.2,53.4c11.8,6,26.2,1.2,32.2-10.6c1.7-3.3,2.6-7,2.6-10.8c0-9.1-5.1-17.4-13.2-21.4
							c-5.7-2.9-12.3-3.4-18.3-1.4c-6,2-11.1,6.3-13.9,12C4.7,33,9.4,47.4,21.2,53.4"/>
					</g>
				</g>
			</g>
		</g>
		<g id="Group_4533" transform="translate(7044.002 2947.5)">
			<g>
				<g id="Group_4532" transform="translate(0 0)">
					<g id="Group_4523" transform="translate(0 -0.001)">
						<path id="Path_1075" class="st2" d="M212.9,216.5c24.1-23.1,38-54.8,38.6-88.2c0.8-33.4-11.8-65.7-35-89.7
							c-23.1-24.1-54.8-38-88.2-38.6C95-0.7,62.7,11.9,38.7,35.1C14.5,58.1,0.6,89.9,0,123.2c0,0.9,0,1.7,0,2.6
							c-0.1,32.5,12.5,63.7,35.1,87.1c23.1,24.1,54.8,38,88.2,38.6C156.6,252.3,188.9,239.7,212.9,216.5 M123.3,249.8
							c-32.9-0.6-64.2-14.3-87-38.1C13.4,188,1,156.2,1.7,123.3C3.2,54.8,59.8,0.4,128.3,1.7c32.9,0.6,64.2,14.3,87,38.1
							c22.3,23,34.7,53.8,34.6,85.9c0,0.9,0,1.7,0,2.6C248.4,196.8,191.7,251.1,123.3,249.8"/>
					</g>
					<g id="Group_4524" transform="translate(24.875 24.875)">
						<path id="Path_1076" class="st3" d="M201.7,106c1.4-26.7-7.9-52.9-25.9-72.7c-17.9-19.9-43-31.8-69.8-33.1
							C79.3-1.3,53.1,8,33.3,26C13.3,43.9,1.4,69.1,0.1,95.8C0,97.6,0,99.3,0,101c0,25,9.2,49.1,26,67.5
							c17.9,19.9,43,31.8,69.8,33.1c26.7,1.4,52.9-7.9,72.7-25.9C188.5,157.9,200.4,132.7,201.7,106 M95.9,200
							c-26.3-1.3-51-13-68.6-32.6C9.6,147.9,0.4,122.2,1.8,95.9C4.7,41.2,51.2-0.9,105.9,1.8c52.7,2.7,94.1,46.2,94.2,99
							c0,1.7,0,3.4-0.1,5.1c-1.3,26.3-13,51-32.6,68.6C147.9,192.2,122.2,201.4,95.9,200"/>
					</g>
					<g id="Group_4525" transform="translate(23.066 23.066)">
						<path id="Path_1077" class="st2" d="M102.8,205.4c-1.8,0-3.5,0-5.3-0.1c-27.2-1.3-52.8-13.4-71-33.7
							C9.4,152.7,0,128.2,0,102.8c0-1.8,0-3.5,0.1-5.3c1.3-27.2,13.4-52.8,33.7-71C54,8.2,80.7-1.3,107.9,0.1
							c27.2,1.3,52.8,13.4,71,33.7c18.3,20.2,27.8,46.8,26.4,74.1c-1.3,27.2-13.4,52.8-33.7,71C152.8,196,128.3,205.5,102.8,205.4
							 M102.7,5.3C50.8,5.4,8.1,46,5.5,97.8c-1.4,25.8,7.6,51.1,25,70.2c17.3,19.2,41.5,30.7,67.3,32c25.8,1.4,51.1-7.6,70.2-25
							c19.2-17.3,30.7-41.5,32-67.3c0.1-1.7,0.1-3.3,0.1-5c0-51.9-40.7-94.6-92.5-97.2C106,5.4,104.3,5.3,102.7,5.3"/>
					</g>
					<g id="Group_4526" transform="translate(49.6 49.595)">
						<path id="Path_1078" class="st3" d="M152,83.8c2.1-20.1-4-40.2-16.8-55.8C122.4,12.3,104,2.4,83.8,0.4
							C63.7-1.7,43.6,4.3,28,17.2C12.3,29.9,2.4,48.4,0.4,68.5C0.1,71.1,0,73.7,0,76.2C0.1,115.3,29.7,148,68.5,152
							C110.4,156.2,147.7,125.7,152,83.8 M68.7,150.3c-38-3.9-66.9-35.8-67-74c0-2.5,0.1-5,0.4-7.5C4,49,13.7,30.9,29.1,18.5
							C44.4,6,64,0,83.7,2.1c38,3.9,66.9,35.8,67,74c0,2.5-0.1,5-0.4,7.5c-1.9,19.7-11.7,37.7-27,50.2
							C108,146.4,88.3,152.3,68.7,150.3"/>
					</g>
					<g id="Group_4527" transform="translate(47.338 47.335)">
						<path id="Path_1079" class="st2" d="M78.5,156.9c-2.7,0-5.3-0.1-7.9-0.4c-40.1-3.9-70.6-37.7-70.5-78c0-2.7,0.1-5.3,0.4-7.9
							c2-20.7,12.3-39.8,28.4-52.9C44.9,4.5,65.6-1.7,86.3,0.4c20.7,2,39.8,12.3,52.9,28.4c13.2,16.1,19.4,36.8,17.3,57.5
							C152.4,126.3,118.7,156.8,78.5,156.9 M71.2,150.3c19.1,2,38.1-3.7,52.9-15.9c14.9-12.1,24.3-29.6,26.2-48.7
							c0.2-2.4,0.4-4.9,0.4-7.3c0.1-37.1-28-68.2-64.9-71.8c-19.1-2-38.1,3.7-52.9,15.9C17.9,34.6,8.5,52.1,6.6,71.2
							c-0.2,2.4-0.4,4.9-0.4,7.3C6.1,115.6,34.3,146.7,71.2,150.3L71.2,150.3z"/>
					</g>
					<g id="Group_4528" transform="translate(73.938 73.938)">
						<path id="Path_1080" class="st3" d="M102.6,62.1c2.8-13.5,0-27.5-7.6-38.9C87.5,11.7,75.6,3.7,62.1,1
							C48.6-1.7,34.6,1,23.2,8.7C11.7,16.2,3.7,28.1,1,41.6C0.4,45,0,48.5,0,51.9C0,62.1,3,72,8.7,80.5
							c7.6,11.5,19.4,19.5,32.9,22.1C69.6,108.3,96.9,90.1,102.6,62.1 M41.9,101c-13-2.6-24.5-10.3-31.8-21.4
							C2.7,68.5,0,54.9,2.7,41.9c2.6-13,10.3-24.5,21.4-31.8C35.2,2.7,48.7,0,61.8,2.7c13,2.6,24.5,10.3,31.8,21.4
							c5.5,8.2,8.4,17.8,8.4,27.6c0,3.4-0.3,6.7-1,10C95.4,88.9,69,106.4,41.9,101"/>
					</g>
					<g id="Group_4529" transform="translate(71.224 71.221)">
						<path id="Path_1081" class="st2" d="M54.6,109.1c-3.7,0-7.3-0.4-10.9-1.1c-14.2-2.8-26.7-11.2-34.6-23.3
							C3.2,75.8,0,65.4,0,54.7c0-3.7,0.4-7.3,1.1-10.9C3.9,29.6,12.3,17.1,24.4,9.1c12-8,26.8-10.9,41-8C79.6,3.9,92,12.3,100,24.4
							c8,12,10.9,26.8,8,41C105.2,79.6,96.8,92,84.7,100C75.8,105.9,65.3,109.1,54.6,109.1 M54.5,7.1c-9.3,0-18.4,2.8-26.1,7.9
							C17.8,22,10.5,32.8,8.1,45.2c-2.5,12.3,0,25.1,7,35.6C22,91.3,32.8,98.6,45.2,101C70.8,106.2,95.8,89.6,101,64
							c0.6-3.1,1-6.3,1-9.5c0-9.3-2.8-18.4-7.9-26.1C87.1,17.8,76.3,10.6,64,8.1C60.8,7.5,57.6,7.1,54.5,7.1"/>
					</g>
					<g id="Group_4530" transform="translate(96.938 96.92)">
						<path id="Path_1082" class="st3" d="M54.6,41.9c7.2-14.2,1.5-31.6-12.7-38.8C35-0.4,27.1-1,19.8,1.5C12.6,3.8,6.5,9,3.1,15.8
							c-2,4-3.1,8.5-3.1,13c0,10.9,6.1,20.9,15.8,25.8C30,61.8,47.4,56.1,54.6,41.9 M16.6,53.1C3.2,46.3-2.1,30,4.6,16.6
							c3.2-6.4,8.9-11.3,15.8-13.5c6.8-2.3,14.3-1.7,20.7,1.6C50.2,9.3,56,18.7,56,28.9c0,4.2-1,8.4-2.9,12.2
							C46.3,54.5,30,59.8,16.6,53.1"/>
					</g>
					<g id="Group_4531" transform="translate(93.77 93.751)">
						<path id="Path_1083" class="st1" d="M32,64c-5,0-9.9-1.2-14.4-3.5C6.8,55.2,0,44.1,0,32c0-5,1.2-9.9,3.4-14.4
							C7.3,10,13.9,4.2,22,1.6c8.1-2.7,16.9-2,24.4,1.8c15.8,8,22.1,27.2,14.1,43l-1.5-0.8l1.5,0.8c-3.8,7.6-10.5,13.3-18.6,16
							C38.8,63.5,35.4,64,32,64 M21.2,53.4c11.8,6,26.2,1.2,32.2-10.6c1.7-3.3,2.6-7,2.6-10.8c0-9.1-5.1-17.4-13.2-21.4
							c-5.7-2.9-12.3-3.4-18.3-1.4c-6,2-11.1,6.3-13.9,12C4.7,33,9.4,47.4,21.2,53.4"/>
					</g>
				</g>
			</g>
		</g>
		<g id="Group_4534" transform="translate(6427.43 3072.943)">
			<line id="Line_70" class="st4" x1="0" y1="0" x2="77.5" y2="0"/>
			<line id="Line_71" class="st4" x1="234.2" y1="0" x2="311.7" y2="0"/>
			<line id="Line_72" class="st4" x1="515.5" y1="0" x2="593" y2="0"/>
		</g>
	</g>
</g>
</svg>
