<?xml version="1.0" encoding="utf-8"?>
<!-- Generator: Adobe Illustrator 24.3.0, SVG Export Plug-In . SVG Version: 6.00 Build 0)  -->
<svg version="1.1" id="Layer_1" xmlns="http://www.w3.org/2000/svg" xmlns:xlink="http://www.w3.org/1999/xlink" x="0px" y="0px"
	 width="561px" height="333px" viewBox="0 0 561 333" style="enable-background:new 0 0 561 333;" xml:space="preserve">
<style type="text/css">
	.st0{fill:#7061F0;}
	.st1{fill:#662466;}
	.st2{fill:#FFFFFF;}
	.st3{fill:#F7C7FF;}
</style>
<g id="Group_5922" transform="translate(-73 -4330.609)">
	<rect id="kobu-agency-7okkFhxrxNw-unsplash" x="73" y="4330.6" class="st0" width="561" height="333"/>
	<rect id="kobu-agency-7okkFhxrxNw-unsplash-2" x="352.6" y="4330.6" class="st1" width="281.4" height="333"/>
	<path id="Path_1130" class="st2" d="M352.6,4625.1c-70.4,0-127.4-57.4-127.4-128.1c0-70.7,57-128.1,127.4-128.1"/>
	<g>
		<g id="Group_4521" transform="translate(481.642 4625.189) rotate(-180)">
			<g id="Group_4515" transform="translate(3.697 3.691)">
				<path id="Path_1068" class="st2" d="M248.4,137C255.3,68.7,205.5,7.6,137.2,0.7c-32.8-3.3-65.6,6.5-91.1,27.4
					C-7.1,71.6-15,149.9,28.4,203.2s121.7,61.1,174.9,17.7C228.8,200,245.1,169.8,248.4,137 M112.5,245.5
					c-62-6.3-109.2-58.5-109.3-120.9c0-4.1,0.2-8.2,0.6-12.3C10.5,45.4,70.1-3.3,136.9,3.5C199,9.8,246.2,62,246.2,124.4
					c0,4.1-0.2,8.2-0.6,12.3C238.9,203.5,179.2,252.2,112.5,245.5C112.5,245.5,112.5,245.5,112.5,245.5"/>
			</g>
			<g id="Group_4516" transform="translate(0.001 -0.001)">
				<path id="Path_1069" class="st2" d="M128.5,256.3c-4.3,0-8.7-0.2-13-0.7C50.1,249.2,0.2,194.1,0.4,128.3c0-4.3,0.2-8.7,0.7-13
					C8.1,44.9,70.9-6.4,141.3,0.7c33.8,3.4,64.8,20.1,86.3,46.4c21.6,26.3,31.7,60.1,28.2,93.9C249.1,207,193.3,256.3,128.5,256.3
					 M116.5,245.5c64.8,6.5,122.6-40.7,129.1-105.5c0.4-4,0.6-8,0.6-12c-0.1-65.1-52.9-117.9-118-117.8
					c-60.4,0.1-111,45.9-117.1,106c-0.4,4-0.6,8-0.6,12C10.4,188.8,56.3,239.6,116.5,245.5L116.5,245.5z"/>
			</g>
			<g id="Group_4517" transform="translate(43.452 43.454)">
				<path id="Path_1070" class="st2" d="M167.8,101.5c9.3-45.8-20.3-90.5-66.1-99.7c-22-4.5-44.8,0-63.5,12.4
					C19.4,26.6,6.4,45.9,2,68c-1.1,5.6-1.7,11.3-1.7,16.9c0.1,46.7,38.1,84.6,84.8,84.5C125.3,169.3,159.9,140.9,167.8,101.5
					 M68.7,164.9c-44.3-9-72.9-52.1-64-96.4c4.3-21.3,16.9-40,34.9-52c37.7-25,88.4-14.7,113.4,23c8.8,13.4,13.6,29,13.6,45
					c0,45.3-36.6,82-81.9,82C79.4,166.6,74,166,68.7,164.9"/>
			</g>
			<g id="Group_4518" transform="translate(39.019 39.016)">
				<path id="Path_1071" class="st1" d="M89.5,178.3c-6,0-11.9-0.6-17.8-1.8c-41.4-8.4-71.3-44.8-71.4-87.1c0-6,0.6-12,1.8-17.8
					C11.9,23.3,58.8-7.9,107,1.9c23.1,4.7,43.5,18.4,56.5,38.1c27.2,41.1,15.9,96.4-25.1,123.5C123.9,173.1,106.9,178.2,89.5,178.3
					 M89.2,11.7C46.5,11.8,11.9,46.6,12,89.4c0,15.2,4.5,30,12.9,42.6c23.6,35.6,71.6,45.3,107.2,21.7c17.1-11.4,29-29,33-49.1
					c1-5.1,1.6-10.3,1.6-15.5c-0.1-36.8-26-68.4-62.1-75.7C99.6,12.3,94.4,11.7,89.2,11.7"/>
			</g>
			<g id="Group_4519" transform="translate(81.021 80.994)">
				<path id="Path_1072" class="st2" d="M89.4,68.4c11.7-23.2,2.4-51.5-20.8-63.3S17.1,2.7,5.4,25.9C-6.4,49.2,2.9,77.5,26.1,89.2
					C49.3,100.9,77.6,91.6,89.4,68.4 M27.4,86.7C5.6,75.7-3.2,49,7.8,27.2S45.5-3.4,67.4,7.7c21.8,11,30.6,37.7,19.5,59.5
					C75.8,89,49.2,97.8,27.4,86.7"/>
			</g>
			<g id="Group_4520" transform="translate(75.847 75.818)">
				<path id="Path_1073" class="st3" d="M52.4,104.7C23.6,104.6,0.3,81.2,0.3,52.3c0-22.6,14.5-42.6,35.9-49.6
					c27.4-9,56.9,5.9,65.9,33.4c4.3,13.2,3.2,27.5-3,39.9l-2.5-1.3l2.5,1.3C90.2,93.5,72.2,104.6,52.4,104.7 M34.9,87.3
					c19.3,9.7,42.8,2,52.6-17.3c9.7-19.3,2-42.8-17.3-52.6c-9.3-4.7-20-5.5-29.9-2.3C19.8,21.9,8.6,44,15.4,64.6
					C18.6,74.4,25.6,82.6,34.9,87.3"/>
			</g>
		</g>
	</g>
</g>
</svg>
