<?xml version="1.0" encoding="utf-8"?>
<!-- Generator: Adobe Illustrator 24.3.0, SVG Export Plug-In . SVG Version: 6.00 Build 0)  -->
<svg version="1.1" id="Layer_1" xmlns="http://www.w3.org/2000/svg" xmlns:xlink="http://www.w3.org/1999/xlink" x="0px" y="0px"
	 width="172px" height="172px" viewBox="0 0 172 172" style="enable-background:new 0 0 172 172;" xml:space="preserve">
<style type="text/css">
	.st0{fill:#FFFFFF;}
	.st1{fill:#7061F0;}
</style>
<g id="Group_5278" transform="translate(-8497 2007)">
	<circle id="Ellipse_5" class="st0" cx="8583" cy="-1921" r="86"/>
	<g id="Group_4035" transform="translate(12231 -1415.699)">
		<path id="Path_577" class="st1" d="M-3647.6-547.3c-23.4,0-42.4,19-42.4,42.4l0,0c0,23.4,19,42.4,42.4,42.4c0,0,0,0,0,0
			c23.4,0,42.4-19,42.4-42.4v0C-3605.2-528.3-3624.2-547.3-3647.6-547.3C-3647.6-547.3-3647.6-547.3-3647.6-547.3 M-3647.6-483
			c-12.1,0-21.9-9.8-21.9-21.9c0-12.1,9.8-21.9,21.9-21.9c12.1,0,21.9,9.8,21.9,21.9C-3625.7-492.8-3635.5-483-3647.6-483"/>
		<path id="Path_578" class="st1" d="M-3647.6-518.3c-7.4,0-13.4,6-13.4,13.4c0,7.4,6,13.4,13.4,13.4c7.4,0,13.4-6,13.4-13.4
			c0,0,0,0,0,0C-3634.2-512.3-3640.2-518.3-3647.6-518.3C-3647.6-518.3-3647.6-518.3-3647.6-518.3"/>
	</g>
</g>
</svg>
