<svg xmlns="http://www.w3.org/2000/svg" xmlns:xlink="http://www.w3.org/1999/xlink" width="1535.461" height="727" viewBox="0 0 1535.461 727">
  <defs>
    <clipPath id="clip-path">
      <rect id="Rectangle_650" data-name="Rectangle 650" width="173" height="316" transform="translate(1267.006 124.791)" fill="#f7c7ff" stroke="#707070" stroke-width="1"/>
    </clipPath>
    <clipPath id="clip-path-2">
      <path id="Path_1201" data-name="Path 1201" d="M0,124.307H291.891V-167.584H0Z" transform="translate(0 167.584)" fill="rgba(255,255,255,0.99)"/>
    </clipPath>
    <clipPath id="clip-path-3">
      <rect id="Rectangle_651" data-name="Rectangle 651" width="165" height="316" transform="translate(1440.006 124.791)" fill="#fff0c2" stroke="#707070" stroke-width="1"/>
    </clipPath>
    <clipPath id="clip-path-4">
      <path id="Path_1214" data-name="Path 1214" d="M0,124.307H291.891V-167.584H0Z" transform="translate(0 167.584)" fill="#2abbdd"/>
    </clipPath>
  </defs>
  <path id="Path_1157" data-name="Path 1157" d="M0,0H1440V561H0Z" fill="#2abbdd" opacity="0.15"/>
  <g id="Group_5365" data-name="Group 5365" transform="translate(-26 -808)">
    <g id="Mask_Group_17" data-name="Mask Group 17" transform="translate(610.791 -70.506) rotate(90)" clip-path="url(#clip-path)">
      <g id="Group_4784" data-name="Group 4784" transform="translate(1294.067 138.579)">
        <g id="Group_4783" data-name="Group 4783" transform="translate(0 0)" clip-path="url(#clip-path-2)">
          <g id="Group_4771" data-name="Group 4771" transform="translate(0.871 0.871)">
            <path id="Path_1189" data-name="Path 1189" d="M85.831,118.71a144.6,144.6,0,0,0,46.113-31.09,144.566,144.566,0,0,0,31.09-46.113,144.149,144.149,0,0,0,11.4-56.47,144.149,144.149,0,0,0-11.4-56.47,144.574,144.574,0,0,0-31.09-46.115,144.591,144.591,0,0,0-46.113-31.089,144.149,144.149,0,0,0-56.47-11.4,144.149,144.149,0,0,0-56.47,11.4,144.617,144.617,0,0,0-46.115,31.089,144.6,144.6,0,0,0-31.089,46.115,144.149,144.149,0,0,0-11.4,56.47,144.149,144.149,0,0,0,11.4,56.47A144.59,144.59,0,0,0-73.223,87.619a144.621,144.621,0,0,0,46.115,31.09,144.18,144.18,0,0,0,56.47,11.4,144.18,144.18,0,0,0,56.47-11.4m-199.9-133.673c0-79.09,64.342-143.434,143.432-143.434S172.794-94.053,172.794-14.963,108.451,128.469,29.362,128.469-114.071,64.125-114.071-14.963" transform="translate(115.713 160.038)" fill="rgba(255,255,255,0.99)"/>
          </g>
          <g id="Group_4772" data-name="Group 4772">
            <path id="Path_1190" data-name="Path 1190" d="M62.154,124.307A145.05,145.05,0,0,1,5.344,112.838a145.515,145.515,0,0,1-46.39-31.277A145.455,145.455,0,0,1-72.322,35.169a145.022,145.022,0,0,1-11.47-56.808,145.043,145.043,0,0,1,11.47-56.809,145.476,145.476,0,0,1,31.277-46.39,145.457,145.457,0,0,1,46.39-31.277,145.049,145.049,0,0,1,56.809-11.47,145.043,145.043,0,0,1,56.809,11.47,145.457,145.457,0,0,1,46.39,31.277,145.448,145.448,0,0,1,31.277,46.39A145.018,145.018,0,0,1,208.1-21.638a145,145,0,0,1-11.47,56.808,145.464,145.464,0,0,1-31.277,46.392,145.515,145.515,0,0,1-46.39,31.277l-.34-.8.34.8a145.043,145.043,0,0,1-56.809,11.469m0-288.509c-78.609,0-142.561,63.954-142.561,142.563S-16.456,120.925,62.154,120.925,204.717,56.971,204.717-21.638,140.763-164.2,62.154-164.2" transform="translate(83.792 167.584)" fill="rgba(255,255,255,0.99)"/>
          </g>
          <g id="Group_4773" data-name="Group 4773" transform="translate(24.888 24.887)">
            <path id="Path_1191" data-name="Path 1191" d="M87.264,88.739a120.261,120.261,0,0,0,37.18-84.866,120.267,120.267,0,0,0-33.719-86.3A120.269,120.269,0,0,0,5.86-119.607a120.267,120.267,0,0,0-86.3,33.719,120.26,120.26,0,0,0-37.18,84.866c-.017.841-.026,1.676-.026,2.513A120.233,120.233,0,0,0-83.9,85.278,120.26,120.26,0,0,0,.965,122.457a120.26,120.26,0,0,0,86.3-33.719M1,120.817A118.643,118.643,0,0,1-82.717,84.14,118.7,118.7,0,0,1-115.978-.99,119.549,119.549,0,0,1,5.827-117.965,118.632,118.632,0,0,1,89.543-81.288a118.594,118.594,0,0,1,33.285,82.65q0,1.238-.024,2.479A119.552,119.552,0,0,1,1,120.817" transform="translate(117.645 119.633)" fill="rgba(255,255,255,0.99)"/>
          </g>
          <g id="Group_4774" data-name="Group 4774" transform="translate(23.581 23.581)">
            <path id="Path_1192" data-name="Path 1192" d="M52.138,104.222q-1.267,0-2.538-.026A121.558,121.558,0,0,1-36.181,66.614,121.721,121.721,0,0,1-70.29-18.077c0-.846.009-1.689.026-2.539A121.572,121.572,0,0,1-32.682-106.4a121.446,121.446,0,0,1,87.231-34.081,121.563,121.563,0,0,1,85.782,37.58,121.584,121.584,0,0,1,34.083,87.231,121.556,121.556,0,0,1-37.582,85.782,121.532,121.532,0,0,1-84.693,34.109m-.1-240.473A118.244,118.244,0,0,0-66.01-20.53a117.387,117.387,0,0,0,32.9,84.2,117.337,117.337,0,0,0,82.8,36.274,117.341,117.341,0,0,0,84.16-32.937,117.309,117.309,0,0,0,36.312-82.761c.017-.819.026-1.634.026-2.451a117.493,117.493,0,0,0-32.923-81.746,117.334,117.334,0,0,0-82.8-36.274c-.806-.017-1.62-.024-2.423-.024" transform="translate(70.29 140.507)" fill="rgba(255,255,255,0.99)"/>
          </g>
          <g id="Group_4775" data-name="Group 4775" transform="translate(48.83 48.829)">
            <path id="Path_1193" data-name="Path 1193" d="M82.663,43.447a96.484,96.484,0,0,0-24.94-70.019A96.474,96.474,0,0,0-9.422-58.446a96.472,96.472,0,0,0-70.017,24.94,96.469,96.469,0,0,0-31.876,67.145q-.128,2.516-.127,5.018a96.406,96.406,0,0,0,25.067,65A96.469,96.469,0,0,0-19.23,135.532a96.472,96.472,0,0,0,70.017-24.94A96.472,96.472,0,0,0,82.663,43.447M-19.146,133.891a94.845,94.845,0,0,1-66.011-31.334,94.856,94.856,0,0,1-24.519-68.834A95.581,95.581,0,0,1-9.505-56.807,95.591,95.591,0,0,1,81.146,38.487q0,2.427-.122,4.877a94.849,94.849,0,0,1-31.338,66.011,94.843,94.843,0,0,1-68.833,24.517" transform="translate(111.442 58.573)" fill="rgba(255,255,255,0.99)"/>
          </g>
          <g id="Group_4776" data-name="Group 4776" transform="translate(47.088 47.088)">
            <path id="Path_1194" data-name="Path 1194" d="M42.15,84.2q-2.547,0-5.109-.129A98.214,98.214,0,0,1-31.307,51.625,98.531,98.531,0,0,1-56.824-14.543c0-1.684.044-3.4.129-5.105A98.208,98.208,0,0,1-24.248-88a98.2,98.2,0,0,1,71.273-25.386,98.2,98.2,0,0,1,68.35,32.446A98.216,98.216,0,0,1,140.761-9.666a98.209,98.209,0,0,1-32.446,68.35A98.144,98.144,0,0,1,42.15,84.2m-.172-192.59a93.85,93.85,0,0,0-93.555,89A93.112,93.112,0,0,0-27.507,48.186,93.108,93.108,0,0,0,37.3,78.951,93.083,93.083,0,0,0,104.879,54.88,93.118,93.118,0,0,0,135.644-9.926c.08-1.59.12-3.2.12-4.788a93.64,93.64,0,0,0-89-93.553q-2.406-.123-4.79-.122" transform="translate(56.824 113.515)" fill="rgba(255,255,255,0.99)"/>
          </g>
          <g id="Group_4777" data-name="Group 4777" transform="translate(72.627 72.622)">
            <path id="Path_1195" data-name="Path 1195" d="M62.289,34.367A72.841,72.841,0,0,0,46.141-19.371,72.84,72.84,0,0,0-3.28-45.952,72.836,72.836,0,0,0-57.019-29.8,72.843,72.843,0,0,0-83.6,19.615a73.311,73.311,0,0,0-.374,7.432A73.425,73.425,0,0,0-18.031,99.936a73.4,73.4,0,0,0,80.32-65.569M-17.867,98.3A71.774,71.774,0,0,1-82.333,27.045a72.53,72.53,0,0,1,.368-7.265A71.2,71.2,0,0,1-55.98-28.531,71.2,71.2,0,0,1-3.444-44.318,71.773,71.773,0,0,1,61.022,26.937a72.01,72.01,0,0,1-.368,7.265A71.207,71.207,0,0,1,34.669,82.515,71.2,71.2,0,0,1-17.867,98.3" transform="translate(83.974 46.332)" fill="rgba(255,255,255,0.99)"/>
          </g>
          <g id="Group_4778" data-name="Group 4778" transform="translate(70.449 70.446)">
            <path id="Path_1196" data-name="Path 1196" d="M32.175,64.3a76.126,76.126,0,0,1-7.652-.387,75.249,75.249,0,0,1-67.9-75.054,76.015,76.015,0,0,1,.387-7.652A74.993,74.993,0,0,1-15.62-69.674,75.055,75.055,0,0,1,39.714-86.3,75.014,75.014,0,0,1,90.6-58.934,75.006,75.006,0,0,1,107.23-3.6,75.606,75.606,0,0,1,32.175,64.3m-7.049-6.352a69.025,69.025,0,0,0,50.941-15.31A69.037,69.037,0,0,0,101.264-4.2c.235-2.337.355-4.706.355-7.045A69.266,69.266,0,0,0,39.111-80.335a69.024,69.024,0,0,0-50.94,15.307,69.038,69.038,0,0,0-25.2,46.845,70.162,70.162,0,0,0-.357,7.045,69.266,69.266,0,0,0,62.51,69.09Z" transform="translate(43.377 86.691)" fill="rgba(255,255,255,0.99)"/>
          </g>
          <g id="Group_4779" data-name="Group 4779" transform="translate(96.051 96.051)">
            <path id="Path_1197" data-name="Path 1197" d="M42.069,25.46a49.548,49.548,0,0,0-7.328-37.465A49.557,49.557,0,0,0,3.067-33.318,49.555,49.555,0,0,0-34.4-25.99,49.557,49.557,0,0,0-55.71,5.684a50.43,50.43,0,0,0-1.005,9.991,49.536,49.536,0,0,0,8.333,27.475A49.555,49.555,0,0,0-16.709,64.461a49.937,49.937,0,0,0,58.777-39M-16.383,62.852a47.923,47.923,0,0,1-30.631-20.61A47.924,47.924,0,0,1-54.1,6.009,47.923,47.923,0,0,1-33.49-24.621,47.916,47.916,0,0,1,2.742-31.709,47.935,47.935,0,0,1,33.374-11.1a47.9,47.9,0,0,1,8.057,26.572,48.664,48.664,0,0,1-.972,9.662A48.292,48.292,0,0,1-16.383,62.852" transform="translate(56.715 34.323)" fill="rgba(255,255,255,0.99)"/>
          </g>
          <g id="Group_4780" data-name="Group 4780" transform="translate(93.439 93.436)">
            <path id="Path_1198" data-name="Path 1198" d="M22.393,44.722a52.889,52.889,0,0,1-10.482-1.054A52.146,52.146,0,0,1-21.421,21.24,52.164,52.164,0,0,1-30.189-7.68a53.2,53.2,0,0,1,1.056-10.506A52.156,52.156,0,0,1-6.707-51.522a52.156,52.156,0,0,1,39.43-7.713A52.159,52.159,0,0,1,66.055-36.806a52.141,52.141,0,0,1,7.713,39.43A52.137,52.137,0,0,1,51.327,35.937a52.173,52.173,0,0,1-28.934,8.785m-.169-98.145A45.3,45.3,0,0,0-2.908-45.8,45.325,45.325,0,0,0-22.4-16.826a45.331,45.331,0,0,0,6.7,34.271,45.312,45.312,0,0,0,28.972,19.49A45.67,45.67,0,0,0,67.036,1.262a46.185,46.185,0,0,0,.921-9.142,45.34,45.34,0,0,0-7.624-25.128A45.325,45.325,0,0,0,31.361-52.5a46.119,46.119,0,0,0-9.137-.92" transform="translate(30.189 60.292)" fill="rgba(255,255,255,0.99)"/>
          </g>
          <g id="Group_4781" data-name="Group 4781" transform="translate(118.187 118.17)">
            <path id="Path_1199" data-name="Path 1199" d="M22.372,17.163a27.793,27.793,0,0,0-12.248-37.3,27.585,27.585,0,0,0-21.189-1.6A27.577,27.577,0,0,0-27.177-7.89,27.586,27.586,0,0,0-30.161,4.591a27.8,27.8,0,0,0,15.232,24.82,27.793,27.793,0,0,0,37.3-12.248M-14.189,27.946A26.149,26.149,0,0,1-25.713-7.148,25.955,25.955,0,0,1-10.551-20.18,25.953,25.953,0,0,1,9.382-18.673,26.15,26.15,0,0,1,23.715,4.68a25.982,25.982,0,0,1-2.808,11.743,26.151,26.151,0,0,1-35.1,11.523" transform="translate(30.161 23.139)" fill="rgba(255,255,255,0.99)"/>
          </g>
          <g id="Group_4782" data-name="Group 4782" transform="translate(115.139 115.12)">
            <path id="Path_1200" data-name="Path 1200" d="M13.1,26.251A30.617,30.617,0,0,1-.75,22.93,30.7,30.7,0,0,1-17.656-4.611a30.451,30.451,0,0,1,3.311-13.856A30.614,30.614,0,0,1,3.539-33.838a30.616,30.616,0,0,1,23.514,1.777,30.847,30.847,0,0,1,13.593,41.4l-1.465-.742,1.465.742A30.6,30.6,0,0,1,22.758,24.694,30.907,30.907,0,0,1,13.1,26.251M2.74,16.025a23.1,23.1,0,0,0,31-10.181A22.781,22.781,0,0,0,36.22-4.522,22.994,22.994,0,0,0,23.561-25.155,22.883,22.883,0,0,0,5.954-26.484,22.92,22.92,0,0,0-7.439-14.975a23.1,23.1,0,0,0,10.179,31" transform="translate(17.656 35.39)" fill="rgba(255,255,255,0.99)"/>
          </g>
        </g>
      </g>
    </g>
    <g id="Mask_Group_18" data-name="Mask Group 18" transform="translate(610.791 -70.006) rotate(90)" clip-path="url(#clip-path-3)">
      <g id="Group_4800" data-name="Group 4800" transform="translate(1294.067 138.579)">
        <g id="Group_4799" data-name="Group 4799" transform="translate(0 0)" clip-path="url(#clip-path-4)">
          <g id="Group_4787" data-name="Group 4787" transform="translate(0.871 0.871)">
            <path id="Path_1202" data-name="Path 1202" d="M85.831,118.71a144.6,144.6,0,0,0,46.113-31.09,144.566,144.566,0,0,0,31.09-46.113,144.149,144.149,0,0,0,11.4-56.47,144.149,144.149,0,0,0-11.4-56.47,144.574,144.574,0,0,0-31.09-46.115,144.591,144.591,0,0,0-46.113-31.089,144.149,144.149,0,0,0-56.47-11.4,144.149,144.149,0,0,0-56.47,11.4,144.617,144.617,0,0,0-46.115,31.089,144.6,144.6,0,0,0-31.089,46.115,144.149,144.149,0,0,0-11.4,56.47,144.149,144.149,0,0,0,11.4,56.47A144.59,144.59,0,0,0-73.223,87.619a144.621,144.621,0,0,0,46.115,31.09,144.18,144.18,0,0,0,56.47,11.4,144.18,144.18,0,0,0,56.47-11.4m-199.9-133.673c0-79.09,64.342-143.434,143.432-143.434S172.794-94.053,172.794-14.963,108.451,128.469,29.362,128.469-114.071,64.125-114.071-14.963" transform="translate(115.713 160.038)" fill="#2abbdd"/>
          </g>
          <g id="Group_4788" data-name="Group 4788">
            <path id="Path_1203" data-name="Path 1203" d="M62.154,124.307A145.05,145.05,0,0,1,5.344,112.838a145.515,145.515,0,0,1-46.39-31.277A145.455,145.455,0,0,1-72.322,35.169a145.022,145.022,0,0,1-11.47-56.808,145.043,145.043,0,0,1,11.47-56.809,145.476,145.476,0,0,1,31.277-46.39,145.457,145.457,0,0,1,46.39-31.277,145.049,145.049,0,0,1,56.809-11.47,145.043,145.043,0,0,1,56.809,11.47,145.457,145.457,0,0,1,46.39,31.277,145.448,145.448,0,0,1,31.277,46.39A145.018,145.018,0,0,1,208.1-21.638a145,145,0,0,1-11.47,56.808,145.464,145.464,0,0,1-31.277,46.392,145.515,145.515,0,0,1-46.39,31.277l-.34-.8.34.8a145.043,145.043,0,0,1-56.809,11.469m0-288.509c-78.609,0-142.561,63.954-142.561,142.563S-16.456,120.925,62.154,120.925,204.717,56.971,204.717-21.638,140.763-164.2,62.154-164.2" transform="translate(83.792 167.584)" fill="#2abbdd"/>
          </g>
          <g id="Group_4789" data-name="Group 4789" transform="translate(24.888 24.887)">
            <path id="Path_1204" data-name="Path 1204" d="M87.264,88.739a120.261,120.261,0,0,0,37.18-84.866,120.267,120.267,0,0,0-33.719-86.3A120.269,120.269,0,0,0,5.86-119.607a120.267,120.267,0,0,0-86.3,33.719,120.26,120.26,0,0,0-37.18,84.866c-.017.841-.026,1.676-.026,2.513A120.233,120.233,0,0,0-83.9,85.278,120.26,120.26,0,0,0,.965,122.457a120.26,120.26,0,0,0,86.3-33.719M1,120.817A118.643,118.643,0,0,1-82.717,84.14,118.7,118.7,0,0,1-115.978-.99,119.549,119.549,0,0,1,5.827-117.965,118.632,118.632,0,0,1,89.543-81.288a118.594,118.594,0,0,1,33.285,82.65q0,1.238-.024,2.479A119.552,119.552,0,0,1,1,120.817" transform="translate(117.645 119.633)" fill="#2abbdd"/>
          </g>
          <g id="Group_4790" data-name="Group 4790" transform="translate(23.581 23.581)">
            <path id="Path_1205" data-name="Path 1205" d="M52.138,104.222q-1.267,0-2.538-.026A121.558,121.558,0,0,1-36.181,66.614,121.721,121.721,0,0,1-70.29-18.077c0-.846.009-1.689.026-2.539A121.572,121.572,0,0,1-32.682-106.4a121.446,121.446,0,0,1,87.231-34.081,121.563,121.563,0,0,1,85.782,37.58,121.584,121.584,0,0,1,34.083,87.231,121.556,121.556,0,0,1-37.582,85.782,121.532,121.532,0,0,1-84.693,34.109m-.1-240.473A118.244,118.244,0,0,0-66.01-20.53a117.387,117.387,0,0,0,32.9,84.2,117.337,117.337,0,0,0,82.8,36.274,117.341,117.341,0,0,0,84.16-32.937,117.309,117.309,0,0,0,36.312-82.761c.017-.819.026-1.634.026-2.451a117.493,117.493,0,0,0-32.923-81.746,117.334,117.334,0,0,0-82.8-36.274c-.806-.017-1.62-.024-2.423-.024" transform="translate(70.29 140.507)" fill="#2abbdd"/>
          </g>
          <g id="Group_4791" data-name="Group 4791" transform="translate(48.83 48.829)">
            <path id="Path_1206" data-name="Path 1206" d="M82.663,43.447a96.484,96.484,0,0,0-24.94-70.019A96.474,96.474,0,0,0-9.422-58.446a96.472,96.472,0,0,0-70.017,24.94,96.469,96.469,0,0,0-31.876,67.145q-.128,2.516-.127,5.018a96.406,96.406,0,0,0,25.067,65A96.469,96.469,0,0,0-19.23,135.532a96.472,96.472,0,0,0,70.017-24.94A96.472,96.472,0,0,0,82.663,43.447M-19.146,133.891a94.845,94.845,0,0,1-66.011-31.334,94.856,94.856,0,0,1-24.519-68.834A95.581,95.581,0,0,1-9.505-56.807,95.591,95.591,0,0,1,81.146,38.487q0,2.427-.122,4.877a94.849,94.849,0,0,1-31.338,66.011,94.843,94.843,0,0,1-68.833,24.517" transform="translate(111.442 58.573)" fill="#2abbdd"/>
          </g>
          <g id="Group_4792" data-name="Group 4792" transform="translate(47.088 47.088)">
            <path id="Path_1207" data-name="Path 1207" d="M42.15,84.2q-2.547,0-5.109-.129A98.214,98.214,0,0,1-31.307,51.625,98.531,98.531,0,0,1-56.824-14.543c0-1.684.044-3.4.129-5.105A98.208,98.208,0,0,1-24.248-88a98.2,98.2,0,0,1,71.273-25.386,98.2,98.2,0,0,1,68.35,32.446A98.216,98.216,0,0,1,140.761-9.666a98.209,98.209,0,0,1-32.446,68.35A98.144,98.144,0,0,1,42.15,84.2m-.172-192.59a93.85,93.85,0,0,0-93.555,89A93.112,93.112,0,0,0-27.507,48.186,93.108,93.108,0,0,0,37.3,78.951,93.083,93.083,0,0,0,104.879,54.88,93.118,93.118,0,0,0,135.644-9.926c.08-1.59.12-3.2.12-4.788a93.64,93.64,0,0,0-89-93.553q-2.406-.123-4.79-.122" transform="translate(56.824 113.515)" fill="#2abbdd"/>
          </g>
          <g id="Group_4793" data-name="Group 4793" transform="translate(72.627 72.622)">
            <path id="Path_1208" data-name="Path 1208" d="M62.289,34.367A72.841,72.841,0,0,0,46.141-19.371,72.84,72.84,0,0,0-3.28-45.952,72.836,72.836,0,0,0-57.019-29.8,72.843,72.843,0,0,0-83.6,19.615a73.311,73.311,0,0,0-.374,7.432A73.425,73.425,0,0,0-18.031,99.936a73.4,73.4,0,0,0,80.32-65.569M-17.867,98.3A71.774,71.774,0,0,1-82.333,27.045a72.53,72.53,0,0,1,.368-7.265A71.2,71.2,0,0,1-55.98-28.531,71.2,71.2,0,0,1-3.444-44.318,71.773,71.773,0,0,1,61.022,26.937a72.01,72.01,0,0,1-.368,7.265A71.207,71.207,0,0,1,34.669,82.515,71.2,71.2,0,0,1-17.867,98.3" transform="translate(83.974 46.332)" fill="#2abbdd"/>
          </g>
          <g id="Group_4794" data-name="Group 4794" transform="translate(70.449 70.446)">
            <path id="Path_1209" data-name="Path 1209" d="M32.175,64.3a76.126,76.126,0,0,1-7.652-.387,75.249,75.249,0,0,1-67.9-75.054,76.015,76.015,0,0,1,.387-7.652A74.993,74.993,0,0,1-15.62-69.674,75.055,75.055,0,0,1,39.714-86.3,75.014,75.014,0,0,1,90.6-58.934,75.006,75.006,0,0,1,107.23-3.6,75.606,75.606,0,0,1,32.175,64.3m-7.049-6.352a69.025,69.025,0,0,0,50.941-15.31A69.037,69.037,0,0,0,101.264-4.2c.235-2.337.355-4.706.355-7.045A69.266,69.266,0,0,0,39.111-80.335a69.024,69.024,0,0,0-50.94,15.307,69.038,69.038,0,0,0-25.2,46.845,70.162,70.162,0,0,0-.357,7.045,69.266,69.266,0,0,0,62.51,69.09Z" transform="translate(43.377 86.691)" fill="#2abbdd"/>
          </g>
          <g id="Group_4795" data-name="Group 4795" transform="translate(96.051 96.051)">
            <path id="Path_1210" data-name="Path 1210" d="M42.069,25.46a49.548,49.548,0,0,0-7.328-37.465A49.557,49.557,0,0,0,3.067-33.318,49.555,49.555,0,0,0-34.4-25.99,49.557,49.557,0,0,0-55.71,5.684a50.43,50.43,0,0,0-1.005,9.991,49.536,49.536,0,0,0,8.333,27.475A49.555,49.555,0,0,0-16.709,64.461a49.937,49.937,0,0,0,58.777-39M-16.383,62.852a47.923,47.923,0,0,1-30.631-20.61A47.924,47.924,0,0,1-54.1,6.009,47.923,47.923,0,0,1-33.49-24.621,47.916,47.916,0,0,1,2.742-31.709,47.935,47.935,0,0,1,33.374-11.1a47.9,47.9,0,0,1,8.057,26.572,48.664,48.664,0,0,1-.972,9.662A48.292,48.292,0,0,1-16.383,62.852" transform="translate(56.715 34.323)" fill="#2abbdd"/>
          </g>
          <g id="Group_4796" data-name="Group 4796" transform="translate(93.439 93.436)">
            <path id="Path_1211" data-name="Path 1211" d="M22.393,44.722a52.889,52.889,0,0,1-10.482-1.054A52.146,52.146,0,0,1-21.421,21.24,52.164,52.164,0,0,1-30.189-7.68a53.2,53.2,0,0,1,1.056-10.506A52.156,52.156,0,0,1-6.707-51.522a52.156,52.156,0,0,1,39.43-7.713A52.159,52.159,0,0,1,66.055-36.806a52.141,52.141,0,0,1,7.713,39.43A52.137,52.137,0,0,1,51.327,35.937a52.173,52.173,0,0,1-28.934,8.785m-.169-98.145A45.3,45.3,0,0,0-2.908-45.8,45.325,45.325,0,0,0-22.4-16.826a45.331,45.331,0,0,0,6.7,34.271,45.312,45.312,0,0,0,28.972,19.49A45.67,45.67,0,0,0,67.036,1.262a46.185,46.185,0,0,0,.921-9.142,45.34,45.34,0,0,0-7.624-25.128A45.325,45.325,0,0,0,31.361-52.5a46.119,46.119,0,0,0-9.137-.92" transform="translate(30.189 60.292)" fill="#2abbdd"/>
          </g>
          <g id="Group_4797" data-name="Group 4797" transform="translate(118.187 118.17)">
            <path id="Path_1212" data-name="Path 1212" d="M22.372,17.163a27.793,27.793,0,0,0-12.248-37.3,27.585,27.585,0,0,0-21.189-1.6A27.577,27.577,0,0,0-27.177-7.89,27.586,27.586,0,0,0-30.161,4.591a27.8,27.8,0,0,0,15.232,24.82,27.793,27.793,0,0,0,37.3-12.248M-14.189,27.946A26.149,26.149,0,0,1-25.713-7.148,25.955,25.955,0,0,1-10.551-20.18,25.953,25.953,0,0,1,9.382-18.673,26.15,26.15,0,0,1,23.715,4.68a25.982,25.982,0,0,1-2.808,11.743,26.151,26.151,0,0,1-35.1,11.523" transform="translate(30.161 23.139)" fill="#2abbdd"/>
          </g>
          <g id="Group_4798" data-name="Group 4798" transform="translate(115.139 115.12)">
            <path id="Path_1213" data-name="Path 1213" d="M13.1,26.251A30.617,30.617,0,0,1-.75,22.93,30.7,30.7,0,0,1-17.656-4.611a30.451,30.451,0,0,1,3.311-13.856A30.614,30.614,0,0,1,3.539-33.838a30.616,30.616,0,0,1,23.514,1.777,30.847,30.847,0,0,1,13.593,41.4l-1.465-.742,1.465.742A30.6,30.6,0,0,1,22.758,24.694,30.907,30.907,0,0,1,13.1,26.251M2.74,16.025a23.1,23.1,0,0,0,31-10.181A22.781,22.781,0,0,0,36.22-4.522,22.994,22.994,0,0,0,23.561-25.155,22.883,22.883,0,0,0,5.954-26.484,22.92,22.92,0,0,0-7.439-14.975a23.1,23.1,0,0,0,10.179,31" transform="translate(17.656 35.39)" fill="#2abbdd"/>
          </g>
        </g>
      </g>
    </g>
  </g>
  <g id="Group_4490" data-name="Group 4490" transform="translate(-105 73.673) rotate(-90)">
    <path id="Path_572" data-name="Path 572" d="M-13.164-13.164C-13.164-25.591,15.517-50,23.673-50H-50c7.967,0,36.836,24.568,36.836,36.836" transform="translate(50 155)" fill="#fff"/>
    <path id="Path_573" data-name="Path 573" d="M-13.164-13.164C-13.164-25.591,15.517-50,23.673-50H-50c7.968,0,36.836,24.568,36.836,36.836" transform="translate(50 191.837)" fill="#fff"/>
  </g>
  <g id="Group_4448" data-name="Group 4448" transform="translate(1535.461 392.169) rotate(180)">
    <g id="Group_4092" data-name="Group 4092" transform="translate(0 -168.831)">
      <path id="Path_656" data-name="Path 656" d="M0,0V560.5H1.229V0Z" fill="#fff"/>
    </g>
    <path id="Path_657" data-name="Path 657" d="M12.919,391.669h1.222v-560.5H12.919Z" fill="#fff"/>
    <g id="Group_4093" data-name="Group 4093" transform="translate(25.833 -168.831)">
      <path id="Path_658" data-name="Path 658" d="M0,0V560.5H1.717V0Z" transform="translate(0.001)" fill="#fff"/>
    </g>
    <path id="Path_659" data-name="Path 659" d="M39.245,391.669h1.718v-560.5H39.245Z" transform="translate(-0.557)" fill="#fff"/>
    <path id="Path_660" data-name="Path 660" d="M52.656,391.669h2.975v-560.5H52.656Z" transform="translate(-0.753)" fill="#fff"/>
    <path id="Path_661" data-name="Path 661" d="M67.325,391.669H70.3v-560.5H67.325Z" transform="translate(-0.963)" fill="#fff"/>
    <g id="Group_4094" data-name="Group 4094" transform="translate(80.817 -168.831)">
      <path id="Path_662" data-name="Path 662" d="M0,0V560.5H3.471V0Z" transform="translate(0.001)" fill="#fff"/>
    </g>
    <g id="Group_4095" data-name="Group 4095" transform="translate(95.764 -168.831)">
      <path id="Path_663" data-name="Path 663" d="M0,0V560.5H3.471V0Z" fill="#fff"/>
    </g>
    <path id="Path_664" data-name="Path 664" d="M112.324,391.669h4.73v-560.5h-4.73Z" transform="translate(-1.624)" fill="#fff"/>
    <path id="Path_665" data-name="Path 665" d="M128.746,391.669h4.729v-560.5h-4.729Z" transform="translate(-1.862)" fill="#fff"/>
    <path id="Path_666" data-name="Path 666" d="M145.167,391.669h5.987v-560.5h-5.987Z" transform="translate(-2.373)" fill="#fff"/>
    <g id="Group_4096" data-name="Group 4096" transform="translate(160.474 -168.831)">
      <path id="Path_667" data-name="Path 667" d="M0,0V560.5H5.986V0Z" transform="translate(0.001)" fill="#fff"/>
    </g>
  </g>
</svg>
