<?xml version="1.0" encoding="utf-8"?>
<!-- Generator: Adobe Illustrator 24.3.0, SVG Export Plug-In . SVG Version: 6.00 Build 0)  -->
<svg version="1.1" id="Layer_1" xmlns="http://www.w3.org/2000/svg" xmlns:xlink="http://www.w3.org/1999/xlink" x="0px" y="0px"
	 width="956px" height="466px" viewBox="0 0 956 466" style="enable-background:new 0 0 956 466;" xml:space="preserve">
<style type="text/css">
	.st0{fill:#E8F0FF;}
	.st1{fill:#4FE099;}
	.st2{fill:#7061F0;}
	.st3{fill:#FFFFFF;}
</style>
<g transform="matrix(1, 0, 0, 1, 233, 2187.5)">
	<rect id="Rectangle_388-2" x="-233" y="-2187.5" class="st0" width="956" height="466"/>
</g>
<rect id="Rectangle_387" x="490" class="st1" width="465.5" height="465.5"/>
<g id="Group_4756" transform="translate(3283 1234.5) rotate(90)">
	<path id="Path_572" class="st2" d="M-1001.5,2558.1c0-78,181.4-231.1,233-231.1h-466C-1184.1,2327-1001.5,2481.1-1001.5,2558.1"/>
	<path id="Path_573" class="st2" d="M-1001.5,2793c0-78,181.4-231.1,233-231.1h-466C-1184.1,2561.9-1001.5,2716-1001.5,2793"/>
</g>
<g id="Group_5930">
	<path id="Path_1243" class="st2" d="M0,0h86v86H0V0z"/>
	<g id="Group_4849" transform="translate(3402.938 2742.989)">
		<path id="Path_563" class="st0" d="M-3334.9-2700l-25-25l0,0l-25,25l25,25l0,0L-3334.9-2700z M-3359.9-2687.1
			c-7.1,0-12.9-5.8-12.9-12.9c0-7.1,5.8-12.9,12.9-12.9c7.1,0,12.9,5.8,12.9,12.9C-3347-2692.9-3352.8-2687.1-3359.9-2687.1"/>
		<path id="Path_564" class="st0" d="M-3352-2700c0-4.4-3.5-7.9-7.9-7.9l0,0c-4.4,0-7.9,3.5-7.9,7.9l0,0c0,4.4,3.5,7.9,7.9,7.9
			c0,0,0,0,0,0C-3355.6-2692.1-3352-2695.6-3352-2700L-3352-2700"/>
	</g>
</g>
<g>
	<path class="st3" d="M89.6,376.2c-11.6-11.6-25.3-20.8-40.4-27.2c-15.6-6.6-32.3-10-49.2-10v2.9c68.4,0.2,123.8,55.7,123.9,124.1
		c0,0,0,0,0,0h2.9c0,0,0,0,0,0c0-17-3.4-33.8-10-49.4C110.4,401.5,101.2,387.7,89.6,376.2z"/>
	<path class="st3" d="M1.9,359.5c-0.6,0-1.3,0-1.9,0v3.7c0.6,0,1.2,0,1.8,0c27.3,0.5,53.2,11.9,72,31.6
		c18.5,19.1,28.7,44.7,28.7,71.2h3.7c0,0,0,0,0-0.1c0.1-27.5-10.6-53.9-29.7-73.7C57.1,371.8,30.2,360,1.9,359.5z"/>
	<path class="st3" d="M4.1,380.1c-1.4-0.1-2.7-0.1-4.1-0.1v4.5c1.3,0,2.6,0,3.9,0.1c21.6,1,41.9,10.7,56.4,26.8
		c13.6,15,21.1,34.5,21.1,54.7h4.5c0,0,0-0.1,0-0.1c0-21.3-7.9-41.8-22.2-57.6C48.3,391.3,26.9,381.1,4.1,380.1z"/>
	<path class="st3" d="M6.4,400.6c-2.1-0.2-4.3-0.3-6.4-0.3v5.2c1.9,0,3.9,0.1,5.9,0.3c16,1.6,30.7,9.5,40.8,21.9
		c8.9,10.8,13.7,24.4,13.6,38.3h5.2c0,0,0,0,0-0.1h0C65.4,432.2,39.9,404,6.4,400.6z"/>
	<path class="st3" d="M8.8,421.2c-2.9-0.6-5.9-0.9-8.8-0.9v6c2.6,0,5.1,0.3,7.6,0.8c18.8,3.8,31.8,20.4,31.8,38.9h6c0,0,0,0,0-0.1h0
		c0-9-2.7-17.7-7.6-25.2C31.2,430.6,20.7,423.6,8.8,421.2z"/>
	<path class="st3" d="M26.6,466c0-2.8-0.5-5.7-1.4-8.4c-2.2-6.8-7-12.4-13.4-15.6c-3.8-1.9-7.9-2.8-11.9-2.9v6.7
		c3.1,0,6.1,0.8,8.8,2.2c7,3.5,11,10.6,11,17.9H26.6z"/>
</g>
</svg>
