<svg xmlns="http://www.w3.org/2000/svg" xmlns:xlink="http://www.w3.org/1999/xlink" width="636" height="759.203" viewBox="0 0 636 759.203">
  <defs>
    <clipPath id="clip-path">
      <rect id="Rectangle_643" data-name="Rectangle 643" width="272" height="182" transform="translate(928 104)" fill="#fff" stroke="#707070" stroke-width="1"/>
    </clipPath>
  </defs>
  <g id="Group_5941" data-name="Group 5941" transform="translate(-732.5 -104)">
    <g id="Group_4287" data-name="Group 4287" transform="translate(974.09 813.203) rotate(-90)">
      <path id="Path_581" data-name="Path 581" d="M147.2,0-50,394.406l394.406,0Z" fill="#ffffff"/>
    </g>
    <g id="Group_4284" data-name="Group 4284" transform="translate(-1536.38 352.79) rotate(180)">
      <path id="Path_592" data-name="Path 592" d="M1136.12,3.956h132V-13.09h-132Z" transform="translate(-3537 -213.167)" fill="#1b2f53"/>
      <path id="Path_593" data-name="Path 593" d="M1136.12-82.954h132V-100h-132Z" transform="translate(-3537 -240.978)" fill="#ffffff"/>
      <path id="Path_594" data-name="Path 594" d="M1136.12-53.983h132V-71.031h-132Z" transform="translate(-3537 -231.708)" fill="#1b2f53"/>
      <path id="Path_595" data-name="Path 595" d="M1136.12-25.014h132V-42.06h-132Z" transform="translate(-3537 -222.437)" fill="#ffffff"/>
    </g>
    <g id="Mask_Group_15" data-name="Mask Group 15" transform="translate(106.5)" clip-path="url(#clip-path)">
      <path id="Path_1086" data-name="Path 1086" d="M81.879,164.125a131.114,131.114,0,0,1-59.33-14.234,131.515,131.515,0,0,1-72.436-118A130.391,130.391,0,0,1-35.7-27.49a132.016,132.016,0,0,1,177.378-58.24c64.961,32.849,91.086,112.422,58.24,177.381a131.117,131.117,0,0,1-76.644,65.807,132.548,132.548,0,0,1-41.4,6.667m-44.37-43.816a98.967,98.967,0,0,0,132.828-43.62A97.591,97.591,0,0,0,180.96,32.269a98.523,98.523,0,0,0-54.238-88.408A98.863,98.863,0,0,0-6.107-12.527,98.976,98.976,0,0,0,37.508,120.309" transform="translate(981.888 71.643)" fill="#ED6B4D"/>
    </g>
    <g id="Group_4283" data-name="Group 4283" transform="translate(4794.5 845.799)">
      <path id="Path_577" data-name="Path 577" d="M16,0A66,66,0,1,0,82,66,66,66,0,0,0,16,0m0,100.073A34.072,34.072,0,1,1,50.073,66,34.11,34.11,0,0,1,16,100.073" transform="translate(-3640 -547.301)" fill="#1b2f53"/>
      <path id="Path_578" data-name="Path 578" d="M5.06,0A20.872,20.872,0,1,0,25.932,20.872,20.872,20.872,0,0,0,5.06,0" transform="translate(-3629.06 -502.172)" fill="#ED6B4D"/>
    </g>
    <g id="Group_4543" data-name="Group 4543" transform="translate(837.522 3724.97) rotate(90)">
      <path id="Path_572" data-name="Path 572" d="M17,17C17-5.6,69.166-50,84-50H-50c14.491,0,67,44.686,67,67" transform="translate(-3376.97 -480.978)" fill="#1b2f53"/>
      <path id="Path_573" data-name="Path 573" d="M17,17C17-5.6,69.166-50,84-50H-50c14.492,0,67,44.686,67,67" transform="translate(-3376.971 -413.978)" fill="#ED6B4D"/>
    </g>
  </g>
</svg>
