<svg id="Layer_1" data-name="Layer 1" xmlns="http://www.w3.org/2000/svg" viewBox="0 0 808 422.58"><defs><style>.cls-1{fill:#1b2f53;}.cls-2{fill:#7060ef;}.cls-3{fill:#ffc149;}.cls-4{fill:#fff9ef;}.cls-5{fill:none;stroke:#7060ef;}</style></defs><g id="Group_5948" data-name="Group 5948"><rect id="Rectangle_387" data-name="Rectangle 387" class="cls-1" width="808" height="422.58"/><g id="Group_4932" data-name="Group 4932"><g id="Group_4915" data-name="Group 4915"><path id="Path_1263" data-name="Path 1263" class="cls-2" d="M209.11,156V301H216V156Z"/></g><g id="Group_4916" data-name="Group 4916"><path id="Path_1264" data-name="Path 1264" class="cls-2" d="M300.62,176V301h11.15V176Z"/></g><g id="Group_4917" data-name="Group 4917"><path id="Path_1265" data-name="Path 1265" class="cls-2" d="M400.71,151V301h12.84V151Z"/></g><g id="Group_4918" data-name="Group 4918"><path id="Path_1266" data-name="Path 1266" class="cls-2" d="M504.18,111V301h17.14V111Z"/></g><g id="Group_4919" data-name="Group 4919"><path id="Path_1267" data-name="Path 1267" class="cls-2" d="M616.23,87V301h21.43V87Z"/></g><path id="Path_1268" data-name="Path 1268" class="cls-2" d="M121,301h5.19V166H121Z"/><g id="Group_4920" data-name="Group 4920"><path id="Path_1269" data-name="Path 1269" class="cls-3" d="M165.05,161V301h5.17V161Z"/></g><g id="Group_4921" data-name="Group 4921"><path id="Path_1270" data-name="Path 1270" class="cls-3" d="M254.87,171V301h6.86V171Z"/></g><g id="Group_4922" data-name="Group 4922"><path id="Path_1271" data-name="Path 1271" class="cls-3" d="M350.66,171V301h11.15V171Z"/></g><g id="Group_4923" data-name="Group 4923"><path id="Path_1272" data-name="Path 1272" class="cls-3" d="M452.45,131V301h12.84V131Z"/></g><g id="Group_4924" data-name="Group 4924"><path id="Path_1273" data-name="Path 1273" class="cls-3" d="M560.21,97V301h17.13V97Z"/></g><g id="Group_4925" data-name="Group 4925"><path id="Path_1274" data-name="Path 1274" class="cls-3" d="M676.55,47V301H698V47Z"/></g><g id="Group_4929" data-name="Group 4929"><g id="Group_4926" data-name="Group 4926"><path id="Path_1275" data-name="Path 1275" class="cls-4" d="M110.44,368.92a2.13,2.13,0,0,1-2.14,1.5c-.5,0-1.17,0-1.86,0h-1.82l2.06-1.79c1.84-1.6,3.6-3.17,3.6-5s-1.58-2.77-3.74-2.77a4.07,4.07,0,0,0-3.09,1.15c0,.4,0,.83,0,1.3s0,.8,0,1.25h.25c.72-1.5,1.78-3.36,2.92-3.36.83,0,1.26.77,1.26,2.29a7.78,7.78,0,0,1-2.16,4.94L103,371.88v.24c1.3,0,2.11-.05,3.62-.05s2.73,0,3.76.05c.12-1,.22-2.35.27-3.2Zm6.51,3.41c2.4,0,4.37-2.1,4.37-5.71s-2-5.7-4.37-5.7-4.35,2.11-4.35,5.7,1.94,5.71,4.35,5.71m0-.33c-1.37,0-2-1.62-2-5.38s.63-5.36,2-5.36,2,1.63,2,5.36-.61,5.38-2,5.38m13.11-3.08a2.14,2.14,0,0,1-2.15,1.5c-.5,0-1.17,0-1.85,0h-1.83l2.07-1.79c1.84-1.6,3.6-3.17,3.6-5s-1.59-2.77-3.75-2.77a4.08,4.08,0,0,0-3.09,1.15c0,.4,0,.83,0,1.3s0,.8,0,1.25h.26c.72-1.5,1.78-3.36,2.91-3.36.83,0,1.27.77,1.27,2.29a7.83,7.83,0,0,1-2.16,4.94l-2.72,3.39v.24c1.3,0,2.11-.05,3.61-.05s2.74,0,3.76.05c.13-1,.23-2.35.27-3.2Zm6.51,3.41c2.4,0,4.36-2.1,4.36-5.71s-2-5.7-4.36-5.7-4.36,2.11-4.36,5.7,1.94,5.71,4.36,5.71m0-.34c-1.38,0-2-1.61-2-5.37s.62-5.36,2-5.36,2,1.63,2,5.36-.61,5.37-2,5.37"/></g><g id="Group_4927" data-name="Group 4927"><path id="Path_1276" data-name="Path 1276" class="cls-4" d="M346.22,367.35c2.69,0,4.43-1.41,4.43-3.31,0-2.1-2.14-3.12-4.48-3.12h-4.24v.24c1,.24,1.44,1.2,1.44,3.07v4.26c0,2-.5,3.17-1.49,3.39v.24c.93-.05,1.81-.07,2.67-.07s1.75,0,2.64.07v-.24c-1.44-.24-1.9-1.09-1.9-3.48v-1Zm-.21-6.08c1.46,0,2.34.9,2.34,2.7s-.9,3-2.47,3h-.59V361.3l.72,0m11.25,2.9a3,3,0,0,0-2.47,2.27,7.78,7.78,0,0,0,.16-1.66v-.52a24.1,24.1,0,0,1-3.18.15v.24c1.09.19,1.28,1.09,1.28,2v3.22a1.93,1.93,0,0,1-1.28,2v.24c.8-.05,1.58-.07,2.35-.07s1.55,0,2.35.07v-.24c-1.26-.32-1.57-1-1.57-2.32v-1.94c0-1.23.63-2.35,1.41-2.35.59,0,1.15.66,1.44,1.9H358c.24-.72.45-1.45.62-2.19a1.6,1.6,0,0,0-1.38-.82m6,8.15a3.74,3.74,0,0,0,3.8-3.68,2.42,2.42,0,0,0,0-.38,3.79,3.79,0,1,0-7.55-.57,5.42,5.42,0,0,0,0,.57,3.74,3.74,0,0,0,3.4,4.05h.38m0-.29c-.91,0-1.59-1-1.59-3.77s.68-3.79,1.59-3.79,1.58,1.05,1.58,3.79-.67,3.78-1.58,3.78m12.4-2.15v-9.52a23.84,23.84,0,0,1-3.15.23v.24c1.21.17,1.28.85,1.28,2.06v1.26a5.93,5.93,0,0,0,0,.61,2.18,2.18,0,0,0-1.55-.59,3.76,3.76,0,0,0-3.73,3.8,2,2,0,0,1,0,.25c0,2.41,1.49,4.1,3.17,4.1a2.25,2.25,0,0,0,2.16-1.62v.22a5.54,5.54,0,0,0,.16,1.35,17.9,17.9,0,0,1,2.83-.15v-.24a1.78,1.78,0,0,1-1.21-2m-3.54,2c-.94,0-1.37-1.45-1.37-3.66s.43-3.68,1.74-3.68a1.68,1.68,0,0,1,1.3.67v4.22c0,1.35-.82,2.45-1.66,2.45M385,369.25v-5a22,22,0,0,1-2.93.16v.24c.7.13,1.06.79,1.06,2v2.84c0,1.14-1,2.24-1.73,2.24s-1-.74-1-2.29v-5.18a21,21,0,0,1-3,.16v.24c.67.19,1.08.64,1.08,1.81v3.24c0,1.68.72,2.61,2.15,2.61a2.75,2.75,0,0,0,2.62-2,7.38,7.38,0,0,0-.07.81,4.08,4.08,0,0,0,.2,1.15,18.83,18.83,0,0,1,2.81-.14v-.24c-1-.18-1.26-1.18-1.26-2.62m6.1,3.05a3,3,0,0,0,2.94-2.57l-.37-.07a2.45,2.45,0,0,1-2.35,2.15c-1.23,0-1.73-1.17-1.73-3.59,0-2.75.64-3.76,1.41-3.76s1.53,1,2.06,3h.24c.27-.65.53-1.3.74-1.95a3.48,3.48,0,0,0-2.87-1.34,3.75,3.75,0,0,0-3.78,3.71c0,.1,0,.2,0,.3,0,2.44,1.49,4.13,3.7,4.13m9.28-1.71c-.33.62-.86,1.07-1.25,1.07s-.62-.54-.62-1.92v-5h1.84v-.37h-1.81v-2.93h-.27a4.8,4.8,0,0,1-2.85,3.14v.24h1.17v4.94c0,1.76.54,2.51,1.68,2.51a2.63,2.63,0,0,0,2.35-1.57Zm9,1.71c1.84,0,3.63-1.45,3.63-4.32,0-2.59-1.47-3.82-3-3.82a2.59,2.59,0,0,0-2.26,1.28,2.72,2.72,0,0,0,.12-.8v-.4a26.71,26.71,0,0,1-3.22.16v.24c.83.18,1.28.8,1.28,2v7.38a1.76,1.76,0,0,1-1.28,1.84v.24c.82,0,1.58-.06,2.37-.06s1.57,0,2.37.06v-.24a2,2,0,0,1-1.59-2.16v-1.87a2.81,2.81,0,0,0,1.57.45m.06-7.6c.85,0,1.38,1,1.38,3.47s-.46,3.8-1.58,3.8c-1,0-1.43-1-1.43-2.55v-3.38a1.89,1.89,0,0,1,1.63-1.34m10.12-.54a3,3,0,0,0-2.47,2.27,8.49,8.49,0,0,0,.16-1.66v-.52a24.18,24.18,0,0,1-3.18.15v.24c1.09.19,1.28,1.09,1.28,2v3.22a1.94,1.94,0,0,1-1.28,2v.24c.8-.05,1.58-.06,2.35-.06s1.55,0,2.35.06v-.24c-1.26-.32-1.57-1-1.57-2.32v-1.94c0-1.23.63-2.35,1.41-2.35.59,0,1.15.66,1.44,1.9h.26c.24-.72.45-1.45.62-2.19a1.59,1.59,0,0,0-1.38-.81m6,8.14a3.73,3.73,0,0,0,3.79-3.68c0-.13,0-.25,0-.38a3.79,3.79,0,0,0-7.55-.57,2.71,2.71,0,0,0,0,.57,3.73,3.73,0,0,0,3.39,4.05h.39m0-.29c-.92,0-1.59-1-1.59-3.77s.67-3.79,1.59-3.79,1.58,1.05,1.58,3.79-.67,3.78-1.58,3.78m12.91-7.83a1.13,1.13,0,0,1,.62.16l.13-.19a12.28,12.28,0,0,0-1.07-1.59,3.85,3.85,0,0,0-1.3,2.34,4,4,0,0,0-2.39-.72c-1.68,0-3.36.86-3.36,2.91a2.66,2.66,0,0,0,1.28,2.39,1.63,1.63,0,0,0-1.12,1.53,1.51,1.51,0,0,0,1.14,1.46c-1.14.27-1.86,1-1.86,1.82,0,1.19,1.41,2.05,3.9,2.05s4.45-.93,4.45-2.72c0-1.55-1.34-2.48-3.6-2.48h-2c-1,0-1.22-.42-1.22-.7a.94.94,0,0,1,.59-.8,4.2,4.2,0,0,0,1.81.37c1.76,0,3.36-.91,3.36-2.9a2.66,2.66,0,0,0-.78-2,1.44,1.44,0,0,1,1.37-.94m-3.94,5.54c-.84,0-1.3-1-1.3-2.63s.44-2.62,1.24-2.62,1.3,1,1.3,2.69-.43,2.56-1.24,2.56m-.48,3h.67c1.6,0,2.33.45,2.33,1.42s-.91,1.87-2.43,1.87-2.3-.7-2.3-1.85a1.87,1.87,0,0,1,.72-1.52,5.66,5.66,0,0,0,1,.08m11.47-8.56a3,3,0,0,0-2.47,2.27,8.49,8.49,0,0,0,.16-1.66v-.52a24.1,24.1,0,0,1-3.18.15v.24c1.09.19,1.28,1.09,1.28,2v3.22a1.94,1.94,0,0,1-1.28,2v.24c.8-.05,1.58-.06,2.35-.06s1.55,0,2.35.06v-.24c-1.26-.32-1.57-1-1.57-2.32v-1.94c0-1.23.63-2.35,1.41-2.35.59,0,1.15.66,1.44,1.9h.26a21,21,0,0,0,.62-2.19,1.6,1.6,0,0,0-1.37-.82m6.33,7.64c-1.65,0-2-1.62-2-3.4v-.47h4.9c0-2.8-1.65-3.76-3.31-3.76-2.16,0-3.72,1.58-3.72,4.1a3.71,3.71,0,0,0,3.34,4l.36,0a3.21,3.21,0,0,0,3.16-2.45l-.32-.1a2.65,2.65,0,0,1-2.42,2m-.55-7.33c.8,0,1.26,1.12,1.3,3.09h-2.74c0-1.5.5-3.09,1.44-3.09m7.45,7.83c2,0,3.06-.9,3.06-2.36,0-2.68-3.79-2.17-3.79-4.38,0-.59.27-1.07.81-1.07s1.43.91,2.21,2.33h.24c.08-.68.11-1.36.13-2a4.61,4.61,0,0,0-2.29-.6c-1.25,0-2.7.66-2.7,2.26,0,2.48,3.49,2.05,3.55,4.32,0,.66-.28,1.23-1,1.23s-1.62-1-2.39-2.4h-.24c-.05.69-.06,1.38-.05,2.07a4.46,4.46,0,0,0,2.47.64m7.36,0c1.95,0,3.05-.9,3.05-2.36,0-2.68-3.79-2.17-3.79-4.38,0-.59.27-1.07.82-1.07s1.42.91,2.21,2.33h.24a19.93,19.93,0,0,0,.12-2,4.54,4.54,0,0,0-2.28-.6c-1.25,0-2.7.66-2.7,2.26,0,2.48,3.48,2.05,3.55,4.32,0,.66-.29,1.23-1,1.23s-1.62-1-2.38-2.4h-.24a20.44,20.44,0,0,0-.05,2.07,4.45,4.45,0,0,0,2.46.64"/></g><g id="Group_4928" data-name="Group 4928"><path id="Path_1277" data-name="Path 1277" class="cls-4" d="M677.39,368.92a2.14,2.14,0,0,1-2.15,1.5c-.5,0-1.16,0-1.85,0h-1.83l2.07-1.79c1.84-1.6,3.6-3.17,3.6-5s-1.59-2.77-3.74-2.77a4.07,4.07,0,0,0-3.09,1.15c0,.4,0,.83,0,1.3s0,.8,0,1.25h.25c.72-1.5,1.78-3.36,2.91-3.36.84,0,1.27.77,1.27,2.29a7.83,7.83,0,0,1-2.16,4.94L670,371.88v.24c1.3,0,2.11-.05,3.61-.05s2.74,0,3.76.05c.13-1,.23-2.35.28-3.2Zm6.51,3.41c2.4,0,4.37-2.1,4.37-5.71s-2-5.7-4.37-5.7-4.35,2.11-4.35,5.7,1.93,5.71,4.35,5.71m0-.33c-1.38,0-2-1.62-2-5.38s.62-5.36,2-5.36,2,1.63,2,5.36-.61,5.38-2,5.38m13.1-3.08a2.12,2.12,0,0,1-2.14,1.5c-.5,0-1.17,0-1.86,0h-1.82l2.06-1.79c1.84-1.6,3.6-3.17,3.6-5s-1.58-2.77-3.74-2.77a4.07,4.07,0,0,0-3.09,1.15c0,.4,0,.83,0,1.3s0,.8,0,1.25h.26c.72-1.5,1.77-3.36,2.91-3.36.83,0,1.26.77,1.26,2.29a7.77,7.77,0,0,1-2.15,4.94l-2.73,3.39v.24c1.3,0,2.12-.05,3.62-.05s2.74,0,3.76.05c.13-1,.22-2.35.27-3.2Zm1.94,3.2c1,0,2-.05,2.91-.05s1.9,0,2.91.05v-.24c-1.71-.21-2-.85-2-2.06v-8.9a32.16,32.16,0,0,1-3.87,1v.24c1.39,0,2,.37,2,1.55v6.15c0,1.22-.77,1.86-2,2.06Z"/></g></g><g id="Group_4930" data-name="Group 4930"><path id="Path_1279" data-name="Path 1279" class="cls-5" d="M179,366.68H304"/></g><g id="Group_4931" data-name="Group 4931"><path id="Path_1280" data-name="Path 1280" class="cls-5" d="M507.28,366.68h125"/></g></g></g></svg>