<svg xmlns="http://www.w3.org/2000/svg" width="59" height="59" viewBox="0 0 59 59">
  <g id="Group_3712" data-name="Group 3712" transform="translate(-144 -4875)">
    <g id="Path_28" data-name="Path 28" transform="translate(203 4875) rotate(90)" fill="rgba(255,255,255,0.99)">
      <path d="M 29.5 58.25 C 25.61844062805176 58.25 21.85338973999023 57.48995971679688 18.30942916870117 55.99098968505859 C 14.88599014282227 54.54299926757812 11.81126976013184 52.46990966796875 9.170680046081543 49.82931900024414 C 6.530089855194092 47.18872833251953 4.456999778747559 44.11400985717773 3.009010076522827 40.69057083129883 C 1.510040044784546 37.14661026000977 0.75 33.38156127929688 0.75 29.5 C 0.75 25.61844062805176 1.510040044784546 21.85338973999023 3.009010076522827 18.30942916870117 C 4.456999778747559 14.88599014282227 6.530089855194092 11.81126976013184 9.170680046081543 9.170680046081543 C 11.81126976013184 6.530089855194092 14.88599014282227 4.456999778747559 18.30942916870117 3.009010076522827 C 21.85338973999023 1.510040044784546 25.61844062805176 0.75 29.5 0.75 C 33.38156127929688 0.75 37.14661026000977 1.510040044784546 40.69057083129883 3.009010076522827 C 44.11400985717773 4.456999778747559 47.18872833251953 6.530089855194092 49.82931900024414 9.170680046081543 C 52.46990966796875 11.81126976013184 54.54299926757812 14.88599014282227 55.99098968505859 18.30942916870117 C 57.48995971679688 21.85338973999023 58.25 25.61844062805176 58.25 29.5 C 58.25 33.38156127929688 57.48995971679688 37.14661026000977 55.99098968505859 40.69057083129883 C 54.54299926757812 44.11400985717773 52.46990966796875 47.18872833251953 49.82931900024414 49.82931900024414 C 47.18872833251953 52.46990966796875 44.11400985717773 54.54299926757812 40.69057083129883 55.99098968505859 C 37.14661026000977 57.48995971679688 33.38156127929688 58.25 29.5 58.25 Z" stroke="none"/>
      <path d="M 29.5 1.5 C 25.7193603515625 1.5 22.05260848999023 2.240108489990234 18.60160064697266 3.699760437011719 C 15.26755905151367 5.109939575195312 12.27296829223633 7.129051208496094 9.701011657714844 9.701011657714844 C 7.129051208496094 12.27296829223633 5.109939575195312 15.26755905151367 3.699760437011719 18.60160064697266 C 2.240108489990234 22.05260848999023 1.5 25.7193603515625 1.5 29.5 C 1.5 33.2806396484375 2.240108489990234 36.9473876953125 3.699760437011719 40.39839935302734 C 5.109939575195312 43.73244094848633 7.129051208496094 46.72702789306641 9.701011657714844 49.29898834228516 C 12.27296829223633 51.87094879150391 15.26755905151367 53.89006042480469 18.60160064697266 55.30023956298828 C 22.05260848999023 56.75989151000977 25.7193603515625 57.5 29.5 57.5 C 33.2806396484375 57.5 36.9473876953125 56.75989151000977 40.39839935302734 55.30023956298828 C 43.73244094848633 53.89006042480469 46.72702789306641 51.87094879150391 49.29898834228516 49.29898834228516 C 51.87094879150391 46.72702789306641 53.89006042480469 43.73244094848633 55.30023956298828 40.39839935302734 C 56.75989151000977 36.9473876953125 57.5 33.2806396484375 57.5 29.5 C 57.5 25.7193603515625 56.75989151000977 22.05260848999023 55.30023956298828 18.60160064697266 C 53.89006042480469 15.26755905151367 51.87094879150391 12.27296829223633 49.29898834228516 9.701011657714844 C 46.72702789306641 7.129051208496094 43.73244094848633 5.109939575195312 40.39839935302734 3.699760437011719 C 36.9473876953125 2.240108489990234 33.2806396484375 1.5 29.5 1.5 M 29.5 0 C 45.79240036010742 0 59 13.20759963989258 59 29.5 C 59 45.79240036010742 45.79240036010742 59 29.5 59 C 13.20759963989258 59 0 45.79240036010742 0 29.5 C 0 13.20759963989258 13.20759963989258 0 29.5 0 Z" stroke="none" fill="#1b2f53"/>
    </g>
    <g id="Group_17" data-name="Group 17" transform="translate(165.448 4904.71) rotate(-45)">
      <line id="Line_3" data-name="Line 3" y2="15.469" transform="translate(0 0)" fill="none" stroke="#1b2f53" stroke-linecap="round" stroke-width="2"/>
      <line id="Line_4" data-name="Line 4" x2="15.709" transform="translate(0 0)" fill="none" stroke="#1b2f53" stroke-linecap="round" stroke-width="2"/>
    </g>
  </g>
</svg>
