<svg xmlns="http://www.w3.org/2000/svg" width="222.942" height="214.24" viewBox="0 0 222.942 214.24">
  <g id="Group_5276" transform="translate(1685 -2869)">
    <g id="Group_4431" transform="translate(-1685 2869)">
      <g id="Group_4430">
        <g id="Group_4401" transform="translate(70.628 78.293)">
          <path id="Path_954" d="M82,0H51.2V1.9C62.1,4.8,65.7,16.5,65.7,29.1h1.9c0-12.6,3.5-24.4,14.5-27.2Z" fill="#7061f0"/>
          <path id="Path_955" d="M44.2,64.8c-5.5,0-10.4-1.6-13.6-4.4-7-6.2-6-16.3-6-28.8V27.3c0-15.6.8-21.9,11.2-25.2l.2-.2V0H0V1.9C11.5,5.8,12.2,12.5,12.2,27.3v5c0,4.2-.2,13.1-.2,14.6,0,16,11,26,28.7,26,19.1,0,26.8-11.9,26.8-30.5H65.6C65.6,55.2,57.5,64.8,44.2,64.8Z" fill="#7061f0"/>
        </g>
        <g id="Group_4428">
          <g id="Group_4402" transform="translate(36.479 180.385)">
            <path id="Path_956" d="M18.7,6.1,7.4,19.4l-5-4.3A6.112,6.112,0,0,1,.1,11.5a3.992,3.992,0,0,1,1-3.3A3.544,3.544,0,0,1,3.5,6.8,4.289,4.289,0,0,1,6,7.2a7.572,7.572,0,0,1-.9-1.8,4.517,4.517,0,0,1,.1-2,5.076,5.076,0,0,1,.9-1.8A5.179,5.179,0,0,1,8.2.2a3.865,3.865,0,0,1,2.6,0,6.6,6.6,0,0,1,2.8,1.6ZM10.2,12,7.5,9.7a3.719,3.719,0,0,0-2.2-1,2.576,2.576,0,0,0-1.9,1,2.883,2.883,0,0,0-.7,2A3.6,3.6,0,0,0,4,13.8l2.7,2.3Zm5.1-5.9L12.4,3.6a3.492,3.492,0,0,0-2.4-1,2.462,2.462,0,0,0-2,1,2.578,2.578,0,0,0-.7,2.2A3.679,3.679,0,0,0,8.7,8l2.9,2.4Z" fill="#7061f0"/>
          </g>
          <g id="Group_4403" transform="translate(23.615 168.325)">
            <path id="Path_957" d="M20.5,8.4,7.3,19.9,0,11.5l1.6-1.4,5.6,6.4,4.1-3.6L6.2,7.1,7.8,5.7l5.1,5.8,4.3-3.7L11.6,1.4,13.2,0Z" fill="#7061f0"/>
          </g>
          <g id="Group_4404" transform="translate(12.556 148.403)">
            <path id="Path_958" d="M19.8,13.9,1.4,16.4,0,13.9,12.4,0l1.3,2.5L10.6,5.8,14,12.1l4.5-.7Zm-8-1.5-2.7-5L3.4,13.6Z" fill="#7061f0"/>
          </g>
          <g id="Group_4405" transform="translate(2.039 129.526)">
            <path id="Path_959" d="M18.9,5.1A6.893,6.893,0,0,1,19,8.6a5.581,5.581,0,0,1-1.6,2.9,7.823,7.823,0,0,1-3.5,1.8L3.3,16l-.7-2.6,10.6-2.7a4.632,4.632,0,0,0,3-1.9,4.209,4.209,0,0,0,.3-3.1,4.037,4.037,0,0,0-1.8-2.6,4.29,4.29,0,0,0-3.5-.2L.7,5.6,0,3,10.6.3a7.757,7.757,0,0,1,4-.1A5.258,5.258,0,0,1,17.4,2,8.924,8.924,0,0,1,18.9,5.1Z" fill="#7061f0"/>
          </g>
          <g id="Group_4406" transform="translate(0 111.559)">
            <path id="Path_960" d="M18.5,14,1.1,15.4.9,12.8,13.3,3,.2,4,0,1.3,17.4,0l.2,2.6L5.2,12.4l13.1-1Z" fill="#7061f0"/>
          </g>
          <g id="Group_4407" transform="translate(0.26 105.062)">
            <path id="Path_961" d="M17.5,3.4,0,2.6.1,0,17.6.8Z" fill="#7061f0"/>
          </g>
          <g id="Group_4408" transform="translate(1.4 85.703)">
            <path id="Path_962" d="M18,9.5a8.093,8.093,0,0,1-1.9,4.2A7.705,7.705,0,0,1,12.5,16a9.775,9.775,0,0,1-4.8.2,10.427,10.427,0,0,1-4.5-1.8A8.194,8.194,0,0,1,.5,11,8.876,8.876,0,0,1,.1,6.4,7.783,7.783,0,0,1,2.4,1.7,7.069,7.069,0,0,1,7,0L6.5,2.9A3.631,3.631,0,0,0,3.9,4,4.686,4.686,0,0,0,2.5,6.9a4.839,4.839,0,0,0,1.1,4.4,7.275,7.275,0,0,0,4.6,2.3,7.571,7.571,0,0,0,5.1-.7,4.7,4.7,0,0,0,2.4-3.8,5.789,5.789,0,0,0-.3-3.2,4.1,4.1,0,0,0-2-1.9l.5-2.9a6.474,6.474,0,0,1,3.6,3.1A9.588,9.588,0,0,1,18,9.5Z" fill="#7061f0"/>
          </g>
          <g id="Group_4409" transform="translate(6.479 66.125)">
            <path id="Path_963" d="M17.6,12a8.582,8.582,0,0,1-2.7,3.8,8.766,8.766,0,0,1-4.1,1.7A9.826,9.826,0,0,1,6,16.9a9.806,9.806,0,0,1-4-2.7,8.281,8.281,0,0,1-1.9-4A9.121,9.121,0,0,1,.6,5.6,8.582,8.582,0,0,1,3.3,1.8a8.741,8.741,0,0,1,8.9-1,9.806,9.806,0,0,1,4,2.7,7.477,7.477,0,0,1,1.9,4A8.628,8.628,0,0,1,17.6,12Zm-2.3-.8A6.912,6.912,0,0,0,15.7,8a6.187,6.187,0,0,0-1.4-2.8,7.894,7.894,0,0,0-3.1-2,7.413,7.413,0,0,0-3.6-.6A8.125,8.125,0,0,0,4.7,3.8,5.621,5.621,0,0,0,2.9,6.5a6.912,6.912,0,0,0-.4,3.2,6.187,6.187,0,0,0,1.4,2.8,9.189,9.189,0,0,0,3.1,2,7.413,7.413,0,0,0,3.6.6A5.692,5.692,0,0,0,13.5,14a7.081,7.081,0,0,0,1.8-2.8Z" fill="#7061f0"/>
          </g>
          <g id="Group_4410" transform="translate(13.063 50.57)">
            <path id="Path_964" d="M15,17.5,0,8.5,3.1,3.3A8.483,8.483,0,0,1,5.5.7,4.618,4.618,0,0,1,8.1,0a4.957,4.957,0,0,1,2.6.8,5.228,5.228,0,0,1,2.1,2.3A4.2,4.2,0,0,1,13,6.4l8.3.6L19.7,9.6l-7.8-.7-1.6,2.7,6,3.6Zm-6.4-7,1.7-2.8a3.887,3.887,0,0,0,.6-2.6A3.171,3.171,0,0,0,9.4,3.2,3.41,3.41,0,0,0,7,2.7,3.572,3.572,0,0,0,4.9,4.6L3.3,7.3Z" fill="#7061f0"/>
          </g>
          <g id="Group_4411" transform="translate(22.379 33.602)">
            <path id="Path_965" d="M13.3,22.1,0,10.7l1.7-2,15.7,1.9L7.4,2,9.1,0,22.4,11.4l-1.7,2L5,11.5l10,8.6Z" fill="#7061f0"/>
          </g>
          <g id="Group_4412" transform="translate(40.744 23.751)">
            <path id="Path_966" d="M11,15.3,0,1.7,2.1,0l11,13.6Z" fill="#7061f0"/>
          </g>
          <g id="Group_4413" transform="translate(46.841 13.048)">
            <path id="Path_967" d="M9.2,22.3,0,7.4,2.2,6l14.4,6.6L9.6,1.4,11.9,0l9.2,14.9-2.2,1.4L4.5,9.7l7,11.2Z" fill="#7061f0"/>
          </g>
          <g id="Group_4414" transform="translate(75.029 5.017)">
            <path id="Path_968" d="M0,19.5.7.9,3.5,0,15,14.7l-2.7.9L9.6,12,2.8,14.2l-.1,4.5Zm2.8-7.6,5.4-1.7L3.1,3.4Z" fill="#7061f0"/>
          </g>
          <g id="Group_4415" transform="translate(96.138)">
            <path id="Path_969" d="M1.6,18.4,0,1,10.9,0l.2,2.1-8.3.8.5,5.5,6.9-.6.2,2.1-6.9.6.7,7.7Z" fill="#7061f0"/>
          </g>
          <g id="Group_4416" transform="translate(110.858 0.058)">
            <path id="Path_970" d="M0,17.5.3,0H2.9L2.6,17.5Z" fill="#7061f0"/>
          </g>
          <g id="Group_4417" transform="translate(116.637 0.173)">
            <path id="Path_971" d="M0,17.4,1.9,0l11,1.2-.2,2.1L4.3,2.4,3.7,7.8l7.7.9-.2,2.1L3.5,9.9l-.6,5.6,8.4.9-.2,2.1Z" fill="#7061f0"/>
          </g>
          <g id="Group_4418" transform="translate(130.199 2.381)">
            <path id="Path_972" d="M0,16.9,4.4,0,7,.7,3.1,15.6l7.7,2-.5,2Z" fill="#7061f0"/>
          </g>
          <g id="Group_4419" transform="translate(142.597 6.573)">
            <path id="Path_973" d="M0,16,7,0l5.2,2.3a10.484,10.484,0,0,1,4.2,3,7,7,0,0,1,1.5,4,11.041,11.041,0,0,1-1,4.7,10.537,10.537,0,0,1-2.7,3.9,7.1,7.1,0,0,1-3.9,1.6,10.239,10.239,0,0,1-5.1-1.1Zm3.3-1L6,16.2a7.256,7.256,0,0,0,3.8.8,4.468,4.468,0,0,0,2.7-1.2,9.989,9.989,0,0,0,2-2.9,8.525,8.525,0,0,0,.8-3.5,5.21,5.21,0,0,0-.9-2.9,6.817,6.817,0,0,0-3.1-2.2L8.6,3.1Z" fill="#7061f0"/>
          </g>
          <g id="Group_4420" transform="translate(165.862 21.729)">
            <path id="Path_974" d="M3.4,16.2A8.733,8.733,0,0,1,.5,12.5,9.346,9.346,0,0,1,.1,8.1,9.467,9.467,0,0,1,2.2,3.7,10.154,10.154,0,0,1,6,.7,8.3,8.3,0,0,1,10.4.1,8.468,8.468,0,0,1,14.6,2a8.733,8.733,0,0,1,2.9,3.7,8.226,8.226,0,0,1,.4,4.4,9.467,9.467,0,0,1-2.1,4.4,10.154,10.154,0,0,1-3.8,3,8.3,8.3,0,0,1-4.4.6A8.468,8.468,0,0,1,3.4,16.2Zm1.5-1.9a5.445,5.445,0,0,0,3,1.3,5.657,5.657,0,0,0,3.1-.5,9.1,9.1,0,0,0,2.8-2.3,7.827,7.827,0,0,0,1.6-3.3,5.484,5.484,0,0,0-.2-3.1,6.3,6.3,0,0,0-2-2.6,5.445,5.445,0,0,0-3-1.3A5.657,5.657,0,0,0,7.1,3,9.179,9.179,0,0,0,4.3,5.4,7.827,7.827,0,0,0,2.7,8.7a5.484,5.484,0,0,0,.2,3.1,5.456,5.456,0,0,0,2,2.5Z" fill="#7061f0"/>
          </g>
          <g id="Group_4421" transform="translate(177.681 33.096)">
            <path id="Path_975" d="M0,11.7,13,0l7.4,8.1L18.8,9.5,13.2,3.3,9.1,7.1l4.6,5.1-1.6,1.4L7.5,8.5,1.8,13.7Z" fill="#7061f0"/>
          </g>
          <g id="Group_4422" transform="translate(189.812 50.868)">
            <path id="Path_976" d="M0,8.6,15.2,0l1.3,2.3L10,6l4.1,7.4,6.5-3.7L22,12,6.7,20.6,5.4,18.3l6.8-3.8L8.1,7.1,1.3,10.9Z" fill="#7061f0"/>
          </g>
          <g id="Group_4423" transform="translate(199.531 69.977)">
            <path id="Path_977" d="M.5,11.7A9.338,9.338,0,0,1,.2,7,7.483,7.483,0,0,1,2.3,3.1,9.689,9.689,0,0,1,6.4.6,9.659,9.659,0,0,1,11.2.1,8.389,8.389,0,0,1,15.1,2a8.208,8.208,0,0,1,2.5,3.9,9.357,9.357,0,0,1,.4,4.7,7.483,7.483,0,0,1-2.1,3.9A9.689,9.689,0,0,1,11.8,17a9.782,9.782,0,0,1-4.8.5,7.477,7.477,0,0,1-4-1.9A9.374,9.374,0,0,1,.5,11.7Zm2.3-.8a5,5,0,0,0,1.8,2.7,5.025,5.025,0,0,0,2.8,1.2,8.7,8.7,0,0,0,3.6-.4,9.156,9.156,0,0,0,3.2-1.8,4.87,4.87,0,0,0,1.5-2.7,6.875,6.875,0,0,0-.2-3.2A5,5,0,0,0,13.7,4a5.025,5.025,0,0,0-2.8-1.2,8.7,8.7,0,0,0-3.6.4A6.691,6.691,0,0,0,4,5,5.566,5.566,0,0,0,2.5,7.7a5.789,5.789,0,0,0,.3,3.2Z" fill="#7061f0"/>
          </g>
          <g id="Group_4424" transform="translate(203.358 89.56)">
            <path id="Path_978" d="M0,2.5,17.3,0l.9,6A8.3,8.3,0,0,1,18,9.5a3.976,3.976,0,0,1-1.6,2.2,5.506,5.506,0,0,1-2.5,1,5.136,5.136,0,0,1-3-.4A4.89,4.89,0,0,1,8.6,9.9L1.8,14.6l-.4-3L7.9,7.2,7.4,4.1l-7,1ZM9.3,3.8,9.8,7A3.721,3.721,0,0,0,11,9.5a2.9,2.9,0,0,0,2.4.5,3.327,3.327,0,0,0,2.1-1.1,3.513,3.513,0,0,0,.4-2.8l-.5-3.2Z" fill="#7061f0"/>
          </g>
          <g id="Group_4425" transform="translate(204.842 105.859)">
            <path id="Path_979" d="M0,6.4A7.973,7.973,0,0,1,.7,3,4.73,4.73,0,0,1,2.7.8a5.208,5.208,0,0,1,3-.8V2.8a3.583,3.583,0,0,0-2.4.9,3.394,3.394,0,0,0-1,2.7,3.353,3.353,0,0,0,.6,2.4,2.323,2.323,0,0,0,1.9.9,2.6,2.6,0,0,0,1.5-.4,5.241,5.241,0,0,0,1-1.1c.2-.5.5-1.1.7-1.6.2-.6.4-1.3.6-2a7.106,7.106,0,0,1,1.8-3,4.192,4.192,0,0,1,2.8-1,4.845,4.845,0,0,1,2.6.7,5.51,5.51,0,0,1,1.7,2,8.025,8.025,0,0,1,.6,3,6.583,6.583,0,0,1-.7,3,4.939,4.939,0,0,1-1.8,2A4.845,4.845,0,0,1,13,12V9.2a2.768,2.768,0,0,0,1.3-.3,2.41,2.41,0,0,0,1-1,3.167,3.167,0,0,0,.4-1.6,3.223,3.223,0,0,0-.6-2.1,1.841,1.841,0,0,0-1.8-.8,2.271,2.271,0,0,0-1.6.6,5.071,5.071,0,0,0-.9,1.6c-.3.7-.5,1.5-.9,2.4A6.5,6.5,0,0,1,9,10.3a4.1,4.1,0,0,1-1.6,1.6,5.421,5.421,0,0,1-2.5.6,5.528,5.528,0,0,1-2.5-.7A4.626,4.626,0,0,1,.6,9.7,7.451,7.451,0,0,1,0,6.4Z" fill="#7061f0"/>
          </g>
          <g id="Group_4426" transform="translate(203.118 120.629)">
            <path id="Path_980" d="M1.7,0,19,2.7l-1.7,11-2.1-.3L16.5,5l-5.4-.8L9.9,11.8l-2.1-.3L9,3.8,3.4,3,2.1,11.4,0,11Z" fill="#7061f0"/>
          </g>
          <g id="Group_4427" transform="translate(200.119 134.686)">
            <path id="Path_981" d="M.4,4.8a7.526,7.526,0,0,1,1.7-3A4.73,4.73,0,0,1,4.6.2,5.46,5.46,0,0,1,7.7.3L6.8,2.9A3.589,3.589,0,0,0,2.5,5.4a3.585,3.585,0,0,0,0,2.5A2.317,2.317,0,0,0,4,9.3a2.856,2.856,0,0,0,1.6.1,2.55,2.55,0,0,0,1.2-.8A8.064,8.064,0,0,0,8,7.2c.4-.5.8-1.1,1.2-1.7a7.489,7.489,0,0,1,2.6-2.4,3.89,3.89,0,0,1,3-.1A3.679,3.679,0,0,1,17,4.4a4.286,4.286,0,0,1,1,2.4,8.2,8.2,0,0,1-.3,3.1,7.2,7.2,0,0,1-1.5,2.7A4.254,4.254,0,0,1,13.9,14a4.964,4.964,0,0,1-2.7-.1l.8-2.7a2.879,2.879,0,0,0,1.3.1,2.389,2.389,0,0,0,1.3-.7,3.766,3.766,0,0,0,.9-1.5,2.8,2.8,0,0,0,0-2.2A2.433,2.433,0,0,0,14,5.6a2.03,2.03,0,0,0-1.7.1A5.706,5.706,0,0,0,10.9,7,20.777,20.777,0,0,1,9.4,9a10.081,10.081,0,0,1-1.7,1.9,4.9,4.9,0,0,1-2,1.1,4.3,4.3,0,0,1-2.5-.2,4.347,4.347,0,0,1-2.1-1.4A5.816,5.816,0,0,1-.1,7.9,9.086,9.086,0,0,1,.4,4.8Z" fill="#7061f0"/>
          </g>
        </g>
        <g id="Group_4429" transform="translate(54.279 153.94)">
          <path id="Path_982" d="M57.1,60.3A102.766,102.766,0,0,1,0,43l1.2-1.7a100.761,100.761,0,0,0,56,17A101.233,101.233,0,0,0,148.6.1l1.9.9A103.516,103.516,0,0,1,57.1,60.3Z" fill="#7061f0"/>
        </g>
      </g>
    </g>
  </g>
</svg>
