<svg xmlns="http://www.w3.org/2000/svg" xmlns:xlink="http://www.w3.org/1999/xlink" width="599.134" height="475.576" viewBox="0 0 599.134 475.576">
  <defs>
    <clipPath id="clip-path">
      <path id="Path_863" d="M-.4-.2H598.734V475.376H-.4Z" transform="translate(0.4 124.05)" fill="#d3f7e5"/>
    </clipPath>
  </defs>
  <g id="Group_6167" data-name="Group 6167" transform="translate(93 -60.325)">
    <g id="Group_6166" data-name="Group 6166">
      <path id="Path_863-2" data-name="Path_863" d="M-.4-.2h414v474H-.4Z" transform="translate(0.4 61.2)" fill="#d3f7e5"/>
      <g id="Group_6164" data-name="Group 6164">
        <g id="Group_6163" data-name="Group 6163">
          <g id="Mask_Group_46" data-name="Mask Group 46" transform="translate(-93 -63.525)" clip-path="url(#clip-path)">
            <g id="Group_4041" data-name="Group 4041" transform="translate(599.567 627.854) rotate(180)">
              <path id="Path_581" data-name="Path 581" d="M299.567,0,0,599.134l599.134.006Z" transform="translate(0)" fill="rgba(255,255,255,0.99)"/>
            </g>
          </g>
        </g>
      </g>
    </g>
    <g id="Group_6165" data-name="Group 6165">
      <g id="Group_3996" transform="translate(353.026 351.871)">
        <g id="Group_5897" data-name="Group 5897" transform="translate(0 0)">
          <g id="Group_3908">
            <g id="Group_3896" transform="translate(0.364 0.362)">
              <path id="Path_441" d="M84.855,11.278A60.857,60.857,0,0,0,104.145-1.73a60.043,60.043,0,0,0,13.008-19.29,60.313,60.313,0,0,0,4.8-23.577,61.315,61.315,0,0,0-4.73-23.577,60.043,60.043,0,0,0-13.008-19.29,60.043,60.043,0,0,0-19.29-13.008,58.943,58.943,0,0,0-23.577-4.73,61.314,61.314,0,0,0-23.577,4.73A59.876,59.876,0,0,0,18.338-87.463,61.257,61.257,0,0,0,5.33-68.173,61.315,61.315,0,0,0,.6-44.6,61.315,61.315,0,0,0,5.33-21.02,60.857,60.857,0,0,0,18.338-1.73a60.043,60.043,0,0,0,19.29,13.008A58.943,58.943,0,0,0,61.2,16.008a59.042,59.042,0,0,0,23.651-4.73M1.265-44.6A59.93,59.93,0,0,1,61.2-104.536,59.978,59.978,0,0,1,121.144-44.6,59.978,59.978,0,0,1,61.2,15.343,60.025,60.025,0,0,1,1.265-44.6" transform="translate(-0.6 105.203)" fill="#fff"/>
            </g>
            <g id="Group_3897">
              <path id="Path_442" d="M61.574,16.748a60.763,60.763,0,0,1-23.724-4.8A60.569,60.569,0,0,1,18.486-1.137,59.393,59.393,0,0,1,5.4-20.5,60.763,60.763,0,0,1,.6-44.226,60.763,60.763,0,0,1,5.4-67.95,60.57,60.57,0,0,1,18.486-87.314,61.794,61.794,0,0,1,37.85-100.4a61.032,61.032,0,0,1,23.724-4.8A60.762,60.762,0,0,1,85.3-100.4a60.569,60.569,0,0,1,19.364,13.082A61.794,61.794,0,0,1,117.744-67.95a61.033,61.033,0,0,1,4.8,23.724,60.763,60.763,0,0,1-4.8,23.725A60.569,60.569,0,0,1,104.663-1.137,61.793,61.793,0,0,1,85.3,11.944l-.148-.37.148.37a57.975,57.975,0,0,1-23.724,4.8m0-120.544A59.631,59.631,0,0,0,2-44.226a59.583,59.583,0,0,0,59.57,59.57,59.631,59.631,0,0,0,59.57-59.57,59.583,59.583,0,0,0-59.57-59.57" transform="translate(-0.6 105.2)" fill="#fff"/>
            </g>
            <g id="Group_3898" transform="translate(10.404 10.391)">
              <path id="Path_443" d="M86.259-18.141A50.206,50.206,0,0,0,101.78-53.617,50.384,50.384,0,0,0,87.664-89.684,50.206,50.206,0,0,0,52.188-105.2,50.384,50.384,0,0,0,16.121-91.088,50.206,50.206,0,0,0,.6-55.612v1.035A50.3,50.3,0,0,0,14.716-19.545,50.206,50.206,0,0,0,50.192-4.024,50.506,50.506,0,0,0,86.259-18.141M50.192-4.763a49.54,49.54,0,0,1-35.032-15.3A49.718,49.718,0,0,1,1.265-55.612a49.989,49.989,0,0,1,50.923-48.927,49.541,49.541,0,0,1,34.959,15.3,49.312,49.312,0,0,1,13.895,34.515v1.035A49.782,49.782,0,0,1,50.192-4.763" transform="translate(-0.6 105.216)" fill="#fff"/>
            </g>
            <g id="Group_3899" transform="translate(9.857 9.845)">
              <path id="Path_444" d="M51.744-2.916H50.71A50.666,50.666,0,0,1,14.864-18.658,50.994,50.994,0,0,1,.6-54.06v-1.035A50.666,50.666,0,0,1,16.342-90.94,50.76,50.76,0,0,1,52.779-105.2,50.666,50.666,0,0,1,88.624-89.462a50.76,50.76,0,0,1,14.264,36.437A50.666,50.666,0,0,1,87.146-17.18a50.862,50.862,0,0,1-35.4,14.264m0-100.515A49.392,49.392,0,0,0,2.374-55.095a49.033,49.033,0,0,0,13.747,35.18A48.985,48.985,0,0,0,50.71-4.763,49.033,49.033,0,0,0,85.89-18.51,48.985,48.985,0,0,0,101.041-53.1v-1.035A49.4,49.4,0,0,0,87.294-88.279a48.985,48.985,0,0,0-34.589-15.151h-.961" transform="translate(-0.6 105.216)" fill="#fff"/>
            </g>
            <g id="Group_3900" transform="translate(20.412 20.425)">
              <path id="Path_445" d="M81.751-62.55A40.219,40.219,0,0,0,71.33-91.818a40.357,40.357,0,0,0-28.085-13.3A40.218,40.218,0,0,0,13.977-94.7,40.357,40.357,0,0,0,.674-66.615c0,.665-.074,1.4-.074,2.069a40.305,40.305,0,0,0,10.495,27.2,40.357,40.357,0,0,0,28.085,13.3A40.419,40.419,0,0,0,68.374-34.539,40.114,40.114,0,0,0,81.751-62.55M39.18-24.783A39.694,39.694,0,0,1,11.612-37.865,39.3,39.3,0,0,1,1.339-66.615a39.922,39.922,0,0,1,41.906-37.841A40.03,40.03,0,0,1,81.16-64.62a20.067,20.067,0,0,1-.074,2.069A39.694,39.694,0,0,1,68-34.983a39.837,39.837,0,0,1-28.824,10.2" transform="translate(-0.6 105.182)" fill="#fff"/>
            </g>
            <g id="Group_3901" transform="translate(19.684 19.637)">
              <path id="Path_446" d="M41.988-22.587a20.768,20.768,0,0,1-2.143-.074,41.162,41.162,0,0,1-28.6-13.525A41.245,41.245,0,0,1,.6-63.9a20.769,20.769,0,0,1,.074-2.143A41,41,0,0,1,14.2-94.574a41.31,41.31,0,0,1,29.785-10.643,41.084,41.084,0,0,1,28.6,13.6A41.31,41.31,0,0,1,83.229-61.833,41.377,41.377,0,0,1,69.63-33.3,40.776,40.776,0,0,1,41.988-22.587m-.074-80.486A39.134,39.134,0,0,0,2.817-65.9,38.637,38.637,0,0,0,12.869-37.665,38.874,38.874,0,0,0,39.919-24.8,38.947,38.947,0,0,0,68.152-34.856,38.9,38.9,0,0,0,81.012-61.98c0-.665.074-1.33.074-2a39.134,39.134,0,0,0-37.176-39.1,17.969,17.969,0,0,0-2,0" transform="translate(-0.6 105.264)" fill="#fff"/>
            </g>
            <g id="Group_3902" transform="translate(30.36 30.352)">
              <path id="Path_447" d="M61.722-71.5A30.859,30.859,0,0,0,55-93.968,30.267,30.267,0,0,0,34.3-105.054a30.859,30.859,0,0,0-22.468,6.726A30.267,30.267,0,0,0,.748-77.634C.674-76.6.6-75.565.6-74.53A30.568,30.568,0,0,0,28.168-44.08,30.623,30.623,0,0,0,61.722-71.5M28.242-44.745A30.142,30.142,0,0,1,1.265-74.53c0-1.035.074-2,.148-3.03A29.764,29.764,0,0,1,12.277-97.737a29.828,29.828,0,0,1,21.951-6.578A30.034,30.034,0,0,1,61.2-74.53c0,1.035-.074,2-.148,3.03A30.057,30.057,0,0,1,50.192-51.4a29.565,29.565,0,0,1-21.951,6.652" transform="translate(-0.6 105.208)" fill="#fff"/>
            </g>
            <g id="Group_3903" transform="translate(29.449 29.421)">
              <path id="Path_448" d="M32.159-42.092c-1.035,0-2.143-.074-3.178-.148A31.521,31.521,0,0,1,.6-73.651c0-1.035.074-2.143.148-3.178A31.418,31.418,0,0,1,12.2-98.114a31.237,31.237,0,0,1,23.133-6.947A31.418,31.418,0,0,1,56.622-93.606,31.238,31.238,0,0,1,63.57-70.473,31.753,31.753,0,0,1,32.159-42.092M29.2-44.753a28.455,28.455,0,0,0,21.286-6.43A29.15,29.15,0,0,0,61.057-70.768c.074-.961.148-2,.148-2.956a29.033,29.033,0,0,0-26.163-28.9,28.548,28.548,0,0,0-21.286,6.43A28.768,28.768,0,0,0,3.261-76.607c-.074.961-.148,2-.148,2.956a28.911,28.911,0,0,0,26.09,28.9Z" transform="translate(-0.6 105.237)" fill="#fff"/>
            </g>
            <g id="Group_3904" transform="translate(40.152 40.1)">
              <path id="Path_449" d="M41.915-80.237a20.918,20.918,0,0,0-3.03-15.669,21.014,21.014,0,0,0-13.23-8.943,20.918,20.918,0,0,0-15.669,3.03,20.615,20.615,0,0,0-8.943,13.3A20.4,20.4,0,0,0,.6-84.3,20.47,20.47,0,0,0,4.074-72.846,20.632,20.632,0,0,0,17.3-63.977a20.89,20.89,0,0,0,24.611-16.26M17.451-64.642A19.867,19.867,0,0,1,4.665-73.29,19.939,19.939,0,0,1,1.709-88.441a19.867,19.867,0,0,1,8.647-12.786,19.939,19.939,0,0,1,15.151-2.956,19.867,19.867,0,0,1,12.786,8.647,19.8,19.8,0,0,1,3.4,11.086,25.192,25.192,0,0,1-.37,4.065A20.322,20.322,0,0,1,17.451-64.642" transform="translate(-0.6 105.269)" fill="#fff"/>
            </g>
            <g id="Group_3905" transform="translate(38.986 39.011)">
              <path id="Path_450" d="M22.525-61.389a21.29,21.29,0,0,1-4.361-.443A22.049,22.049,0,0,1,4.2-71.145,21.883,21.883,0,0,1,.5-83.266a21.289,21.289,0,0,1,.443-4.361A21.873,21.873,0,0,1,10.33-101.6a22.041,22.041,0,0,1,16.481-3.252A21.873,21.873,0,0,1,40.78-95.461a22.04,22.04,0,0,1,3.252,16.481,21.538,21.538,0,0,1-9.386,13.895,21.308,21.308,0,0,1-12.121,3.7m-.074-41.019A18.849,18.849,0,0,0,11.956-99.23a18.962,18.962,0,0,0-8.13,12.121A18.916,18.916,0,0,0,6.634-72.771a18.961,18.961,0,0,0,12.121,8.13A19.053,19.053,0,0,0,41.223-79.571a21.855,21.855,0,0,0,.37-3.843,18.849,18.849,0,0,0-3.178-10.495,18.961,18.961,0,0,0-12.121-8.13,21.855,21.855,0,0,0-3.843-.37" transform="translate(-0.5 105.264)" fill="#fff"/>
            </g>
            <g id="Group_3906" transform="translate(49.405 49.33)">
              <path id="Path_451" d="M22.551-88.447a11.638,11.638,0,0,0-5.1-15.595,11.547,11.547,0,0,0-8.869-.665,11.54,11.54,0,0,0-6.726,5.765A11.68,11.68,0,0,0,.6-93.694,11.518,11.518,0,0,0,6.956-83.347a11.512,11.512,0,0,0,15.595-5.1m-15.3,4.508a10.89,10.89,0,0,1-4.8-14.634A10.827,10.827,0,0,1,8.8-104.042a10.947,10.947,0,0,1,8.352.665,10.859,10.859,0,0,1,5.987,9.756,10.127,10.127,0,0,1-1.183,4.878,10.932,10.932,0,0,1-14.708,4.8" transform="translate(-0.6 105.292)" fill="#fff"/>
            </g>
            <g id="Group_3907" transform="translate(48.131 48.048)">
              <path id="Path_452" d="M13.46-79.506a12.086,12.086,0,0,1-5.765-1.4A12.917,12.917,0,0,1,.6-92.44,12.087,12.087,0,0,1,2-98.205a12.834,12.834,0,0,1,7.465-6.43,12.633,12.633,0,0,1,9.83.739A12.9,12.9,0,0,1,24.99-86.6l-.591-.3.591.3a12.835,12.835,0,0,1-7.465,6.43,13,13,0,0,1-4.065.665M9.1-83.793A9.613,9.613,0,0,0,22.033-88.08a9.716,9.716,0,0,0,1.035-4.361,9.722,9.722,0,0,0-5.321-8.647,9.869,9.869,0,0,0-7.391-.591,9.75,9.75,0,0,0-5.617,4.8A9.9,9.9,0,0,0,9.1-83.793" transform="translate(-0.6 105.301)" fill="#fff"/>
            </g>
          </g>
        </g>
      </g>
      <g id="Group_4099" transform="translate(-47.606 282.797)">
        <path id="Path_563" d="M-3047.188-589.194l-47.606-47.606h0l-47.605,47.606,47.605,47.606h0Zm-47.606,24.6a24.583,24.583,0,0,1-24.555-24.555,24.552,24.552,0,0,1,24.555-24.555,24.553,24.553,0,0,1,24.555,24.555,24.583,24.583,0,0,1-24.555,24.555" transform="translate(3142.399 636.8)" fill="#fff"/>
        <path id="Path_564" d="M-3045.212-554.656a15.057,15.057,0,0,0-15.044-15.044,15.057,15.057,0,0,0-15.044,15.044,15.057,15.057,0,0,0,15.044,15.044h0a14.964,14.964,0,0,0,15.044-15.044h0" transform="translate(3107.863 602.262)" fill="#1b2f53"/>
      </g>
    </g>
  </g>
</svg>
