<?xml version="1.0" encoding="utf-8"?>
<!-- Generator: Adobe Illustrator 24.3.0, SVG Export Plug-In . SVG Version: 6.00 Build 0)  -->
<svg version="1.1" id="Layer_1" xmlns="http://www.w3.org/2000/svg" xmlns:xlink="http://www.w3.org/1999/xlink" x="0px" y="0px"
	 width="320px" height="340px" viewBox="0 0 320 340" style="enable-background:new 0 0 320 340;" xml:space="preserve">
<style type="text/css">
	.st0{fill:#7061F0;}
	.st1{clip-path:url(#SVGID_2_);}
	.st2{fill:#FFFFFF;}
</style>
<rect class="st0" width="320" height="340"/>
<g>
	<g id="Group_5443" transform="translate(-501 -1652)">
		<g id="Group_4327" transform="translate(588 1811)">
			<g>
				<defs>
					<rect id="SVGID_1_" x="-9" y="-106" width="163.4" height="163.5"/>
				</defs>
				<clipPath id="SVGID_2_">
					<use xlink:href="#SVGID_1_"  style="overflow:visible;"/>
				</clipPath>
				<g id="Group_4326" transform="translate(0 -100)" class="st1">
					<g id="Group_4325" transform="translate(0.001 0)">
						<path id="Path_890" class="st2" d="M72.6,157.5c-12.8,0-25.3-3-36.7-8.8c-27.6-13.9-45-42.2-44.8-73c0-12.8,3-25.4,8.8-36.8
							C9.5,19.5,26.6,4.8,47.2-1.9c20.6-6.8,43-5.1,62.4,4.7c40.2,20.4,56.4,69.5,36.1,109.8c-9.7,19.4-26.8,34-47.4,40.7
							C89.9,156.1,81.3,157.5,72.6,157.5 M45.1,130.4c30.2,15.2,66.9,3.1,82.2-27c4.3-8.5,6.6-17.9,6.6-27.5
							c0.1-23.1-12.9-44.3-33.6-54.7c-14.5-7.4-31.3-8.6-46.7-3.5c-15.4,5-28.2,16-35.5,30.5C2.9,78.3,15,115.1,45.1,130.4"/>
					</g>
				</g>
			</g>
		</g>
	</g>
</g>
</svg>
