<?xml version="1.0" encoding="utf-8"?>
<!-- Generator: Adobe Illustrator 24.3.0, SVG Export Plug-In . SVG Version: 6.00 Build 0)  -->
<svg version="1.1" id="Layer_1" xmlns="http://www.w3.org/2000/svg" xmlns:xlink="http://www.w3.org/1999/xlink" x="0px" y="0px"
	 width="636.5px" height="490px" viewBox="0 0 636.5 490" style="enable-background:new 0 0 636.5 490;" xml:space="preserve">
<style type="text/css">
	.st0{fill:#F7C7FF;}
	.st1{fill:#FFFFFF;}
	.st2{fill:#FAC72E;}
	.st3{fill:#7061F0;}
	.st4{fill:#50BCBA;}
</style>
<g id="leon-Oalh2MojUuk-unsplash">
	<rect class="st0" width="636.5" height="490"/>
</g>
<g id="Group_4632" transform="matrix(-1, 0, 0, -1, 1281.64, 2759.274)">
	<g id="Path_1134">
		<path class="st1" d="M804,2585.9c-4.8,0-9.6-0.5-14.4-1.4c-18.7-3.7-35.2-14.8-45.7-30.7c-7.8-11.7-12-25.5-12-39.6
			c0-4.8,0.5-9.7,1.4-14.4c3.7-18.7,14.8-35.2,30.7-45.7c33.1-22,77.7-12.9,99.7,20.2c0,0,0,0,0,0c10.6,15.9,14.4,35.3,10.6,54
			c-3.7,18.7-14.8,35.1-30.7,45.6C832,2581.7,818.2,2585.9,804,2585.9 M803.8,2451.4c-12.3,0-24.2,3.6-34.4,10.4
			c-13.8,9.1-23.5,23.4-26.7,39.7c-3.3,16.3,0,33.2,9.2,47c9.1,13.8,23.4,23.5,39.7,26.7c33.8,6.8,66.8-15.1,73.7-48.9
			c0.8-4.1,1.3-8.3,1.3-12.5c0-12.3-3.6-24.2-10.4-34.4c-9.1-13.8-23.4-23.5-39.7-26.7C812.2,2451.8,808,2451.4,803.8,2451.4"/>
	</g>
</g>
<g id="Group_4634" transform="matrix(-1, 0, 0, -1, 1251.908, 2729.563)">
	<g id="Path_1136">
		<path class="st2" d="M774.1,2526.5c-6.6,0-13.1-1.6-19-4.6c-14.3-7.2-23.2-21.8-23.2-37.7c0-6.6,1.5-13.1,4.5-19
			c5-10,13.8-17.6,24.5-21.1c10.6-3.5,22.2-2.6,32.2,2.4c20.8,10.5,29.1,35.9,18.6,56.7l-2-1l2,1c-5,10-13.9,17.6-24.5,21
			C783.1,2525.7,778.6,2526.5,774.1,2526.5 M759.9,2512.5c15.6,7.9,34.6,1.6,42.5-13.9c2.2-4.4,3.4-9.3,3.4-14.2
			c0-12-6.7-22.9-17.3-28.3c-7.5-3.8-16.2-4.5-24.1-1.8c-8,2.6-14.6,8.3-18.4,15.8C738.1,2485.6,744.4,2504.6,759.9,2512.5"/>
	</g>
</g>
<g id="Group_4635" transform="translate(-1472.91 1594.85) rotate(-45)">
	<g id="Path_1130">
		<path class="st1" d="M2126.9,322.5c-56.9,0-102.9-46.3-102.9-103.4s46.1-103.4,102.9-103.4"/>
	</g>
	<g>
		<g id="Group_4521" transform="matrix(-1, 0, 0, -1, 1021.812, 2566.772)">
			<g id="Group_4515" transform="translate(2.985 2.98)">
				<g id="Path_1068">
					<path class="st1" d="M-1008.8,2354.9c2.8-26.5-5.2-53-22.1-73.6c-16.8-20.7-41.2-33.8-67.7-36.4c-26.5-2.8-53,5.2-73.6,22.1
						c-20.7,16.8-33.8,41.2-36.4,67.7c-5.6,55.2,34.6,104.5,89.8,110.1C-1063.6,2450.4-1014.3,2410.1-1008.8,2354.9 M-1118.6,2442.5
						c-50.1-5.1-88.2-47.3-88.3-97.6c0-3.3,0.2-6.6,0.5-10c2.5-25.9,15.4-49.8,35.6-66.2c20.1-16.5,46.1-24.3,72-21.6
						c50.1,5.1,88.2,47.3,88.3,97.6c0,3.3-0.2,6.6-0.5,10c-2.5,25.9-15.4,49.8-35.6,66.2
						C-1066.7,2437.4-1092.7,2445.2-1118.6,2442.5"/>
				</g>
			</g>
			<g id="Group_4516" transform="translate(0.001 -0.001)">
				<g id="Path_1069">
					<path class="st3" d="M-1105.6,2451.3c-3.5,0-7-0.2-10.5-0.5c-52.9-5.2-93.2-49.7-93-102.8c0-3.5,0.2-7,0.5-10.5
						c2.7-27.3,16.2-52.4,37.5-69.7c44.2-36.1,109.4-29.5,145.5,14.7c0,0,0,0,0,0c17.4,21.2,25.6,48.5,22.8,75.8
						C-1008.2,2411-1052.6,2451.1-1105.6,2451.3 M-1115.3,2442.6c25.1,2.6,50.3-4.9,69.8-21c19.6-15.9,32-39,34.5-64.2
						c0.3-3.2,0.5-6.4,0.5-9.7c0.1-48.9-37-89.9-85.6-94.7c-25.1-2.6-50.3,4.9-69.8,21c-19.6,15.9-32,39-34.5,64.2
						c-0.3,3.2-0.5,6.4-0.5,9.7C-1201.1,2396.8-1164,2437.8-1115.3,2442.6L-1115.3,2442.6z"/>
				</g>
			</g>
			<g id="Group_4517" transform="translate(35.079 35.081)">
				<g id="Path_1070">
					<path class="st1" d="M-1073.8,2326.3c3.6-17.8,0-36.2-10-51.3c-10-15.1-25.6-25.7-43.4-29.2c-17.8-3.6-36.2,0-51.3,10
						c-15.1,10-25.7,25.6-29.2,43.4c-0.9,4.5-1.4,9.1-1.4,13.7c0,13.4,4,26.5,11.4,37.6c10,15.1,25.6,25.7,43.4,29.2
						C-1117.4,2387.1-1081.3,2363.2-1073.8,2326.3 M-1153.9,2377.5c-17.2-3.4-32.3-13.6-42-28.2c-9.7-14.6-13.2-32.5-9.7-49.6
						c3.4-17.2,13.6-32.3,28.2-42c14.6-9.7,32.5-13.2,49.6-9.7c17.2,3.4,32.3,13.6,42,28.2c7.2,10.8,11,23.4,11,36.4
						c0,4.4-0.4,8.9-1.3,13.2C-1083.3,2361.6-1118.1,2384.7-1153.9,2377.5"/>
				</g>
			</g>
			<g id="Group_4518" transform="translate(31.501 31.498)">
				<g id="Path_1071">
					<path class="st0" d="M-1137.1,2388.2c-4.8,0-9.6-0.5-14.4-1.4c-18.7-3.7-35.2-14.8-45.7-30.7c-7.8-11.7-12-25.5-12-39.6
						c0-4.8,0.5-9.7,1.4-14.4c3.7-18.7,14.8-35.2,30.7-45.7c33.1-22,77.7-12.9,99.7,20.2c0,0,0,0,0,0c10.6,15.9,14.4,35.3,10.6,54
						c-3.7,18.7-14.8,35.1-30.7,45.6C-1109.2,2384.1-1123,2388.2-1137.1,2388.2 M-1137.3,2253.8c-12.3,0-24.2,3.6-34.4,10.4
						c-13.8,9.1-23.5,23.4-26.7,39.7c-3.3,16.3,0,33.2,9.2,47c9.1,13.8,23.4,23.5,39.7,26.7c33.8,6.8,66.8-15.1,73.7-48.9
						c0.8-4.1,1.3-8.3,1.3-12.5c0-12.3-3.6-24.2-10.4-34.4c-9.1-13.8-23.4-23.5-39.7-26.7C-1129,2254.2-1133.1,2253.8-1137.3,2253.8
						"/>
				</g>
			</g>
			<g id="Group_4519" transform="translate(65.409 65.388)">
				<g id="Path_1072">
					<path class="st1" d="M-1137.2,2299.6c9.5-18.7,1.9-41.6-16.8-51.1c-9-4.6-19.5-5.4-29-2.2c-15.6,5.1-26.1,19.7-26.2,36.1
						c0,21,17,38.1,38,38.1C-1156.8,2320.5-1143.7,2312.4-1137.2,2299.6 M-1187.3,2314.4c-17.6-8.9-24.7-30.4-15.8-48.1
						c4.3-8.5,11.7-14.9,20.8-17.9c9-3,18.8-2.2,27.3,2.1c12.1,6.1,19.7,18.5,19.6,32c0,5.6-1.3,11.1-3.8,16.1
						C-1148.1,2316.2-1169.6,2323.3-1187.3,2314.4"/>
				</g>
			</g>
			<g id="Group_4520" transform="translate(61.232 61.209)">
				<g id="Path_1073">
					<path class="st4" d="M-1167,2328.8c-6.6,0-13.1-1.6-19-4.6c-14.3-7.2-23.2-21.8-23.2-37.7c0-6.6,1.5-13.1,4.5-19
						c5-10,13.8-17.6,24.5-21.1c10.6-3.5,22.2-2.6,32.2,2.4c20.8,10.5,29.1,35.9,18.6,56.7l-2-1l2,1c-5,10-13.9,17.6-24.5,21
						C-1158.1,2328.1-1162.5,2328.8-1167,2328.8 M-1181.2,2314.8c15.6,7.9,34.6,1.6,42.5-13.9c2.2-4.4,3.4-9.3,3.4-14.2
						c0-12-6.7-22.9-17.3-28.3c-7.5-3.8-16.2-4.5-24.1-1.8c-8,2.6-14.6,8.3-18.4,15.8C-1203,2287.9-1196.8,2306.9-1181.2,2314.8"/>
				</g>
			</g>
		</g>
	</g>
</g>
<g id="Line_70">
	<rect x="299.3" y="244.1" class="st3" width="178.2" height="2"/>
</g>
</svg>
