<?xml version="1.0" encoding="utf-8"?>
<!-- Generator: Adobe Illustrator 24.3.0, SVG Export Plug-In . SVG Version: 6.00 Build 0)  -->
<svg version="1.1" id="Layer_1" xmlns="http://www.w3.org/2000/svg" xmlns:xlink="http://www.w3.org/1999/xlink" x="0px" y="0px"
	 width="611px" height="423.1px" viewBox="0 0 611 423.1" style="enable-background:new 0 0 611 423.1;" xml:space="preserve">
<style type="text/css">
	.st0{fill:#FFFFFF;}
	.st1{fill:#F7C7FF;}
	.st2{fill:#7061F0;}
	.st3{enable-background:new    ;}
	.st4{fill:#1B2F53;}
</style>
<g>
	<path id="Path_885" class="st0" d="M0,137.6h610.5v285.5H0V137.6z"/>
	<g id="Group_4370" transform="translate(-561.5 315.63)">
		<g id="Group_4369" transform="translate(634.5 3820.87)">
			<path id="Path_707" class="st1" d="M-72.5-3713.4H538v-11.4H-72.5V-3713.4z"/>
			<path id="Path_708" class="st1" d="M-72.5-3782.4H538v-15.2H-72.5V-3782.4z"/>
			<path id="Path_709" class="st1" d="M-72.5-3858.6H538v-19H-72.5V-3858.6z"/>
			<path id="Path_714" class="st1" d="M-72.5-3747.9H538v-11.4H-72.5V-3747.9z"/>
			<path id="Path_715" class="st1" d="M-72.5-3820.6H538v-15.2H-72.5V-3820.6z"/>
			<path id="Path_716" class="st1" d="M-72.5-3900.5H538v-19H-72.5V-3900.5z"/>
		</g>
	</g>
	<g id="Group_4376" transform="translate(515.5 4158.152)">
		<g>
			<g id="Group_4374" transform="translate(0 -138.152)">
				<g id="Group_4371" transform="translate(0 0)">
					<path id="Path_923" class="st2" d="M-53.9-3883.5c-2.9,0-5.8-0.7-8.4-2c-6.3-3.2-10.3-9.6-10.2-16.7c0-2.9,0.7-5.8,2-8.4
						c2.2-4.4,6.1-7.8,10.8-9.3c4.7-1.6,9.8-1.2,14.2,1.1c9.2,4.7,12.9,15.9,8.2,25.1c-2.2,4.4-6.1,7.8-10.8,9.3
						C-49.9-3883.9-51.9-3883.5-53.9-3883.5 M-60.1-3889.7c6.9,3.5,15.3,0.7,18.8-6.2c1-1.9,1.5-4.1,1.5-6.3
						c0-5.3-2.9-10.1-7.7-12.5c-3.3-1.7-7.1-2-10.7-0.8c-3.5,1.1-6.4,3.7-8.1,7C-69.8-3901.6-67-3893.2-60.1-3889.7"/>
				</g>
				<g id="Group_4372" transform="translate(48.713 33.674)">
					<path id="Path_924" class="st2" d="M-53.8-3920.9c-10.3,0-18.7,8.4-18.7,18.7c0,0,0,0,0,0c0,10.3,8.4,18.7,18.7,18.7
						c10.3,0,18.7-8.4,18.7-18.7C-35.2-3912.5-43.5-3920.9-53.8-3920.9C-53.8-3920.9-53.8-3920.9-53.8-3920.9 M-53.8-3892.6
						c-5.3,0-9.6-4.3-9.6-9.6c0-5.3,4.3-9.6,9.6-9.6c5.3,0,9.6,4.3,9.6,9.6C-44.2-3896.9-48.5-3892.6-53.8-3892.6"/>
				</g>
				<g id="Group_4373" transform="translate(61.474 46.435)">
					<path id="Path_925" class="st2" d="M-66.6-3920.9c-3.3,0-5.9,2.6-5.9,5.9l0,0c0,3.3,2.6,5.9,5.9,5.9c3.3,0,5.9-2.6,5.9-5.9
						c0,0,0,0,0,0C-60.7-3918.2-63.3-3920.9-66.6-3920.9C-66.6-3920.9-66.6-3920.9-66.6-3920.9"/>
				</g>
			</g>
		</g>
		<g id="Group_4375" transform="translate(18.626 -138.152)">
			<path id="Path_927" class="st2" d="M-26.4-3920.9l-46.2,71h3.9l46.2-71H-26.4z"/>
		</g>
	</g>
	<g class="st3">
		<path class="st4" d="M182.7,126c0,27-20.4,46.6-50.2,46.6c-31.2,0-50.4-21.6-50.4-66.6c0-48.2,22.2-76,55.2-76
			c14.8,0,29.8,5.6,36.4,10.8c0.6,10.4,0.6,20.2,0,31h-3c-11.6-22.4-21.4-37.6-35.8-37.6c-17.4,0-26,21.4-26.2,69.8
			c3.8-9,12.6-19,31.2-19C161.5,85,182.7,98.4,182.7,126z M154.9,130.6c0-28.2-10.2-39.4-23-39.4c-12.4,0-23,11.2-23,39.4
			s10.4,38,23,38C144.7,168.6,154.9,158.8,154.9,130.6z"/>
		<path class="st4" d="M292.5,32.2v3c-39.4,78-47.2,109.4-53.2,134.8h-33.2l-0.4-3l71.4-113.8h-42.6c-18.4,0-25,4.8-33.8,20h-2.8
			l5.6-41C233.1,32.8,262.7,32.8,292.5,32.2z"/>
		<path class="st4" d="M287.9,158c0-7.4,6.2-13.6,13.6-13.6c7.4,0,13.6,6.2,13.6,13.6c0,7.4-6.2,13.6-13.6,13.6
			C294.1,171.6,287.9,165.4,287.9,158z"/>
		<path class="st4" d="M426.3,126.4c0,27.8-20.2,46-53.2,46c-16,0-26.8-4.2-34.6-9.4c-0.4-9.8-0.8-21.6-0.6-32.8h3
			c9,22,15.8,38,32.2,38c14.4,0,23.6-13.8,23.6-40.2c0-28-10.6-40.4-25.8-40.4c-8.8,0-18.2,4-24.2,13.2h-3.4l2-68h45.4
			c13.6,0,22.6-1.8,27.6-9h2.6c-1.2,10.2-2.6,20-4.6,30.2h-66.4l-1,38c6.4-6,15.6-9.6,28.4-9.6C401.7,82.4,426.3,95.4,426.3,126.4z"
			/>
	</g>
</g>
</svg>
