<?xml version="1.0" encoding="utf-8"?>
<!-- Generator: Adobe Illustrator 24.3.0, SVG Export Plug-In . SVG Version: 6.00 Build 0)  -->
<svg version="1.1" id="Layer_1" xmlns="http://www.w3.org/2000/svg" xmlns:xlink="http://www.w3.org/1999/xlink" x="0px" y="0px"
	 width="320px" height="340px" viewBox="0 0 320 340" style="enable-background:new 0 0 320 340;" xml:space="preserve">
<style type="text/css">
	.st0{fill:#FFFFFF;}
	.st1{fill:#1B2F53;}
	.st2{fill:#7061F0;}
</style>
<g>
	<rect class="st0" width="320" height="340"/>
	<g id="Group_5442" transform="translate(-136 -1458)">
		<g id="Group_4324" transform="translate(223.25 1626.252)">
			<g>
				<g id="Group_4323" transform="translate(0 -100.001)">
					<g id="Group_4321">
						<path id="Path_887" class="st1" d="M154.5,75.8L72.8-6l0,0L-9,75.8l81.8,81.8l0,0L154.5,75.8z M72.8,118
							c-23.3,0-42.2-18.9-42.2-42.2c0-23.3,18.9-42.2,42.2-42.2c23.3,0,42.2,18.9,42.2,42.2C114.9,99,96,117.9,72.8,118"/>
					</g>
					<g id="Group_4322" transform="translate(55.897 55.898)">
						<path id="Path_888" class="st2" d="M42.7,19.9C42.7,5.6,31.1-6,16.9-6c0,0,0,0,0,0C2.6-6-9,5.6-9,19.9l0,0
							c0,14.3,11.6,25.9,25.9,25.9C31.1,45.7,42.7,34.1,42.7,19.9C42.7,19.9,42.7,19.9,42.7,19.9"/>
					</g>
				</g>
			</g>
		</g>
	</g>
</g>
</svg>
