<?xml version="1.0" encoding="utf-8"?>
<!-- Generator: Adobe Illustrator 24.3.0, SVG Export Plug-In . SVG Version: 6.00 Build 0)  -->
<svg version="1.1" id="Layer_1" xmlns="http://www.w3.org/2000/svg" xmlns:xlink="http://www.w3.org/1999/xlink" x="0px" y="0px"
	 width="320px" height="340px" viewBox="0 0 320 340" style="enable-background:new 0 0 320 340;" xml:space="preserve">
<style type="text/css">
	.st0{fill:#FFFFFF;}
	.st1{fill:#E8F0FF;}
	.st2{fill:#7061F0;}
	.st3{enable-background:new    ;}
	.st4{fill:#1B2F53;}
</style>
<rect x="0" y="0" class="st0" width="320" height="340"/>
<rect x="0" y="232.7" class="st1" width="320" height="107"/>
<g id="Group_4606" transform="translate(205.518 1551.036)">
	<path id="Path_708" class="st1" d="M114.5-1478.3h-320v15.2h320V-1478.3z"/>
	<path id="Path_709" class="st1" d="M114.5-1402h-320v19h320V-1402z"/>
	<path id="Path_714" class="st1" d="M114.5-1512.7h-320v11.4h320V-1512.7z"/>
	<path id="Path_715" class="st1" d="M114.5-1440h-320v15.2h320V-1440z"/>
	<path id="Path_716" class="st1" d="M114.5-1360.1h-320v19h320V-1360.1z"/>
</g>
<g id="Group_4605" transform="translate(-0.98 1502)">
	<g id="Group_4604" transform="translate(366 2912.652)">
		<g>
			<g id="Group_4374" transform="translate(0 -138.152)">
				<g id="Group_4371" transform="translate(0 0)">
					<path id="Path_923" class="st2" d="M-132.6-4122.3c-1.9,0-3.9-0.5-5.6-1.3c-4.2-2.1-6.8-6.4-6.8-11.1c0-1.9,0.5-3.9,1.3-5.6
						c1.5-2.9,4.1-5.2,7.2-6.2c3.1-1,6.6-0.8,9.5,0.7c6.1,3.1,8.6,10.6,5.5,16.7c-1.5,2.9-4.1,5.2-7.2,6.2
						C-129.9-4122.5-131.2-4122.3-132.6-4122.3 M-136.8-4126.4c4.6,2.3,10.2,0.5,12.5-4.1c0.7-1.3,1-2.7,1-4.2c0-3.5-2-6.7-5.1-8.3
						c-2.2-1.1-4.8-1.3-7.1-0.5c-2.4,0.8-4.3,2.4-5.4,4.6C-143.2-4134.3-141.4-4128.7-136.8-4126.4"/>
				</g>
				<g id="Group_4372" transform="translate(32.49 22.46)">
					<path id="Path_924" class="st2" d="M-132.5-4147.2c-6.9,0-12.4,5.6-12.4,12.4c0,6.9,5.6,12.4,12.4,12.4c0,0,0,0,0,0
						c6.9,0,12.4-5.6,12.4-12.4c0,0,0,0,0,0C-120.1-4141.6-125.7-4147.2-132.5-4147.2C-132.5-4147.2-132.5-4147.2-132.5-4147.2
						 M-132.5-4128.3c-3.5,0-6.4-2.9-6.4-6.4c0-3.5,2.9-6.4,6.4-6.4c3.5,0,6.4,2.9,6.4,6.4C-126.1-4131.2-129-4128.3-132.5-4128.3"
						/>
				</g>
				<g id="Group_4373" transform="translate(41.001 30.971)">
					<path id="Path_925" class="st2" d="M-141.1-4147.2c-2.2,0-3.9,1.8-3.9,3.9l0,0c0,2.2,1.8,3.9,3.9,3.9c2.2,0,3.9-1.8,3.9-3.9
						c0,0,0,0,0,0C-137.1-4145.4-138.9-4147.2-141.1-4147.2C-141.1-4147.2-141.1-4147.2-141.1-4147.2"/>
				</g>
			</g>
		</g>
		<g id="Group_4375" transform="translate(12.423 -138.152)">
			<path id="Path_927" class="st2" d="M-114.2-4147.2l-30.8,47.4h2.6l30.8-47.4H-114.2z"/>
		</g>
	</g>
	<g class="st3">
		<path class="st4" d="M114.8-1359.9c0,20.2-14.6,33.4-38.6,33.4c-11.6,0-19.4-3-25.1-6.8c-0.3-7.1-0.6-15.7-0.4-23.8h2.2
			c6.5,16,11.5,27.6,23.3,27.6c10.4,0,17.1-10,17.1-29.1c0-20.3-7.7-29.3-18.7-29.3c-6.4,0-13.2,2.9-17.5,9.6h-2.5l1.4-49.3H89
			c9.9,0,16.4-1.3,20-6.5h1.9c-0.9,7.4-1.9,14.5-3.3,21.9H59.4l-0.7,27.6c4.6-4.3,11.3-7,20.6-7
			C96.9-1391.8,114.8-1382.4,114.8-1359.9z"/>
		<path class="st4" d="M130-1378.2c0-32.5,17.5-51.6,39.4-51.6c21.8,0,39.6,19.1,39.6,51.6c0,32.8-17.8,51.8-39.6,51.8
			C147.5-1326.4,130-1345.4,130-1378.2z M187.6-1378.2c0-33.8-5.5-48.6-18.1-48.6c-12.5,0-18.1,14.6-18.1,48.6
			c0,34.1,5.7,48.7,18.1,48.7C182-1329.5,187.6-1344.3,187.6-1378.2z"/>
	</g>
</g>
</svg>
