<?xml version="1.0" encoding="utf-8"?>
<!-- Generator: Adobe Illustrator 24.3.0, SVG Export Plug-In . SVG Version: 6.00 Build 0)  -->
<svg version="1.1" id="Layer_1" xmlns="http://www.w3.org/2000/svg" xmlns:xlink="http://www.w3.org/1999/xlink" x="0px" y="0px"
	 width="320px" height="340px" viewBox="0 0 320 340" style="enable-background:new 0 0 320 340;" xml:space="preserve">
<style type="text/css">
	.st0{fill:#F7C7FF;}
	.st1{fill:none;stroke:#50BCBA;stroke-width:0;stroke-linecap:round;stroke-linejoin:round;}
	.st2{fill:#FFFFFF;}
	.st3{fill:#7061F0;}
	.st4{fill:#50BCBA;}
</style>
<rect x="0" y="0" class="st0" width="320" height="340"/>
<line class="st1" x1="40.1" y1="250.1" x2="40.1" y2="250.1"/>
<line class="st1" x1="40.1" y1="237.1" x2="40.1" y2="237.1"/>
<line class="st1" x1="40.1" y1="224.1" x2="40.1" y2="224.1"/>
<line class="st1" x1="40.1" y1="211.1" x2="40.1" y2="211.1"/>
<line class="st1" x1="40.1" y1="198.1" x2="40.1" y2="198.1"/>
<line class="st1" x1="40.1" y1="185.1" x2="40.1" y2="185.1"/>
<line class="st1" x1="40.1" y1="172.1" x2="40.1" y2="172.1"/>
<line class="st1" x1="40.1" y1="159.1" x2="40.1" y2="159.1"/>
<line class="st1" x1="40.1" y1="146.2" x2="40.1" y2="146.2"/>
<line class="st1" x1="40.1" y1="133.2" x2="40.1" y2="133.2"/>
<line class="st1" x1="40.1" y1="120.2" x2="40.1" y2="120.2"/>
<line class="st1" x1="40.1" y1="107.2" x2="40.1" y2="107.2"/>
<line class="st1" x1="40.1" y1="94.2" x2="40.1" y2="94.2"/>
<line class="st1" x1="40.1" y1="81.2" x2="40.1" y2="81.2"/>
<line class="st1" x1="40.1" y1="68.2" x2="40.1" y2="68.2"/>
<line class="st1" x1="40.1" y1="55.2" x2="40.1" y2="55.2"/>
<line class="st1" x1="40.1" y1="42.2" x2="40.1" y2="42.2"/>
<g id="Group_4750" transform="translate(0 499)">
	<path id="Path_1130" class="st2" d="M133.2-266.6C78.3-281.4,45.8-338,60.6-393.2s71.3-88,126.2-73.3"/>
	<g>
		<g id="Group_4521" transform="matrix(-0.966, -0.259, 0.259, -0.966, 378.646, 4295.146)">
			<g id="Group_4515" transform="translate(2.985 2.98)">
				<path id="Path_1068" class="st2" d="M1514.7,4452.7c2.8-26.5-5.2-53-22.1-73.6c-16.8-20.7-41.2-33.8-67.7-36.4
					c-26.5-2.8-53,5.2-73.6,22.1c-20.7,16.8-33.8,41.2-36.4,67.7c-5.6,55.2,34.6,104.5,89.8,110.1
					C1459.8,4548.1,1509.1,4507.9,1514.7,4452.7 M1404.9,4540.3c-50.1-5.1-88.2-47.3-88.3-97.6c0-3.3,0.2-6.6,0.5-10
					c2.5-25.9,15.4-49.8,35.6-66.2c20.1-16.5,46.1-24.3,72-21.6c50.1,5.1,88.2,47.3,88.3,97.6c0,3.3-0.2,6.6-0.5,10
					c-2.5,25.9-15.4,49.8-35.6,66.2C1456.7,4535.2,1430.8,4542.9,1404.9,4540.3"/>
			</g>
			<g id="Group_4516" transform="translate(0.001 -0.001)">
				<path id="Path_1069" class="st3" d="M1417.8,4549c-3.5,0-7-0.2-10.5-0.5c-52.9-5.2-93.2-49.7-93-102.8c0-3.5,0.2-7,0.5-10.5
					c2.7-27.3,16.2-52.4,37.5-69.7c44.3-36.1,109.4-29.5,145.5,14.7c0,0,0,0,0,0c17.4,21.2,25.6,48.5,22.8,75.8
					C1515.2,4508.7,1470.8,4548.9,1417.8,4549 M1408.1,4540.3c25.1,2.6,50.3-4.9,69.8-21c19.6-15.9,32-39,34.5-64.2
					c0.3-3.2,0.5-6.4,0.5-9.7c0.1-48.9-37-89.9-85.6-94.7c-25.1-2.6-50.3,4.9-69.8,21c-19.6,15.9-32,39-34.5,64.2
					c-0.3,3.2-0.5,6.4-0.5,9.7C1322.4,4494.5,1359.5,4535.5,1408.1,4540.3L1408.1,4540.3z"/>
			</g>
			<g id="Group_4517" transform="translate(35.079 35.081)">
				<path id="Path_1070" class="st2" d="M1449.6,4424c3.6-17.8,0-36.2-10-51.3c-10-15.1-25.6-25.7-43.4-29.2
					c-17.8-3.6-36.2,0-51.3,10c-15.1,10-25.7,25.6-29.2,43.4c-0.9,4.5-1.4,9.1-1.4,13.7c0,13.4,4,26.5,11.4,37.6
					c10,15.1,25.6,25.7,43.4,29.2C1406.1,4484.9,1442.1,4461,1449.6,4424 M1369.5,4475.2c-17.2-3.4-32.3-13.6-42-28.2
					c-9.7-14.6-13.2-32.5-9.7-49.6c3.4-17.2,13.6-32.3,28.2-42c14.6-9.7,32.5-13.2,49.6-9.7c17.2,3.4,32.3,13.6,42,28.2
					c7.2,10.8,11,23.4,11,36.4c0,4.4-0.4,8.9-1.3,13.2C1440.2,4459.3,1405.3,4482.4,1369.5,4475.2"/>
			</g>
			<g id="Group_4518" transform="translate(31.501 31.498)">
				<path id="Path_1071" class="st0" d="M1386.3,4486c-4.8,0-9.6-0.5-14.4-1.4c-18.7-3.7-35.2-14.8-45.7-30.7
					c-7.8-11.7-12-25.5-12-39.6c0-4.8,0.5-9.7,1.4-14.4c3.7-18.7,14.8-35.2,30.7-45.7c33.1-22,77.7-12.9,99.7,20.2c0,0,0,0,0,0
					c10.6,15.9,14.4,35.3,10.6,54c-3.7,18.7-14.8,35.1-30.7,45.6C1414.2,4481.8,1400.4,4486,1386.3,4486 M1386.1,4351.5
					c-12.3,0-24.2,3.6-34.4,10.4c-13.8,9.1-23.5,23.4-26.7,39.7c-3.3,16.2,0,33.2,9.2,47c9.1,13.8,23.4,23.5,39.7,26.7
					c33.8,6.8,66.8-15.1,73.7-48.9c0.8-4.1,1.3-8.3,1.3-12.5c0-12.3-3.6-24.2-10.4-34.4c-9.1-13.8-23.4-23.5-39.7-26.7
					C1394.5,4351.9,1390.3,4351.5,1386.1,4351.5"/>
			</g>
			<g id="Group_4519" transform="translate(65.409 65.388)">
				<path id="Path_1072" class="st2" d="M1386.3,4397.3c9.5-18.7,1.9-41.6-16.8-51.1c-9-4.6-19.5-5.4-29-2.2
					c-15.6,5.1-26.1,19.7-26.2,36.1c0,21,17,38.1,38,38.1C1366.6,4418.2,1379.8,4410.1,1386.3,4397.3 M1336.2,4412.1
					c-17.6-8.9-24.7-30.4-15.8-48.1c4.3-8.5,11.7-14.9,20.8-17.9c9-3,18.8-2.2,27.3,2.1c12.1,6.1,19.7,18.5,19.6,32
					c0,5.6-1.3,11.1-3.8,16.1C1375.3,4413.9,1353.8,4421,1336.2,4412.1"/>
			</g>
			<g id="Group_4520" transform="translate(61.232 61.209)">
				<path id="Path_1073" class="st4" d="M1356.4,4426.5c-6.6,0-13.1-1.6-19-4.6c-14.3-7.2-23.2-21.8-23.2-37.7
					c0-6.6,1.5-13.1,4.5-19c5-10,13.8-17.6,24.5-21.1c10.6-3.5,22.2-2.6,32.2,2.4c20.8,10.5,29.1,35.9,18.6,56.7l-2-1l2,1
					c-5,10-13.9,17.6-24.5,21C1365.4,4425.8,1360.9,4426.5,1356.4,4426.5 M1342.2,4412.5c15.6,7.9,34.6,1.6,42.5-13.9
					c2.2-4.4,3.4-9.3,3.4-14.2c0-12-6.7-22.9-17.3-28.3c-7.5-3.8-16.2-4.5-24.1-1.8c-8,2.6-14.6,8.3-18.4,15.8
					C1320.4,4385.6,1326.7,4404.6,1342.2,4412.5"/>
			</g>
		</g>
	</g>
</g>
</svg>
