<?xml version="1.0" encoding="utf-8"?>
<!-- Generator: Adobe Illustrator 24.3.0, SVG Export Plug-In . SVG Version: 6.00 Build 0)  -->
<svg version="1.1" id="Layer_1" xmlns="http://www.w3.org/2000/svg" xmlns:xlink="http://www.w3.org/1999/xlink" x="0px" y="0px"
	 width="320px" height="340px" viewBox="0 0 320 340" style="enable-background:new 0 0 320 340;" xml:space="preserve">
<style type="text/css">
	.st0{fill:#BEB8CC;}
	.st1{fill:none;stroke:#50BCBA;stroke-width:0;stroke-linecap:round;stroke-linejoin:round;}
	.st2{fill:none;}
	.st3{fill:#F7C7FF;}
	.st4{fill:#7061F0;}
</style>
<rect x="0" y="0" class="st0" width="320" height="340"/>
<line class="st1" x1="40.1" y1="250.1" x2="40.1" y2="250.1"/>
<line class="st1" x1="40.1" y1="237.1" x2="40.1" y2="237.1"/>
<line class="st1" x1="40.1" y1="224.1" x2="40.1" y2="224.1"/>
<line class="st1" x1="40.1" y1="211.1" x2="40.1" y2="211.1"/>
<line class="st1" x1="40.1" y1="198.1" x2="40.1" y2="198.1"/>
<line class="st1" x1="40.1" y1="185.1" x2="40.1" y2="185.1"/>
<line class="st1" x1="40.1" y1="172.1" x2="40.1" y2="172.1"/>
<line class="st1" x1="40.1" y1="159.1" x2="40.1" y2="159.1"/>
<line class="st1" x1="40.1" y1="146.2" x2="40.1" y2="146.2"/>
<line class="st1" x1="40.1" y1="133.2" x2="40.1" y2="133.2"/>
<line class="st1" x1="40.1" y1="120.2" x2="40.1" y2="120.2"/>
<line class="st1" x1="40.1" y1="107.2" x2="40.1" y2="107.2"/>
<line class="st1" x1="40.1" y1="94.2" x2="40.1" y2="94.2"/>
<line class="st1" x1="40.1" y1="81.2" x2="40.1" y2="81.2"/>
<line class="st1" x1="40.1" y1="68.2" x2="40.1" y2="68.2"/>
<line class="st1" x1="40.1" y1="55.2" x2="40.1" y2="55.2"/>
<line class="st1" x1="40.1" y1="42.2" x2="40.1" y2="42.2"/>
<path class="st2" d="M159.5,42.9C102.6,42.9,56.6,89,56.6,145.9v0l0,0c0,56.9,46.1,102.9,102.9,102.9c0,0,0,0,0,0l0,0V42.9z"/>
<g id="Path_1129">
	<path class="st3" d="M159.5,42.9c56.9,0,102.9,46.1,102.9,102.9c0,56.9-46.1,102.9-102.9,102.9c0,0,0,0,0,0"/>
</g>
<path class="st4" d="M159.5,61.5V42.9c-22,0-42.3,6.9-59,18.6H159.5z"/>
<path class="st4" d="M159.5,74.2v-12h-60c-5,3.6-9.6,7.6-13.9,12H159.5z"/>
<path class="st4" d="M75.2,86.8h84.3V75.6H84.3C81,79.1,78,82.8,75.2,86.8z"/>
<path class="st4" d="M67.6,99.4h91.9V88.9H73.7C71.5,92.3,69.4,95.8,67.6,99.4z"/>
<path class="st4" d="M62.2,112.1h97.3v-9.8H66.2C64.7,105.5,63.4,108.7,62.2,112.1z"/>
<path class="st4" d="M58.7,124.7h100.8v-9H61.1C60.2,118.6,59.4,121.6,58.7,124.7z"/>
<path class="st4" d="M56.9,137.3h102.6V129H57.9C57.5,131.7,57.1,134.5,56.9,137.3z"/>
<path class="st4" d="M159.5,142.4H56.6c0,1.2-0.1,2.3-0.1,3.5c0,1.4,0,2.7,0.1,4.1h102.9V142.4z"/>
<path class="st4" d="M57.9,162.6h101.6v-6.8H57C57.2,158,57.5,160.3,57.9,162.6z"/>
<path class="st4" d="M60.8,175.2h98.7v-6.1H59.2C59.7,171.1,60.2,173.2,60.8,175.2z"/>
<path class="st4" d="M65.5,187.8h94v-5.4H63.3C63.9,184.3,64.7,186.1,65.5,187.8z"/>
<path class="st4" d="M72.2,200.5h87.3v-4.7h-90C70.3,197.4,71.3,198.9,72.2,200.5z"/>
<path class="st4" d="M81.5,213.1h78v-3.9H78.3C79.4,210.5,80.4,211.8,81.5,213.1z"/>
<path class="st4" d="M159.5,225.7v-3.2H90.8c1.2,1.1,2.5,2.2,3.7,3.2H159.5z"/>
<path class="st4" d="M159.5,238.3v-2.5h-50c1.5,0.9,3.1,1.7,4.7,2.5H159.5z"/>
</svg>
