<svg xmlns="http://www.w3.org/2000/svg" width="1224" height="181.5" viewBox="0 0 1224 181.5">
  <g id="Group_4034" data-name="Group 4034" transform="translate(1573.479 -3245.471) rotate(-90)">
    <path id="Path_572" data-name="Path 572" d="M40.75,40.75C40.75,10.134,111.407-50,131.5-50H-50c19.627,0,90.75,60.526,90.75,90.75" transform="translate(-3376.97 -480.978)" fill="#fff"/>
    <path id="Path_573" data-name="Path 573" d="M40.75,40.75C40.75,10.134,111.407-50,131.5-50H-50c19.629,0,90.75,60.526,90.75,90.75" transform="translate(-3376.971 -390.228)" fill="#fff"/>
  </g>
  <g id="Group_4350" data-name="Group 4350" transform="translate(3426.971 530.978)">
    <path id="Path_572-2" data-name="Path 572" d="M17,17C17-5.6,69.166-50,84-50H-50c14.491,0,67,44.686,67,67" transform="translate(-3376.97 -480.978)" fill="#fff"/>
    <path id="Path_573-2" data-name="Path 573" d="M17,17C17-5.6,69.166-50,84-50H-50c14.492,0,67,44.686,67,67" transform="translate(-3376.971 -413.978)" fill="#7061f0"/>
  </g>
</svg>
