<svg xmlns="http://www.w3.org/2000/svg" xmlns:xlink="http://www.w3.org/1999/xlink" width="270" height="270" viewBox="0 0 270 270">
  <defs>
    <clipPath id="clip-path">
      <path id="Path_453" data-name="Path 453" d="M0,102.416H270v-270H0Z" transform="translate(0 167.584)" fill="rgba(255,255,255,0.99)"/>
    </clipPath>
  </defs>
  <g id="Group_4346" data-name="Group 4346" transform="translate(0 167.584)">
    <g id="Group_3908" data-name="Group 3908" transform="translate(0 -167.584)" clip-path="url(#clip-path)">
      <g id="Group_3896" data-name="Group 3896" transform="translate(0.806 0.806)">
        <path id="Path_441" data-name="Path 441" d="M70.716,97.8a133.751,133.751,0,0,0,42.655-28.759,133.724,133.724,0,0,0,28.759-42.655,133.338,133.338,0,0,0,10.546-52.235,133.338,133.338,0,0,0-10.546-52.235,133.731,133.731,0,0,0-28.759-42.656,133.747,133.747,0,0,0-42.655-28.757,133.338,133.338,0,0,0-52.235-10.546,133.338,133.338,0,0,0-52.235,10.546,133.771,133.771,0,0,0-42.656,28.757,133.753,133.753,0,0,0-28.757,42.656,133.338,133.338,0,0,0-10.546,52.235,133.338,133.338,0,0,0,10.546,52.235A133.746,133.746,0,0,0-76.409,69.046,133.775,133.775,0,0,0-33.753,97.8a133.367,133.367,0,0,0,52.235,10.546A133.367,133.367,0,0,0,70.716,97.8M-114.194-25.844C-114.194-99-54.677-158.52,18.481-158.52S151.157-99,151.157-25.844,91.64,106.832,18.481,106.832-114.194,47.313-114.194-25.844" transform="translate(115.713 160.038)" fill="rgba(255,255,255,0.99)"/>
      </g>
      <g id="Group_3897" data-name="Group 3897">
        <path id="Path_442" data-name="Path 442" d="M51.208,102.416A134.171,134.171,0,0,1-1.341,91.807,134.6,134.6,0,0,1-44.252,62.876,134.546,134.546,0,0,1-73.183,19.963,134.146,134.146,0,0,1-83.792-32.584,134.165,134.165,0,0,1-73.183-85.133a134.566,134.566,0,0,1,28.931-42.911A134.547,134.547,0,0,1-1.341-156.975a134.171,134.171,0,0,1,52.549-10.609,134.165,134.165,0,0,1,52.549,10.609,134.548,134.548,0,0,1,42.911,28.931A134.54,134.54,0,0,1,175.6-85.133a134.142,134.142,0,0,1,10.609,52.549A134.128,134.128,0,0,1,175.6,19.963a134.555,134.555,0,0,1-28.931,42.913,134.6,134.6,0,0,1-42.911,28.931l-.314-.743.314.743a134.165,134.165,0,0,1-52.549,10.609m0-266.871c-72.714,0-131.87,59.158-131.87,131.871S-21.506,99.287,51.208,99.287,183.079,40.13,183.079-32.584,123.922-164.455,51.208-164.455" transform="translate(83.792 167.584)" fill="rgba(255,255,255,0.99)"/>
      </g>
      <g id="Group_3898" data-name="Group 3898" transform="translate(23.022 23.021)">
        <path id="Path_443" data-name="Path 443" d="M71.9,73.111a111.241,111.241,0,0,0,34.391-78.5A111.248,111.248,0,0,0,75.1-85.216,111.249,111.249,0,0,0-3.4-119.609,111.247,111.247,0,0,0-83.23-88.419a111.241,111.241,0,0,0-34.391,78.5c-.016.778-.024,1.55-.024,2.325a111.216,111.216,0,0,0,31.214,77.5A111.241,111.241,0,0,0-7.93,104.3,111.241,111.241,0,0,0,71.9,73.111M-7.9,102.784A109.745,109.745,0,0,1-85.337,68.858,109.794,109.794,0,0,1-116.1-9.888,110.583,110.583,0,0,1-3.433-118.09,109.735,109.735,0,0,1,74-84.164,109.7,109.7,0,0,1,104.793-7.713q0,1.146-.023,2.293A110.586,110.586,0,0,1-7.9,102.784" transform="translate(117.645 119.633)" fill="rgba(255,255,255,0.99)"/>
      </g>
      <g id="Group_3899" data-name="Group 3899" transform="translate(21.812 21.812)">
        <path id="Path_444" data-name="Path 444" d="M42.956,85.868q-1.172,0-2.347-.024A112.441,112.441,0,0,1-38.739,51.08,112.592,112.592,0,0,1-70.29-27.259c0-.783.008-1.563.024-2.349A112.455,112.455,0,0,1-35.5-108.956a112.338,112.338,0,0,1,80.689-31.525,112.446,112.446,0,0,1,79.348,34.762,112.465,112.465,0,0,1,31.527,80.689A112.439,112.439,0,0,1,121.3,54.317,112.417,112.417,0,0,1,42.956,85.868M42.865-136.57A109.376,109.376,0,0,0-66.331-29.528,108.583,108.583,0,0,0-35.9,48.356,108.537,108.537,0,0,0,40.688,81.91a108.541,108.541,0,0,0,77.848-30.467,108.511,108.511,0,0,0,33.589-76.555c.016-.757.024-1.511.024-2.267A108.682,108.682,0,0,0,121.7-102.994a108.535,108.535,0,0,0-76.59-33.553c-.746-.016-1.5-.023-2.241-.023" transform="translate(70.29 140.507)" fill="rgba(255,255,255,0.99)"/>
      </g>
      <g id="Group_3900" data-name="Group 3900" transform="translate(45.167 45.167)">
        <path id="Path_445" data-name="Path 445" d="M68.106,35.8a89.248,89.248,0,0,0-23.07-64.768A89.238,89.238,0,0,0-17.073-58.455a89.237,89.237,0,0,0-64.766,23.07,89.234,89.234,0,0,0-29.485,62.109q-.118,2.327-.118,4.642A89.175,89.175,0,0,0-88.255,91.489a89.234,89.234,0,0,0,62.109,29.485A89.237,89.237,0,0,0,38.62,97.9,89.237,89.237,0,0,0,68.106,35.8m-94.174,83.661a87.732,87.732,0,0,1-61.06-28.984A87.742,87.742,0,0,1-109.808,26.8,88.413,88.413,0,0,1-17.15-56.939,88.422,88.422,0,0,1,66.7,31.207q0,2.245-.113,4.511A87.735,87.735,0,0,1,37.6,96.779a87.73,87.73,0,0,1-63.67,22.678" transform="translate(111.442 58.573)" fill="rgba(255,255,255,0.99)"/>
      </g>
      <g id="Group_3901" data-name="Group 3901" transform="translate(43.557 43.557)">
        <path id="Path_446" data-name="Path 446" d="M34.727,69.373q-2.356,0-4.725-.119A90.849,90.849,0,0,1-33.221,39.24a91.142,91.142,0,0,1-23.6-61.205c0-1.558.04-3.148.119-4.722A90.843,90.843,0,0,1-26.691-89.914,90.839,90.839,0,0,1,39.237-113.4a90.837,90.837,0,0,1,63.224,30.012,90.85,90.85,0,0,1,23.482,65.929A90.844,90.844,0,0,1,95.931,45.77a90.783,90.783,0,0,1-61.2,23.6m-.16-178.146A86.812,86.812,0,0,0-51.971-26.451a86.129,86.129,0,0,0,22.266,62.51A86.125,86.125,0,0,0,30.242,64.517a86.1,86.1,0,0,0,62.51-22.266,86.134,86.134,0,0,0,28.457-59.945c.074-1.471.111-2.961.111-4.429A86.618,86.618,0,0,0,39-108.661q-2.226-.114-4.431-.113" transform="translate(56.824 113.515)" fill="rgba(255,255,255,0.99)"/>
      </g>
      <g id="Group_3902" data-name="Group 3902" transform="translate(67.18 67.175)">
        <path id="Path_447" data-name="Path 447" d="M51.319,28.315A67.378,67.378,0,0,0,36.382-21.393,67.377,67.377,0,0,0-9.332-45.981,67.373,67.373,0,0,0-59.04-31.044,67.38,67.38,0,0,0-83.628,14.669a67.811,67.811,0,0,0-.346,6.875,67.918,67.918,0,0,0,61,67.423,67.9,67.9,0,0,0,74.3-60.651m-74.144,59.14A66.392,66.392,0,0,1-82.456,21.542a67.086,67.086,0,0,1,.34-6.72A65.859,65.859,0,0,1-58.08-29.866a65.864,65.864,0,0,1,48.6-14.6A66.39,66.39,0,0,1,50.148,21.442a66.611,66.611,0,0,1-.34,6.72,65.866,65.866,0,0,1-24.036,44.69,65.862,65.862,0,0,1-48.6,14.6" transform="translate(83.974 46.332)" fill="rgba(255,255,255,0.99)"/>
      </g>
      <g id="Group_3903" data-name="Group 3903" transform="translate(65.166 65.163)">
        <path id="Path_448" data-name="Path 448" d="M26.509,52.98a70.416,70.416,0,0,1-7.078-.358A69.605,69.605,0,0,1-43.377-16.8a70.315,70.315,0,0,1,.358-7.078A69.369,69.369,0,0,1-17.7-70.95,69.426,69.426,0,0,1,33.482-86.333,69.389,69.389,0,0,1,80.553-61.016,69.381,69.381,0,0,1,95.934-9.829,69.935,69.935,0,0,1,26.509,52.98M19.989,47.1A63.848,63.848,0,0,0,67.11,32.942a63.86,63.86,0,0,0,23.307-43.33c.217-2.162.329-4.353.329-6.517a64.071,64.071,0,0,0-57.82-63.907A63.847,63.847,0,0,0-14.195-66.653,63.86,63.86,0,0,0-37.5-23.322a64.9,64.9,0,0,0-.33,6.517A64.071,64.071,0,0,0,19.99,47.1Z" transform="translate(43.377 86.691)" fill="rgba(255,255,255,0.99)"/>
      </g>
      <g id="Group_3904" data-name="Group 3904" transform="translate(88.847 88.847)">
        <path id="Path_449" data-name="Path 449" d="M34.66,20.976a45.832,45.832,0,0,0-6.778-34.655,45.841,45.841,0,0,0-29.3-19.714,45.839,45.839,0,0,0-34.655,6.778,45.841,45.841,0,0,0-19.714,29.3,46.648,46.648,0,0,0-.93,9.241,45.821,45.821,0,0,0,7.708,25.414,45.839,45.839,0,0,0,29.3,19.714A46.192,46.192,0,0,0,34.66,20.976M-19.408,55.564A44.329,44.329,0,0,1-47.741,36.5,44.33,44.33,0,0,1-54.3,2.984,44.329,44.329,0,0,1-35.232-25.349,44.323,44.323,0,0,1-1.717-31.9,44.34,44.34,0,0,1,26.618-12.842a44.309,44.309,0,0,1,7.453,24.579,45.014,45.014,0,0,1-.9,8.937A44.67,44.67,0,0,1-19.408,55.564" transform="translate(56.715 34.323)" fill="rgba(255,255,255,0.99)"/>
      </g>
      <g id="Group_3905" data-name="Group 3905" transform="translate(86.431 86.428)">
        <path id="Path_450" data-name="Path 450" d="M18.449,36.846a48.923,48.923,0,0,1-9.7-.975A48.236,48.236,0,0,1-22.079,15.125a48.252,48.252,0,0,1-8.11-26.751,49.209,49.209,0,0,1,.976-9.718A48.244,48.244,0,0,1-8.468-52.18a48.245,48.245,0,0,1,36.473-7.134A48.248,48.248,0,0,1,58.837-38.567,48.231,48.231,0,0,1,65.971-2.095,48.227,48.227,0,0,1,45.214,28.72a48.26,48.26,0,0,1-26.764,8.127m-.156-90.784A41.9,41.9,0,0,0-4.954-46.886a41.926,41.926,0,0,0-18.032,26.8,41.932,41.932,0,0,0,6.2,31.7,41.913,41.913,0,0,0,26.8,18.029,42.245,42.245,0,0,0,49.731-33,42.722,42.722,0,0,0,.852-8.457,41.94,41.94,0,0,0-7.052-23.244,41.926,41.926,0,0,0-26.8-18.032,42.66,42.66,0,0,0-8.452-.851" transform="translate(30.189 60.292)" fill="rgba(255,255,255,0.99)"/>
      </g>
      <g id="Group_3906" data-name="Group 3906" transform="translate(109.324 109.307)">
        <path id="Path_451" data-name="Path 451" d="M18.432,14.141A25.709,25.709,0,0,0,7.1-20.363a25.516,25.516,0,0,0-19.6-1.481A25.509,25.509,0,0,0-27.4-9.034a25.517,25.517,0,0,0-2.76,11.545A25.711,25.711,0,0,0-16.072,25.47a25.709,25.709,0,0,0,34.5-11.329m-33.819,9.975A24.188,24.188,0,0,1-26.046-8.347,24.008,24.008,0,0,1-12.021-20.4,24.007,24.007,0,0,1,6.417-19.008a24.189,24.189,0,0,1,13.258,21.6,24.034,24.034,0,0,1-2.6,10.862A24.19,24.19,0,0,1-15.387,24.115" transform="translate(30.161 23.139)" fill="rgba(255,255,255,0.99)"/>
      </g>
      <g id="Group_3907" data-name="Group 3907" transform="translate(106.503 106.486)">
        <path id="Path_452" data-name="Path 452" d="M10.79,21.628A28.321,28.321,0,0,1-2.018,18.556,28.393,28.393,0,0,1-17.656-6.919a28.167,28.167,0,0,1,3.063-12.817A28.318,28.318,0,0,1,1.95-33.954,28.32,28.32,0,0,1,23.7-32.311,28.533,28.533,0,0,1,36.273,5.983L34.918,5.3l1.355.686A28.3,28.3,0,0,1,19.727,20.188a28.589,28.589,0,0,1-8.937,1.44M1.21,12.169A21.365,21.365,0,0,0,29.887,2.752,21.073,21.073,0,0,0,32.18-6.837,21.269,21.269,0,0,0,20.47-25.923,21.167,21.167,0,0,0,4.183-27.152,21.2,21.2,0,0,0-8.205-16.506,21.367,21.367,0,0,0,1.21,12.169" transform="translate(17.656 35.39)" fill="rgba(255,255,255,0.99)"/>
      </g>
    </g>
  </g>
</svg>
