<svg id="Layer_1" data-name="Layer 1" xmlns="http://www.w3.org/2000/svg" viewBox="0 0 561.5 333.1"><defs><style>.cls-1{fill:#1b2f53;}.cls-2{fill:#fff;}.cls-3{fill:#fac72e;}.cls-4{fill:#ed6b4d;}.cls-5{fill:#7061f0;}</style></defs><g id="Group_5957" data-name="Group 5957"><rect id="m-b-m-ZzOa5G8hSPI-unsplash" class="cls-1" width="561.5" height="333.1"/><g id="Group_5343" data-name="Group 5343"><g id="Group_4132" data-name="Group 4132"><g id="Group_4131" data-name="Group 4131"><path id="Path_687" data-name="Path 687" class="cls-2" d="M238.56,194.1a51.1,51.1,0,0,0,6.32,7.74l4.64-4.64a45,45,0,0,1-5.49-6.73,43.66,43.66,0,0,1,5.42-54.88,43.75,43.75,0,0,1,6.81-5.56,43.68,43.68,0,0,1,54.94,5.49l4.64-4.63h0a50.26,50.26,0,0,0-63.2-6.32h0a50.16,50.16,0,0,0-14.07,69.54"/></g></g><g id="Group_4136" data-name="Group 4136"><g id="Group_4135" data-name="Group 4135"><path id="Path_689" data-name="Path 689" class="cls-2" d="M224.47,212q2.33,2.83,4.87,5.39l4.06-4c-1.57-1.57-3.06-3.23-4.49-5a66.2,66.2,0,0,1,4.45-88.93c1.59-1.59,3.26-3.09,5-4.52a66.43,66.43,0,0,1,89,4.48l4.05-4,0,0A72.15,72.15,0,0,0,224.47,212"/></g></g><g id="Group_4138" data-name="Group 4138"><g id="Group_4137" data-name="Group 4137"><path id="Path_690" data-name="Path 690" class="cls-3" d="M162.57,205a123.41,123.41,0,0,0,30.11,49l22-22a92.9,92.9,0,0,1,.15-131.43A91.51,91.51,0,0,1,251.4,78.15,92.91,92.91,0,0,1,346,100.74l22.06-22.06a124.51,124.51,0,0,0-31.76-22.92A123.94,123.94,0,0,0,162.57,205"/></g></g><g id="Group_4140" data-name="Group 4140"><g id="Group_4139" data-name="Group 4139"><path id="Path_691" data-name="Path 691" class="cls-4" d="M280.37,166.37l87.68,87.68a124,124,0,0,0,0-175.36Z"/></g></g><g id="Group_4142" data-name="Group 4142"><g id="Group_4141" data-name="Group 4141"><path id="Path_692" data-name="Path 692" class="cls-5" d="M280.36,166.37l-87.68,87.68a124,124,0,0,0,175.37,0Z"/></g></g></g></g></svg>