<svg id="Layer_1" data-name="Layer 1" xmlns="http://www.w3.org/2000/svg" viewBox="0 0 611 399.33"><defs><style>.cls-1{fill:#f7c7ff;}.cls-2{fill:#fff;}.cls-3{isolation:isolate;}.cls-4{fill:#1b2f53;}.cls-5{fill:#7061f0;}.cls-6{fill:#ed6b4d;}</style></defs><path id="Path_885" data-name="Path 885" class="cls-1" d="M0,137.63H610.5v285.5H0Z" transform="translate(0 -23.8)"/><path id="Path_1367" data-name="Path 1367" class="cls-2" d="M0,215.63H610.5v207.5H0Z" transform="translate(0 -23.8)"/><g id="_75.8" data-name=" 75.8" class="cls-3"><g class="cls-3"><path class="cls-4" d="M172,32.2v3c-39.4,78-47.2,109.4-53.2,134.8H85.6l-.4-3L156.6,53.2H114c-18.4,0-25,4.8-33.8,20H77.4l5.6-41C112.6,32.8,142.2,32.8,172,32.2Z" transform="translate(0 -23.8)"/><path class="cls-4" d="M269.8,126.4c0,27.8-20.2,46-53.2,46-16,0-26.8-4.2-34.6-9.4-.4-9.8-.8-21.6-.6-32.8h3c9,22,15.8,38,32.2,38,14.4,0,23.6-13.8,23.6-40.2,0-28-10.6-40.4-25.8-40.4a28.6,28.6,0,0,0-24.2,13.2h-3.4l2-68h45.4c13.6,0,22.6-1.8,27.6-9h2.6c-1.2,10.2-2.6,20-4.6,30.2H193.4l-1,38c6.4-6,15.6-9.6,28.4-9.6C245.2,82.4,269.8,95.4,269.8,126.4Z" transform="translate(0 -23.8)"/><path class="cls-4" d="M292.4,158A13.6,13.6,0,1,1,306,171.6,13.74,13.74,0,0,1,292.4,158Z" transform="translate(0 -23.8)"/><path class="cls-4" d="M339.2,133.4c0-18.8,14.8-33.2,34-38.4-14.4-4.4-28.6-15.4-28.6-31.6C344.6,44.6,364,30,390,30c25.2,0,45.79,13.8,45.79,33.6,0,16-13.19,26.4-28.59,31.4C426,100.2,441,114.2,441,133.4c0,24.6-21,39.2-51,39.2C359.8,172.6,339.2,157.6,339.2,133.4Zm74.4,1c0-22-11.2-37.4-23.4-37.4s-23.6,15.4-23.6,37.4c0,20,9.4,34.2,23.6,34.2C404.2,168.6,413.6,154.6,413.6,134.4ZM408.8,62c0-16.2-7.2-28-18.6-28s-18.6,11.8-18.6,27.8c0,18.2,9.2,31.4,18.6,31.4S408.8,80.2,408.8,62Z" transform="translate(0 -23.8)"/></g></g><g id="Group_4376" data-name="Group 4376"><g id="Group_4374" data-name="Group 4374"><g id="Group_4371" data-name="Group 4371"><path id="Path_923" data-name="Path 923" class="cls-5" d="M477.12,136.46a18.68,18.68,0,0,1-18.62-18.69,18.24,18.24,0,0,1,2-8.39A18.65,18.65,0,1,1,483,135.51a18.75,18.75,0,0,1-5.85.94m-6.27-6.19a14,14,0,0,0,18.77-6.16,13.74,13.74,0,0,0,1.5-6.28,14,14,0,1,0-20.27,12.44" transform="translate(0 -23.8)"/></g><g id="Group_4372" data-name="Group 4372"><path id="Path_924" data-name="Path 924" class="cls-5" d="M525.88,132.8a18.67,18.67,0,0,0-18.67,18.66h0a18.67,18.67,0,1,0,18.67-18.67h0m0,28.3a9.64,9.64,0,1,1,9.63-9.63,9.64,9.64,0,0,1-9.63,9.63" transform="translate(0 -23.8)"/></g><g id="Group_4373" data-name="Group 4373"><path id="Path_925" data-name="Path 925" class="cls-5" d="M525.88,145.56a5.9,5.9,0,0,0-5.9,5.9h0a5.9,5.9,0,0,0,11.8,0h0a5.9,5.9,0,0,0-5.9-5.9h0" transform="translate(0 -23.8)"/></g></g><g id="Group_4375" data-name="Group 4375"><path id="Path_927" data-name="Path 927" class="cls-5" d="M523.27,99.13l-46.15,71H481l46.15-71Z" transform="translate(0 -23.8)"/></g></g><path id="Path_707" data-name="Path 707" class="cls-6" d="M550.83,422.73V215.63h-25v207.1Z" transform="translate(0 -23.8)"/><path id="Path_1366" data-name="Path 1366" class="cls-6" d="M611,422.73V215.63H601v207.1Z" transform="translate(0 -23.8)"/><path id="Path_708" data-name="Path 708" class="cls-6" d="M390.5,422.73V215.63h-45v207.1Z" transform="translate(0 -23.8)"/><path id="Path_709" data-name="Path 709" class="cls-6" d="M190.17,422.73V215.63h-65v207.1Z" transform="translate(0 -23.8)"/><path id="Path_714" data-name="Path 714" class="cls-6" d="M475.67,422.73V215.63h-35v207.1Z" transform="translate(0 -23.8)"/><path id="Path_715" data-name="Path 715" class="cls-6" d="M295.33,422.73V215.63h-55v207.1Z" transform="translate(0 -23.8)"/><path id="Path_716" data-name="Path 716" class="cls-6" d="M75,422.73V215.63H0v207.1Z" transform="translate(0 -23.8)"/></svg>