<?xml version="1.0" encoding="utf-8"?>
<!-- Generator: Adobe Illustrator 24.3.0, SVG Export Plug-In . SVG Version: 6.00 Build 0)  -->
<svg version="1.1" id="Layer_1" xmlns="http://www.w3.org/2000/svg" xmlns:xlink="http://www.w3.org/1999/xlink" x="0px" y="0px"
	 width="610.5px" height="545.4px" viewBox="0 0 610.5 545.4" style="enable-background:new 0 0 610.5 545.4;" xml:space="preserve"
	>
<style type="text/css">
	.st0{fill:#FFF0C2;}
	.st1{fill:#FFFFFF;}
	.st2{fill:#1B2F53;}
	.st3{fill:none;}
	.st4{fill:#FAC72E;}
	.st5{fill:#50BCBA;}
	.st6{fill:#50BCBB;}
</style>
<g id="Path_886">
	<path class="st0" d="M0,0.4h610.4v545H0V0.4z"/>
</g>
<g id="Path_1371">
	<path class="st1" d="M0,273h610.5V0H0V273z"/>
</g>
<g id="Path_884">
	<path class="st2" d="M296,272.9h314.5v272.5H296V272.9z"/>
</g>
<g>
	<path class="st3" d="M370.4,274.1L370.4,274.1c-0.1,36-29.3,65.1-65.3,65c-28.1,0-53-18.1-61.8-44.8c-2.3-7.1-3.3-14.2-3.2-21.3
		h-31.4c0,0.4,0,0.8,0,1.2v0c0.1,53.3,43.4,96.4,96.8,96.3c18.9,0,37.4-5.6,53.1-16.1c28.3-18.7,43.4-49.8,43.1-81.4h-31.3
		C370.4,273.4,370.4,273.7,370.4,274.1z"/>
	<path class="st3" d="M416.3,273.8c0,7.4-0.8,14.9-2.2,22.2c-10.5,51.7-55.9,88.9-108.6,89c-7.5,0-14.9-0.8-22.2-2.2
		c-53-10.7-89.5-57.6-89-109.8h-34.9c0,0.4,0,0.7,0,1.1c0,36.2,13.4,71,37.7,97.8c24.3,26.9,57.5,43.7,93.6,47.3
		c5,0.5,10.1,0.8,15.1,0.8c36.2,0,70.8-13.3,97.6-37.6c26.9-24.3,43.7-57.6,47.2-93.7c0.5-5.3,0.8-10.5,0.7-15.6h-35
		C416.3,273.3,416.3,273.5,416.3,273.8z"/>
	<path class="st3" d="M258.9,289.2c8.4,25.6,36,39.5,61.6,31.1c12.3-4,22.5-12.8,28.3-24.3v0c3.7-7.4,5.4-15.3,5.2-23h-97.6
		C256.4,278.4,257.2,283.9,258.9,289.2z"/>
	<path class="st4" d="M327.3,230.4c-24.1-12.2-53.4-2.5-65.6,21.5c-3.3,6.6-5.1,13.7-5.2,20.9c0,0,0,0.1,0,0.1H354c0,0,0-0.1,0-0.1
		C353.6,255.5,343.9,238.8,327.3,230.4z"/>
	<path class="st4" d="M324.4,179.4c-6.4-1.3-12.8-1.9-19.3-1.9c-45.8,0.1-85.3,32.5-94.4,77.4c-1.2,5.9-1.8,12-1.9,18
		c0,0,0,0.1,0,0.1h31.4c0,0,0-0.1,0-0.1c0.5-27,17.7-51.9,44.8-60.8c16.4-5.4,34.3-4,49.7,3.8c21.6,11,35.3,32.9,35.8,57.1
		c0,0,0,0.1,0,0.1h31.3c0,0,0-0.1,0-0.1c-0.2-18-5.4-36.1-16.1-52.3C371.5,199.3,349.5,184.4,324.4,179.4z"/>
	<path class="st4" d="M319.9,128.7c-4.9-0.5-9.9-0.7-14.8-0.7c-39,0-75.6,15.2-103.2,42.8c-27.3,27.3-42.4,63.6-42.7,102.2h34.9
		c0,0,0-0.1,0-0.1c0.1-6.9,0.8-13.9,2.2-20.9c5.8-28.9,22.9-54.2,47.4-70.5c51.2-33.9,120.1-19.8,154,31.4
		c11.8,17.8,18.2,38.7,18.4,60.1c0,0,0,0.1,0,0.1h35C450.8,199.4,394.8,136.3,319.9,128.7z"/>
	<path class="st5" d="M423.2,167.9c-26.5-29.4-62.7-47.9-102-51.8c-5.3-0.6-10.7-0.8-16-0.8c-36.3,0-72.1,12.6-100.3,35.8
		c-32.8,26.8-53.3,64.8-57.5,107c-4.3,42.2,8.1,83.5,35,116.3c26.8,32.8,64.8,53.3,107,57.5c5.4,0.6,11,0.8,16.4,0.8
		c39.3,0,77-14.5,106.1-40.9c29.2-26.4,47.4-62.6,51.3-101.8c0.5-5.3,0.8-10.7,0.8-16.1h0C463.9,234.8,449.5,197.2,423.2,167.9z
		 M452.5,288.8L452.5,288.8c-3.6,36.6-20.6,70.3-47.8,95c-27.2,24.6-62.3,38.1-99,38.1c-5.1,0-10.3-0.2-15.3-0.8
		c-36.5-3.7-70.2-20.7-94.9-48c-24.6-27.2-38.2-62.4-38.2-99.2c0-39.5,15.3-76.7,43.3-104.7c27.9-28,65.1-43.4,104.6-43.4
		c5,0,10,0.3,15,0.8C401.3,134.9,460.7,207.7,452.5,288.8z"/>
	<path class="st6" d="M465.9,273.8c0-39.5-14.7-77.6-41.3-107.3c-26.8-29.8-63.5-48.5-103.3-52.5c-42.1-4.4-85,8.5-117.8,35.4
		c-33.2,27.1-53.9,65.6-58.3,108.3c-4.3,42.7,8.3,84.5,35.4,117.8c27.1,33.2,65.6,53.9,108.3,58.3c5.5,0.6,11.1,0.8,16.6,0.8
		c39.8,0,77.9-14.7,107.4-41.4c29.6-26.8,48-63.4,51.9-103.1C465.7,284.7,465.9,279.3,465.9,273.8L465.9,273.8z M463.1,289.9
		c-3.8,39.2-22.1,75.4-51.3,101.8c-29.1,26.4-66.8,40.9-106.1,40.9c-5.5,0-11-0.3-16.4-0.8c-42.2-4.3-80.2-24.7-107-57.5
		c-26.8-32.8-39.2-74.1-35-116.3c4.3-42.2,24.7-80.2,57.5-107c28.2-23.1,64-35.8,100.3-35.8c5.3,0,10.7,0.3,16,0.8
		c39.3,4,75.5,22.4,102,51.8c26.3,29.2,40.7,66.9,40.7,105.9h0C463.9,279.2,463.7,284.6,463.1,289.9z"/>
	<path class="st6" d="M320.1,126.7c-5-0.5-10-0.8-15-0.8c-39.5,0-76.7,15.5-104.6,43.4c-27.9,28-43.3,65.2-43.3,104.7
		c0,36.7,13.6,71.9,38.2,99.2c24.6,27.2,58.3,44.3,94.9,48c5.1,0.5,10.2,0.7,15.3,0.8c36.6,0,71.8-13.5,99-38.1
		c27.3-24.7,44.2-58.4,47.8-95h0C460.7,207.7,401.3,134.9,320.1,126.7z M450.5,288.6c-3.5,36.1-20.3,69.4-47.2,93.7
		c-26.8,24.3-61.5,37.6-97.6,37.6c-5,0-10.1-0.2-15.1-0.8c-36-3.6-69.3-20.4-93.6-47.3c-24.3-26.9-37.7-61.6-37.7-97.8
		c0-0.4,0-0.7,0-1.1c0.2-38.6,15.4-74.9,42.7-102.2c27.6-27.6,64.2-42.8,103.2-42.8c4.9,0,9.9,0.3,14.8,0.7
		c74.8,7.6,130.9,70.7,131.3,144.3C451.3,278.2,451,283.4,450.5,288.6z"/>
	<path class="st1" d="M210.7,254.8c9.1-44.9,48.5-77.3,94.4-77.4c6.5,0,13,0.7,19.3,1.9c25.1,5.1,47.1,19.9,61.3,41.2
		c10.7,16.1,15.9,34.3,16.1,52.3h14.5c-0.2-21.4-6.6-42.2-18.4-60.1c-33.9-51.2-102.8-65.2-154-31.4c-24.5,16.3-41.6,41.6-47.4,70.5
		c-1.4,7-2.1,14-2.2,20.9h14.5C208.8,266.8,209.5,260.8,210.7,254.8z"/>
	<path class="st1" d="M261.7,251.9c12.2-24.1,41.5-33.7,65.6-21.5c16.6,8.4,26.3,25,26.8,42.5h16.4c-0.5-24.1-14.2-46.1-35.8-57.1
		c-15.4-7.8-33.3-9.2-49.7-3.8c-27.1,8.9-44.4,33.8-44.8,60.8h16.4C256.6,265.7,258.4,258.5,261.7,251.9z"/>
	<path class="st5" d="M283.3,382.8c7.3,1.5,14.8,2.2,22.2,2.2c52.7-0.1,98.1-37.3,108.6-89c1.5-7.3,2.2-14.7,2.2-22.2
		c0-0.3,0-0.5,0-0.8c0,0,0-0.1,0-0.1h-14.5c0,0,0,0.1,0,0.1c0.3,31.6-14.9,62.6-43.1,81.4c-15.8,10.5-34.2,16-53.1,16.1
		c-53.3,0.1-96.6-43-96.8-96.3v0c0-0.4,0-0.8,0-1.2c0,0,0-0.1,0-0.1h-14.5c0,0,0,0.1,0,0.1C193.7,325.2,230.2,372.1,283.3,382.8z"/>
	<path class="st5" d="M305.2,339.1c36,0,65.2-29.1,65.3-65l0,0c0-0.4,0-0.7,0-1.1c0,0,0-0.1,0-0.1H354c0,0,0,0.1,0,0.1
		c0.2,7.7-1.5,15.6-5.2,23v0c-5.8,11.5-16,20.3-28.3,24.3c-25.6,8.4-53.2-5.5-61.6-31.1c-1.7-5.3-2.5-10.7-2.4-16.2c0,0,0-0.1,0-0.1
		h-16.4c0,0,0,0.1,0,0.1c-0.1,7,0.9,14.2,3.2,21.3C252.1,321,277,339.1,305.2,339.1z"/>
</g>
</svg>
