<svg xmlns="http://www.w3.org/2000/svg" width="600" height="720.768" viewBox="0 0 600 720.768">
  <g id="Group_4351" data-name="Group 4351" transform="translate(-1800.88 379.79) rotate(180)">
    <path id="Path_592" data-name="Path 592" d="M1136.12,3.956h132V-13.09h-132Z" transform="translate(-3537 -213.167)" fill="#7061f0"/>
    <path id="Path_593" data-name="Path 593" d="M1136.12-82.954h132V-100h-132Z" transform="translate(-3537 -240.978)" fill="rgba(255,255,255,0.99)"/>
    <path id="Path_594" data-name="Path 594" d="M1136.12-53.983h132V-71.031h-132Z" transform="translate(-3537 -231.708)" fill="#7061f0"/>
    <path id="Path_595" data-name="Path 595" d="M1136.12-25.014h132V-42.06h-132Z" transform="translate(-3537 -222.437)" fill="rgba(255,255,255,0.99)"/>
  </g>
  <g id="Group_4350" data-name="Group 4350" transform="translate(3426.971 530.978)">
    <path id="Path_572" data-name="Path 572" d="M17,17C17-5.6,69.166-50,84-50H-50c14.491,0,67,44.686,67,67" transform="translate(-3376.97 -480.978)" fill="#7061f0"/>
    <path id="Path_573" data-name="Path 573" d="M17,17C17-5.6,69.166-50,84-50H-50c14.492,0,67,44.686,67,67" transform="translate(-3376.971 -413.978)" fill="#fff"/>
  </g>
</svg>
