<?xml version="1.0" encoding="utf-8"?>
<!-- Generator: Adobe Illustrator 24.3.0, SVG Export Plug-In . SVG Version: 6.00 Build 0)  -->
<svg version="1.1" id="Layer_1" xmlns="http://www.w3.org/2000/svg" xmlns:xlink="http://www.w3.org/1999/xlink" x="0px" y="0px"
	 width="222.9px" height="214.2px" viewBox="0 0 222.9 214.2" style="enable-background:new 0 0 222.9 214.2;" xml:space="preserve"
	>
<style type="text/css">
	.st0{fill:#fff;}
</style>
<g id="Group_5276" transform="translate(1685 -2869)">
	<g id="Group_4431" transform="translate(-1685 2869)">
		<g id="Group_4430">
			<g id="Group_4401" transform="translate(70.628 78.293)">
				<path id="Path_954" class="st0" d="M82,0H51.2v1.9c10.9,2.9,14.5,14.6,14.5,27.2h1.9c0-12.6,3.5-24.4,14.5-27.2L82,0z"/>
				<path id="Path_955" class="st0" d="M44.2,64.8c-5.5,0-10.4-1.6-13.6-4.4c-7-6.2-6-16.3-6-28.8c0-1.5,0-2.9,0-4.3
					c0-15.6,0.8-21.9,11.2-25.2L36,1.9L36,0H0v1.9c11.5,3.9,12.2,10.6,12.2,25.4c0,1.6,0,3.2,0,5c0,4.2-0.2,13.1-0.2,14.6
					c0,16,11,26,28.7,26c19.1,0,26.8-11.9,26.8-30.5h-1.9C65.6,55.2,57.5,64.8,44.2,64.8z"/>
			</g>
			<g id="Group_4428">
				<g id="Group_4402" transform="translate(36.479 180.385)">
					<path id="Path_956" class="st0" d="M18.7,6.1L7.4,19.4l-5-4.3c-1.2-0.9-2-2.2-2.3-3.6c-0.2-1.2,0.2-2.4,1-3.3
						c0.6-0.8,1.5-1.3,2.4-1.4c0.9-0.1,1.7,0,2.5,0.4C5.6,6.6,5.3,6,5.1,5.4C5,4.7,5,4.1,5.2,3.4c0.2-0.7,0.5-1.3,0.9-1.8
						C6.6,1,7.4,0.5,8.2,0.2c0.8-0.3,1.7-0.3,2.6,0c1,0.3,2,0.8,2.8,1.6L18.7,6.1z M10.2,12L7.5,9.7c-0.6-0.6-1.4-0.9-2.2-1
						c-0.7,0-1.4,0.4-1.9,1c-0.5,0.5-0.7,1.3-0.7,2c0.2,0.8,0.6,1.6,1.3,2.1l2.7,2.3L10.2,12z M15.3,6.1l-2.9-2.5
						c-0.6-0.6-1.5-1-2.4-1c-0.8,0-1.6,0.4-2,1C7.4,4.2,7.2,5,7.3,5.8C7.5,6.7,8,7.5,8.7,8l2.9,2.4L15.3,6.1z"/>
				</g>
				<g id="Group_4403" transform="translate(23.615 168.325)">
					<path id="Path_957" class="st0" d="M20.5,8.4L7.3,19.9L0,11.5l1.6-1.4l5.6,6.4l4.1-3.6L6.2,7.1l1.6-1.4l5.1,5.8l4.3-3.7
						l-5.6-6.4L13.2,0L20.5,8.4z"/>
				</g>
				<g id="Group_4404" transform="translate(12.556 148.403)">
					<path id="Path_958" class="st0" d="M19.8,13.9L1.4,16.4L0,13.9L12.4,0l1.3,2.5l-3.1,3.3l3.4,6.3l4.5-0.7L19.8,13.9z M11.8,12.4
						l-2.7-5l-5.7,6.2L11.8,12.4z"/>
				</g>
				<g id="Group_4405" transform="translate(2.039 129.526)">
					<path id="Path_959" class="st0" d="M18.9,5.1c0.3,1.1,0.4,2.3,0.1,3.5c-0.2,1.1-0.8,2.1-1.6,2.9c-1,0.9-2.2,1.5-3.5,1.8L3.3,16
						l-0.7-2.6l10.6-2.7c1.2-0.2,2.3-0.9,3-1.9c0.5-1,0.6-2.1,0.3-3.1c-0.2-1.1-0.9-2-1.8-2.6c-1.1-0.6-2.4-0.6-3.5-0.2L0.7,5.6L0,3
						l10.6-2.7c1.3-0.4,2.7-0.4,4-0.1c1.1,0.3,2.1,0.9,2.8,1.8C18.1,2.9,18.6,4,18.9,5.1z"/>
				</g>
				<g id="Group_4406" transform="translate(0 111.559)">
					<path id="Path_960" class="st0" d="M18.5,14L1.1,15.4l-0.2-2.6L13.3,3L0.2,4L0,1.3L17.4,0l0.2,2.6L5.2,12.4l13.1-1L18.5,14z"/>
				</g>
				<g id="Group_4407" transform="translate(0.26 105.062)">
					<path id="Path_961" class="st0" d="M17.5,3.4L0,2.6L0.1,0l17.5,0.8L17.5,3.4z"/>
				</g>
				<g id="Group_4408" transform="translate(1.4 85.703)">
					<path id="Path_962" class="st0" d="M18,9.5c-0.2,1.6-0.9,3-1.9,4.2c-1,1.1-2.2,1.9-3.6,2.3c-1.6,0.5-3.2,0.5-4.8,0.2
						c-1.6-0.2-3.2-0.9-4.5-1.8c-1.2-0.9-2.1-2-2.7-3.4C0,9.6-0.2,8,0.1,6.4c0.2-1.8,1-3.4,2.3-4.7C3.7,0.6,5.3,0,7,0L6.5,2.9
						c-1,0-1.9,0.4-2.6,1.1C3.1,4.8,2.6,5.8,2.5,6.9C2.1,8.4,2.5,10,3.6,11.3c1.2,1.3,2.8,2.1,4.6,2.3c1.7,0.4,3.5,0.1,5.1-0.7
						c1.4-0.8,2.3-2.2,2.4-3.8c0.2-1.1,0.1-2.2-0.3-3.2c-0.4-0.9-1.2-1.5-2-1.9l0.5-2.9c1.6,0.5,2.8,1.7,3.6,3.1
						C18.1,5.9,18.4,7.7,18,9.5z"/>
				</g>
				<g id="Group_4409" transform="translate(6.479 66.125)">
					<path id="Path_963" class="st0" d="M17.6,12c-0.5,1.5-1.5,2.8-2.7,3.8c-1.2,0.9-2.6,1.5-4.1,1.7c-1.6,0.2-3.3,0-4.8-0.6
						c-1.5-0.5-2.9-1.5-4-2.7c-1-1.1-1.6-2.5-1.9-4C-0.1,8.7,0,7.1,0.6,5.6c0.5-1.5,1.5-2.8,2.7-3.8c1.2-0.9,2.6-1.5,4.1-1.7
						c1.6-0.2,3.3,0,4.8,0.7c1.5,0.5,2.9,1.5,4,2.7c1,1.1,1.7,2.5,1.9,4C18.3,9,18.2,10.6,17.6,12z M15.3,11.2
						c0.4-1,0.5-2.1,0.4-3.2c-0.2-1-0.7-2-1.4-2.8c-0.9-0.9-1.9-1.6-3.1-2c-1.1-0.5-2.4-0.7-3.6-0.6C6.6,2.8,5.6,3.2,4.7,3.8
						C3.9,4.5,3.2,5.4,2.9,6.5c-0.4,1-0.5,2.1-0.4,3.2c0.2,1,0.7,2,1.4,2.8c0.9,0.9,1.9,1.5,3.1,2c1.1,0.5,2.4,0.7,3.6,0.6
						c1.1-0.1,2.1-0.5,2.9-1.1C14.3,13.2,15,12.2,15.3,11.2L15.3,11.2z"/>
				</g>
				<g id="Group_4410" transform="translate(13.063 50.57)">
					<path id="Path_964" class="st0" d="M15,17.5l-15-9l3.1-5.2c0.6-1,1.4-1.9,2.4-2.6C6.2,0.2,7.2,0,8.1,0C9,0,9.9,0.3,10.7,0.8
						c0.9,0.5,1.6,1.3,2.1,2.3c0.5,1,0.6,2.2,0.2,3.3L21.3,7l-1.6,2.6l-7.8-0.7l-1.6,2.7l6,3.6L15,17.5z M8.6,10.5l1.7-2.8
						C10.8,7,11,6,10.9,5.1c-0.2-0.8-0.8-1.5-1.5-1.9C8.7,2.7,7.8,2.6,7,2.7C6.1,3,5.3,3.7,4.9,4.6L3.3,7.3L8.6,10.5z"/>
				</g>
				<g id="Group_4411" transform="translate(22.379 33.602)">
					<path id="Path_965" class="st0" d="M13.3,22.1L0,10.7l1.7-2l15.7,1.9L7.4,2l1.7-2l13.3,11.4l-1.7,2L5,11.5l10,8.6L13.3,22.1z"
						/>
				</g>
				<g id="Group_4412" transform="translate(40.744 23.751)">
					<path id="Path_966" class="st0" d="M11,15.3L0,1.7L2.1,0l11,13.6L11,15.3z"/>
				</g>
				<g id="Group_4413" transform="translate(46.841 13.048)">
					<path id="Path_967" class="st0" d="M9.2,22.3L0,7.4L2.2,6l14.4,6.6l-7-11.2L11.9,0l9.2,14.9l-2.2,1.4L4.5,9.7l7,11.2L9.2,22.3z
						"/>
				</g>
				<g id="Group_4414" transform="translate(75.029 5.017)">
					<path id="Path_968" class="st0" d="M0,19.5L0.7,0.9L3.5,0L15,14.7l-2.7,0.9l-2.7-3.6l-6.8,2.2l-0.1,4.5L0,19.5z M2.8,11.9
						l5.4-1.7L3.1,3.4L2.8,11.9z"/>
				</g>
				<g id="Group_4415" transform="translate(96.138)">
					<path id="Path_969" class="st0" d="M1.6,18.4L0,1l10.9-1l0.2,2.1L2.8,2.9l0.5,5.5l6.9-0.6l0.2,2.1l-6.9,0.6l0.7,7.7L1.6,18.4z"
						/>
				</g>
				<g id="Group_4416" transform="translate(110.858 0.058)">
					<path id="Path_970" class="st0" d="M0,17.5L0.3,0l2.6,0L2.6,17.5L0,17.5z"/>
				</g>
				<g id="Group_4417" transform="translate(116.637 0.173)">
					<path id="Path_971" class="st0" d="M0,17.4L1.9,0l11,1.2l-0.2,2.1L4.3,2.4L3.7,7.8l7.7,0.9l-0.2,2.1L3.5,9.9l-0.6,5.6l8.4,0.9
						l-0.2,2.1L0,17.4z"/>
				</g>
				<g id="Group_4418" transform="translate(130.199 2.381)">
					<path id="Path_972" class="st0" d="M0,16.9L4.4,0l2.6,0.7L3.1,15.6l7.7,2l-0.5,2L0,16.9z"/>
				</g>
				<g id="Group_4419" transform="translate(142.597 6.573)">
					<path id="Path_973" class="st0" d="M0,16L7,0l5.2,2.3c1.6,0.6,3.1,1.7,4.2,3c0.9,1.1,1.4,2.5,1.5,4c0,1.6-0.3,3.2-1,4.7
						c-0.6,1.5-1.5,2.8-2.7,3.9c-1.1,0.9-2.5,1.5-3.9,1.6c-1.7,0.1-3.5-0.3-5.1-1.1L0,16z M3.3,15L6,16.2c1.2,0.6,2.5,0.9,3.8,0.8
						c1-0.1,2-0.5,2.7-1.2c0.8-0.8,1.5-1.8,2-2.9c0.5-1.1,0.8-2.3,0.8-3.5c0-1-0.3-2-0.9-2.9c-0.8-1-1.9-1.8-3.1-2.2L8.6,3.1L3.3,15
						z"/>
				</g>
				<g id="Group_4420" transform="translate(165.862 21.729)">
					<path id="Path_974" class="st0" d="M3.4,16.2c-1.3-1-2.3-2.2-2.9-3.7C0,11.1-0.1,9.6,0.1,8.1c0.3-1.6,1-3.1,2.1-4.4
						c1-1.3,2.3-2.3,3.8-3c1.4-0.6,2.9-0.8,4.4-0.6C11.9,0.3,13.4,1,14.6,2c1.3,1,2.3,2.2,2.9,3.7c0.5,1.4,0.7,2.9,0.4,4.4
						c-0.3,1.6-1,3.1-2.1,4.4c-1,1.3-2.3,2.3-3.8,3c-1.4,0.6-2.9,0.8-4.4,0.6C6.1,17.9,4.6,17.2,3.4,16.2z M4.9,14.3
						c0.8,0.7,1.9,1.2,3,1.3c1,0.1,2.1,0,3.1-0.5c1.1-0.6,2.1-1.4,2.8-2.3c0.8-0.9,1.3-2.1,1.6-3.3c0.2-1,0.2-2.1-0.2-3.1
						c-0.4-1-1.1-1.9-2-2.6c-0.8-0.7-1.9-1.2-3-1.3c-1-0.1-2.1,0-3.1,0.5C6,3.6,5.1,4.4,4.3,5.4C3.5,6.3,3,7.5,2.7,8.7
						c-0.2,1-0.2,2.1,0.2,3.1C3.3,12.8,4,13.7,4.9,14.3L4.9,14.3z"/>
				</g>
				<g id="Group_4421" transform="translate(177.681 33.096)">
					<path id="Path_975" class="st0" d="M0,11.7L13,0l7.4,8.1l-1.6,1.4l-5.6-6.2L9.1,7.1l4.6,5.1l-1.6,1.4L7.5,8.5l-5.7,5.2L0,11.7z
						"/>
				</g>
				<g id="Group_4422" transform="translate(189.812 50.868)">
					<path id="Path_976" class="st0" d="M0,8.6L15.2,0l1.3,2.3L10,6l4.1,7.4l6.5-3.7L22,12L6.7,20.6l-1.3-2.3l6.8-3.8L8.1,7.1
						l-6.8,3.8L0,8.6z"/>
				</g>
				<g id="Group_4423" transform="translate(199.531 69.977)">
					<path id="Path_977" class="st0" d="M0.5,11.7C0,10.2-0.1,8.6,0.2,7c0.3-1.5,1-2.8,2.1-3.9c1.1-1.2,2.6-2,4.1-2.5
						C7.9,0,9.5-0.1,11.2,0.1C12.6,0.4,14,1,15.1,2c1.2,1.1,2.1,2.4,2.5,3.9c0.5,1.5,0.7,3.1,0.4,4.7c-0.3,1.5-1,2.8-2.1,3.9
						c-1.1,1.2-2.6,2-4.1,2.5c-1.5,0.6-3.2,0.7-4.8,0.5c-1.5-0.2-2.9-0.9-4-1.9C1.9,14.6,1,13.2,0.5,11.7z M2.8,10.9
						c0.3,1.1,0.9,2,1.8,2.7c0.8,0.7,1.8,1.1,2.8,1.2c1.2,0.1,2.5,0,3.6-0.4c1.2-0.4,2.3-1,3.2-1.8c0.8-0.7,1.3-1.7,1.5-2.7
						c0.2-1.1,0.1-2.2-0.2-3.2c-0.3-1.1-0.9-2-1.8-2.7c-0.8-0.7-1.8-1.1-2.8-1.2c-1.2-0.1-2.5,0-3.6,0.4C6,3.5,4.9,4.1,4,5
						C3.3,5.7,2.7,6.7,2.5,7.7C2.3,8.8,2.4,9.9,2.8,10.9L2.8,10.9z"/>
				</g>
				<g id="Group_4424" transform="translate(203.358 89.56)">
					<path id="Path_978" class="st0" d="M0,2.5L17.3,0l0.9,6c0.2,1.2,0.1,2.3-0.2,3.5c-0.3,0.9-0.8,1.7-1.6,2.2
						c-0.7,0.5-1.6,0.9-2.5,1c-1,0.2-2.1,0-3-0.4c-1-0.5-1.8-1.3-2.3-2.4l-6.8,4.7l-0.4-3l6.5-4.4L7.4,4.1l-7,1L0,2.5z M9.3,3.8
						L9.8,7c0.1,1,0.5,1.9,1.2,2.5c0.7,0.5,1.5,0.7,2.4,0.5c0.8-0.1,1.6-0.5,2.1-1.1C16,8,16.2,7,15.9,6.1l-0.5-3.2L9.3,3.8z"/>
				</g>
				<g id="Group_4425" transform="translate(204.842 105.859)">
					<path id="Path_979" class="st0" d="M0,6.4C0,5.2,0.2,4.1,0.7,3c0.4-0.9,1.1-1.7,2-2.2C3.6,0.2,4.6,0,5.7,0l0,2.8
						c-0.9,0-1.7,0.3-2.4,0.9c-0.7,0.7-1.1,1.7-1,2.7C2.2,7.3,2.4,8.1,2.9,8.8c0.5,0.6,1.1,0.9,1.9,0.9c0.5,0,1.1-0.1,1.5-0.4
						C6.7,9,7,8.6,7.3,8.2C7.5,7.7,7.8,7.1,8,6.6C8.2,6,8.4,5.3,8.6,4.6c0.3-1.1,1-2.2,1.8-3c0.8-0.7,1.8-1,2.8-1
						c0.9,0,1.8,0.2,2.6,0.7c0.7,0.5,1.3,1.2,1.7,2c0.4,1,0.6,2,0.6,3c0,1-0.2,2-0.7,3c-0.4,0.8-1,1.5-1.8,2
						c-0.8,0.5-1.7,0.7-2.6,0.7l0-2.8c0.5,0,0.9-0.1,1.3-0.3c0.4-0.2,0.8-0.6,1-1c0.3-0.5,0.4-1.1,0.4-1.6c0.1-0.7-0.2-1.5-0.6-2.1
						c-0.4-0.6-1.1-0.9-1.8-0.8c-0.6,0-1.2,0.2-1.6,0.6c-0.4,0.5-0.7,1-0.9,1.6c-0.3,0.7-0.5,1.5-0.9,2.4C9.8,8.8,9.4,9.6,9,10.3
						c-0.4,0.7-0.9,1.2-1.6,1.6c-0.8,0.4-1.6,0.6-2.5,0.6c-0.9,0-1.7-0.3-2.5-0.7c-0.8-0.5-1.4-1.2-1.8-2.1C0.2,8.7-0.1,7.5,0,6.4z"
						/>
				</g>
				<g id="Group_4426" transform="translate(203.118 120.629)">
					<path id="Path_980" class="st0" d="M1.7,0L19,2.7l-1.7,11l-2.1-0.3L16.5,5l-5.4-0.8l-1.2,7.6l-2.1-0.3L9,3.8L3.4,3l-1.3,8.4
						L0,11L1.7,0z"/>
				</g>
				<g id="Group_4427" transform="translate(200.119 134.686)">
					<path id="Path_981" class="st0" d="M0.4,4.8c0.3-1.1,0.9-2.1,1.7-3C2.7,1,3.6,0.5,4.6,0.2c1-0.3,2.1-0.2,3.1,0.1L6.8,2.9
						C6,2.7,5,2.8,4.3,3.2C3.4,3.6,2.8,4.5,2.5,5.4c-0.3,0.8-0.3,1.7,0,2.5c0.3,0.7,0.8,1.2,1.5,1.4c0.5,0.2,1,0.2,1.6,0.1
						c0.5-0.2,0.9-0.4,1.2-0.8C7.3,8.2,7.6,7.7,8,7.2c0.4-0.5,0.8-1.1,1.2-1.7c0.7-1,1.5-1.8,2.6-2.4c0.9-0.4,2-0.5,3-0.1
						c0.9,0.2,1.7,0.7,2.2,1.4c0.6,0.7,0.9,1.5,1,2.4c0.1,1,0,2.1-0.3,3.1c-0.3,1-0.8,1.9-1.5,2.7c-0.6,0.7-1.4,1.2-2.3,1.4
						c-0.9,0.2-1.8,0.2-2.7-0.1l0.8-2.7c0.4,0.1,0.9,0.2,1.3,0.1c0.5-0.1,0.9-0.3,1.3-0.7c0.4-0.4,0.7-0.9,0.9-1.5
						c0.3-0.7,0.3-1.5,0-2.2c-0.3-0.6-0.8-1.1-1.5-1.3c-0.5-0.2-1.2-0.2-1.7,0.1c-0.5,0.3-1,0.8-1.4,1.3c-0.4,0.6-0.9,1.3-1.5,2
						c-0.5,0.7-1,1.3-1.7,1.9c-0.6,0.5-1.2,0.9-2,1.1c-0.8,0.2-1.7,0.1-2.5-0.2c-0.8-0.3-1.6-0.7-2.1-1.4c-0.6-0.7-1-1.6-1.2-2.5
						C-0.1,7,0,5.9,0.4,4.8z"/>
				</g>
			</g>
			<g id="Group_4429" transform="translate(54.279 153.94)">
				<path id="Path_982" class="st0" d="M57.1,60.3c-20.3,0-40.2-6-57.1-17.3l1.2-1.7c16.6,11.1,36.1,17,56,17
					c39.2-0.1,74.8-22.8,91.4-58.2l1.9,0.9C133.5,37.1,97.1,60.2,57.1,60.3z"/>
			</g>
		</g>
	</g>
</g>
</svg>
