<?xml version="1.0" encoding="utf-8"?>
<!-- Generator: Adobe Illustrator 24.3.0, SVG Export Plug-In . SVG Version: 6.00 Build 0)  -->
<svg version="1.1" id="Layer_1" xmlns="http://www.w3.org/2000/svg" xmlns:xlink="http://www.w3.org/1999/xlink" x="0px" y="0px"
	 width="551px" height="627px" viewBox="0 0 551 627" style="enable-background:new 0 0 551 627;" xml:space="preserve">
<style type="text/css">
	.st0{fill:#1B2F53;}
	.st1{clip-path:url(#SVGID_2_);}
	.st2{fill:#FFFFFF;}
	.st3{clip-path:url(#SVGID_4_);}
	.st4{fill:none;stroke:#9987FF;stroke-width:3.066;}
	.st5{fill:none;stroke:#1F2F50;stroke-width:4.361;}
	.st6{fill:none;stroke:#1F2F50;stroke-width:5.656;}
	.st7{fill:none;stroke:#1F2F50;stroke-width:6.951;}
	.st8{fill:none;stroke:#1F2F50;stroke-width:8.245;}
	.st9{fill:none;stroke:#1F2F50;stroke-width:9.54;}
	.st10{fill:none;stroke:#1F2F50;stroke-width:10.835;}
	.st11{fill:none;stroke:#1F2F50;stroke-width:12.129;}
	.st12{fill:none;stroke:#1F2F50;stroke-width:13.424;}
	.st13{fill:none;stroke:#1F2F50;stroke-width:14.719;}
	.st14{fill:none;stroke:#1F2F50;stroke-width:16.013;}
	.st15{fill:none;stroke:#1F2F50;stroke-width:17.308;}
	.st16{fill:none;stroke:#1F2F50;stroke-width:18.603;}
	.st17{fill:none;stroke:#1F2F50;stroke-width:19.898;}
	.st18{fill:none;stroke:#1F2F50;stroke-width:21.192;}
	.st19{fill:none;stroke:#1F2F50;stroke-width:22.487;}
	.st20{fill:none;stroke:#1F2F50;stroke-width:23.782;}
	.st21{clip-path:url(#SVGID_6_);}
	.st22{fill:none;stroke:#1F2F50;stroke-width:1.772;}
	.st23{clip-path:url(#SVGID_8_);}
	.st24{fill:#AEB6C9;}
	.st25{fill:#F7C7FF;}
	.st26{fill:#FFF8E8;}
	.st27{fill:#C5CAD3;}
	.st28{fill:#7061F0;}
</style>
<g id="Group_5899" transform="translate(-671 -749)">
	<g id="Group_5787" transform="translate(671 1376.072)">
		<path id="Path_1466" class="st0" d="M0,0.4h551v-627H0V0.4z"/>
		<g>
			<defs>
				<rect id="SVGID_1_" y="-626.7" width="551" height="627.1"/>
			</defs>
			<clipPath id="SVGID_2_">
				<use xlink:href="#SVGID_1_"  style="overflow:visible;"/>
			</clipPath>
			<g id="Group_5741" class="st1">
				<g id="Group_5740" transform="translate(156.307 -601.177)">
					<path id="Path_1467" class="st2" d="M0,0.4c159,0,287.9,128.9,287.9,287.9S159,576.2,0,576.2"/>
				</g>
			</g>
		</g>
		<g>
			<defs>
				<path id="SVGID_3_" d="M156.3-25c159,0,287.9-128.9,287.9-287.9l0,0c0-159-128.9-287.9-287.9-287.9l0,0V-25z"/>
			</defs>
			<clipPath id="SVGID_4_">
				<use xlink:href="#SVGID_3_"  style="overflow:visible;"/>
			</clipPath>
			<g id="Group_5759" class="st3">
				<g id="Group_5742" transform="translate(-182.091 -604.921)">
					<path id="Path_1469" class="st4" d="M0,0.4h672.5"/>
				</g>
				<g id="Group_5743" transform="translate(-182.091 -568.565)">
					<path id="Path_1470" class="st5" d="M0,0.4h672.5"/>
				</g>
				<g id="Group_5744" transform="translate(-182.091 -532.208)">
					<path id="Path_1471" class="st6" d="M0,0.4h672.5"/>
				</g>
				<g id="Group_5745" transform="translate(-182.091 -495.851)">
					<path id="Path_1472" class="st7" d="M0,0.4h672.5"/>
				</g>
				<g id="Group_5746" transform="translate(-182.091 -459.495)">
					<path id="Path_1473" class="st8" d="M0,0.4h672.5"/>
				</g>
				<g id="Group_5747" transform="translate(-182.091 -423.138)">
					<path id="Path_1474" class="st9" d="M0,0.4h672.5"/>
				</g>
				<g id="Group_5748" transform="translate(-182.091 -386.782)">
					<path id="Path_1475" class="st10" d="M0,0.4h672.5"/>
				</g>
				<g id="Group_5749" transform="translate(-182.091 -350.425)">
					<path id="Path_1476" class="st11" d="M0,0.4h672.5"/>
				</g>
				<g id="Group_5750" transform="translate(-182.091 -314.067)">
					<path id="Path_1477" class="st12" d="M0,0.4h672.5"/>
				</g>
				<g id="Group_5751" transform="translate(-182.091 -277.711)">
					<path id="Path_1478" class="st13" d="M0,0.4h672.5"/>
				</g>
				<g id="Group_5752" transform="translate(-182.091 -241.355)">
					<path id="Path_1479" class="st14" d="M0,0.4h672.5"/>
				</g>
				<g id="Group_5753" transform="translate(-182.091 -204.998)">
					<path id="Path_1480" class="st15" d="M0,0.4h672.5"/>
				</g>
				<g id="Group_5754" transform="translate(-182.091 -168.641)">
					<path id="Path_1481" class="st16" d="M0,0.4h672.5"/>
				</g>
				<g id="Group_5755" transform="translate(-182.091 -132.284)">
					<path id="Path_1482" class="st17" d="M0,0.4h672.5"/>
				</g>
				<g id="Group_5756" transform="translate(-182.091 -95.928)">
					<path id="Path_1483" class="st18" d="M0,0.4h672.5"/>
				</g>
				<g id="Group_5757" transform="translate(-182.091 -59.571)">
					<path id="Path_1484" class="st19" d="M0,0.4h672.5"/>
				</g>
				<g id="Group_5758" transform="translate(-182.091 -23.214)">
					<path id="Path_1485" class="st20" d="M0,0.4h672.5"/>
				</g>
			</g>
		</g>
		<g>
			<defs>
				<rect id="SVGID_5_" y="-626.7" width="551" height="627.1"/>
			</defs>
			<clipPath id="SVGID_6_">
				<use xlink:href="#SVGID_5_"  style="overflow:visible;"/>
			</clipPath>
			<g id="Group_5761" class="st21">
				<g id="Group_5760" transform="translate(156.307 -601.177)">
					<path id="Path_1487" class="st22" d="M0,0.4c159,0,287.9,128.9,287.9,287.9S159,576.2,0,576.2"/>
				</g>
			</g>
		</g>
		<path id="Path_1489" class="st0" d="M0,0.4h156.6v-627.1H0V0.4z"/>
		<g>
			<defs>
				<rect id="SVGID_7_" y="-626.7" width="551" height="627.1"/>
			</defs>
			<clipPath id="SVGID_8_">
				<use xlink:href="#SVGID_7_"  style="overflow:visible;"/>
			</clipPath>
			<g id="Group_5774" class="st23">
				<g id="Group_5762" transform="translate(103.624 -18.749)">
					<path id="Path_1490" class="st24" d="M0,0.4c7.7-3.3,14.7-8,20.6-13.9c5.9-5.9,10.7-12.9,13.9-20.6c3.4-8,5.1-16.6,5.1-25.3
						c0-8.7-1.7-17.3-5.1-25.3c-3.3-7.7-8-14.7-13.9-20.6C14.7-111.3,7.7-116,0-119.3c-8-3.4-16.6-5.1-25.3-5.1
						c-8.7,0-17.3,1.7-25.3,5.1c-7.7,3.3-14.7,8-20.6,13.9c-5.9,5.9-10.7,12.9-13.9,20.6c-3.4,8-5.1,16.6-5.1,25.3
						c0,8.7,1.7,17.3,5.1,25.3c3.3,7.7,8,14.7,13.9,20.6c5.9,5.9,12.9,10.7,20.6,13.9c8,3.4,16.6,5.1,25.3,5.1
						C-16.6,5.5-8,3.7,0,0.4 M-89.4-59.4c0-35.4,28.7-64.1,64.2-64.2c35.4,0,64.1,28.7,64.2,64.2C38.9-24,10.2,4.7-25.3,4.7
						C-60.7,4.7-89.4-24-89.4-59.4"/>
				</g>
				<g id="Group_5763" transform="translate(78.359 -13.258)">
					<path id="Path_1491" class="st25" d="M0,0.4c-8.7,0-17.4-1.7-25.4-5.1c-7.8-3.3-14.8-8-20.8-14c-6-5.9-10.7-13-14-20.8
						c-3.4-8-5.1-16.7-5.1-25.4c0-8.7,1.7-17.4,5.1-25.4c3.3-7.8,8-14.8,14-20.8c5.9-6,13-10.7,20.8-14c8-3.4,16.7-5.1,25.4-5.1
						c8.7,0,17.4,1.7,25.4,5.1c7.8,3.3,14.8,8,20.8,14c6,5.9,10.7,13,14,20.8c3.4,8,5.1,16.7,5.1,25.4c0,8.7-1.7,17.4-5.1,25.4
						c-3.3,7.8-8,14.8-14,20.8c-5.9,6-13,10.7-20.8,14C17.4-1.4,8.7,0.4,0,0.4 M0-128.7c-35.2,0-63.7,28.6-63.8,63.8
						C-63.7-29.7-35.2-1.2,0-1.2c35.2,0,63.7-28.6,63.8-63.8C63.7-100.1,35.2-128.7,0-128.7"/>
				</g>
				<g id="Group_5764" transform="translate(115.876 -39.492)">
					<path id="Path_1492" class="st24" d="M0,0.4c10.4-9.9,16.4-23.6,16.6-38C17-52,11.5-65.9,1.5-76.2c-9.9-10.4-23.6-16.4-38-16.6
						c-14.4-0.3-28.3,5.1-38.6,15.1c-10.4,9.9-16.4,23.6-16.6,38c0,0.4,0,0.7,0,1.1c0,14,5.4,27.4,15.1,37.5
						c9.9,10.4,23.6,16.4,38,16.6C-24.2,15.8-10.3,10.3,0,0.4 M-38.6,14.7c-14.2-0.2-27.7-6.2-37.5-16.4
						c-9.8-10.2-15.2-23.9-14.9-38.1c0.6-29.5,25-52.9,54.5-52.3C-22.3-91.9-8.8-86,1-75.7c9.6,9.9,14.9,23.2,14.9,37
						c0,0.4,0,0.7,0,1.1C15.3-8.1-9.1,15.3-38.6,14.7"/>
				</g>
				<g id="Group_5765" transform="translate(78.387 -23.809)">
					<path id="Path_1493" class="st25" d="M0,0.4c-0.4,0-0.8,0-1.1,0C-15.7,0.1-29.5-6-39.5-16.5c-9.8-10.2-15.3-23.8-15.3-37.9
						c0-0.4,0-0.8,0-1.1C-54.5-70-48.5-83.8-38-93.9c10.5-10.1,24.5-15.6,39-15.2c14.5,0.3,28.3,6.3,38.4,16.8
						c10.1,10.5,15.6,24.5,15.2,39c-0.3,14.5-6.3,28.3-16.8,38.4C27.7-5.1,14.1,0.4,0,0.4 M-1.1-1.6C28.1-1,52.2-24.1,52.8-53.3
						c0-0.4,0-0.7,0-1.1c0-13.6-5.3-26.8-14.7-36.6c-9.7-10.1-23-16-37-16.2c-0.4,0-0.7,0-1.1,0c-28.7,0-52.2,23-52.8,51.8
						c-0.3,14,5,27.6,14.7,37.7C-28.5-7.6-15.1-1.8-1.1-1.6"/>
				</g>
				<g id="Group_5766" transform="translate(121.753 -76.364)">
					<path id="Path_1494" class="st24" d="M0,0.4C0.6-11.2-3.4-22.4-11.2-31c-7.7-8.6-18.5-13.7-30-14.3
						c-11.5-0.6-22.8,3.4-31.3,11.2c-8.6,7.7-13.7,18.5-14.3,30c0,0.8-0.1,1.5-0.1,2.2c0,10.8,4,21.1,11.2,29.1
						c7.7,8.6,18.5,13.7,30,14.3c11.5,0.6,22.8-3.4,31.3-11.2C-5.7,22.7-0.6,11.9,0,0.4 M-45.6,40.8c-11.3-0.5-22-5.6-29.5-14
						c-7.6-8.4-11.6-19.5-11-30.8c1.2-23.5,21.3-41.7,44.8-40.5C-18.5-43.3-0.7-24.6-0.7-1.9c0,0.7,0,1.5-0.1,2.2
						c-0.5,11.3-5.6,22-14,29.5C-23.1,37.5-34.2,41.4-45.6,40.8"/>
				</g>
				<g id="Group_5767" transform="translate(78.41 -34.326)">
					<path id="Path_1495" class="st25" d="M0,0.4c-0.8,0-1.5,0-2.3-0.1C-14-0.3-25-5.5-32.9-14.2c-7.3-8.1-11.4-18.7-11.4-29.6
						c0-0.8,0-1.5,0.1-2.3c0.6-11.7,5.8-22.7,14.5-30.6C-21-84.6-9.5-88.7,2.2-88c11.7,0.6,22.7,5.8,30.6,14.5
						c7.9,8.7,12,20.2,11.4,31.9c-0.6,11.7-5.8,22.7-14.5,30.6C21.5-3.7,10.9,0.4,0,0.4 M-2.2-2c11.1,0.6,22-3.3,30.2-10.8
						c8.3-7.4,13.2-17.9,13.8-29c0-0.7,0.1-1.4,0.1-2.1c0-22.3-17.5-40.7-39.8-41.9C-9-86.3-19.9-82.5-28.2-75
						c-8.3,7.4-13.2,17.9-13.8,29c-0.6,11.1,3.3,22,10.8,30.2C-23.7-7.5-13.3-2.5-2.2-2L-2.2-2z"/>
				</g>
				<g id="Group_5768" transform="translate(110.995 -75.258)">
					<path id="Path_1496" class="st24" d="M0,0.4c0.9-8.7-1.7-17.3-7.2-24c-5.5-6.8-13.4-11-22.1-11.9c-8.7-0.9-17.3,1.7-24,7.2
						c-6.8,5.5-11,13.4-11.9,22.1c-0.1,1.1-0.2,2.2-0.2,3.3c0,16.8,12.8,30.9,29.5,32.6C-17.9,31.5-1.8,18.4,0,0.4 M-35.9,29
						c-16.4-1.7-28.8-15.4-28.8-31.9c0-1.1,0.1-2.2,0.2-3.3c0.8-8.5,5-16.3,11.6-21.6c6.6-5.4,15-7.9,23.5-7.1
						C-13.1-33.2-0.6-19.4-0.6-3c0,1.1-0.1,2.2-0.2,3.2c-0.8,8.5-5,16.3-11.6,21.6C-18.9,27.3-27.4,29.8-35.9,29"/>
				</g>
				<g id="Group_5769" transform="translate(78.383 -44.779)">
					<path id="Path_1497" class="st25" d="M0,0.4c-1.1,0-2.3-0.1-3.4-0.2C-20.7-1.5-33.8-16-33.8-33.4c0-1.1,0.1-2.3,0.2-3.4
						c0.9-8.9,5.3-17.1,12.2-22.8c6.9-5.7,15.8-8.4,24.8-7.4c8.9,0.9,17.1,5.3,22.8,12.2c5.7,6.9,8.4,15.8,7.4,24.8
						C31.8-12.8,17.3,0.3,0,0.4 M-3.2-2.5c8.2,0.9,16.4-1.6,22.8-6.8c6.4-5.2,10.5-12.7,11.3-21c0.1-1,0.2-2.1,0.2-3.2
						c0-16-12.1-29.4-28-30.9c-8.2-0.9-16.4,1.6-22.8,6.8c-6.4,5.2-10.5,12.7-11.3,21c-0.1,1-0.2,2.1-0.2,3.2
						C-31.2-17.4-19-4-3.2-2.5z"/>
				</g>
				<g id="Group_5770" transform="translate(100.233 -74.134)">
					<path id="Path_1498" class="st24" d="M0,0.4c1.2-5.8,0-11.8-3.3-16.8c-3.3-4.9-8.4-8.4-14.2-9.5c-5.8-1.2-11.8,0-16.8,3.3
						c-4.9,3.3-8.4,8.4-9.5,14.2C-44-7-44.2-5.5-44.2-4c0,4.4,1.3,8.7,3.7,12.3c3.3,4.9,8.4,8.4,14.2,9.5C-14.2,20.2-2.5,12.4,0,0.4
						 M-26.2,17.1c-5.6-1.1-10.6-4.4-13.7-9.2C-43,3.1-44.2-2.7-43-8.3c1.1-5.6,4.4-10.5,9.2-13.7c4.8-3.2,10.6-4.3,16.2-3.2
						C-12-24.1-7-20.8-3.9-16c2.3,3.5,3.6,7.7,3.6,11.9c0,1.5-0.1,2.9-0.4,4.3C-3.1,11.9-14.5,19.4-26.2,17.1"/>
				</g>
				<g id="Group_5771" transform="translate(78.365 -55.07)">
					<path id="Path_1499" class="st25" d="M0,0.4c-1.6,0-3.1-0.2-4.7-0.5c-6.1-1.2-11.5-4.8-14.9-10c-2.6-3.8-3.9-8.3-3.9-12.9
						c0-1.6,0.2-3.2,0.5-4.7c1.2-6.1,4.8-11.5,10-14.9c5.2-3.5,11.5-4.7,17.6-3.5c6.1,1.2,11.5,4.8,14.9,10
						c3.5,5.2,4.7,11.5,3.5,17.6l0,0C20.8-7.5,11.2,0.3,0,0.4 M-4.1-3.1c5.3,1.1,10.8,0,15.3-3c4.5-3,7.7-7.6,8.7-13
						c0.3-1.3,0.4-2.7,0.4-4.1c0-4-1.2-7.9-3.4-11.2c-3-4.5-7.6-7.7-13-8.7c-5.3-1.1-10.8,0-15.3,3c-4.5,3-7.7,7.6-8.7,13
						c-1.1,5.3,0,10.8,3,15.3C-14-7.3-9.4-4.2-4.1-3.1L-4.1-3.1z"/>
				</g>
				<g id="Group_5772" transform="translate(89.443 -72.953)">
					<path id="Path_1500" class="st24" d="M0,0.4c3.1-6.1,0.6-13.6-5.5-16.7c-2.9-1.5-6.4-1.8-9.5-0.7c-3.1,1-5.7,3.3-7.2,6.2
						c-0.9,1.7-1.3,3.6-1.3,5.6c0,4.7,2.6,9,6.8,11.1C-10.6,8.9-3.1,6.5,0,0.4 M-16.4,5.2c-5.8-2.9-8.1-9.9-5.2-15.7
						c1.4-2.8,3.8-4.9,6.8-5.8c2.9-1,6.2-0.7,8.9,0.7c3.9,2,6.4,6,6.4,10.4c0,1.8-0.4,3.6-1.3,5.3C-3.6,5.8-10.6,8.1-16.4,5.2"/>
				</g>
				<g id="Group_5773" transform="translate(78.334 -64.77)">
					<path id="Path_1501" class="st25" d="M0,0.4c-2.2,0-4.3-0.5-6.2-1.5c-4.7-2.3-7.6-7.1-7.6-12.3c0-2.2,0.5-4.3,1.5-6.2
						c1.6-3.3,4.5-5.7,8-6.9c3.5-1.1,7.3-0.9,10.5,0.8C13-22.3,15.7-14,12.3-7.2c-1.6,3.3-4.5,5.7-8,6.9C2.9,0.1,1.5,0.4,0,0.4
						 M-4.6-4.2C0.5-1.6,6.7-3.7,9.2-8.8c0.7-1.4,1.1-3,1.1-4.6c0-3.9-2.2-7.5-5.7-9.2c-2.4-1.2-5.3-1.5-7.9-0.6
						c-2.6,0.8-4.8,2.7-6,5.1C-11.8-13-9.7-6.8-4.6-4.2"/>
				</g>
			</g>
		</g>
		<path id="Path_1503" class="st2" d="M156.7-320.4h-1.1V-159h1.1V-320.4z"/>
		<g id="Group_5775" transform="translate(144.727 -159.359)">
			<path id="Path_1504" class="st2" d="M0,0.4v-161.4h-1.1V0.4H0z"/>
		</g>
		<g id="Group_5776" transform="translate(132.738 -159.359)">
			<path id="Path_1505" class="st2" d="M0,0.4v-161.4h-1.6V0.4H0z"/>
		</g>
		<g id="Group_5777" transform="translate(120.289 -159.359)">
			<path id="Path_1506" class="st2" d="M0,0.4v-161.4h-1.6V0.4H0z"/>
		</g>
		<g id="Group_5778" transform="translate(107.84 -159.36)">
			<path id="Path_1507" class="st2" d="M0,0.4v-161.4h-2.8V0.4H0z"/>
		</g>
		<g id="Group_5779" transform="translate(94.224 -159.36)">
			<path id="Path_1508" class="st2" d="M0,0.4v-161.4h-2.8V0.4H0z"/>
		</g>
		<g id="Group_5780" transform="translate(80.608 -159.36)">
			<path id="Path_1509" class="st2" d="M0,0.4v-161.4h-3.2V0.4H0z"/>
		</g>
		<g id="Group_5781" transform="translate(66.532 -159.36)">
			<path id="Path_1510" class="st2" d="M0,0.4v-161.4h-3.2V0.4H0z"/>
		</g>
		<g id="Group_5782" transform="translate(52.455 -159.36)">
			<path id="Path_1511" class="st2" d="M0,0.4v-161.4h-4.4V0.4H0z"/>
		</g>
		<g id="Group_5783" transform="translate(37.211 -159.36)">
			<path id="Path_1512" class="st2" d="M0,0.4v-161.4h-4.4V0.4H0z"/>
		</g>
		<g id="Group_5784" transform="translate(21.968 -159.359)">
			<path id="Path_1513" class="st2" d="M0,0.4v-161.4h-5.6V0.4H0z"/>
		</g>
		<g id="Group_5785" transform="translate(0 -320.779)">
			<path id="Path_1514" class="st2" d="M0,0.4v161.4h5.6V0.4H0z"/>
		</g>
		<g id="Group_5786" transform="translate(45.212 -362.487)">
			<path id="Path_1515" class="st2" d="M0,0.4l33.1-66.2L66.2,0.4H0z"/>
		</g>
		<path id="Path_1516" class="st26" d="M45.3-515.3h66.2v-66.2H45.3V-515.3z M45.3-581.4l57.9,57.9H53.6v-49.6h49.6L45.3-581.4z"/>
		<path id="Path_1517" class="st2" d="M39.2-508.2h79.3v-80.2H39.2V-508.2z M53.6-573.1h49.6v49.6H53.6V-573.1z"/>
		<path id="Path_1518" class="st2" d="M39.2-508.2h79.3v-80.2H39.2V-508.2z M53.6-573.1h49.6v49.6H53.6V-573.1z"/>
		<path id="Path_1519" class="st27" d="M0-470h156.7v-156.7H0V-470z M39.2-588.5h79.3v80.2H39.2V-588.5z"/>
		<path id="Path_1520" class="st25" d="M103.2-573.1H53.6v49.6h49.6V-573.1z"/>
	</g>
	<g id="Group_5898">
		<path id="Path_1539" class="st2" d="M902,1080.4h320v296.1H902V1080.4z"/>
		<g id="Group_5734" transform="translate(2631.5 -1747.334)">
			<g id="Group_4431" transform="translate(-1685 2869)">
				<g id="Group_4430">
					<g id="Group_4401" transform="translate(73.835 81.847)">
						<path id="Path_954" class="st28" d="M85.7,0.4H53.5v2c11.4,3,15.1,15.3,15.1,28.4h2c0-13.2,3.7-25.5,15.1-28.4L85.7,0.4z"/>
						<path id="Path_955" class="st28" d="M46.2,68.1c-5.7,0-10.9-1.7-14.3-4.6c-7.3-6.4-6.2-17-6.3-30.1c0-1.6,0-3.1,0-4.5
							c0-16.3,0.9-22.8,11.7-26.4l0.3-0.1l0-2H0v2c12.1,4.1,12.8,11,12.8,26.6c0,1.6,0,3.4,0,5.2c0,4.4-0.2,13.7-0.2,15.3
							c0,16.7,11.5,27.1,30,27.1c20,0,28-12.4,28-31.9h-2C68.6,58.1,60.1,68.1,46.2,68.1z"/>
					</g>
					<g id="Group_4428">
						<g id="Group_4402" transform="translate(38.135 188.575)">
							<path id="Path_956" class="st28" d="M19.6,6.8L7.7,20.7l-5.2-4.5c-1.3-0.9-2.1-2.3-2.4-3.8c-0.2-1.3,0.2-2.5,1.1-3.5
								c0.6-0.8,1.5-1.3,2.5-1.5c0.9-0.1,1.8,0,2.6,0.4C5.8,7.3,5.5,6.6,5.4,6c-0.1-0.7-0.1-1.4,0-2c0.2-0.7,0.5-1.3,1-1.9
								c0.6-0.7,1.3-1.2,2.2-1.5c0.9-0.3,1.8-0.3,2.7,0c1.1,0.3,2.1,0.9,2.9,1.6L19.6,6.8z M10.7,12.9l-2.9-2.5
								c-0.6-0.6-1.5-1-2.3-1c-0.8,0-1.5,0.4-2,1C3,11,2.7,11.8,2.8,12.6c0.2,0.9,0.7,1.7,1.4,2.2L7,17.2L10.7,12.9z M16,6.7l-3-2.6
								c-0.7-0.6-1.6-1-2.5-1.1C9.6,3,8.9,3.4,8.3,4.1C7.8,4.7,7.5,5.6,7.6,6.4c0.2,0.9,0.7,1.8,1.5,2.3l3,2.5L16,6.7z"/>
						</g>
						<g id="Group_4403" transform="translate(24.688 175.968)">
							<path id="Path_957" class="st28" d="M21.4,9.1l-13.8,12L0,12.3l1.7-1.5l5.8,6.7l4.3-3.7L6.5,7.7l1.7-1.4l5.3,6.1l4.5-3.9
								l-5.8-6.7l1.7-1.5L21.4,9.1z"/>
						</g>
						<g id="Group_4404" transform="translate(13.126 155.14)">
							<path id="Path_958" class="st28" d="M20.7,14.9L1.4,17.5L0,14.9L13,0.4l1.4,2.6l-3.2,3.5l3.5,6.6l4.7-0.7L20.7,14.9z
								 M12.4,13.4L9.6,8.2l-6,6.5L12.4,13.4z"/>
						</g>
						<g id="Group_4405" transform="translate(2.132 135.406)">
							<path id="Path_959" class="st28" d="M19.8,5.7c0.3,1.2,0.4,2.4,0.1,3.6c-0.2,1.2-0.8,2.2-1.7,3c-1,1-2.3,1.6-3.7,1.9
								L3.5,17.1l-0.7-2.7l11.1-2.9c1.3-0.2,2.4-0.9,3.1-2c0.5-1,0.7-2.2,0.3-3.3c-0.2-1.1-0.9-2.1-1.9-2.7C14.3,3,13,2.9,11.8,3.4
								L0.7,6.2L0,3.5l11.1-2.8c1.4-0.4,2.8-0.4,4.2-0.1c1.1,0.3,2.2,1,2.9,1.9C18.9,3.4,19.5,4.5,19.8,5.7z"/>
						</g>
						<g id="Group_4406" transform="translate(0 116.624)">
							<path id="Path_960" class="st28" d="M19.4,15L1.1,16.4l-0.2-2.8l13-10.2L0.2,4.5L0,1.8l18.2-1.4l0.2,2.8l-13,10.2l13.7-1.1
								L19.4,15z"/>
						</g>
						<g id="Group_4407" transform="translate(0.272 109.832)">
							<path id="Path_961" class="st28" d="M18.3,3.9L0,3.1l0.1-2.8l18.3,0.8L18.3,3.9z"/>
						</g>
						<g id="Group_4408" transform="translate(1.464 89.594)">
							<path id="Path_962" class="st28" d="M18.8,10.3c-0.2,1.6-0.9,3.2-2,4.4c-1,1.2-2.3,2-3.8,2.4c-1.6,0.5-3.4,0.6-5,0.2
								c-1.7-0.2-3.3-0.9-4.7-1.9c-1.2-0.9-2.2-2.1-2.8-3.6C0,10.4-0.2,8.7,0.2,7.1c0.2-1.9,1.1-3.6,2.4-4.9c1.3-1.2,3-1.8,4.8-1.8
								l-0.5,3c-1,0-2,0.4-2.8,1.1c-0.8,0.8-1.3,1.9-1.5,3c-0.3,1.6,0.1,3.3,1.1,4.6c1.3,1.4,3,2.2,4.8,2.4c1.8,0.4,3.7,0.2,5.3-0.7
								c1.4-0.9,2.4-2.3,2.6-4c0.2-1.1,0.1-2.3-0.3-3.3c-0.5-0.9-1.2-1.6-2.1-2l0.5-3c1.6,0.6,3,1.7,3.8,3.3
								C19,6.5,19.2,8.4,18.8,10.3z"/>
						</g>
						<g id="Group_4409" transform="translate(6.773 69.128)">
							<path id="Path_963" class="st28" d="M18.4,13c-0.6,1.6-1.5,3-2.8,4c-1.2,1-2.7,1.6-4.2,1.8c-1.7,0.2-3.4,0-5-0.7
								c-1.6-0.6-3.1-1.5-4.2-2.8c-1-1.2-1.7-2.6-2-4.2C-0.1,9.5,0,7.8,0.7,6.2c0.6-1.6,1.5-3,2.8-4c1.2-1,2.7-1.6,4.2-1.8
								c1.7-0.2,3.4,0,5,0.7c1.6,0.6,3.1,1.5,4.2,2.8c1,1.2,1.7,2.6,2,4.1C19.2,9.7,19,11.4,18.4,13z M16,12.1
								c0.4-1.1,0.6-2.2,0.4-3.4c-0.2-1.1-0.7-2.1-1.5-2.9c-0.9-0.9-2-1.6-3.2-2.1C10.5,3.3,9.3,3.1,8,3.2c-1.1,0.1-2.2,0.5-3,1.2
								C4.1,5.1,3.4,6,3,7.1c-0.4,1.1-0.6,2.2-0.4,3.4c0.2,1.1,0.7,2.1,1.5,2.9c0.9,0.9,2,1.6,3.2,2c1.2,0.5,2.5,0.7,3.8,0.6
								c1.1-0.1,2.2-0.5,3-1.2C15,14.1,15.7,13.2,16,12.1L16,12.1z"/>
						</g>
						<g id="Group_4410" transform="translate(13.656 52.866)">
							<path id="Path_964" class="st28" d="M15.7,18.6L0,9.2l3.2-5.4c0.6-1.1,1.4-2,2.5-2.7c0.8-0.5,1.8-0.8,2.8-0.8
								c1,0,1.9,0.3,2.7,0.8c0.9,0.6,1.7,1.4,2.2,2.4c0.5,1.1,0.6,2.3,0.3,3.4l8.7,0.7l-1.7,2.8l-8.1-0.8l-1.7,2.8l6.3,3.8
								L15.7,18.6z M9,11.4l1.7-2.9c0.6-0.8,0.8-1.8,0.6-2.8c-0.2-0.8-0.8-1.6-1.6-2C9.1,3.2,8.2,3,7.3,3.2c-1,0.3-1.7,1-2.2,1.9
								L3.4,8L9,11.4z"/>
						</g>
						<g id="Group_4411" transform="translate(23.395 35.128)">
							<path id="Path_965" class="st28" d="M13.9,23.4L0,11.5l1.8-2.1l16.4,2l-10.5-9l1.8-2.1l13.9,11.9l-1.8,2.1l-16.4-2l10.5,9
								L13.9,23.4z"/>
						</g>
						<g id="Group_4412" transform="translate(42.594 24.83)">
							<path id="Path_966" class="st28" d="M11.5,16.3L0,2.1l2.2-1.7l11.5,14.3L11.5,16.3z"/>
						</g>
						<g id="Group_4413" transform="translate(48.968 13.641)">
							<path id="Path_967" class="st28" d="M9.6,23.7L0,8.1l2.4-1.5l15.1,6.9L10.1,1.8l2.4-1.5l9.6,15.5l-2.4,1.5L4.7,10.5L12,22.2
								L9.6,23.7z"/>
						</g>
						<g id="Group_4414" transform="translate(78.435 5.245)">
							<path id="Path_968" class="st28" d="M0,20.8L0.8,1.3l2.9-0.9l12,15.3l-2.8,0.9L10,12.8l-7.1,2.3l-0.1,4.7L0,20.8z M3,12.8
								L8.6,11L3.2,4L3,12.8z"/>
						</g>
						<g id="Group_4415" transform="translate(100.503)">
							<path id="Path_969" class="st28" d="M1.7,19.6L0,1.4l11.4-1.1l0.2,2.2L3,3.4l0.5,5.8l7.2-0.7l0.2,2.2l-7.2,0.7l0.7,8
								L1.7,19.6z"/>
						</g>
						<g id="Group_4416" transform="translate(115.891 0.061)">
							<path id="Path_970" class="st28" d="M0,18.6L0.3,0.4l2.8,0L2.8,18.7L0,18.6z"/>
						</g>
						<g id="Group_4417" transform="translate(121.933 0.181)">
							<path id="Path_971" class="st28" d="M0,18.5L2,0.4l11.6,1.3l-0.2,2.2l-8.8-1L3.9,8.6l8,0.9l-0.2,2.2l-8-0.9L3,16.6l8.8,1
								l-0.2,2.2L0,18.5z"/>
						</g>
						<g id="Group_4418" transform="translate(136.11 2.489)">
							<path id="Path_972" class="st28" d="M0,18.1L4.6,0.4l2.7,0.7l-4,15.6l8,2.1l-0.6,2.1L0,18.1z"/>
						</g>
						<g id="Group_4419" transform="translate(149.072 6.871)">
							<path id="Path_973" class="st28" d="M0,17.1L7.3,0.4l5.4,2.4c1.7,0.7,3.2,1.8,4.4,3.2c0.9,1.2,1.5,2.6,1.5,4.1
								c0,1.7-0.3,3.3-1,4.9c-0.6,1.5-1.6,2.9-2.9,4c-1.1,1-2.6,1.6-4.1,1.7c-1.8,0.1-3.6-0.3-5.3-1.1L0,17.1z M3.5,16.1l2.8,1.2
								c1.2,0.6,2.6,0.9,3.9,0.8c1.1-0.1,2.1-0.5,2.8-1.3c0.9-0.9,1.6-1.9,2-3.1c0.5-1.1,0.8-2.4,0.9-3.6c0-1.1-0.3-2.1-1-3
								c-0.9-1-2-1.8-3.3-2.3L8.9,3.6L3.5,16.1z"/>
						</g>
						<g id="Group_4420" transform="translate(173.392 22.716)">
							<path id="Path_974" class="st28" d="M3.6,17.3c-1.3-1-2.4-2.3-3-3.9c-0.6-1.5-0.7-3-0.4-4.6c0.3-1.7,1.1-3.3,2.1-4.6
								c1-1.4,2.4-2.5,4-3.2c1.4-0.6,3-0.9,4.6-0.6c1.6,0.2,3.2,0.9,4.5,2c1.3,1,2.4,2.3,3,3.9c0.6,1.5,0.7,3,0.4,4.6
								c-0.3,1.7-1.1,3.2-2.2,4.6c-1,1.4-2.4,2.5-3.9,3.2c-1.4,0.6-3,0.9-4.6,0.6C6.4,19,4.8,18.4,3.6,17.3z M5.1,15.3
								c0.9,0.7,2,1.2,3.1,1.4c1.1,0.1,2.2-0.1,3.2-0.5c1.2-0.6,2.2-1.4,2.9-2.4c0.8-1,1.4-2.2,1.7-3.4c0.2-1.1,0.2-2.2-0.2-3.2
								c-0.4-1.1-1.1-2-2.1-2.7c-0.9-0.7-2-1.2-3.1-1.4c-1.1-0.1-2.2,0-3.2,0.5C6.3,4.1,5.3,5,4.5,6C3.7,7,3.1,8.2,2.8,9.4
								c-0.2,1.1-0.2,2.2,0.2,3.2C3.5,13.7,4.2,14.7,5.1,15.3L5.1,15.3z"/>
						</g>
						<g id="Group_4421" transform="translate(185.748 34.599)">
							<path id="Path_975" class="st28" d="M0,12.6L13.6,0.4l7.7,8.5l-1.7,1.5l-5.8-6.5L9.5,7.8l4.8,5.4l-1.6,1.5L7.8,9.3l-6,5.4
								L0,12.6z"/>
						</g>
						<g id="Group_4422" transform="translate(198.43 53.177)">
							<path id="Path_976" class="st28" d="M0,9.3l15.9-9l1.4,2.4l-6.8,3.8l4.3,7.7l6.8-3.8l1.4,2.4l-15.9,9l-1.4-2.4l7.1-4L8.5,7.7
								l-7.1,4L0,9.3z"/>
						</g>
						<g id="Group_4423" transform="translate(208.59 73.154)">
							<path id="Path_977" class="st28" d="M0.5,12.6C0,11-0.1,9.3,0.2,7.7c0.3-1.5,1.1-2.9,2.1-4.1C3.5,2.4,5,1.5,6.6,1
								c1.6-0.6,3.3-0.7,5-0.5c1.5,0.3,3,0.9,4.2,2C17.1,3.6,18,5,18.5,6.6c0.6,1.6,0.7,3.3,0.4,4.9c-0.3,1.5-1.1,2.9-2.2,4.1
								c-1.2,1.2-2.7,2.1-4.3,2.6c-1.6,0.6-3.3,0.7-5,0.5c-1.5-0.2-3-0.9-4.2-2C2,15.6,1,14.2,0.5,12.6z M2.9,11.8
								c0.3,1.1,1,2.1,1.8,2.8c0.8,0.7,1.9,1.2,3,1.3c1.3,0.2,2.6,0,3.8-0.4c1.2-0.4,2.4-1,3.3-1.9c0.8-0.8,1.3-1.8,1.6-2.8
								c0.2-1.1,0.1-2.3-0.2-3.4c-0.3-1.1-1-2.1-1.8-2.9c-0.8-0.7-1.9-1.2-3-1.3c-1.3-0.1-2.6,0-3.8,0.5C6.3,4,5.2,4.7,4.2,5.6
								C3.4,6.3,2.9,7.3,2.7,8.4C2.4,9.5,2.5,10.7,2.9,11.8L2.9,11.8z"/>
						</g>
						<g id="Group_4424" transform="translate(212.591 93.626)">
							<path id="Path_978" class="st28" d="M0,3l18.1-2.6L19,6.6c0.2,1.2,0.1,2.5-0.2,3.6c-0.3,0.9-0.9,1.7-1.7,2.3
								c-0.8,0.6-1.7,0.9-2.6,1.1c-1.1,0.2-2.2,0-3.2-0.5c-1.1-0.5-1.9-1.4-2.4-2.5l-7.1,5l-0.5-3.2l6.8-4.6L7.7,4.7l-7.3,1L0,3z
								 M9.8,4.4l0.5,3.3c0.1,1,0.5,1.9,1.3,2.6c0.7,0.5,1.6,0.7,2.5,0.5c0.9-0.1,1.7-0.5,2.2-1.2c0.5-0.9,0.7-1.9,0.5-2.9l-0.5-3.3
								L9.8,4.4z"/>
						</g>
						<g id="Group_4425" transform="translate(214.143 110.666)">
							<path id="Path_979" class="st28" d="M0,7c0-1.2,0.3-2.4,0.8-3.5c0.4-1,1.2-1.8,2.1-2.3c0.9-0.6,2-0.9,3.1-0.8l0,2.9
								c-0.9,0-1.8,0.3-2.5,1C2.7,5,2.3,6,2.3,7C2.3,7.9,2.5,8.8,3.1,9.6c0.5,0.6,1.2,0.9,2,0.9c0.6,0,1.1-0.1,1.6-0.4
								c0.4-0.3,0.8-0.7,1-1.2c0.3-0.5,0.5-1.1,0.7-1.7c0.2-0.6,0.5-1.3,0.7-2c0.4-1.2,1-2.3,1.9-3.1c0.8-0.7,1.9-1.1,3-1
								c0.9,0,1.9,0.2,2.7,0.8c0.8,0.5,1.4,1.3,1.8,2.1c0.4,1,0.6,2.1,0.6,3.2c0,1.1-0.2,2.1-0.7,3.1c-0.4,0.8-1.1,1.6-1.9,2.1
								c-0.8,0.5-1.8,0.8-2.7,0.7l0-2.9c0.5,0,0.9-0.1,1.4-0.3c0.4-0.3,0.8-0.6,1.1-1.1c0.3-0.5,0.5-1.1,0.4-1.7
								c0.1-0.8-0.2-1.5-0.6-2.2c-0.4-0.6-1.1-0.9-1.9-0.9c-0.6,0-1.2,0.2-1.7,0.6c-0.4,0.5-0.8,1.1-1,1.7c-0.3,0.7-0.6,1.6-0.9,2.5
								c-0.3,0.8-0.7,1.7-1.1,2.4c-0.4,0.7-1,1.3-1.7,1.7c-0.8,0.4-1.7,0.6-2.6,0.6c-0.9,0-1.8-0.3-2.6-0.7
								c-0.8-0.5-1.5-1.3-1.9-2.1C0.2,9.4-0.1,8.2,0,7z"/>
						</g>
						<g id="Group_4426" transform="translate(212.341 126.106)">
							<path id="Path_980" class="st28" d="M1.8,0.4l18.1,2.8l-1.8,11.5l-2.2-0.3l1.4-8.7l-5.6-0.9l-1.2,8l-2.2-0.3l1.3-8L3.6,3.4
								l-1.4,8.8L0,11.8L1.8,0.4z"/>
						</g>
						<g id="Group_4427" transform="translate(209.205 140.801)">
							<path id="Path_981" class="st28" d="M0.4,5.4c0.3-1.2,0.9-2.2,1.7-3.2c0.7-0.8,1.6-1.4,2.6-1.7C5.8,0.3,7,0.3,8,0.7L7.1,3.4
								C6.2,3.2,5.3,3.2,4.5,3.7C3.6,4.2,2.9,5,2.6,6c-0.3,0.8-0.3,1.8,0,2.6c0.3,0.7,0.9,1.2,1.6,1.5c0.5,0.2,1.1,0.2,1.6,0.1
								C6.4,10,6.8,9.7,7.2,9.3C7.6,8.9,8,8.4,8.4,7.9c0.4-0.6,0.8-1.1,1.3-1.7c0.7-1,1.6-1.9,2.7-2.5c1-0.5,2.1-0.5,3.1-0.1
								c0.9,0.2,1.7,0.8,2.4,1.5c0.6,0.7,1,1.6,1.1,2.5c0.1,1.1,0,2.2-0.3,3.2c-0.3,1-0.8,2-1.6,2.8c-0.6,0.7-1.5,1.2-2.4,1.5
								c-0.9,0.2-1.9,0.2-2.8-0.1l0.9-2.8c0.5,0.1,0.9,0.2,1.4,0.1c0.5-0.1,1-0.4,1.3-0.7c0.4-0.4,0.8-0.9,0.9-1.5
								c0.3-0.7,0.3-1.5,0-2.3c-0.3-0.7-0.8-1.2-1.5-1.4c-0.6-0.2-1.2-0.2-1.8,0.1c-0.6,0.4-1,0.8-1.4,1.4c-0.5,0.6-1,1.3-1.6,2.1
								c-0.5,0.7-1.1,1.4-1.8,2c-0.6,0.5-1.3,0.9-2.1,1.1c-0.9,0.2-1.8,0.1-2.7-0.2c-0.9-0.3-1.6-0.8-2.2-1.4
								c-0.6-0.7-1.1-1.6-1.2-2.6C-0.1,7.7,0,6.5,0.4,5.4z"/>
						</g>
					</g>
					<g id="Group_4429" transform="translate(56.744 160.93)">
						<path id="Path_982" class="st28" d="M59.7,63.4c-21.3,0-42.1-6.3-59.7-18.1l1.2-1.8c17.3,11.6,37.7,17.8,58.5,17.7
							c41-0.1,78.2-23.8,95.6-60.9l2,0.9C139.5,39.1,101.5,63.3,59.7,63.4z"/>
					</g>
				</g>
			</g>
		</g>
	</g>
</g>
</svg>
