<svg xmlns="http://www.w3.org/2000/svg" width="1441" height="771" viewBox="0 0 1441 771">
  <g id="Unicorn_Home_Slider" data-name="Unicorn Home Slider" transform="translate(0.4 0.2)">
    <path id="Path_863" d="M-.4-.2h1441V720.3H-.4Z" fill="#d3f7e5"/>
    <g id="Group_4041-2" transform="translate(1219.002 628.5)">
      <path id="Path_581-2" d="M50.3-107.8-49.4,91.8H150.1Z" fill="#fff"/>
    </g>
    <g id="Group_4099" transform="translate(3226.86 853.997)">
      <path id="Path_563" d="M-2946.2-538.7l-98.1-98.1h0l-98.1,98.1,98.1,98.1h0Zm-98.1,50.7a50.659,50.659,0,0,1-50.6-50.6,50.594,50.594,0,0,1,50.6-50.6,50.594,50.594,0,0,1,50.6,50.6,50.659,50.659,0,0,1-50.6,50.6" fill="#fff"/>
      <path id="Path_564" d="M-3013.3-538.7a31.027,31.027,0,0,0-31-31,31.027,31.027,0,0,0-31,31,31.027,31.027,0,0,0,31,31h0a30.836,30.836,0,0,0,31-31h0" fill="#1b2f53"/>
    </g>
    <g id="Group_3996" transform="translate(1182.496 583.08)">
      <g id="Group_5897" data-name="Group 5897">
        <g id="Group_3908" transform="translate(0 -167.584)">
          <g id="Group_3896" transform="translate(0.493 0.493)">
            <path id="Path_441" d="M114.6,52.4a82.341,82.341,0,0,0,26.1-17.6A81.241,81.241,0,0,0,158.3,8.7a81.605,81.605,0,0,0,6.5-31.9,82.961,82.961,0,0,0-6.4-31.9,81.241,81.241,0,0,0-17.6-26.1,81.241,81.241,0,0,0-26.1-17.6,79.752,79.752,0,0,0-31.9-6.4,82.961,82.961,0,0,0-31.9,6.4A81.015,81.015,0,0,0,24.6-81.2,82.884,82.884,0,0,0,7-55.1,82.961,82.961,0,0,0,.6-23.2,82.961,82.961,0,0,0,7,8.7,82.341,82.341,0,0,0,24.6,34.8,81.241,81.241,0,0,0,50.7,52.4a79.752,79.752,0,0,0,31.9,6.4,79.885,79.885,0,0,0,32-6.4M1.5-23.2a81.088,81.088,0,0,1,81.1-81.1,81.152,81.152,0,0,1,81.1,81.1A81.152,81.152,0,0,1,82.6,57.9,81.216,81.216,0,0,1,1.5-23.2" fill="#fff"/>
          </g>
          <g id="Group_3897">
            <path id="Path_442" d="M83.1,59.8A82.214,82.214,0,0,1,51,53.3,81.952,81.952,0,0,1,24.8,35.6,80.361,80.361,0,0,1,7.1,9.4,82.214,82.214,0,0,1,.6-22.7,82.214,82.214,0,0,1,7.1-54.8,81.952,81.952,0,0,1,24.8-81,83.609,83.609,0,0,1,51-98.7a82.579,82.579,0,0,1,32.1-6.5,82.214,82.214,0,0,1,32.1,6.5A81.952,81.952,0,0,1,141.4-81a83.609,83.609,0,0,1,17.7,26.2,82.579,82.579,0,0,1,6.5,32.1,82.214,82.214,0,0,1-6.5,32.1,81.952,81.952,0,0,1-17.7,26.2,83.609,83.609,0,0,1-26.2,17.7l-.2-.5.2.5a78.442,78.442,0,0,1-32.1,6.5m0-163.1A80.682,80.682,0,0,0,2.5-22.7,80.618,80.618,0,0,0,83.1,57.9a80.682,80.682,0,0,0,80.6-80.6,80.618,80.618,0,0,0-80.6-80.6" fill="#fff"/>
          </g>
          <g id="Group_3898" transform="translate(14.077 14.076)">
            <path id="Path_443" d="M116.5,12.6a67.931,67.931,0,0,0,21-48,68.171,68.171,0,0,0-19.1-48.8,67.931,67.931,0,0,0-48-21A68.171,68.171,0,0,0,21.6-86.1a67.931,67.931,0,0,0-21,48v1.4A68.054,68.054,0,0,0,19.7,10.7a67.931,67.931,0,0,0,48,21,68.336,68.336,0,0,0,48.8-19.1M67.7,30.7A67.029,67.029,0,0,1,20.3,10,67.27,67.27,0,0,1,1.5-38.1a67.636,67.636,0,0,1,68.9-66.2,67.031,67.031,0,0,1,47.3,20.7,66.72,66.72,0,0,1,18.8,46.7v1.4A67.356,67.356,0,0,1,67.7,30.7" fill="#fff"/>
          </g>
          <g id="Group_3899" transform="translate(13.337 13.337)">
            <path id="Path_444" d="M69.8,33.2H68.4A68.553,68.553,0,0,1,19.9,11.9,69,69,0,0,1,.6-36v-1.4A68.553,68.553,0,0,1,21.9-85.9a68.679,68.679,0,0,1,49.3-19.3,68.553,68.553,0,0,1,48.5,21.3A68.68,68.68,0,0,1,139-34.6a68.553,68.553,0,0,1-21.3,48.5A68.818,68.818,0,0,1,69.8,33.2m0-136A66.829,66.829,0,0,0,3-37.4,66.343,66.343,0,0,0,21.6,10.2,66.279,66.279,0,0,0,68.4,30.7,66.343,66.343,0,0,0,116,12.1a66.279,66.279,0,0,0,20.5-46.8v-1.4a66.841,66.841,0,0,0-18.6-46.2,66.279,66.279,0,0,0-46.8-20.5H69.8" fill="#fff"/>
          </g>
          <g id="Group_3900" transform="translate(27.618 27.618)">
            <path id="Path_445" d="M110.4-47.5A54.417,54.417,0,0,0,96.3-87.1a54.6,54.6,0,0,0-38-18A54.417,54.417,0,0,0,18.7-91,54.6,54.6,0,0,0,.7-53c0,.9-.1,1.9-.1,2.8A54.535,54.535,0,0,0,14.8-13.4a54.6,54.6,0,0,0,38,18A54.688,54.688,0,0,0,92.3-9.6a54.275,54.275,0,0,0,18.1-37.9M52.8,3.6A53.708,53.708,0,0,1,15.5-14.1,53.181,53.181,0,0,1,1.6-53a54.016,54.016,0,0,1,56.7-51.2,54.162,54.162,0,0,1,51.3,53.9,27.151,27.151,0,0,1-.1,2.8A53.708,53.708,0,0,1,91.8-10.2a53.9,53.9,0,0,1-39,13.8" fill="#fff"/>
          </g>
          <g id="Group_3901" transform="translate(26.633 26.633)">
            <path id="Path_446" d="M56.6,6.6a28.1,28.1,0,0,1-2.9-.1A55.694,55.694,0,0,1,15-11.8,55.806,55.806,0,0,1,.6-49.3a28.1,28.1,0,0,1,.1-2.9A55.468,55.468,0,0,1,19-90.8a55.894,55.894,0,0,1,40.3-14.4A55.588,55.588,0,0,1,98-86.8a55.894,55.894,0,0,1,14.4,40.3A55.985,55.985,0,0,1,94-7.9,55.171,55.171,0,0,1,56.6,6.6m-.1-108.9A52.95,52.95,0,0,0,3.6-52,52.277,52.277,0,0,0,17.2-13.8,52.6,52.6,0,0,0,53.8,3.6,52.7,52.7,0,0,0,92-10a52.631,52.631,0,0,0,17.4-36.7c0-.9.1-1.8.1-2.7a52.95,52.95,0,0,0-50.3-52.9,24.319,24.319,0,0,0-2.7,0" fill="#fff"/>
          </g>
          <g id="Group_3902" transform="translate(41.078 41.075)">
            <path id="Path_447" d="M83.3-59.6A41.754,41.754,0,0,0,74.2-90a40.953,40.953,0,0,0-28-15,41.754,41.754,0,0,0-30.4,9.1,40.953,40.953,0,0,0-15,28C.7-66.5.6-65.1.6-63.7A41.359,41.359,0,0,0,37.9-22.5,41.434,41.434,0,0,0,83.3-59.6M38-23.4A40.783,40.783,0,0,1,1.5-63.7c0-1.4.1-2.7.2-4.1A40.271,40.271,0,0,1,16.4-95.1,40.358,40.358,0,0,1,46.1-104,40.637,40.637,0,0,1,82.6-63.7c0,1.4-.1,2.7-.2,4.1A40.668,40.668,0,0,1,67.7-32.4a40,40,0,0,1-29.7,9" fill="#fff"/>
          </g>
          <g id="Group_3903" transform="translate(39.846 39.844)">
            <path id="Path_448" d="M43.3-19.8c-1.4,0-2.9-.1-4.3-.2A42.649,42.649,0,0,1,.6-62.5c0-1.4.1-2.9.2-4.3A42.51,42.51,0,0,1,16.3-95.6,42.265,42.265,0,0,1,47.6-105,42.51,42.51,0,0,1,76.4-89.5a42.265,42.265,0,0,1,9.4,31.3A42.963,42.963,0,0,1,43.3-19.8m-4-3.6a38.5,38.5,0,0,0,28.8-8.7A39.441,39.441,0,0,0,82.4-58.6c.1-1.3.2-2.7.2-4a39.283,39.283,0,0,0-35.4-39.1A38.627,38.627,0,0,0,18.4-93,38.924,38.924,0,0,0,4.2-66.5c-.1,1.3-.2,2.7-.2,4A39.117,39.117,0,0,0,39.3-23.4Z" fill="#fff"/>
          </g>
          <g id="Group_3904" transform="translate(54.327 54.326)">
            <path id="Path_449" d="M56.5-71.4a28.3,28.3,0,0,0-4.1-21.2,28.433,28.433,0,0,0-17.9-12.1,28.3,28.3,0,0,0-21.2,4.1,27.893,27.893,0,0,0-12.1,18,27.6,27.6,0,0,0-.6,5.7A27.7,27.7,0,0,0,5.3-61.4a27.916,27.916,0,0,0,17.9,12,28.265,28.265,0,0,0,33.3-22M23.4-50.3A26.881,26.881,0,0,1,6.1-62a26.978,26.978,0,0,1-4-20.5A26.881,26.881,0,0,1,13.8-99.8a26.978,26.978,0,0,1,20.5-4A26.881,26.881,0,0,1,51.6-92.1a26.785,26.785,0,0,1,4.6,15,34.084,34.084,0,0,1-.5,5.5A27.5,27.5,0,0,1,23.4-50.3" fill="#fff"/>
          </g>
          <g id="Group_3905" transform="translate(52.849 52.847)">
            <path id="Path_450" d="M30.3-45.9a28.8,28.8,0,0,1-5.9-.6A29.832,29.832,0,0,1,5.5-59.1a29.609,29.609,0,0,1-5-16.4,28.8,28.8,0,0,1,.6-5.9,29.6,29.6,0,0,1,12.7-18.9,29.822,29.822,0,0,1,22.3-4.4A29.6,29.6,0,0,1,55-92a29.822,29.822,0,0,1,4.4,22.3A29.142,29.142,0,0,1,46.7-50.9a28.83,28.83,0,0,1-16.4,5m-.1-55.5A25.5,25.5,0,0,0,16-97.1,25.655,25.655,0,0,0,5-80.7,25.594,25.594,0,0,0,8.8-61.3a25.655,25.655,0,0,0,16.4,11A25.779,25.779,0,0,0,55.6-70.5a29.571,29.571,0,0,0,.5-5.2,25.5,25.5,0,0,0-4.3-14.2,25.655,25.655,0,0,0-16.4-11,29.571,29.571,0,0,0-5.2-.5" fill="#fff"/>
          </g>
          <g id="Group_3906" transform="translate(66.847 66.837)">
            <path id="Path_451" d="M30.3-82.5a15.747,15.747,0,0,0-6.9-21.1,15.623,15.623,0,0,0-12-.9,15.614,15.614,0,0,0-9.1,7.8A15.8,15.8,0,0,0,.6-89.6a15.584,15.584,0,0,0,8.6,14,15.576,15.576,0,0,0,21.1-6.9M9.6-76.4A14.735,14.735,0,0,1,3.1-96.2a14.649,14.649,0,0,1,8.6-7.4,14.811,14.811,0,0,1,11.3.9,14.693,14.693,0,0,1,8.1,13.2,13.7,13.7,0,0,1-1.6,6.6A14.792,14.792,0,0,1,9.6-76.4" fill="#fff"/>
          </g>
          <g id="Group_3907" transform="translate(65.123 65.112)">
            <path id="Path_452" d="M18-70.4a16.354,16.354,0,0,1-7.8-1.9A17.478,17.478,0,0,1,.6-87.9a16.354,16.354,0,0,1,1.9-7.8,17.366,17.366,0,0,1,10.1-8.7,17.092,17.092,0,0,1,13.3,1A17.454,17.454,0,0,1,33.6-80l-.8-.4.8.4a17.366,17.366,0,0,1-10.1,8.7,17.593,17.593,0,0,1-5.5.9m-5.9-5.8A13.007,13.007,0,0,0,29.6-82,13.147,13.147,0,0,0,31-87.9a13.154,13.154,0,0,0-7.2-11.7,13.354,13.354,0,0,0-10-.8,13.192,13.192,0,0,0-7.6,6.5,13.393,13.393,0,0,0,5.9,17.7" fill="#fff"/>
          </g>
        </g>
      </g>
    </g>
    <g id="Group_4278" transform="translate(2532.88 921.568)">
      <path id="Path_592" d="M-2400.3-346.4h100v-12.9h-100Z" fill="#1b2f53"/>
      <path id="Path_593" d="M-2400.3-433.3h100v-12.9h-100Z" fill="#fff"/>
      <path id="Path_594" d="M-2400.3-404.3h100v-12.9h-100Z" fill="#1b2f53"/>
      <path id="Path_595" d="M-2400.3-375.4h100v-12.9h-100Z" fill="#fff"/>
    </g>
    <path id="Path_908" d="M1265.5,245.8a50.385,50.385,0,0,1-22.5-5.4,49.714,49.714,0,0,1-27.4-44.7,49.948,49.948,0,0,1,72.5-44.5,49.964,49.964,0,0,1-6.9,92.1,49.578,49.578,0,0,1-15.7,2.5m-16.8-16.6a37.533,37.533,0,0,0,50.3-16.5,36.466,36.466,0,0,0,4-16.8,37.418,37.418,0,1,0-54.3,33.3" fill="#7061f0"/>
    <path id="Path_1560" data-name="Path 1560" d="M910.8,720.2,1271.1-.2H170.1L530.4,720.2Z" fill="#fff"/>
  </g>
  <g id="Group_4045" data-name="Group 4045" transform="translate(3559.47 1200.978)">
    <path id="Path_572" data-name="Path 572" d="M.5.5C.5-16.537,39.819-50,51-50H-50C-39.078-50,.5-16.319.5.5" transform="translate(-3376.97 -480.978)" fill="#7061f0"/>
    <path id="Path_573" data-name="Path 573" d="M.5.5C.5-16.537,39.819-50,51-50H-50C-39.077-50,.5-16.319.5.5" transform="translate(-3376.971 -430.478)" fill="#1b2f53"/>
  </g>
</svg>
