<?xml version="1.0" encoding="utf-8"?>
<!-- Generator: Adobe Illustrator 24.3.0, SVG Export Plug-In . SVG Version: 6.00 Build 0)  -->
<svg version="1.1" id="Layer_1" xmlns="http://www.w3.org/2000/svg" xmlns:xlink="http://www.w3.org/1999/xlink" x="0px" y="0px"
	 width="1441px" height="720px" viewBox="0 0 1441 720" style="enable-background:new 0 0 1441 720;" xml:space="preserve">
<style type="text/css">
	.st0{fill:#D3F7E5;}
	.st1{fill:#FFFFFF;}
	.st2{fill:#1B2F53;}
	.st3{fill:#7061F0;}
</style>
<g>
	<path id="Path_863" class="st0" d="M-0.4-0.2h1441v720.5H-0.4V-0.2z"/>
	<g id="Group_4041-2" transform="translate(1219.002 628.5)">
		<path id="Path_581-2" class="st1" d="M50.3-107.8L-49.4,91.8h199.5L50.3-107.8z"/>
	</g>
	<g id="Group_4099" transform="translate(3226.86 853.997)">
		<path id="Path_563" class="st1" d="M-2946.2-538.7l-98.1-98.1l0,0l-98.1,98.1l98.1,98.1l0,0L-2946.2-538.7z M-3044.3-488
			c-27.9,0-50.6-22.7-50.6-50.6c0-28,22.7-50.6,50.6-50.6c28,0,50.6,22.7,50.6,50.6C-2993.7-510.7-3016.3-488.1-3044.3-488"/>
		<path id="Path_564" class="st2" d="M-3013.3-538.7c0-17.1-13.9-31-31-31c-17.1,0-31,13.9-31,31c0,17.1,13.9,31,31,31c0,0,0,0,0,0
			C-3027.1-507.6-3013.3-521.5-3013.3-538.7C-3013.3-538.7-3013.3-538.7-3013.3-538.7"/>
	</g>
	<g id="Group_3996" transform="translate(1182.496 583.08)">
		<g>
			<g id="Group_3908" transform="translate(0 -167.584)">
				<g id="Group_3896" transform="translate(0.493 0.493)">
					<path id="Path_441" class="st1" d="M114.6,52.4c9.7-4.1,18.6-10.1,26.1-17.6c7.5-7.5,13.5-16.3,17.6-26.1
						c4.3-10.1,6.5-21,6.5-31.9c0-11-2.2-21.8-6.4-31.9c-4.1-9.8-10.1-18.6-17.6-26.1c-7.5-7.5-16.3-13.5-26.1-17.6
						c-10.1-4.3-21-6.5-31.9-6.4c-11,0-21.8,2.2-31.9,6.4C41-94.7,32.1-88.7,24.6-81.2C17.1-73.7,11.2-64.9,7-55.1
						C2.8-45,0.6-34.2,0.6-23.2c0,11,2.2,21.8,6.4,31.9c4.1,9.7,10.1,18.6,17.6,26.1c7.5,7.5,16.3,13.5,26.1,17.6
						c10.1,4.3,21,6.5,31.9,6.4C93.6,58.9,104.5,56.7,114.6,52.4 M1.5-23.2c0-44.8,36.3-81.1,81.1-81.1
						c44.8,0.1,81.1,36.3,81.1,81.1c-0.1,44.8-36.3,81.1-81.1,81.1C37.9,57.9,1.6,21.6,1.5-23.2"/>
				</g>
				<g id="Group_3897">
					<path id="Path_442" class="st1" d="M83.1,59.8c-11,0-22-2.2-32.1-6.5c-9.8-4.1-18.7-10.2-26.2-17.7
						C17.2,28.1,11.2,19.2,7.1,9.4C2.8-0.7,0.6-11.7,0.6-22.7c0-11,2.2-22,6.5-32.1c4.1-9.8,10.2-18.7,17.7-26.2
						c7.5-7.5,16.4-13.5,26.2-17.7c10.2-4.3,21.1-6.5,32.1-6.5c11,0,22,2.2,32.1,6.5c9.8,4.1,18.7,10.2,26.2,17.7
						c7.5,7.5,13.5,16.4,17.7,26.2c4.3,10.2,6.5,21.1,6.5,32.1c0,11-2.2,22-6.5,32.1c-4.1,9.8-10.2,18.7-17.7,26.2
						c-7.5,7.5-16.4,13.5-26.2,17.7l-0.2-0.5l0.2,0.5C105.1,57.7,94.2,59.9,83.1,59.8 M83.1-103.3C38.6-103.3,2.6-67.2,2.5-22.7
						c0,44.5,36.1,80.6,80.6,80.6c44.5-0.1,80.6-36.1,80.6-80.6C163.7-67.2,127.6-103.3,83.1-103.3"/>
				</g>
				<g id="Group_3898" transform="translate(14.077 14.076)">
					<path id="Path_443" class="st1" d="M116.5,12.6c13.1-12.5,20.7-29.8,21-48c0.4-18.2-6.5-35.7-19.1-48.8
						c-12.5-13.1-29.8-20.7-48-21c-18.2-0.4-35.7,6.5-48.8,19.1c-13.1,12.5-20.7,29.8-21,48c0,0.5,0,0.9,0,1.4
						c0,17.7,6.8,34.7,19.1,47.4c12.5,13.1,29.8,20.7,48,21C85.8,32.1,103.4,25.2,116.5,12.6 M67.7,30.7C49.8,30.4,32.7,23,20.3,10
						C7.9-2.9,1.1-20.2,1.5-38.1c0.8-37.3,31.6-66.9,68.9-66.2c17.9,0.3,35,7.8,47.3,20.7c12.1,12.5,18.9,29.3,18.8,46.7
						c0,0.5,0,0.9,0,1.4C135.8,1.9,105,31.5,67.7,30.7"/>
				</g>
				<g id="Group_3899" transform="translate(13.337 13.337)">
					<path id="Path_444" class="st1" d="M69.8,33.2c-0.5,0-1,0-1.4,0c-18.4-0.3-35.8-8-48.5-21.3C7.5-1,0.6-18.1,0.6-36
						c0-0.5,0-1,0-1.4c0.3-18.4,8-35.8,21.3-48.5c13.2-12.8,31-19.7,49.3-19.3c18.4,0.3,35.8,8,48.5,21.3
						c12.8,13.2,19.7,31,19.3,49.3c-0.3,18.4-8,35.8-21.3,48.5C104.9,26.3,87.7,33.2,69.8,33.2 M69.8-102.8
						C33.4-102.8,3.8-73.7,3-37.4C2.6-19.7,9.3-2.5,21.6,10.2c12.2,12.8,29.1,20.2,46.8,20.5c17.7,0.4,34.9-6.3,47.6-18.6
						c12.8-12.2,20.2-29.1,20.5-46.8c0-0.5,0-0.9,0-1.4c0-17.2-6.7-33.8-18.6-46.2c-12.2-12.8-29.1-20.2-46.8-20.5
						C70.7-102.8,70.2-102.8,69.8-102.8"/>
				</g>
				<g id="Group_3900" transform="translate(27.618 27.618)">
					<path id="Path_445" class="st1" d="M110.4-47.5c0.8-14.6-4.3-28.8-14.1-39.6c-9.7-10.8-23.4-17.3-38-18
						c-14.6-0.8-28.8,4.3-39.6,14.1c-10.8,9.7-17.3,23.4-18,38c0,0.9-0.1,1.9-0.1,2.8c0,13.6,5,26.7,14.2,36.8
						c9.7,10.8,23.4,17.3,38,18C67.3,5.3,81.6,0.2,92.3-9.6C103.2-19.3,109.7-33,110.4-47.5 M52.8,3.6C38.5,2.9,25-3.5,15.5-14.1
						C5.8-24.7,0.8-38.7,1.6-53c1.5-29.8,26.9-52.7,56.7-51.2c28.7,1.5,51.2,25.2,51.3,53.9c0,0.9,0,1.8-0.1,2.8
						c-0.7,14.3-7.1,27.8-17.7,37.3C81.1-0.6,67.1,4.4,52.8,3.6"/>
				</g>
				<g id="Group_3901" transform="translate(26.633 26.633)">
					<path id="Path_446" class="st1" d="M56.6,6.6c-1,0-1.9,0-2.9-0.1C38.9,5.8,24.9-0.8,15-11.8C5.7-22.1,0.6-35.4,0.6-49.3
						c0-1,0-1.9,0.1-2.9C1.4-67,8-80.9,19-90.8c11-10,25.5-15.1,40.3-14.4c14.8,0.7,28.7,7.3,38.7,18.4c10,11,15.1,25.5,14.4,40.3
						C111.6-31.7,105-17.8,94-7.9C83.8,1.5,70.4,6.6,56.6,6.6 M56.5-102.3C28.3-102.3,5-80.2,3.6-52C2.8-38,7.7-24.2,17.2-13.8
						C26.6-3.3,39.8,2.9,53.8,3.6c14,0.8,27.8-4.2,38.2-13.6c10.5-9.4,16.7-22.6,17.4-36.7c0-0.9,0.1-1.8,0.1-2.7
						c0-28.2-22.1-51.5-50.3-52.9C58.3-102.3,57.4-102.4,56.5-102.3"/>
				</g>
				<g id="Group_3902" transform="translate(41.078 41.075)">
					<path id="Path_447" class="st1" d="M83.3-59.6c1.1-10.9-2.2-21.9-9.1-30.4c-6.9-8.5-17-14-28-15c-10.9-1.1-21.9,2.2-30.4,9.1
						c-8.5,6.9-14,17-15,28c-0.1,1.4-0.2,2.8-0.2,4.2c0,21.3,16.1,39.1,37.3,41.2C60.7-20.2,81-36.8,83.3-59.6 M38-23.4
						C17.3-25.6,1.6-43,1.5-63.7c0-1.4,0.1-2.7,0.2-4.1c1.1-10.7,6.3-20.5,14.7-27.3c8.3-6.8,19-10,29.7-8.9
						c20.7,2.1,36.4,19.5,36.5,40.3c0,1.4-0.1,2.7-0.2,4.1C81.3-49,76-39.2,67.7-32.4C59.4-25.5,48.7-22.3,38-23.4"/>
				</g>
				<g id="Group_3903" transform="translate(39.846 39.844)">
					<path id="Path_448" class="st1" d="M43.3-19.8c-1.4,0-2.9-0.1-4.3-0.2C17.2-22.2,0.5-40.6,0.6-62.5c0-1.4,0.1-2.9,0.2-4.3
						c1.1-11.3,6.7-21.6,15.5-28.8c8.8-7.2,20-10.6,31.3-9.4c11.3,1.1,21.6,6.7,28.8,15.5c7.2,8.8,10.6,20,9.4,31.3
						C83.5-36.5,65.2-19.9,43.3-19.8 M39.3-23.4c10.4,1.1,20.8-2,28.8-8.7c8.1-6.6,13.2-16.1,14.3-26.5c0.1-1.3,0.2-2.7,0.2-4
						c0-20.2-15.3-37.1-35.4-39.1c-10.4-1.1-20.7,2-28.8,8.7C10.3-86.4,5.2-76.9,4.2-66.5c-0.1,1.3-0.2,2.7-0.2,4
						C3.9-42.3,19.2-25.4,39.3-23.4L39.3-23.4z"/>
				</g>
				<g id="Group_3904" transform="translate(54.327 54.326)">
					<path id="Path_449" class="st1" d="M56.5-71.4c1.5-7.3,0-15-4.1-21.2c-4.1-6.2-10.6-10.6-17.9-12.1c-7.3-1.5-15,0-21.2,4.1
						C7-96.4,2.6-90,1.2-82.6c-0.4,1.9-0.6,3.8-0.6,5.7c0,5.5,1.6,10.9,4.7,15.5c4.1,6.2,10.6,10.6,17.9,12
						C38.5-46.3,53.4-56.2,56.5-71.4 M23.4-50.3c-7.1-1.4-13.3-5.6-17.3-11.7c-4-6-5.5-13.4-4-20.5c1.4-7.1,5.6-13.3,11.7-17.3
						c6-4,13.4-5.5,20.5-4c7.1,1.4,13.3,5.6,17.3,11.7c3,4.4,4.6,9.7,4.6,15c0,1.8-0.2,3.7-0.5,5.5C52.6-56.9,38.2-47.3,23.4-50.3"
						/>
				</g>
				<g id="Group_3905" transform="translate(52.849 52.847)">
					<path id="Path_450" class="st1" d="M30.3-45.9c-2,0-4-0.2-5.9-0.6C16.7-48,9.9-52.6,5.5-59.1c-3.2-4.8-5-10.5-5-16.4
						c0-2,0.2-4,0.6-5.9c1.5-7.7,6.1-14.5,12.7-18.9c6.6-4.4,14.6-5.9,22.3-4.4c7.7,1.5,14.5,6.1,18.9,12.7
						c4.4,6.6,5.9,14.6,4.4,22.3c-1.5,7.7-6.1,14.5-12.7,18.8C41.9-47.6,36.2-45.9,30.3-45.9 M30.2-101.4c-5.1,0-10,1.5-14.2,4.3
						c-5.7,3.8-9.7,9.7-11,16.4C3.6-74,5-67,8.8-61.3c3.8,5.7,9.7,9.7,16.4,11c14,2.8,27.6-6.2,30.4-20.2c0.3-1.7,0.5-3.4,0.5-5.2
						c0-5.1-1.5-10-4.3-14.2c-3.8-5.7-9.7-9.7-16.4-11C33.7-101.2,32-101.4,30.2-101.4"/>
				</g>
				<g id="Group_3906" transform="translate(66.847 66.837)">
					<path id="Path_451" class="st1" d="M30.3-82.5c3.9-7.7,0.8-17.2-6.9-21.1c-3.7-1.9-8-2.2-12-0.9c-4,1.3-7.2,4.1-9.1,7.8
						c-1.1,2.2-1.7,4.6-1.7,7.1c0,5.9,3.3,11.4,8.6,14C16.9-71.6,26.4-74.7,30.3-82.5 M9.6-76.4C2.4-80-0.6-88.9,3.1-96.2
						c1.8-3.5,4.8-6.2,8.6-7.4c3.7-1.2,7.8-0.9,11.3,0.9c5,2.5,8.1,7.6,8.1,13.2c0,2.3-0.5,4.6-1.6,6.6
						C25.8-75.6,16.9-72.7,9.6-76.4"/>
				</g>
				<g id="Group_3907" transform="translate(65.123 65.112)">
					<path id="Path_452" class="st1" d="M18-70.4c-2.7,0-5.4-0.6-7.8-1.9c-5.9-3-9.6-9-9.6-15.6c0-2.7,0.6-5.4,1.9-7.8
						c2.1-4.1,5.7-7.3,10.1-8.7c4.4-1.5,9.2-1.1,13.3,1c8.6,4.4,12,14.8,7.7,23.4l-0.8-0.4l0.8,0.4c-2.1,4.1-5.7,7.3-10.1,8.7
						C21.7-70.7,19.8-70.4,18-70.4 M12.1-76.2c6.4,3.2,14.3,0.7,17.5-5.8c0.9-1.8,1.4-3.8,1.4-5.9c0-4.9-2.8-9.5-7.2-11.7
						c-3.1-1.6-6.7-1.8-10-0.8c-3.3,1.1-6,3.4-7.6,6.5C3.1-87.3,5.7-79.4,12.1-76.2"/>
				</g>
			</g>
		</g>
	</g>
	<g id="Group_4278" transform="translate(2532.88 921.568)">
		<path id="Path_592" class="st2" d="M-2400.3-346.4h100v-12.9h-100V-346.4z"/>
		<path id="Path_593" class="st1" d="M-2400.3-433.3h100v-12.9h-100V-433.3z"/>
		<path id="Path_594" class="st2" d="M-2400.3-404.3h100v-12.9h-100V-404.3z"/>
		<path id="Path_595" class="st1" d="M-2400.3-375.4h100v-12.9h-100V-375.4z"/>
	</g>
	<path id="Path_908" class="st3" d="M1265.5,245.8c-7.8,0-15.5-1.9-22.5-5.4c-16.9-8.5-27.5-25.8-27.4-44.7c0-7.8,1.8-15.5,5.4-22.5
		c6-11.9,16.4-20.8,29-24.9c12.6-4.2,26.3-3.1,38.1,2.9c24.6,12.5,34.5,42.5,22.1,67.2c-6,11.8-16.4,20.8-29,24.9
		C1276.1,245,1270.8,245.8,1265.5,245.8 M1248.7,229.2c18.4,9.3,40.9,1.9,50.3-16.5c2.7-5.2,4-11,4-16.8
		c0.1-14.2-7.9-27.1-20.5-33.5c-8.9-4.5-19.1-5.3-28.6-2.2c-9.4,3.1-17.3,9.8-21.7,18.7C1222.9,197.4,1230.3,219.9,1248.7,229.2"/>
	<polygon class="st1" points="910.8,720.2 1271.1,-0.2 170.1,-0.2 530.4,720.2 	"/>
</g>
</svg>
