<?xml version="1.0" encoding="utf-8"?>
<!-- Generator: Adobe Illustrator 24.3.0, SVG Export Plug-In . SVG Version: 6.00 Build 0)  -->
<svg version="1.1" id="Layer_1" xmlns="http://www.w3.org/2000/svg" xmlns:xlink="http://www.w3.org/1999/xlink" x="0px" y="0px"
	 width="214.5px" height="214.4px" viewBox="0 0 214.5 214.4" style="enable-background:new 0 0 214.5 214.4;" xml:space="preserve"
	>
<style type="text/css">
	.st0{fill:#FFFFFF;}
</style>
<g id="Group_4435" transform="translate(5047.816 -3702.005)">
	<g id="Group_4433" transform="translate(-4979.918 3777.283)">
		<path id="Path_983" class="st0" d="M79,0H49.3v1.8C59.9,4.6,63.3,15.9,63.3,28h1.8c0-12.2,3.4-23.5,13.9-26.2L79,0z"/>
		<path id="Path_984" class="st0" d="M42.6,62.4c-5.3,0-10.1-1.6-13.1-4.3c-6.8-5.9-5.7-15.7-5.8-27.8c0-1.5,0-2.8,0-4.1
			c0-15.1,0.8-21,10.8-24.3l0.3-0.1l0-1.8H0v1.8C11.1,5.6,11.7,12,11.7,26.3c0,1.5,0,3.1,0,4.8c0,4.1-0.2,12.6-0.2,14.1
			c0,15.4,10.6,25,27.6,25C57.6,70.2,65,58.8,65,40.8h-1.8C63.2,53.2,55.4,62.4,42.6,62.4z"/>
	</g>
	<g id="Group_4434" transform="translate(-5047.817 3702.005)">
		<path id="Path_985" class="st0" d="M34.8,52.9L21.9,42.1l6.8-8.1l1.6,1.3l-5.1,6.2l4.1,3.4l4.3-5.1l1.6,1.3l-4.3,5.1l5.7,4.8
			L34.8,52.9z"/>
		<path id="Path_986" class="st0" d="M49.2,38.2c-1.2,1-2.6,1.7-4.1,2c-1.4,0.2-2.9,0.1-4.2-0.5c-1.5-0.6-2.7-1.6-3.7-2.8
			c-1-1.2-1.8-2.6-2.1-4.1c-0.3-1.4-0.2-2.9,0.3-4.2c0.5-1.4,1.4-2.7,2.6-3.7c1.1-1,2.6-1.7,4.1-2c1.4-0.2,2.9-0.1,4.2,0.5
			C47.7,24,49,25,50,26.2c1,1.2,1.8,2.6,2.1,4.1c0.3,1.4,0.2,2.9-0.3,4.2C51.3,36,50.4,37.3,49.2,38.2z M47.8,36.5
			c0.8-0.7,1.5-1.5,1.8-2.5c0.3-1,0.4-2,0.1-3c-0.3-1.1-0.9-2.2-1.7-3.1c-0.7-0.9-1.7-1.7-2.8-2.2c-0.9-0.4-2-0.6-3-0.4
			c-1,0.2-2,0.7-2.8,1.4c-0.8,0.7-1.5,1.5-1.8,2.5c-0.3,1-0.4,2-0.1,3c0.3,1.1,0.9,2.2,1.7,3.1c0.7,0.9,1.7,1.7,2.8,2.2
			c0.9,0.4,2,0.6,3,0.4C46,37.7,47,37.2,47.8,36.5L47.8,36.5z"/>
		<path id="Path_987" class="st0" d="M57.7,31.3l-8.3-14.6l5-2.9c1-0.6,2.1-1,3.2-1c0.9-0.1,1.8,0.2,2.6,0.6
			c0.8,0.5,1.4,1.1,1.8,1.9c0.5,0.9,0.7,1.9,0.7,2.9c-0.1,1.1-0.6,2.1-1.3,2.9l6.7,4.4L65.4,27l-6.2-4.3l-2.6,1.5l3.4,5.9L57.7,31.3
			z M55.6,22.5l2.7-1.5c0.8-0.4,1.5-1.1,1.8-2c0.2-0.8,0-1.6-0.4-2.3c-0.4-0.7-1-1.2-1.8-1.5c-0.9-0.2-1.9,0-2.6,0.6l-2.7,1.5
			L55.6,22.5z"/>
		<path id="Path_988" class="st0" d="M76.3,22L71.6,5.8l6.1-1.8c1.3-0.5,2.8-0.5,4.2,0.1c1.1,0.5,1.9,1.4,2.2,2.6
			c0.3,0.9,0.3,1.9-0.1,2.7c-0.4,0.8-0.9,1.4-1.6,1.8c0.6-0.1,1.3,0,1.9,0.3c0.6,0.2,1.1,0.6,1.5,1c0.4,0.5,0.8,1.1,0.9,1.7
			c0.2,0.8,0.3,1.6,0,2.4c-0.2,0.8-0.7,1.5-1.3,2.1c-0.8,0.7-1.7,1.2-2.7,1.4L76.3,22z M76.1,12.1l3.4-1c0.8-0.2,1.5-0.6,2-1.3
			c0.4-0.6,0.4-1.4,0.2-2c-0.2-0.7-0.6-1.3-1.3-1.6c-0.8-0.3-1.6-0.3-2.4,0l-3.3,1L76.1,12.1z M78.2,19.3l3.5-1
			c0.8-0.2,1.6-0.7,2.1-1.4c0.4-0.6,0.5-1.5,0.3-2.2c-0.2-0.8-0.7-1.4-1.4-1.7c-0.8-0.3-1.7-0.3-2.5-0.1l-3.5,1L78.2,19.3z"/>
		<path id="Path_989" class="st0" d="M90.6,18.1l-2-16.7l5.8-0.7c1.1-0.2,2.3-0.1,3.3,0.3c0.8,0.3,1.6,0.8,2.1,1.6
			c0.5,0.7,0.8,1.6,0.9,2.4c0.1,1,0,2-0.5,2.9c-0.5,1-1.3,1.7-2.3,2.1l4.4,6.7l-2.9,0.4l-4.1-6.3l-3,0.4l0.8,6.7L90.6,18.1z M92,9.2
			l3.1-0.4c0.9,0,1.8-0.4,2.4-1.1C98,7,98.2,6.2,98.1,5.4c-0.1-0.8-0.4-1.5-1.1-2c-0.8-0.5-1.7-0.7-2.7-0.5l-3.1,0.4L92,9.2z"/>
		<path id="Path_990" class="st0" d="M103.8,16.5l7-16.5l2.8,0.1l5.4,17.1l-2.7-0.1l-1.3-4.2l-6.9-0.3l-1.6,4L103.8,16.5z M109,10.6
			l5.4,0.2L112,3.1L109,10.6z"/>
		<path id="Path_991" class="st0" d="M121.1,17.6l3.8-16.4l2.5,0.6l5.4,14.3l2.9-12.4l2.5,0.6l-3.8,16.4l-2.5-0.6l-5.4-14.3
			l-2.9,12.4L121.1,17.6z"/>
		<path id="Path_992" class="st0" d="M137.3,21.7l6.8-15.4l5,2.2c1.6,0.6,3,1.6,4,2.9c0.9,1.1,1.4,2.4,1.4,3.8c0,1.5-0.3,3.1-1,4.5
			c-0.6,1.4-1.5,2.7-2.6,3.7c-1.1,0.9-2.4,1.4-3.8,1.5c-1.7,0.1-3.4-0.3-4.9-1L137.3,21.7z M140.6,20.7l2.6,1.1
			c1.1,0.6,2.4,0.8,3.6,0.8c1-0.1,1.9-0.5,2.6-1.2c0.8-0.8,1.5-1.8,1.9-2.8c0.5-1,0.8-2.2,0.8-3.3c0-1-0.3-2-0.9-2.8
			c-0.8-1-1.8-1.7-3-2.2l-2.6-1.1L140.6,20.7z"/>
		<path id="Path_993" class="st0" d="M157,32.1c-0.9-0.6-1.7-1.4-2.3-2.3c-0.5-0.8-0.8-1.8-0.8-2.7c0-1,0.3-2,0.9-2.8l2.2,1.5
			c-0.5,0.7-0.6,1.6-0.5,2.4c0.2,0.9,0.8,1.7,1.6,2.2c0.7,0.5,1.5,0.7,2.3,0.7c0.7-0.1,1.3-0.5,1.7-1.1c0.3-0.4,0.5-0.9,0.5-1.4
			c0-0.5-0.2-0.9-0.4-1.4c-0.3-0.5-0.6-1-1-1.4c-0.4-0.5-0.8-1-1.2-1.6c-0.7-0.9-1.3-1.9-1.5-3c-0.1-1,0.1-2,0.7-2.8
			c0.5-0.7,1.1-1.3,1.9-1.7c0.8-0.3,1.7-0.4,2.5-0.3c1,0.2,1.9,0.5,2.7,1.1c0.8,0.5,1.5,1.2,2.1,2.1c0.5,0.7,0.7,1.6,0.7,2.5
			c0,0.9-0.3,1.7-0.8,2.5l-2.2-1.5c0.2-0.4,0.4-0.8,0.4-1.2c0-0.5-0.1-0.9-0.3-1.4c-0.3-0.5-0.6-0.9-1.1-1.2c-0.6-0.4-1.3-0.6-2-0.6
			c-0.7,0.1-1.3,0.4-1.6,1c-0.3,0.5-0.5,1-0.4,1.6c0.2,0.6,0.5,1.1,0.8,1.6c0.4,0.6,0.9,1.2,1.5,1.9c0.5,0.6,1,1.3,1.3,2.1
			c0.3,0.7,0.5,1.4,0.5,2.1c-0.1,0.8-0.3,1.6-0.8,2.3c-0.5,0.7-1.1,1.3-1.9,1.6c-0.8,0.4-1.7,0.5-2.6,0.4
			C159,33.2,157.9,32.8,157,32.1z"/>
		<path id="Path_994" class="st0" d="M171.6,43.8l10.7-10.2l-3.4-3.6l1.5-1.4l8.6,9l-1.5,1.4l-3.4-3.6l-10.7,10.2L171.6,43.8z"/>
		<path id="Path_995" class="st0" d="M178.2,50.9l13.9-9.5l1.4,2.1l-6,4.1l4.6,6.8l6-4.1l1.4,2.1l-13.9,9.5l-1.4-2.1l6.2-4.2
			l-4.6-6.8l-6.2,4.2L178.2,50.9z"/>
		<path id="Path_996" class="st0" d="M186.8,63.8l17.9-1.1l1.1,2.6l-12.9,12.4l-1.1-2.5l3.2-3l-2.8-6.3l-4.3,0.3L186.8,63.8z
			 M194.4,65.8l2.2,5l5.9-5.6L194.4,65.8z"/>
		<path id="Path_997" class="st0" d="M193.9,81.9l14.3-3.9l-1.3-4.8l2-0.5l3.3,12l-2,0.5l-1.3-4.8l-14.3,3.9L193.9,81.9z"/>
		<path id="Path_998" class="st0" d="M197.5,100.9l16.9-4.3l0,2.7l-14,3.1l13.9,4.1l0,2.8l-14,3.5l13.9,3.6l0,2.7l-16.8-4.9l0-3
			l13.3-3.5l-13.1-4L197.5,100.9z"/>
		<path id="Path_999" class="st0" d="M197.1,118.2l15.2,9.5l-0.6,2.7l-17.8,2.6l0.6-2.6l4.3-0.6l1.4-6.7l-3.7-2.3L197.1,118.2z
			 M202.1,124.2l-1.1,5.3l8.1-1.1L202.1,124.2z"/>
		<path id="Path_1000" class="st0" d="M193.3,135.2l15.6,6.4l-1,2.4l-14.9,3l11.7,4.8l-1,2.4l-15.6-6.4l1-2.4l14.9-3l-11.7-4.8
			L193.3,135.2z"/>
		<path id="Path_1001" class="st0" d="M184.4,153.8l12.5,7.8l2.6-4.2l1.8,1.1l-6.6,10.6l-1.8-1.1l2.6-4.2l-12.5-7.8L184.4,153.8z"/>
		<path id="Path_1002" class="st0" d="M172.2,169.7l10.5,10.4l3.5-3.5l1.5,1.5l-8.8,8.9l-1.5-1.5l3.5-3.5l-10.5-10.4L172.2,169.7z"
			/>
		<path id="Path_1003" class="st0" d="M159.4,180.4c1.2-0.9,2.7-1.5,4.2-1.6c1.4-0.1,2.9,0.1,4.2,0.8c1.4,0.7,2.6,1.8,3.5,3.1
			c0.9,1.3,1.6,2.7,1.8,4.3c0.2,1.4,0,2.9-0.6,4.2c-0.6,1.4-1.7,2.6-2.9,3.4c-1.2,0.9-2.7,1.5-4.2,1.6c-1.4,0.1-2.9-0.1-4.2-0.8
			c-1.4-0.7-2.6-1.8-3.5-3.1c-0.9-1.3-1.6-2.7-1.8-4.3c-0.2-1.4,0-2.9,0.6-4.2C157.1,182.4,158.1,181.2,159.4,180.4z M160.7,182.2
			c-0.9,0.6-1.6,1.4-2,2.4c-0.4,0.9-0.5,2-0.4,3c0.2,1.2,0.7,2.3,1.4,3.2c0.7,1,1.6,1.8,2.6,2.4c0.9,0.5,1.9,0.7,2.9,0.6
			c1.1-0.1,2.1-0.5,2.9-1.1c0.9-0.6,1.6-1.4,2-2.4c0.4-0.9,0.5-2,0.3-3c-0.2-1.2-0.7-2.3-1.4-3.2c-0.7-1-1.5-1.8-2.6-2.4
			c-0.9-0.5-1.9-0.7-2.9-0.6C162.6,181.2,161.6,181.6,160.7,182.2L160.7,182.2z"/>
		<path id="Path_1004" class="st0" d="M139.4,191.1c1-0.4,2.1-0.6,3.3-0.6c1,0.1,1.9,0.4,2.7,0.9c0.8,0.6,1.4,1.4,1.8,2.4l-2.5,1
			c-0.3-0.8-0.9-1.5-1.7-1.8c-0.9-0.4-1.9-0.3-2.7,0.1c-0.8,0.3-1.5,0.8-1.9,1.5c-0.3,0.6-0.4,1.3-0.1,2c0.2,0.5,0.5,0.9,0.9,1.2
			c0.4,0.3,0.9,0.4,1.3,0.5c0.6,0.1,1.1,0.1,1.7,0c0.6,0,1.3-0.1,2-0.1c1.1-0.1,2.3,0.1,3.3,0.5c0.9,0.5,1.6,1.2,1.9,2.2
			c0.3,0.8,0.4,1.7,0.3,2.6c-0.2,0.8-0.6,1.6-1.2,2.2c-0.7,0.7-1.6,1.3-2.5,1.6c-0.9,0.4-1.9,0.5-2.9,0.5c-0.9-0.1-1.7-0.4-2.4-0.9
			c-0.7-0.5-1.3-1.2-1.6-2.1l2.5-1c0.2,0.4,0.4,0.8,0.8,1c0.4,0.3,0.8,0.5,1.3,0.6c0.5,0.1,1.1,0,1.6-0.2c0.7-0.2,1.3-0.7,1.6-1.3
			c0.3-0.6,0.4-1.3,0.1-1.9c-0.2-0.5-0.6-1-1.1-1.2c-0.6-0.2-1.2-0.3-1.8-0.2c-0.7,0-1.5,0.1-2.4,0.1c-0.8,0-1.6,0-2.4-0.1
			c-0.7-0.1-1.4-0.4-2-0.8c-0.6-0.5-1.1-1.2-1.4-2c-0.3-0.8-0.4-1.6-0.2-2.4c0.2-0.9,0.6-1.7,1.2-2.4
			C137.4,192.1,138.3,191.5,139.4,191.1z"/>
		<path id="Path_1005" class="st0" d="M131.5,194.3l3.3,16.5l-2.5,0.5l-1.4-7.1l-8,1.6l1.4,7.1l-2.5,0.5l-3.3-16.5l2.5-0.5l1.5,7.4
			l8-1.6l-1.5-7.4L131.5,194.3z"/>
		<path id="Path_1006" class="st0" d="M115.1,197l1.2,16.8l-2.5,0.2l-1.2-16.8L115.1,197z"/>
		<path id="Path_1007" class="st0" d="M109.1,197.6l-0.9,16.8l-2.5-0.1l-7.8-13.1l-0.7,12.7l-2.5-0.1l0.9-16.8l2.5,0.1l7.8,13.1
			l0.7-12.7L109.1,197.6z"/>
		<path id="Path_1008" class="st0" d="M92.4,196.3l-3.7,16.4l-10.5-2.3l0.5-2l8,1.8l1.1-5.1l-7.3-1.6l0.4-2l7.3,1.6l1.2-5.3l-8-1.8
			l0.5-2L92.4,196.3z"/>
		<path id="Path_1009" class="st0" d="M66.4,187.3c1.4,0.7,2.6,1.7,3.4,3c0.8,1.2,1.2,2.6,1.2,4.1c0,1.6-0.4,3.1-1.1,4.5
			c-0.7,1.4-1.7,2.6-3,3.6c-1.2,0.8-2.6,1.3-4,1.4c-1.5,0.1-3.1-0.3-4.4-1c-1.4-0.7-2.6-1.7-3.4-3c-0.8-1.2-1.2-2.6-1.2-4.1
			c0-1.6,0.4-3.1,1.1-4.5c0.7-1.4,1.7-2.6,3-3.6c1.2-0.8,2.6-1.3,4-1.4C63.5,186.2,65.1,186.6,66.4,187.3z M65.4,189.3
			c-0.9-0.5-2-0.7-3-0.7c-1,0.1-2,0.4-2.8,1.1c-0.9,0.7-1.7,1.7-2.2,2.7c-0.6,1-0.9,2.2-0.9,3.4c0,1,0.2,2,0.8,2.9
			c0.6,0.9,1.4,1.6,2.3,2.1c0.9,0.5,2,0.7,3.1,0.7c1-0.1,2-0.4,2.8-1.1c0.9-0.7,1.7-1.7,2.2-2.7c0.6-1,0.9-2.2,0.9-3.4
			c0-1-0.2-2-0.8-2.9C67.1,190.5,66.3,189.8,65.4,189.3L65.4,189.3z"/>
		<path id="Path_1010" class="st0" d="M56.7,182.2l-10.4,13.2l-2-1.6l1.2-15.2l-7.8,10l-2-1.6l10.4-13.2l2,1.6l-1.2,15.2l7.8-10
			L56.7,182.2z"/>
		<path id="Path_1011" class="st0" d="M40.1,167.9l-17.2,5.3l-1.7-2.2l9.6-15.1l1.6,2.1l-2.4,3.6l4.2,5.5l4.1-1.4L40.1,167.9z
			 M32.3,167.8l-3.3-4.3l-4.4,6.8L32.3,167.8z"/>
		<path id="Path_1012" class="st0" d="M29.6,154.1l-15.2,7.3l-1.3-2.7l7.6-10l-12.6-0.2l-1.3-2.7l15.2-7.3l1.1,2.3L12,146.1
			l11.3,0.3l0.9,1.8l-6.8,9l11.2-5.4L29.6,154.1z"/>
		<path id="Path_1013" class="st0" d="M21.5,136.4l-17.9-1.9l-0.7-2.7l14.8-10.1l0.7,2.6l-3.6,2.4l1.7,6.7l4.3,0.4L21.5,136.4z
			 M14.3,133.2l-1.3-5.3l-6.8,4.5L14.3,133.2z"/>
		<path id="Path_1014" class="st0" d="M17.7,120.2l-2,0.2l-13.3-7l0.7,7.9l-2.2,0.2L0,110.6l2-0.2l13.3,7l-0.7-8.1l2.2-0.2
			L17.7,120.2z"/>
		<path id="Path_1015" class="st0" d="M17.6,99.2c-0.1,1.5-0.6,3-1.5,4.3c-0.8,1.2-2,2.1-3.3,2.7c-1.5,0.6-3,0.8-4.6,0.7
			c-1.6-0.1-3.1-0.6-4.4-1.4c-1.2-0.8-2.2-1.9-2.8-3.2c-0.6-1.4-0.9-2.9-0.7-4.5c0.1-1.5,0.6-3,1.5-4.3c0.8-1.2,2-2.1,3.3-2.6
			c1.5-0.6,3-0.8,4.6-0.7c1.6,0.1,3.1,0.6,4.4,1.4c1.2,0.8,2.2,1.9,2.8,3.2C17.5,96.1,17.7,97.7,17.6,99.2z M15.3,99
			c0.1-1.1-0.1-2.1-0.5-3.1c-0.4-0.9-1.2-1.7-2-2.2c-1-0.6-2.2-0.9-3.4-1c-1.2-0.1-2.4,0-3.5,0.4c-1,0.4-1.8,1-2.4,1.8
			c-0.6,0.9-1,1.9-1,2.9C2.4,99,2.5,100,3,101c0.4,0.9,1.2,1.7,2,2.2c1,0.6,2.2,0.9,3.4,1c1.2,0.1,2.4,0,3.5-0.4
			c1-0.4,1.8-1,2.4-1.8C14.8,101.1,15.2,100.1,15.3,99L15.3,99z"/>
		<path id="Path_1016" class="st0" d="M18.6,88.3L2.4,83.6l0.7-2.5l14.5-4.6L5.5,73.1l0.7-2.4l16.2,4.7l-0.7,2.5L7.1,82.3l12.2,3.5
			L18.6,88.3z"/>
		<path id="Path_1017" class="st0" d="M23.4,61.8c-0.3,0.5-0.6,0.9-1.1,1.2c-0.5,0.3-1,0.4-1.5,0.5c-0.5,0-1.1-0.1-1.6-0.4
			c-0.5-0.3-0.9-0.6-1.2-1.1c-0.3-0.5-0.4-1-0.4-1.5c0-0.5,0.1-1.1,0.4-1.5c0.3-0.5,0.6-0.9,1.1-1.2c0.5-0.3,1-0.4,1.5-0.4
			c0.5,0,1.1,0.1,1.6,0.4c0.5,0.3,0.9,0.6,1.2,1.1c0.3,0.5,0.4,1,0.4,1.5C23.8,60.8,23.7,61.3,23.4,61.8z"/>
	</g>
</g>
</svg>
